<?xml version="1.0" encoding="UTF-8" standalone="no"?>
<!DOCTYPE svg PUBLIC "-//W3C//DTD SVG 1.1//EN"
 "http://www.w3.org/Graphics/SVG/1.1/DTD/svg11.dtd">
<!-- Generated by graphviz version 2.40.1 (20161225.0304)
 -->
<!-- Title: compactRelationshipsDiagram Pages: 1 -->
<svg width="891pt" height="599pt"
 viewBox="0.00 0.00 891.00 599.20" xmlns="http://www.w3.org/2000/svg" xmlns:xlink="http://www.w3.org/1999/xlink">
<g id="graph0" class="graph" transform="scale(1 1) rotate(0) translate(4 595.2)">
<title>compactRelationshipsDiagram</title>
<polygon fill="#ffffff" stroke="transparent" points="-4,4 -4,-595.2 887,-595.2 887,4 -4,4"/>
<text text-anchor="middle" x="72.4936" y="-7.3" font-family="Helvetica,sans-Serif" font-size="11.00" fill="#000000">Generated by SchemaSpy</text>
<!-- CONTACTS -->
<g id="node1" class="node">
<title>CONTACTS</title>
<g id="a_node1"><a xlink:href="../../tables/CONTACTS.html" xlink:title="CONTACTS" target="_top">
<polygon fill="#ffffff" stroke="transparent" points="579,-482.2 579,-587.2 687,-587.2 687,-482.2 579,-482.2"/>
<polygon fill="#f5f5f5" stroke="transparent" points="579,-563.7 579,-586.7 687,-586.7 687,-563.7 579,-563.7"/>
<polygon fill="none" stroke="#000000" points="579,-563.7 579,-586.7 687,-586.7 687,-563.7 579,-563.7"/>
<text text-anchor="start" x="584" y="-572.8" font-family="Helvetica,sans-Serif" font-weight="bold" font-size="11.00" fill="#000000">CONTACTS</text>
<text text-anchor="start" x="652.0437" y="-571.8" font-family="Helvetica,sans-Serif" font-size="11.00" fill="#000000">[table]</text>
<polygon fill="none" stroke="#000000" points="579,-541.7 579,-563.7 687,-563.7 687,-541.7 579,-541.7"/>
<image xlink:href="../../images/primaryKeys.png" width="11px" height="12px" preserveAspectRatio="xMinYMin meet" x="584" y="-558.7"/>
<text text-anchor="start" x="599" y="-548.8" font-family="Helvetica,sans-Serif" font-size="11.00" fill="#000000">CONTACT_ID</text>
<polygon fill="none" stroke="#000000" points="579,-519.7 579,-541.7 687,-541.7 687,-519.7 579,-519.7"/>
<image xlink:href="../../images/foreignKeys.png" width="11px" height="12px" preserveAspectRatio="xMinYMin meet" x="584" y="-536.7"/>
<text text-anchor="start" x="599" y="-526.8" font-family="Helvetica,sans-Serif" font-size="11.00" fill="#000000">CUSTOMER_ID</text>
<polygon fill="none" stroke="#000000" points="579,-500.7 579,-519.7 687,-519.7 687,-500.7 579,-500.7"/>
<text text-anchor="start" x="582" y="-506.8" font-family="Helvetica,sans-Serif" font-size="11.00" fill="#000000">...</text>
<polygon fill="#ffffff" stroke="transparent" points="579,-481.7 579,-500.7 618,-500.7 618,-481.7 579,-481.7"/>
<polygon fill="none" stroke="#000000" points="579,-481.7 579,-500.7 618,-500.7 618,-481.7 579,-481.7"/>
<text text-anchor="start" x="582" y="-487.8" font-family="Helvetica,sans-Serif" font-size="11.00" fill="#000000">&lt; 1</text>
<polygon fill="#ffffff" stroke="transparent" points="618,-481.7 618,-500.7 665,-500.7 665,-481.7 618,-481.7"/>
<polygon fill="none" stroke="#000000" points="618,-481.7 618,-500.7 665,-500.7 665,-481.7 618,-481.7"/>
<text text-anchor="start" x="629.6105" y="-487.8" font-family="Helvetica,sans-Serif" font-size="11.00" fill="#000000">0 rows</text>
<polygon fill="#ffffff" stroke="transparent" points="665,-481.7 665,-500.7 687,-500.7 687,-481.7 665,-481.7"/>
<polygon fill="none" stroke="#000000" points="665,-481.7 665,-500.7 687,-500.7 687,-481.7 665,-481.7"/>
<text text-anchor="start" x="677.8862" y="-487.8" font-family="Helvetica,sans-Serif" font-size="11.00" fill="#000000"> &#160;</text>
</a>
</g>
</g>
<!-- CUSTOMERS -->
<g id="node3" class="node">
<title>CUSTOMERS</title>
<g id="a_node3"><a xlink:href="../../tables/CUSTOMERS.html" xlink:title="CUSTOMERS" target="_top">
<polygon fill="#ffffff" stroke="transparent" points="369,-469.2 369,-552.2 482,-552.2 482,-469.2 369,-469.2"/>
<polygon fill="#f5f5f5" stroke="transparent" points="369.5,-528.7 369.5,-551.7 482.5,-551.7 482.5,-528.7 369.5,-528.7"/>
<polygon fill="none" stroke="#000000" points="369.5,-528.7 369.5,-551.7 482.5,-551.7 482.5,-528.7 369.5,-528.7"/>
<text text-anchor="start" x="374.3655" y="-537.8" font-family="Helvetica,sans-Serif" font-weight="bold" font-size="11.00" fill="#000000">CUSTOMERS</text>
<text text-anchor="start" x="448.0219" y="-536.8" font-family="Helvetica,sans-Serif" font-size="11.00" fill="#000000">[table]</text>
<polygon fill="none" stroke="#000000" points="369.5,-506.7 369.5,-528.7 482.5,-528.7 482.5,-506.7 369.5,-506.7"/>
<image xlink:href="../../images/primaryKeys.png" width="11px" height="12px" preserveAspectRatio="xMinYMin meet" x="374.5" y="-523.7"/>
<text text-anchor="start" x="392.5" y="-513.8" font-family="Helvetica,sans-Serif" font-size="11.00" fill="#000000">CUSTOMER_ID</text>
<polygon fill="none" stroke="#000000" points="369.5,-487.7 369.5,-506.7 482.5,-506.7 482.5,-487.7 369.5,-487.7"/>
<text text-anchor="start" x="372.5" y="-493.8" font-family="Helvetica,sans-Serif" font-size="11.00" fill="#000000">...</text>
<polygon fill="#ffffff" stroke="transparent" points="369.5,-468.7 369.5,-487.7 402.5,-487.7 402.5,-468.7 369.5,-468.7"/>
<polygon fill="none" stroke="#000000" points="369.5,-468.7 369.5,-487.7 402.5,-487.7 402.5,-468.7 369.5,-468.7"/>
<text text-anchor="start" x="372.5" y="-474.8" font-family="Helvetica,sans-Serif" font-size="11.00" fill="#000000"> &#160;</text>
<polygon fill="#ffffff" stroke="transparent" points="402.5,-468.7 402.5,-487.7 450.5,-487.7 450.5,-468.7 402.5,-468.7"/>
<polygon fill="none" stroke="#000000" points="402.5,-468.7 402.5,-487.7 450.5,-487.7 450.5,-468.7 402.5,-468.7"/>
<text text-anchor="start" x="415.1105" y="-474.8" font-family="Helvetica,sans-Serif" font-size="11.00" fill="#000000">0 rows</text>
<polygon fill="#ffffff" stroke="transparent" points="450.5,-468.7 450.5,-487.7 482.5,-487.7 482.5,-468.7 450.5,-468.7"/>
<polygon fill="none" stroke="#000000" points="450.5,-468.7 450.5,-487.7 482.5,-487.7 482.5,-468.7 450.5,-468.7"/>
<text text-anchor="start" x="463.9053" y="-474.8" font-family="Helvetica,sans-Serif" font-size="11.00" fill="#000000">2 &gt;</text>
</a>
</g>
</g>
<!-- CONTACTS&#45;&gt;CUSTOMERS -->
<g id="edge1" class="edge">
<title>CONTACTS:w&#45;&gt;CUSTOMERS:e</title>
<path fill="none" stroke="#000000" d="M564.2035,-530.1414C532.7161,-527.6531 520.3668,-517.7 482.5,-517.7"/>
<polygon fill="#000000" stroke="#000000" points="571.0057,-530.3981 578.8642,-534.2974 575.0028,-530.5491 579,-530.7 579,-530.7 579,-530.7 575.0028,-530.5491 579.1358,-527.1026 571.0057,-530.3981 571.0057,-530.3981"/>
<ellipse fill="none" stroke="#000000" cx="567.808" cy="-530.2774" rx="3.2" ry="3.2"/>
</g>
<!-- COUNTRIES -->
<g id="node2" class="node">
<title>COUNTRIES</title>
<g id="a_node2"><a xlink:href="../../tables/COUNTRIES.html" xlink:title="COUNTRIES" target="_top">
<polygon fill="#ffffff" stroke="transparent" points="167,-38.2 167,-143.2 289,-143.2 289,-38.2 167,-38.2"/>
<polygon fill="#f5f5f5" stroke="transparent" points="167,-119.7 167,-142.7 289,-142.7 289,-119.7 167,-119.7"/>
<polygon fill="none" stroke="#000000" points="167,-119.7 167,-142.7 289,-142.7 289,-119.7 167,-119.7"/>
<text text-anchor="start" x="172" y="-128.8" font-family="Helvetica,sans-Serif" font-weight="bold" font-size="11.00" fill="#000000">COUNTRIES</text>
<text text-anchor="start" x="254.0437" y="-127.8" font-family="Helvetica,sans-Serif" font-size="11.00" fill="#000000">[table]</text>
<polygon fill="none" stroke="#000000" points="167,-97.7 167,-119.7 289,-119.7 289,-97.7 167,-97.7"/>
<image xlink:href="../../images/primaryKeys.png" width="11px" height="12px" preserveAspectRatio="xMinYMin meet" x="172" y="-114.7"/>
<text text-anchor="start" x="187" y="-104.8" font-family="Helvetica,sans-Serif" font-size="11.00" fill="#000000">COUNTRY_ID</text>
<polygon fill="none" stroke="#000000" points="167,-75.7 167,-97.7 289,-97.7 289,-75.7 167,-75.7"/>
<image xlink:href="../../images/foreignKeys.png" width="11px" height="12px" preserveAspectRatio="xMinYMin meet" x="172" y="-92.7"/>
<text text-anchor="start" x="187" y="-82.8" font-family="Helvetica,sans-Serif" font-size="11.00" fill="#000000">REGION_ID</text>
<polygon fill="none" stroke="#000000" points="167,-56.7 167,-75.7 289,-75.7 289,-56.7 167,-56.7"/>
<text text-anchor="start" x="170" y="-62.8" font-family="Helvetica,sans-Serif" font-size="11.00" fill="#000000">...</text>
<polygon fill="#ffffff" stroke="transparent" points="167,-37.7 167,-56.7 209,-56.7 209,-37.7 167,-37.7"/>
<polygon fill="none" stroke="#000000" points="167,-37.7 167,-56.7 209,-56.7 209,-37.7 167,-37.7"/>
<text text-anchor="start" x="170" y="-43.8" font-family="Helvetica,sans-Serif" font-size="11.00" fill="#000000">&lt; 1</text>
<polygon fill="#ffffff" stroke="transparent" points="209,-37.7 209,-56.7 257,-56.7 257,-37.7 209,-37.7"/>
<polygon fill="none" stroke="#000000" points="209,-37.7 209,-56.7 257,-56.7 257,-37.7 209,-37.7"/>
<text text-anchor="start" x="221.6105" y="-43.8" font-family="Helvetica,sans-Serif" font-size="11.00" fill="#000000">0 rows</text>
<polygon fill="#ffffff" stroke="transparent" points="257,-37.7 257,-56.7 289,-56.7 289,-37.7 257,-37.7"/>
<polygon fill="none" stroke="#000000" points="257,-37.7 257,-56.7 289,-56.7 289,-37.7 257,-37.7"/>
<text text-anchor="start" x="270.4053" y="-43.8" font-family="Helvetica,sans-Serif" font-size="11.00" fill="#000000">1 &gt;</text>
</a>
</g>
</g>
<!-- REGIONS -->
<g id="node11" class="node">
<title>REGIONS</title>
<g id="a_node11"><a xlink:href="../../tables/REGIONS.html" xlink:title="REGIONS" target="_top">
<polygon fill="#ffffff" stroke="transparent" points="8,-38.2 8,-121.2 118,-121.2 118,-38.2 8,-38.2"/>
<polygon fill="#f5f5f5" stroke="transparent" points="8,-97.7 8,-120.7 118,-120.7 118,-97.7 8,-97.7"/>
<polygon fill="none" stroke="#000000" points="8,-97.7 8,-120.7 118,-120.7 118,-97.7 8,-97.7"/>
<text text-anchor="start" x="13" y="-106.8" font-family="Helvetica,sans-Serif" font-weight="bold" font-size="11.00" fill="#000000">REGIONS</text>
<text text-anchor="start" x="83.0437" y="-105.8" font-family="Helvetica,sans-Serif" font-size="11.00" fill="#000000">[table]</text>
<polygon fill="none" stroke="#000000" points="8,-75.7 8,-97.7 118,-97.7 118,-75.7 8,-75.7"/>
<image xlink:href="../../images/primaryKeys.png" width="11px" height="12px" preserveAspectRatio="xMinYMin meet" x="13" y="-92.7"/>
<text text-anchor="start" x="28" y="-82.8" font-family="Helvetica,sans-Serif" font-size="11.00" fill="#000000">REGION_ID</text>
<polygon fill="none" stroke="#000000" points="8,-56.7 8,-75.7 118,-75.7 118,-56.7 8,-56.7"/>
<text text-anchor="start" x="11" y="-62.8" font-family="Helvetica,sans-Serif" font-size="11.00" fill="#000000">...</text>
<polygon fill="#ffffff" stroke="transparent" points="8,-37.7 8,-56.7 39,-56.7 39,-37.7 8,-37.7"/>
<polygon fill="none" stroke="#000000" points="8,-37.7 8,-56.7 39,-56.7 39,-37.7 8,-37.7"/>
<text text-anchor="start" x="11" y="-43.8" font-family="Helvetica,sans-Serif" font-size="11.00" fill="#000000"> &#160;</text>
<polygon fill="#ffffff" stroke="transparent" points="39,-37.7 39,-56.7 87,-56.7 87,-37.7 39,-37.7"/>
<polygon fill="none" stroke="#000000" points="39,-37.7 39,-56.7 87,-56.7 87,-37.7 39,-37.7"/>
<text text-anchor="start" x="51.6105" y="-43.8" font-family="Helvetica,sans-Serif" font-size="11.00" fill="#000000">0 rows</text>
<polygon fill="#ffffff" stroke="transparent" points="87,-37.7 87,-56.7 118,-56.7 118,-37.7 87,-37.7"/>
<polygon fill="none" stroke="#000000" points="87,-37.7 87,-56.7 118,-56.7 118,-37.7 87,-37.7"/>
<text text-anchor="start" x="99.4053" y="-43.8" font-family="Helvetica,sans-Serif" font-size="11.00" fill="#000000">1 &gt;</text>
</a>
</g>
</g>
<!-- COUNTRIES&#45;&gt;REGIONS -->
<g id="edge2" class="edge">
<title>COUNTRIES:w&#45;&gt;REGIONS:e</title>
<path fill="none" stroke="#000000" d="M152.4909,-86.7C141.1774,-86.7 133.9931,-86.7 118,-86.7"/>
<polygon fill="#000000" stroke="#000000" points="159,-86.7001 167,-90.3 163,-86.7 167,-86.7 167,-86.7 167,-86.7 163,-86.7 167,-83.1 159,-86.7001 159,-86.7001"/>
<ellipse fill="none" stroke="#000000" cx="155.8" cy="-86.7001" rx="3.2" ry="3.2"/>
</g>
<!-- EMPLOYEES -->
<g id="node4" class="node">
<title>EMPLOYEES</title>
<g id="a_node4"><a xlink:href="../../tables/EMPLOYEES.html" xlink:title="EMPLOYEES" target="_top">
<polygon fill="#ffffff" stroke="transparent" points="370.5,-312.2 370.5,-417.2 480.5,-417.2 480.5,-312.2 370.5,-312.2"/>
<polygon fill="#f5f5f5" stroke="transparent" points="370.5,-393.7 370.5,-416.7 480.5,-416.7 480.5,-393.7 370.5,-393.7"/>
<polygon fill="none" stroke="#000000" points="370.5,-393.7 370.5,-416.7 480.5,-416.7 480.5,-393.7 370.5,-393.7"/>
<text text-anchor="start" x="375.0755" y="-402.8" font-family="Helvetica,sans-Serif" font-weight="bold" font-size="11.00" fill="#000000">EMPLOYEES</text>
<text text-anchor="start" x="446.0219" y="-401.8" font-family="Helvetica,sans-Serif" font-size="11.00" fill="#000000">[table]</text>
<polygon fill="none" stroke="#000000" points="370.5,-371.7 370.5,-393.7 480.5,-393.7 480.5,-371.7 370.5,-371.7"/>
<image xlink:href="../../images/primaryKeys.png" width="11px" height="12px" preserveAspectRatio="xMinYMin meet" x="375.5" y="-388.7"/>
<text text-anchor="start" x="392.5" y="-378.8" font-family="Helvetica,sans-Serif" font-size="11.00" fill="#000000">EMPLOYEE_ID</text>
<polygon fill="none" stroke="#000000" points="370.5,-349.7 370.5,-371.7 480.5,-371.7 480.5,-349.7 370.5,-349.7"/>
<image xlink:href="../../images/foreignKeys.png" width="11px" height="12px" preserveAspectRatio="xMinYMin meet" x="375.5" y="-366.7"/>
<text text-anchor="start" x="392.5" y="-356.8" font-family="Helvetica,sans-Serif" font-size="11.00" fill="#000000">MANAGER_ID</text>
<polygon fill="none" stroke="#000000" points="370.5,-330.7 370.5,-349.7 480.5,-349.7 480.5,-330.7 370.5,-330.7"/>
<text text-anchor="start" x="373.5" y="-336.8" font-family="Helvetica,sans-Serif" font-size="11.00" fill="#000000">...</text>
<polygon fill="#ffffff" stroke="transparent" points="370.5,-311.7 370.5,-330.7 406.5,-330.7 406.5,-311.7 370.5,-311.7"/>
<polygon fill="none" stroke="#000000" points="370.5,-311.7 370.5,-330.7 406.5,-330.7 406.5,-311.7 370.5,-311.7"/>
<text text-anchor="start" x="373.5" y="-317.8" font-family="Helvetica,sans-Serif" font-size="11.00" fill="#000000">&lt; 1</text>
<polygon fill="#ffffff" stroke="transparent" points="406.5,-311.7 406.5,-330.7 451.5,-330.7 451.5,-311.7 406.5,-311.7"/>
<polygon fill="none" stroke="#000000" points="406.5,-311.7 406.5,-330.7 451.5,-330.7 451.5,-311.7 406.5,-311.7"/>
<text text-anchor="start" x="416.1105" y="-317.8" font-family="Helvetica,sans-Serif" font-size="11.00" fill="#000000">0 rows</text>
<polygon fill="#ffffff" stroke="transparent" points="451.5,-311.7 451.5,-330.7 480.5,-330.7 480.5,-311.7 451.5,-311.7"/>
<polygon fill="none" stroke="#000000" points="451.5,-311.7 451.5,-330.7 480.5,-330.7 480.5,-311.7 451.5,-311.7"/>
<text text-anchor="start" x="461.9053" y="-317.8" font-family="Helvetica,sans-Serif" font-size="11.00" fill="#000000">2 &gt;</text>
</a>
</g>
</g>
<!-- EMPLOYEES&#45;&gt;EMPLOYEES -->
<g id="edge3" class="edge">
<title>EMPLOYEES:w&#45;&gt;EMPLOYEES:e</title>
<path fill="none" stroke="#000000" d="M357.5977,-368.1922C322.4918,-393.2174 331.6563,-434.2 425.5,-434.2 529.5,-434.2 529.5,-405.8667 480.5,-382.7"/>
<polygon fill="#000000" stroke="#000000" points="363.5818,-364.7173 372.3078,-363.8132 367.0409,-362.7087 370.5,-360.7 370.5,-360.7 370.5,-360.7 367.0409,-362.7087 368.6922,-357.5868 363.5818,-364.7173 363.5818,-364.7173"/>
<ellipse fill="none" stroke="#000000" cx="360.8145" cy="-366.3242" rx="3.2" ry="3.2"/>
</g>
<!-- INVENTORIES -->
<g id="node5" class="node">
<title>INVENTORIES</title>
<g id="a_node5"><a xlink:href="../../tables/INVENTORIES.html" xlink:title="INVENTORIES" target="_top">
<polygon fill="#ffffff" stroke="transparent" points="754.5,-156.2 754.5,-261.2 873.5,-261.2 873.5,-156.2 754.5,-156.2"/>
<polygon fill="#f5f5f5" stroke="transparent" points="755,-237.7 755,-260.7 874,-260.7 874,-237.7 755,-237.7"/>
<polygon fill="none" stroke="#000000" points="755,-237.7 755,-260.7 874,-260.7 874,-237.7 755,-237.7"/>
<text text-anchor="start" x="760" y="-246.8" font-family="Helvetica,sans-Serif" font-weight="bold" font-size="11.00" fill="#000000">INVENTORIES</text>
<text text-anchor="start" x="839.0437" y="-245.8" font-family="Helvetica,sans-Serif" font-size="11.00" fill="#000000">[table]</text>
<polygon fill="none" stroke="#000000" points="755,-215.7 755,-237.7 874,-237.7 874,-215.7 755,-215.7"/>
<image xlink:href="../../images/primaryKeys.png" width="11px" height="12px" preserveAspectRatio="xMinYMin meet" x="760" y="-232.7"/>
<text text-anchor="start" x="775" y="-222.8" font-family="Helvetica,sans-Serif" font-size="11.00" fill="#000000">PRODUCT_ID</text>
<polygon fill="none" stroke="#000000" points="755,-193.7 755,-215.7 874,-215.7 874,-193.7 755,-193.7"/>
<image xlink:href="../../images/primaryKeys.png" width="11px" height="12px" preserveAspectRatio="xMinYMin meet" x="760" y="-210.7"/>
<text text-anchor="start" x="775" y="-200.8" font-family="Helvetica,sans-Serif" font-size="11.00" fill="#000000">WAREHOUSE_ID</text>
<polygon fill="none" stroke="#000000" points="755,-174.7 755,-193.7 874,-193.7 874,-174.7 755,-174.7"/>
<text text-anchor="start" x="758" y="-180.8" font-family="Helvetica,sans-Serif" font-size="11.00" fill="#000000">...</text>
<polygon fill="#ffffff" stroke="transparent" points="755,-155.7 755,-174.7 800,-174.7 800,-155.7 755,-155.7"/>
<polygon fill="none" stroke="#000000" points="755,-155.7 755,-174.7 800,-174.7 800,-155.7 755,-155.7"/>
<text text-anchor="start" x="758" y="-161.8" font-family="Helvetica,sans-Serif" font-size="11.00" fill="#000000">&lt; 2</text>
<polygon fill="#ffffff" stroke="transparent" points="800,-155.7 800,-174.7 850,-174.7 850,-155.7 800,-155.7"/>
<polygon fill="none" stroke="#000000" points="800,-155.7 800,-174.7 850,-174.7 850,-155.7 800,-155.7"/>
<text text-anchor="start" x="814.6105" y="-161.8" font-family="Helvetica,sans-Serif" font-size="11.00" fill="#000000">0 rows</text>
<polygon fill="#ffffff" stroke="transparent" points="850,-155.7 850,-174.7 874,-174.7 874,-155.7 850,-155.7"/>
<polygon fill="none" stroke="#000000" points="850,-155.7 850,-174.7 874,-174.7 874,-155.7 850,-155.7"/>
<text text-anchor="start" x="864.8862" y="-161.8" font-family="Helvetica,sans-Serif" font-size="11.00" fill="#000000"> &#160;</text>
</a>
</g>
</g>
<!-- PRODUCTS -->
<g id="node10" class="node">
<title>PRODUCTS</title>
<g id="a_node10"><a xlink:href="../../tables/PRODUCTS.html" xlink:title="PRODUCTS" target="_top">
<polygon fill="#ffffff" stroke="transparent" points="569,-208.2 569,-313.2 697,-313.2 697,-208.2 569,-208.2"/>
<polygon fill="#f5f5f5" stroke="transparent" points="569,-289.7 569,-312.7 697,-312.7 697,-289.7 569,-289.7"/>
<polygon fill="none" stroke="#000000" points="569,-289.7 569,-312.7 697,-312.7 697,-289.7 569,-289.7"/>
<text text-anchor="start" x="574" y="-298.8" font-family="Helvetica,sans-Serif" font-weight="bold" font-size="11.00" fill="#000000">PRODUCTS</text>
<text text-anchor="start" x="662.0437" y="-297.8" font-family="Helvetica,sans-Serif" font-size="11.00" fill="#000000">[table]</text>
<polygon fill="none" stroke="#000000" points="569,-267.7 569,-289.7 697,-289.7 697,-267.7 569,-267.7"/>
<image xlink:href="../../images/primaryKeys.png" width="11px" height="12px" preserveAspectRatio="xMinYMin meet" x="574" y="-284.7"/>
<text text-anchor="start" x="589" y="-274.8" font-family="Helvetica,sans-Serif" font-size="11.00" fill="#000000">PRODUCT_ID</text>
<polygon fill="none" stroke="#000000" points="569,-245.7 569,-267.7 697,-267.7 697,-245.7 569,-245.7"/>
<image xlink:href="../../images/foreignKeys.png" width="11px" height="12px" preserveAspectRatio="xMinYMin meet" x="574" y="-262.7"/>
<text text-anchor="start" x="589" y="-252.8" font-family="Helvetica,sans-Serif" font-size="11.00" fill="#000000">CATEGORY_ID</text>
<polygon fill="none" stroke="#000000" points="569,-226.7 569,-245.7 697,-245.7 697,-226.7 569,-226.7"/>
<text text-anchor="start" x="572" y="-232.8" font-family="Helvetica,sans-Serif" font-size="11.00" fill="#000000">...</text>
<polygon fill="#ffffff" stroke="transparent" points="569,-207.7 569,-226.7 614,-226.7 614,-207.7 569,-207.7"/>
<polygon fill="none" stroke="#000000" points="569,-207.7 569,-226.7 614,-226.7 614,-207.7 569,-207.7"/>
<text text-anchor="start" x="572" y="-213.8" font-family="Helvetica,sans-Serif" font-size="11.00" fill="#000000">&lt; 1</text>
<polygon fill="#ffffff" stroke="transparent" points="614,-207.7 614,-226.7 664,-226.7 664,-207.7 614,-207.7"/>
<polygon fill="none" stroke="#000000" points="614,-207.7 614,-226.7 664,-226.7 664,-207.7 614,-207.7"/>
<text text-anchor="start" x="628.6105" y="-213.8" font-family="Helvetica,sans-Serif" font-size="11.00" fill="#000000">0 rows</text>
<polygon fill="#ffffff" stroke="transparent" points="664,-207.7 664,-226.7 697,-226.7 697,-207.7 664,-207.7"/>
<polygon fill="none" stroke="#000000" points="664,-207.7 664,-226.7 697,-226.7 697,-207.7 664,-207.7"/>
<text text-anchor="start" x="678.4053" y="-213.8" font-family="Helvetica,sans-Serif" font-size="11.00" fill="#000000">2 &gt;</text>
</a>
</g>
</g>
<!-- INVENTORIES&#45;&gt;PRODUCTS -->
<g id="edge4" class="edge">
<title>INVENTORIES:w&#45;&gt;PRODUCTS:e</title>
<path fill="none" stroke="#000000" d="M741.0014,-230.6085C722.8616,-242.7016 725.8058,-278.7 697,-278.7"/>
<polygon fill="#000000" stroke="#000000" points="747.2947,-228.8514 755.9681,-230.1674 751.1473,-227.7757 755,-226.7 755,-226.7 755,-226.7 751.1473,-227.7757 754.0319,-223.2326 747.2947,-228.8514 747.2947,-228.8514"/>
<ellipse fill="none" stroke="#000000" cx="744.2126" cy="-229.7119" rx="3.2" ry="3.2"/>
</g>
<!-- WAREHOUSES -->
<g id="node12" class="node">
<title>WAREHOUSES</title>
<g id="a_node12"><a xlink:href="../../tables/WAREHOUSES.html" xlink:title="WAREHOUSES" target="_top">
<polygon fill="#ffffff" stroke="transparent" points="562,-82.2 562,-187.2 704,-187.2 704,-82.2 562,-82.2"/>
<polygon fill="#f5f5f5" stroke="transparent" points="562,-163.7 562,-186.7 704,-186.7 704,-163.7 562,-163.7"/>
<polygon fill="none" stroke="#000000" points="562,-163.7 562,-186.7 704,-186.7 704,-163.7 562,-163.7"/>
<text text-anchor="start" x="567" y="-172.8" font-family="Helvetica,sans-Serif" font-weight="bold" font-size="11.00" fill="#000000">WAREHOUSES</text>
<text text-anchor="start" x="669.0437" y="-171.8" font-family="Helvetica,sans-Serif" font-size="11.00" fill="#000000">[table]</text>
<polygon fill="none" stroke="#000000" points="562,-141.7 562,-163.7 704,-163.7 704,-141.7 562,-141.7"/>
<image xlink:href="../../images/primaryKeys.png" width="11px" height="12px" preserveAspectRatio="xMinYMin meet" x="567" y="-158.7"/>
<text text-anchor="start" x="582" y="-148.8" font-family="Helvetica,sans-Serif" font-size="11.00" fill="#000000">WAREHOUSE_ID</text>
<polygon fill="none" stroke="#000000" points="562,-119.7 562,-141.7 704,-141.7 704,-119.7 562,-119.7"/>
<image xlink:href="../../images/foreignKeys.png" width="11px" height="12px" preserveAspectRatio="xMinYMin meet" x="567" y="-136.7"/>
<text text-anchor="start" x="582" y="-126.8" font-family="Helvetica,sans-Serif" font-size="11.00" fill="#000000">LOCATION_ID</text>
<polygon fill="none" stroke="#000000" points="562,-100.7 562,-119.7 704,-119.7 704,-100.7 562,-100.7"/>
<text text-anchor="start" x="565" y="-106.8" font-family="Helvetica,sans-Serif" font-size="11.00" fill="#000000">...</text>
<polygon fill="#ffffff" stroke="transparent" points="562,-81.7 562,-100.7 614,-100.7 614,-81.7 562,-81.7"/>
<polygon fill="none" stroke="#000000" points="562,-81.7 562,-100.7 614,-100.7 614,-81.7 562,-81.7"/>
<text text-anchor="start" x="565" y="-87.8" font-family="Helvetica,sans-Serif" font-size="11.00" fill="#000000">&lt; 1</text>
<polygon fill="#ffffff" stroke="transparent" points="614,-81.7 614,-100.7 667,-100.7 667,-81.7 614,-81.7"/>
<polygon fill="none" stroke="#000000" points="614,-81.7 614,-100.7 667,-100.7 667,-81.7 614,-81.7"/>
<text text-anchor="start" x="631.6105" y="-87.8" font-family="Helvetica,sans-Serif" font-size="11.00" fill="#000000">0 rows</text>
<polygon fill="#ffffff" stroke="transparent" points="667,-81.7 667,-100.7 704,-100.7 704,-81.7 667,-81.7"/>
<polygon fill="none" stroke="#000000" points="667,-81.7 667,-100.7 704,-100.7 704,-81.7 667,-81.7"/>
<text text-anchor="start" x="685.4053" y="-87.8" font-family="Helvetica,sans-Serif" font-size="11.00" fill="#000000">1 &gt;</text>
</a>
</g>
</g>
<!-- INVENTORIES&#45;&gt;WAREHOUSES -->
<g id="edge5" class="edge">
<title>INVENTORIES:w&#45;&gt;WAREHOUSES:e</title>
<path fill="none" stroke="#000000" d="M741.0468,-199.9012C726.161,-187.0281 730.3017,-152.7 704,-152.7"/>
<polygon fill="#000000" stroke="#000000" points="747.4349,-202.0982 753.8292,-208.1043 751.2175,-203.3991 755,-204.7 755,-204.7 755,-204.7 751.2175,-203.3991 756.1708,-201.2957 747.4349,-202.0982 747.4349,-202.0982"/>
<ellipse fill="none" stroke="#000000" cx="744.4089" cy="-201.0574" rx="3.2" ry="3.2"/>
</g>
<!-- LOCATIONS -->
<g id="node6" class="node">
<title>LOCATIONS</title>
<g id="a_node6"><a xlink:href="../../tables/LOCATIONS.html" xlink:title="LOCATIONS" target="_top">
<polygon fill="#ffffff" stroke="transparent" points="370,-60.2 370,-165.2 481,-165.2 481,-60.2 370,-60.2"/>
<polygon fill="#f5f5f5" stroke="transparent" points="370.5,-141.7 370.5,-164.7 481.5,-164.7 481.5,-141.7 370.5,-141.7"/>
<polygon fill="none" stroke="#000000" points="370.5,-141.7 370.5,-164.7 481.5,-164.7 481.5,-141.7 370.5,-141.7"/>
<text text-anchor="start" x="375.5" y="-150.8" font-family="Helvetica,sans-Serif" font-weight="bold" font-size="11.00" fill="#000000">LOCATIONS</text>
<text text-anchor="start" x="446.5437" y="-149.8" font-family="Helvetica,sans-Serif" font-size="11.00" fill="#000000">[table]</text>
<polygon fill="none" stroke="#000000" points="370.5,-119.7 370.5,-141.7 481.5,-141.7 481.5,-119.7 370.5,-119.7"/>
<image xlink:href="../../images/primaryKeys.png" width="11px" height="12px" preserveAspectRatio="xMinYMin meet" x="375.5" y="-136.7"/>
<text text-anchor="start" x="390.5" y="-126.8" font-family="Helvetica,sans-Serif" font-size="11.00" fill="#000000">LOCATION_ID</text>
<polygon fill="none" stroke="#000000" points="370.5,-97.7 370.5,-119.7 481.5,-119.7 481.5,-97.7 370.5,-97.7"/>
<image xlink:href="../../images/foreignKeys.png" width="11px" height="12px" preserveAspectRatio="xMinYMin meet" x="375.5" y="-114.7"/>
<text text-anchor="start" x="390.5" y="-104.8" font-family="Helvetica,sans-Serif" font-size="11.00" fill="#000000">COUNTRY_ID</text>
<polygon fill="none" stroke="#000000" points="370.5,-78.7 370.5,-97.7 481.5,-97.7 481.5,-78.7 370.5,-78.7"/>
<text text-anchor="start" x="373.5" y="-84.8" font-family="Helvetica,sans-Serif" font-size="11.00" fill="#000000">...</text>
<polygon fill="#ffffff" stroke="transparent" points="370.5,-59.7 370.5,-78.7 406.5,-78.7 406.5,-59.7 370.5,-59.7"/>
<polygon fill="none" stroke="#000000" points="370.5,-59.7 370.5,-78.7 406.5,-78.7 406.5,-59.7 370.5,-59.7"/>
<text text-anchor="start" x="373.5" y="-65.8" font-family="Helvetica,sans-Serif" font-size="11.00" fill="#000000">&lt; 1</text>
<polygon fill="#ffffff" stroke="transparent" points="406.5,-59.7 406.5,-78.7 452.5,-78.7 452.5,-59.7 406.5,-59.7"/>
<polygon fill="none" stroke="#000000" points="406.5,-59.7 406.5,-78.7 452.5,-78.7 452.5,-59.7 406.5,-59.7"/>
<text text-anchor="start" x="417.1105" y="-65.8" font-family="Helvetica,sans-Serif" font-size="11.00" fill="#000000">0 rows</text>
<polygon fill="#ffffff" stroke="transparent" points="452.5,-59.7 452.5,-78.7 481.5,-78.7 481.5,-59.7 452.5,-59.7"/>
<polygon fill="none" stroke="#000000" points="452.5,-59.7 452.5,-78.7 481.5,-78.7 481.5,-59.7 452.5,-59.7"/>
<text text-anchor="start" x="462.9053" y="-65.8" font-family="Helvetica,sans-Serif" font-size="11.00" fill="#000000">1 &gt;</text>
</a>
</g>
</g>
<!-- LOCATIONS&#45;&gt;COUNTRIES -->
<g id="edge6" class="edge">
<title>LOCATIONS:w&#45;&gt;COUNTRIES:e</title>
<path fill="none" stroke="#000000" d="M355.9878,-108.7C330.9908,-108.7 319.8455,-108.7 289,-108.7"/>
<polygon fill="#000000" stroke="#000000" points="362.5,-108.7001 370.5,-112.3 366.5,-108.7 370.5,-108.7 370.5,-108.7 370.5,-108.7 366.5,-108.7 370.5,-105.1 362.5,-108.7001 362.5,-108.7001"/>
<ellipse fill="none" stroke="#000000" cx="359.3" cy="-108.7001" rx="3.2" ry="3.2"/>
</g>
<!-- ORDER_ITEMS -->
<g id="node7" class="node">
<title>ORDER_ITEMS</title>
<g id="a_node7"><a xlink:href="../../tables/ORDER_ITEMS.html" xlink:title="ORDER_ITEMS" target="_top">
<polygon fill="#ffffff" stroke="transparent" points="753,-308.2 753,-435.2 875,-435.2 875,-308.2 753,-308.2"/>
<polygon fill="#f5f5f5" stroke="transparent" points="753,-411.7 753,-434.7 875,-434.7 875,-411.7 753,-411.7"/>
<polygon fill="none" stroke="#000000" points="753,-411.7 753,-434.7 875,-434.7 875,-411.7 753,-411.7"/>
<text text-anchor="start" x="757.7796" y="-420.8" font-family="Helvetica,sans-Serif" font-weight="bold" font-size="11.00" fill="#000000">ORDER_ITEMS</text>
<text text-anchor="start" x="840.5219" y="-419.8" font-family="Helvetica,sans-Serif" font-size="11.00" fill="#000000">[table]</text>
<polygon fill="none" stroke="#000000" points="753,-389.7 753,-411.7 875,-411.7 875,-389.7 753,-389.7"/>
<image xlink:href="../../images/primaryKeys.png" width="11px" height="12px" preserveAspectRatio="xMinYMin meet" x="758" y="-406.7"/>
<text text-anchor="start" x="781" y="-396.8" font-family="Helvetica,sans-Serif" font-size="11.00" fill="#000000">ORDER_ID</text>
<polygon fill="none" stroke="#000000" points="753,-367.7 753,-389.7 875,-389.7 875,-367.7 753,-367.7"/>
<image xlink:href="../../images/primaryKeys.png" width="11px" height="12px" preserveAspectRatio="xMinYMin meet" x="758" y="-384.7"/>
<text text-anchor="start" x="781" y="-374.8" font-family="Helvetica,sans-Serif" font-size="11.00" fill="#000000">ITEM_ID</text>
<polygon fill="none" stroke="#000000" points="753,-345.7 753,-367.7 875,-367.7 875,-345.7 753,-345.7"/>
<image xlink:href="../../images/foreignKeys.png" width="11px" height="12px" preserveAspectRatio="xMinYMin meet" x="758" y="-362.7"/>
<text text-anchor="start" x="781" y="-352.8" font-family="Helvetica,sans-Serif" font-size="11.00" fill="#000000">PRODUCT_ID</text>
<polygon fill="none" stroke="#000000" points="753,-326.7 753,-345.7 875,-345.7 875,-326.7 753,-326.7"/>
<text text-anchor="start" x="756" y="-332.8" font-family="Helvetica,sans-Serif" font-size="11.00" fill="#000000">...</text>
<polygon fill="#ffffff" stroke="transparent" points="753,-307.7 753,-326.7 799,-326.7 799,-307.7 753,-307.7"/>
<polygon fill="none" stroke="#000000" points="753,-307.7 753,-326.7 799,-326.7 799,-307.7 753,-307.7"/>
<text text-anchor="start" x="756" y="-313.8" font-family="Helvetica,sans-Serif" font-size="11.00" fill="#000000">&lt; 2</text>
<polygon fill="#ffffff" stroke="transparent" points="799,-307.7 799,-326.7 850,-326.7 850,-307.7 799,-307.7"/>
<polygon fill="none" stroke="#000000" points="799,-307.7 799,-326.7 850,-326.7 850,-307.7 799,-307.7"/>
<text text-anchor="start" x="814.6105" y="-313.8" font-family="Helvetica,sans-Serif" font-size="11.00" fill="#000000">0 rows</text>
<polygon fill="#ffffff" stroke="transparent" points="850,-307.7 850,-326.7 875,-326.7 875,-307.7 850,-307.7"/>
<polygon fill="none" stroke="#000000" points="850,-307.7 850,-326.7 875,-326.7 875,-307.7 850,-307.7"/>
<text text-anchor="start" x="865.8862" y="-313.8" font-family="Helvetica,sans-Serif" font-size="11.00" fill="#000000"> &#160;</text>
</a>
</g>
</g>
<!-- ORDERS -->
<g id="node8" class="node">
<title>ORDERS</title>
<g id="a_node8"><a xlink:href="../../tables/ORDERS.html" xlink:title="ORDERS" target="_top">
<polygon fill="#ffffff" stroke="transparent" points="579,-334.2 579,-461.2 687,-461.2 687,-334.2 579,-334.2"/>
<polygon fill="#f5f5f5" stroke="transparent" points="579,-437.7 579,-460.7 687,-460.7 687,-437.7 579,-437.7"/>
<polygon fill="none" stroke="#000000" points="579,-437.7 579,-460.7 687,-460.7 687,-437.7 579,-437.7"/>
<text text-anchor="start" x="584" y="-446.8" font-family="Helvetica,sans-Serif" font-weight="bold" font-size="11.00" fill="#000000">ORDERS</text>
<text text-anchor="start" x="652.0437" y="-445.8" font-family="Helvetica,sans-Serif" font-size="11.00" fill="#000000">[table]</text>
<polygon fill="none" stroke="#000000" points="579,-415.7 579,-437.7 687,-437.7 687,-415.7 579,-415.7"/>
<image xlink:href="../../images/primaryKeys.png" width="11px" height="12px" preserveAspectRatio="xMinYMin meet" x="584" y="-432.7"/>
<text text-anchor="start" x="599" y="-422.8" font-family="Helvetica,sans-Serif" font-size="11.00" fill="#000000">ORDER_ID</text>
<polygon fill="none" stroke="#000000" points="579,-393.7 579,-415.7 687,-415.7 687,-393.7 579,-393.7"/>
<image xlink:href="../../images/foreignKeys.png" width="11px" height="12px" preserveAspectRatio="xMinYMin meet" x="584" y="-410.7"/>
<text text-anchor="start" x="599" y="-400.8" font-family="Helvetica,sans-Serif" font-size="11.00" fill="#000000">CUSTOMER_ID</text>
<polygon fill="none" stroke="#000000" points="579,-371.7 579,-393.7 687,-393.7 687,-371.7 579,-371.7"/>
<image xlink:href="../../images/foreignKeys.png" width="11px" height="12px" preserveAspectRatio="xMinYMin meet" x="584" y="-388.7"/>
<text text-anchor="start" x="599" y="-378.8" font-family="Helvetica,sans-Serif" font-size="11.00" fill="#000000">SALESMAN_ID</text>
<polygon fill="none" stroke="#000000" points="579,-352.7 579,-371.7 687,-371.7 687,-352.7 579,-352.7"/>
<text text-anchor="start" x="582" y="-358.8" font-family="Helvetica,sans-Serif" font-size="11.00" fill="#000000">...</text>
<polygon fill="#ffffff" stroke="transparent" points="579,-333.7 579,-352.7 614,-352.7 614,-333.7 579,-333.7"/>
<polygon fill="none" stroke="#000000" points="579,-333.7 579,-352.7 614,-352.7 614,-333.7 579,-333.7"/>
<text text-anchor="start" x="582" y="-339.8" font-family="Helvetica,sans-Serif" font-size="11.00" fill="#000000">&lt; 2</text>
<polygon fill="#ffffff" stroke="transparent" points="614,-333.7 614,-352.7 659,-352.7 659,-333.7 614,-333.7"/>
<polygon fill="none" stroke="#000000" points="614,-333.7 614,-352.7 659,-352.7 659,-333.7 614,-333.7"/>
<text text-anchor="start" x="623.6105" y="-339.8" font-family="Helvetica,sans-Serif" font-size="11.00" fill="#000000">0 rows</text>
<polygon fill="#ffffff" stroke="transparent" points="659,-333.7 659,-352.7 687,-352.7 687,-333.7 659,-333.7"/>
<polygon fill="none" stroke="#000000" points="659,-333.7 659,-352.7 687,-352.7 687,-333.7 659,-333.7"/>
<text text-anchor="start" x="668.4053" y="-339.8" font-family="Helvetica,sans-Serif" font-size="11.00" fill="#000000">1 &gt;</text>
</a>
</g>
</g>
<!-- ORDER_ITEMS&#45;&gt;ORDERS -->
<g id="edge7" class="edge">
<title>ORDER_ITEMS:w&#45;&gt;ORDERS:e</title>
<path fill="none" stroke="#000000" d="M738.7132,-402.8277C719.554,-409.0372 712.9855,-426.7 687,-426.7"/>
<polygon fill="#000000" stroke="#000000" points="745.0873,-401.8785 753.5303,-404.2607 749.0436,-401.2892 753,-400.7 753,-400.7 753,-400.7 749.0436,-401.2892 752.4697,-397.1393 745.0873,-401.8785 745.0873,-401.8785"/>
<ellipse fill="none" stroke="#000000" cx="741.9222" cy="-402.3499" rx="3.2" ry="3.2"/>
</g>
<!-- ORDER_ITEMS&#45;&gt;PRODUCTS -->
<g id="edge8" class="edge">
<title>ORDER_ITEMS:w&#45;&gt;PRODUCTS:e</title>
<path fill="none" stroke="#000000" d="M738.8686,-352.5064C717.1549,-336.305 733.6746,-278.7 697,-278.7"/>
<polygon fill="#000000" stroke="#000000" points="745.3306,-354.424 751.9758,-360.1512 749.1653,-355.562 753,-356.7 753,-356.7 753,-356.7 749.1653,-355.562 754.0242,-353.2488 745.3306,-354.424 745.3306,-354.424"/>
<ellipse fill="none" stroke="#000000" cx="742.2628" cy="-353.5136" rx="3.2" ry="3.2"/>
</g>
<!-- ORDERS&#45;&gt;CUSTOMERS -->
<g id="edge9" class="edge">
<title>ORDERS:w&#45;&gt;CUSTOMERS:e</title>
<path fill="none" stroke="#000000" d="M564.6866,-406.8564C518.1112,-422.4787 543.1258,-517.7 482.5,-517.7"/>
<polygon fill="#000000" stroke="#000000" points="571.0893,-405.8919 579.5363,-408.2598 575.0446,-405.2959 579,-404.7 579,-404.7 579,-404.7 575.0446,-405.2959 578.4637,-401.1402 571.0893,-405.8919 571.0893,-405.8919"/>
<ellipse fill="none" stroke="#000000" cx="567.925" cy="-406.3686" rx="3.2" ry="3.2"/>
</g>
<!-- ORDERS&#45;&gt;EMPLOYEES -->
<g id="edge10" class="edge">
<title>ORDERS:w&#45;&gt;EMPLOYEES:e</title>
<path fill="none" stroke="#000000" d="M564.4241,-382.7C532.0902,-382.7 518.9766,-382.7 480.5,-382.7"/>
<polygon fill="#000000" stroke="#000000" points="571,-382.7001 579,-386.3 575,-382.7 579,-382.7 579,-382.7 579,-382.7 575,-382.7 579,-379.1 571,-382.7001 571,-382.7001"/>
<ellipse fill="none" stroke="#000000" cx="567.8" cy="-382.7001" rx="3.2" ry="3.2"/>
</g>
<!-- PRODUCT_CATEGORIES -->
<g id="node9" class="node">
<title>PRODUCT_CATEGORIES</title>
<g id="a_node9"><a xlink:href="../../tables/PRODUCT_CATEGORIES.html" xlink:title="PRODUCT_CATEGORIES" target="_top">
<polygon fill="#ffffff" stroke="transparent" points="338,-208.2 338,-291.2 513,-291.2 513,-208.2 338,-208.2"/>
<polygon fill="#f5f5f5" stroke="transparent" points="338.5,-267.7 338.5,-290.7 513.5,-290.7 513.5,-267.7 338.5,-267.7"/>
<polygon fill="none" stroke="#000000" points="338.5,-267.7 338.5,-290.7 513.5,-290.7 513.5,-267.7 338.5,-267.7"/>
<text text-anchor="start" x="343.1964" y="-276.8" font-family="Helvetica,sans-Serif" font-weight="bold" font-size="11.00" fill="#000000">PRODUCT_CATEGORIES</text>
<text text-anchor="start" x="479.0219" y="-275.8" font-family="Helvetica,sans-Serif" font-size="11.00" fill="#000000">[table]</text>
<polygon fill="none" stroke="#000000" points="338.5,-245.7 338.5,-267.7 513.5,-267.7 513.5,-245.7 338.5,-245.7"/>
<image xlink:href="../../images/primaryKeys.png" width="11px" height="12px" preserveAspectRatio="xMinYMin meet" x="343.5" y="-262.7"/>
<text text-anchor="start" x="363.5" y="-252.8" font-family="Helvetica,sans-Serif" font-size="11.00" fill="#000000">CATEGORY_ID</text>
<polygon fill="none" stroke="#000000" points="338.5,-226.7 338.5,-245.7 513.5,-245.7 513.5,-226.7 338.5,-226.7"/>
<text text-anchor="start" x="341.5" y="-232.8" font-family="Helvetica,sans-Serif" font-size="11.00" fill="#000000">...</text>
<polygon fill="#ffffff" stroke="transparent" points="338.5,-207.7 338.5,-226.7 402.5,-226.7 402.5,-207.7 338.5,-207.7"/>
<polygon fill="none" stroke="#000000" points="338.5,-207.7 338.5,-226.7 402.5,-226.7 402.5,-207.7 338.5,-207.7"/>
<text text-anchor="start" x="341.5" y="-213.8" font-family="Helvetica,sans-Serif" font-size="11.00" fill="#000000"> &#160;</text>
<polygon fill="#ffffff" stroke="transparent" points="402.5,-207.7 402.5,-226.7 466.5,-226.7 466.5,-207.7 402.5,-207.7"/>
<polygon fill="none" stroke="#000000" points="402.5,-207.7 402.5,-226.7 466.5,-226.7 466.5,-207.7 402.5,-207.7"/>
<text text-anchor="start" x="431.1105" y="-213.8" font-family="Helvetica,sans-Serif" font-size="11.00" fill="#000000">0 rows</text>
<polygon fill="#ffffff" stroke="transparent" points="466.5,-207.7 466.5,-226.7 513.5,-226.7 513.5,-207.7 466.5,-207.7"/>
<polygon fill="none" stroke="#000000" points="466.5,-207.7 466.5,-226.7 513.5,-226.7 513.5,-207.7 466.5,-207.7"/>
<text text-anchor="start" x="494.9053" y="-213.8" font-family="Helvetica,sans-Serif" font-size="11.00" fill="#000000">1 &gt;</text>
</a>
</g>
</g>
<!-- PRODUCTS&#45;&gt;PRODUCT_CATEGORIES -->
<g id="edge11" class="edge">
<title>PRODUCTS:w&#45;&gt;PRODUCT_CATEGORIES:e</title>
<path fill="none" stroke="#000000" d="M554.2286,-256.7C540.4265,-256.7 532.3854,-256.7 513.5,-256.7"/>
<polygon fill="#000000" stroke="#000000" points="561,-256.7001 569,-260.3 565,-256.7 569,-256.7 569,-256.7 569,-256.7 565,-256.7 569,-253.1 561,-256.7001 561,-256.7001"/>
<ellipse fill="none" stroke="#000000" cx="557.8" cy="-256.7001" rx="3.2" ry="3.2"/>
</g>
<!-- WAREHOUSES&#45;&gt;LOCATIONS -->
<g id="edge12" class="edge">
<title>WAREHOUSES:w&#45;&gt;LOCATIONS:e</title>
<path fill="none" stroke="#000000" d="M547.327,-130.7C522.8742,-130.7 511.8273,-130.7 481.5,-130.7"/>
<polygon fill="#000000" stroke="#000000" points="554,-130.7001 562,-134.3 558,-130.7 562,-130.7 562,-130.7 562,-130.7 558,-130.7 562,-127.1 554,-130.7001 554,-130.7001"/>
<ellipse fill="none" stroke="#000000" cx="550.8" cy="-130.7001" rx="3.2" ry="3.2"/>
</g>
</g>
</svg>
