<?xml version="1.0" encoding="UTF-8" standalone="no"?>
<!DOCTYPE svg PUBLIC "-//W3C//DTD SVG 1.1//EN"
 "http://www.w3.org/Graphics/SVG/1.1/DTD/svg11.dtd">
<!-- Generated by graphviz version 2.40.1 (20161225.0304)
 -->
<!-- Title: largeRelationshipsDiagram Pages: 1 -->
<svg width="891pt" height="948pt"
 viewBox="0.00 0.00 891.00 948.20" xmlns="http://www.w3.org/2000/svg" xmlns:xlink="http://www.w3.org/1999/xlink">
<g id="graph0" class="graph" transform="scale(1 1) rotate(0) translate(4 944.2)">
<title>largeRelationshipsDiagram</title>
<polygon fill="#ffffff" stroke="transparent" points="-4,4 -4,-944.2 887,-944.2 887,4 -4,4"/>
<text text-anchor="middle" x="72.4936" y="-7.3" font-family="Helvetica,sans-Serif" font-size="11.00" fill="#000000">Generated by SchemaSpy</text>
<!-- CONTACTS -->
<g id="node1" class="node">
<title>CONTACTS</title>
<g id="a_node1"><a xlink:href="../../tables/CONTACTS.html" xlink:title="CONTACTS" target="_top">
<polygon fill="#ffffff" stroke="transparent" points="579,-762.2 579,-936.2 687,-936.2 687,-762.2 579,-762.2"/>
<polygon fill="#f5f5f5" stroke="transparent" points="579,-913.2 579,-936.2 687,-936.2 687,-913.2 579,-913.2"/>
<polygon fill="none" stroke="#000000" points="579,-913.2 579,-936.2 687,-936.2 687,-913.2 579,-913.2"/>
<text text-anchor="start" x="584" y="-922.3" font-family="Helvetica,sans-Serif" font-weight="bold" font-size="11.00" fill="#000000">CONTACTS</text>
<text text-anchor="start" x="652.0437" y="-921.3" font-family="Helvetica,sans-Serif" font-size="11.00" fill="#000000">[table]</text>
<polygon fill="none" stroke="#000000" points="579,-891.2 579,-913.2 687,-913.2 687,-891.2 579,-891.2"/>
<image xlink:href="../../images/primaryKeys.png" width="11px" height="12px" preserveAspectRatio="xMinYMin meet" x="584" y="-908.2"/>
<text text-anchor="start" x="599" y="-898.3" font-family="Helvetica,sans-Serif" font-size="11.00" fill="#000000">CONTACT_ID</text>
<polygon fill="none" stroke="#000000" points="579,-869.2 579,-891.2 687,-891.2 687,-869.2 579,-869.2"/>
<text text-anchor="start" x="599" y="-876.3" font-family="Helvetica,sans-Serif" font-size="11.00" fill="#000000">FIRST_NAME</text>
<polygon fill="none" stroke="#000000" points="579,-847.2 579,-869.2 687,-869.2 687,-847.2 579,-847.2"/>
<text text-anchor="start" x="599" y="-854.3" font-family="Helvetica,sans-Serif" font-size="11.00" fill="#000000">LAST_NAME</text>
<polygon fill="none" stroke="#000000" points="579,-825.2 579,-847.2 687,-847.2 687,-825.2 579,-825.2"/>
<text text-anchor="start" x="599" y="-832.3" font-family="Helvetica,sans-Serif" font-size="11.00" fill="#000000">EMAIL</text>
<polygon fill="none" stroke="#000000" points="579,-803.2 579,-825.2 687,-825.2 687,-803.2 579,-803.2"/>
<text text-anchor="start" x="599" y="-810.3" font-family="Helvetica,sans-Serif" font-size="11.00" fill="#000000">PHONE</text>
<polygon fill="none" stroke="#000000" points="579,-781.2 579,-803.2 687,-803.2 687,-781.2 579,-781.2"/>
<image xlink:href="../../images/foreignKeys.png" width="11px" height="12px" preserveAspectRatio="xMinYMin meet" x="584" y="-798.2"/>
<text text-anchor="start" x="599" y="-788.3" font-family="Helvetica,sans-Serif" font-size="11.00" fill="#000000">CUSTOMER_ID</text>
<polygon fill="#ffffff" stroke="transparent" points="579,-762.2 579,-781.2 618,-781.2 618,-762.2 579,-762.2"/>
<polygon fill="none" stroke="#000000" points="579,-762.2 579,-781.2 618,-781.2 618,-762.2 579,-762.2"/>
<text text-anchor="start" x="582" y="-768.3" font-family="Helvetica,sans-Serif" font-size="11.00" fill="#000000">&lt; 1</text>
<polygon fill="#ffffff" stroke="transparent" points="618,-762.2 618,-781.2 665,-781.2 665,-762.2 618,-762.2"/>
<polygon fill="none" stroke="#000000" points="618,-762.2 618,-781.2 665,-781.2 665,-762.2 618,-762.2"/>
<text text-anchor="start" x="629.6105" y="-768.3" font-family="Helvetica,sans-Serif" font-size="11.00" fill="#000000">0 rows</text>
<polygon fill="#ffffff" stroke="transparent" points="665,-762.2 665,-781.2 687,-781.2 687,-762.2 665,-762.2"/>
<polygon fill="none" stroke="#000000" points="665,-762.2 665,-781.2 687,-781.2 687,-762.2 665,-762.2"/>
<text text-anchor="start" x="677.8862" y="-768.3" font-family="Helvetica,sans-Serif" font-size="11.00" fill="#000000"> &#160;</text>
</a>
</g>
</g>
<!-- CUSTOMERS -->
<g id="node3" class="node">
<title>CUSTOMERS</title>
<g id="a_node3"><a xlink:href="../../tables/CUSTOMERS.html" xlink:title="CUSTOMERS" target="_top">
<polygon fill="#ffffff" stroke="transparent" points="369,-674.2 369,-826.2 482,-826.2 482,-674.2 369,-674.2"/>
<polygon fill="#f5f5f5" stroke="transparent" points="369.5,-803.2 369.5,-826.2 482.5,-826.2 482.5,-803.2 369.5,-803.2"/>
<polygon fill="none" stroke="#000000" points="369.5,-803.2 369.5,-826.2 482.5,-826.2 482.5,-803.2 369.5,-803.2"/>
<text text-anchor="start" x="374.3655" y="-812.3" font-family="Helvetica,sans-Serif" font-weight="bold" font-size="11.00" fill="#000000">CUSTOMERS</text>
<text text-anchor="start" x="448.0219" y="-811.3" font-family="Helvetica,sans-Serif" font-size="11.00" fill="#000000">[table]</text>
<polygon fill="none" stroke="#000000" points="369.5,-781.2 369.5,-803.2 482.5,-803.2 482.5,-781.2 369.5,-781.2"/>
<image xlink:href="../../images/primaryKeys.png" width="11px" height="12px" preserveAspectRatio="xMinYMin meet" x="374.5" y="-798.2"/>
<text text-anchor="start" x="392.5" y="-788.3" font-family="Helvetica,sans-Serif" font-size="11.00" fill="#000000">CUSTOMER_ID</text>
<polygon fill="none" stroke="#000000" points="369.5,-759.2 369.5,-781.2 482.5,-781.2 482.5,-759.2 369.5,-759.2"/>
<text text-anchor="start" x="392.5" y="-766.3" font-family="Helvetica,sans-Serif" font-size="11.00" fill="#000000">NAME</text>
<polygon fill="none" stroke="#000000" points="369.5,-737.2 369.5,-759.2 482.5,-759.2 482.5,-737.2 369.5,-737.2"/>
<text text-anchor="start" x="392.5" y="-744.3" font-family="Helvetica,sans-Serif" font-size="11.00" fill="#000000">ADDRESS</text>
<polygon fill="none" stroke="#000000" points="369.5,-715.2 369.5,-737.2 482.5,-737.2 482.5,-715.2 369.5,-715.2"/>
<text text-anchor="start" x="392.5" y="-722.3" font-family="Helvetica,sans-Serif" font-size="11.00" fill="#000000">WEBSITE</text>
<polygon fill="none" stroke="#000000" points="369.5,-693.2 369.5,-715.2 482.5,-715.2 482.5,-693.2 369.5,-693.2"/>
<text text-anchor="start" x="392.5" y="-700.3" font-family="Helvetica,sans-Serif" font-size="11.00" fill="#000000">CREDIT_LIMIT</text>
<polygon fill="#ffffff" stroke="transparent" points="369.5,-674.2 369.5,-693.2 402.5,-693.2 402.5,-674.2 369.5,-674.2"/>
<polygon fill="none" stroke="#000000" points="369.5,-674.2 369.5,-693.2 402.5,-693.2 402.5,-674.2 369.5,-674.2"/>
<text text-anchor="start" x="372.5" y="-680.3" font-family="Helvetica,sans-Serif" font-size="11.00" fill="#000000"> &#160;</text>
<polygon fill="#ffffff" stroke="transparent" points="402.5,-674.2 402.5,-693.2 450.5,-693.2 450.5,-674.2 402.5,-674.2"/>
<polygon fill="none" stroke="#000000" points="402.5,-674.2 402.5,-693.2 450.5,-693.2 450.5,-674.2 402.5,-674.2"/>
<text text-anchor="start" x="415.1105" y="-680.3" font-family="Helvetica,sans-Serif" font-size="11.00" fill="#000000">0 rows</text>
<polygon fill="#ffffff" stroke="transparent" points="450.5,-674.2 450.5,-693.2 482.5,-693.2 482.5,-674.2 450.5,-674.2"/>
<polygon fill="none" stroke="#000000" points="450.5,-674.2 450.5,-693.2 482.5,-693.2 482.5,-674.2 450.5,-674.2"/>
<text text-anchor="start" x="463.9053" y="-680.3" font-family="Helvetica,sans-Serif" font-size="11.00" fill="#000000">2 &gt;</text>
</a>
</g>
</g>
<!-- CONTACTS&#45;&gt;CUSTOMERS -->
<g id="edge1" class="edge">
<title>CONTACTS:w&#45;&gt;CUSTOMERS:e</title>
<path fill="none" stroke="#000000" d="M564.2988,-792.2C532.928,-792.2 520.0278,-792.2 482.5,-792.2"/>
<polygon fill="#000000" stroke="#000000" points="571,-792.2001 579,-795.8 575,-792.2 579,-792.2 579,-792.2 579,-792.2 575,-792.2 579,-788.6 571,-792.2001 571,-792.2001"/>
<ellipse fill="none" stroke="#000000" cx="567.8" cy="-792.2001" rx="3.2" ry="3.2"/>
</g>
<!-- COUNTRIES -->
<g id="node2" class="node">
<title>COUNTRIES</title>
<g id="a_node2"><a xlink:href="../../tables/COUNTRIES.html" xlink:title="COUNTRIES" target="_top">
<polygon fill="#ffffff" stroke="transparent" points="167,-60.2 167,-168.2 289,-168.2 289,-60.2 167,-60.2"/>
<polygon fill="#f5f5f5" stroke="transparent" points="167,-145.2 167,-168.2 289,-168.2 289,-145.2 167,-145.2"/>
<polygon fill="none" stroke="#000000" points="167,-145.2 167,-168.2 289,-168.2 289,-145.2 167,-145.2"/>
<text text-anchor="start" x="172" y="-154.3" font-family="Helvetica,sans-Serif" font-weight="bold" font-size="11.00" fill="#000000">COUNTRIES</text>
<text text-anchor="start" x="254.0437" y="-153.3" font-family="Helvetica,sans-Serif" font-size="11.00" fill="#000000">[table]</text>
<polygon fill="none" stroke="#000000" points="167,-123.2 167,-145.2 289,-145.2 289,-123.2 167,-123.2"/>
<image xlink:href="../../images/primaryKeys.png" width="11px" height="12px" preserveAspectRatio="xMinYMin meet" x="172" y="-140.2"/>
<text text-anchor="start" x="187" y="-130.3" font-family="Helvetica,sans-Serif" font-size="11.00" fill="#000000">COUNTRY_ID</text>
<polygon fill="none" stroke="#000000" points="167,-101.2 167,-123.2 289,-123.2 289,-101.2 167,-101.2"/>
<text text-anchor="start" x="187" y="-108.3" font-family="Helvetica,sans-Serif" font-size="11.00" fill="#000000">COUNTRY_NAME</text>
<polygon fill="none" stroke="#000000" points="167,-79.2 167,-101.2 289,-101.2 289,-79.2 167,-79.2"/>
<image xlink:href="../../images/foreignKeys.png" width="11px" height="12px" preserveAspectRatio="xMinYMin meet" x="172" y="-96.2"/>
<text text-anchor="start" x="187" y="-86.3" font-family="Helvetica,sans-Serif" font-size="11.00" fill="#000000">REGION_ID</text>
<polygon fill="#ffffff" stroke="transparent" points="167,-60.2 167,-79.2 209,-79.2 209,-60.2 167,-60.2"/>
<polygon fill="none" stroke="#000000" points="167,-60.2 167,-79.2 209,-79.2 209,-60.2 167,-60.2"/>
<text text-anchor="start" x="170" y="-66.3" font-family="Helvetica,sans-Serif" font-size="11.00" fill="#000000">&lt; 1</text>
<polygon fill="#ffffff" stroke="transparent" points="209,-60.2 209,-79.2 257,-79.2 257,-60.2 209,-60.2"/>
<polygon fill="none" stroke="#000000" points="209,-60.2 209,-79.2 257,-79.2 257,-60.2 209,-60.2"/>
<text text-anchor="start" x="221.6105" y="-66.3" font-family="Helvetica,sans-Serif" font-size="11.00" fill="#000000">0 rows</text>
<polygon fill="#ffffff" stroke="transparent" points="257,-60.2 257,-79.2 289,-79.2 289,-60.2 257,-60.2"/>
<polygon fill="none" stroke="#000000" points="257,-60.2 257,-79.2 289,-79.2 289,-60.2 257,-60.2"/>
<text text-anchor="start" x="270.4053" y="-66.3" font-family="Helvetica,sans-Serif" font-size="11.00" fill="#000000">1 &gt;</text>
</a>
</g>
</g>
<!-- REGIONS -->
<g id="node11" class="node">
<title>REGIONS</title>
<g id="a_node11"><a xlink:href="../../tables/REGIONS.html" xlink:title="REGIONS" target="_top">
<polygon fill="#ffffff" stroke="transparent" points="8,-38.2 8,-124.2 118,-124.2 118,-38.2 8,-38.2"/>
<polygon fill="#f5f5f5" stroke="transparent" points="8,-101.2 8,-124.2 118,-124.2 118,-101.2 8,-101.2"/>
<polygon fill="none" stroke="#000000" points="8,-101.2 8,-124.2 118,-124.2 118,-101.2 8,-101.2"/>
<text text-anchor="start" x="13" y="-110.3" font-family="Helvetica,sans-Serif" font-weight="bold" font-size="11.00" fill="#000000">REGIONS</text>
<text text-anchor="start" x="83.0437" y="-109.3" font-family="Helvetica,sans-Serif" font-size="11.00" fill="#000000">[table]</text>
<polygon fill="none" stroke="#000000" points="8,-79.2 8,-101.2 118,-101.2 118,-79.2 8,-79.2"/>
<image xlink:href="../../images/primaryKeys.png" width="11px" height="12px" preserveAspectRatio="xMinYMin meet" x="13" y="-96.2"/>
<text text-anchor="start" x="28" y="-86.3" font-family="Helvetica,sans-Serif" font-size="11.00" fill="#000000">REGION_ID</text>
<polygon fill="none" stroke="#000000" points="8,-57.2 8,-79.2 118,-79.2 118,-57.2 8,-57.2"/>
<text text-anchor="start" x="28" y="-64.3" font-family="Helvetica,sans-Serif" font-size="11.00" fill="#000000">REGION_NAME</text>
<polygon fill="#ffffff" stroke="transparent" points="8,-38.2 8,-57.2 39,-57.2 39,-38.2 8,-38.2"/>
<polygon fill="none" stroke="#000000" points="8,-38.2 8,-57.2 39,-57.2 39,-38.2 8,-38.2"/>
<text text-anchor="start" x="11" y="-44.3" font-family="Helvetica,sans-Serif" font-size="11.00" fill="#000000"> &#160;</text>
<polygon fill="#ffffff" stroke="transparent" points="39,-38.2 39,-57.2 87,-57.2 87,-38.2 39,-38.2"/>
<polygon fill="none" stroke="#000000" points="39,-38.2 39,-57.2 87,-57.2 87,-38.2 39,-38.2"/>
<text text-anchor="start" x="51.6105" y="-44.3" font-family="Helvetica,sans-Serif" font-size="11.00" fill="#000000">0 rows</text>
<polygon fill="#ffffff" stroke="transparent" points="87,-38.2 87,-57.2 118,-57.2 118,-38.2 87,-38.2"/>
<polygon fill="none" stroke="#000000" points="87,-38.2 87,-57.2 118,-57.2 118,-38.2 87,-38.2"/>
<text text-anchor="start" x="99.4053" y="-44.3" font-family="Helvetica,sans-Serif" font-size="11.00" fill="#000000">1 &gt;</text>
</a>
</g>
</g>
<!-- COUNTRIES&#45;&gt;REGIONS -->
<g id="edge2" class="edge">
<title>COUNTRIES:w&#45;&gt;REGIONS:e</title>
<path fill="none" stroke="#000000" d="M152.4909,-90.2C141.1774,-90.2 133.9931,-90.2 118,-90.2"/>
<polygon fill="#000000" stroke="#000000" points="159,-90.2001 167,-93.8 163,-90.2 167,-90.2 167,-90.2 167,-90.2 163,-90.2 167,-86.6 159,-90.2001 159,-90.2001"/>
<ellipse fill="none" stroke="#000000" cx="155.8" cy="-90.2001" rx="3.2" ry="3.2"/>
</g>
<!-- EMPLOYEES -->
<g id="node4" class="node">
<title>EMPLOYEES</title>
<g id="a_node4"><a xlink:href="../../tables/EMPLOYEES.html" xlink:title="EMPLOYEES" target="_top">
<polygon fill="#ffffff" stroke="transparent" points="370.5,-417.2 370.5,-635.2 480.5,-635.2 480.5,-417.2 370.5,-417.2"/>
<polygon fill="#f5f5f5" stroke="transparent" points="370.5,-612.2 370.5,-635.2 480.5,-635.2 480.5,-612.2 370.5,-612.2"/>
<polygon fill="none" stroke="#000000" points="370.5,-612.2 370.5,-635.2 480.5,-635.2 480.5,-612.2 370.5,-612.2"/>
<text text-anchor="start" x="375.0755" y="-621.3" font-family="Helvetica,sans-Serif" font-weight="bold" font-size="11.00" fill="#000000">EMPLOYEES</text>
<text text-anchor="start" x="446.0219" y="-620.3" font-family="Helvetica,sans-Serif" font-size="11.00" fill="#000000">[table]</text>
<polygon fill="none" stroke="#000000" points="370.5,-590.2 370.5,-612.2 480.5,-612.2 480.5,-590.2 370.5,-590.2"/>
<image xlink:href="../../images/primaryKeys.png" width="11px" height="12px" preserveAspectRatio="xMinYMin meet" x="375.5" y="-607.2"/>
<text text-anchor="start" x="392.5" y="-597.3" font-family="Helvetica,sans-Serif" font-size="11.00" fill="#000000">EMPLOYEE_ID</text>
<polygon fill="none" stroke="#000000" points="370.5,-568.2 370.5,-590.2 480.5,-590.2 480.5,-568.2 370.5,-568.2"/>
<text text-anchor="start" x="392.5" y="-575.3" font-family="Helvetica,sans-Serif" font-size="11.00" fill="#000000">FIRST_NAME</text>
<polygon fill="none" stroke="#000000" points="370.5,-546.2 370.5,-568.2 480.5,-568.2 480.5,-546.2 370.5,-546.2"/>
<text text-anchor="start" x="392.5" y="-553.3" font-family="Helvetica,sans-Serif" font-size="11.00" fill="#000000">LAST_NAME</text>
<polygon fill="none" stroke="#000000" points="370.5,-524.2 370.5,-546.2 480.5,-546.2 480.5,-524.2 370.5,-524.2"/>
<text text-anchor="start" x="392.5" y="-531.3" font-family="Helvetica,sans-Serif" font-size="11.00" fill="#000000">EMAIL</text>
<polygon fill="none" stroke="#000000" points="370.5,-502.2 370.5,-524.2 480.5,-524.2 480.5,-502.2 370.5,-502.2"/>
<text text-anchor="start" x="392.5" y="-509.3" font-family="Helvetica,sans-Serif" font-size="11.00" fill="#000000">PHONE</text>
<polygon fill="none" stroke="#000000" points="370.5,-480.2 370.5,-502.2 480.5,-502.2 480.5,-480.2 370.5,-480.2"/>
<text text-anchor="start" x="392.5" y="-487.3" font-family="Helvetica,sans-Serif" font-size="11.00" fill="#000000">HIRE_DATE</text>
<polygon fill="none" stroke="#000000" points="370.5,-458.2 370.5,-480.2 480.5,-480.2 480.5,-458.2 370.5,-458.2"/>
<image xlink:href="../../images/foreignKeys.png" width="11px" height="12px" preserveAspectRatio="xMinYMin meet" x="375.5" y="-475.2"/>
<text text-anchor="start" x="392.5" y="-465.3" font-family="Helvetica,sans-Serif" font-size="11.00" fill="#000000">MANAGER_ID</text>
<polygon fill="none" stroke="#000000" points="370.5,-436.2 370.5,-458.2 480.5,-458.2 480.5,-436.2 370.5,-436.2"/>
<text text-anchor="start" x="392.5" y="-443.3" font-family="Helvetica,sans-Serif" font-size="11.00" fill="#000000">JOB_TITLE</text>
<polygon fill="#ffffff" stroke="transparent" points="370.5,-417.2 370.5,-436.2 406.5,-436.2 406.5,-417.2 370.5,-417.2"/>
<polygon fill="none" stroke="#000000" points="370.5,-417.2 370.5,-436.2 406.5,-436.2 406.5,-417.2 370.5,-417.2"/>
<text text-anchor="start" x="373.5" y="-423.3" font-family="Helvetica,sans-Serif" font-size="11.00" fill="#000000">&lt; 1</text>
<polygon fill="#ffffff" stroke="transparent" points="406.5,-417.2 406.5,-436.2 451.5,-436.2 451.5,-417.2 406.5,-417.2"/>
<polygon fill="none" stroke="#000000" points="406.5,-417.2 406.5,-436.2 451.5,-436.2 451.5,-417.2 406.5,-417.2"/>
<text text-anchor="start" x="416.1105" y="-423.3" font-family="Helvetica,sans-Serif" font-size="11.00" fill="#000000">0 rows</text>
<polygon fill="#ffffff" stroke="transparent" points="451.5,-417.2 451.5,-436.2 480.5,-436.2 480.5,-417.2 451.5,-417.2"/>
<polygon fill="none" stroke="#000000" points="451.5,-417.2 451.5,-436.2 480.5,-436.2 480.5,-417.2 451.5,-417.2"/>
<text text-anchor="start" x="461.9053" y="-423.3" font-family="Helvetica,sans-Serif" font-size="11.00" fill="#000000">2 &gt;</text>
</a>
</g>
</g>
<!-- EMPLOYEES&#45;&gt;EMPLOYEES -->
<g id="edge3" class="edge">
<title>EMPLOYEES:w&#45;&gt;EMPLOYEES:e</title>
<path fill="none" stroke="#000000" d="M360.6654,-479.7659C322.0431,-530.8426 329.0156,-652.2 425.5,-652.2 529.5,-652.2 529.5,-643.2 480.5,-601.2"/>
<polygon fill="#000000" stroke="#000000" points="365.0494,-475.0559 373.1352,-471.6528 367.7747,-472.1279 370.5,-469.2 370.5,-469.2 370.5,-469.2 367.7747,-472.1279 367.8648,-466.7472 365.0494,-475.0559 365.0494,-475.0559"/>
<ellipse fill="none" stroke="#000000" cx="362.8692" cy="-477.3983" rx="3.2" ry="3.2"/>
</g>
<!-- INVENTORIES -->
<g id="node5" class="node">
<title>INVENTORIES</title>
<g id="a_node5"><a xlink:href="../../tables/INVENTORIES.html" xlink:title="INVENTORIES" target="_top">
<polygon fill="#ffffff" stroke="transparent" points="754.5,-328.2 754.5,-436.2 873.5,-436.2 873.5,-328.2 754.5,-328.2"/>
<polygon fill="#f5f5f5" stroke="transparent" points="755,-413.2 755,-436.2 874,-436.2 874,-413.2 755,-413.2"/>
<polygon fill="none" stroke="#000000" points="755,-413.2 755,-436.2 874,-436.2 874,-413.2 755,-413.2"/>
<text text-anchor="start" x="760" y="-422.3" font-family="Helvetica,sans-Serif" font-weight="bold" font-size="11.00" fill="#000000">INVENTORIES</text>
<text text-anchor="start" x="839.0437" y="-421.3" font-family="Helvetica,sans-Serif" font-size="11.00" fill="#000000">[table]</text>
<polygon fill="none" stroke="#000000" points="755,-391.2 755,-413.2 874,-413.2 874,-391.2 755,-391.2"/>
<image xlink:href="../../images/primaryKeys.png" width="11px" height="12px" preserveAspectRatio="xMinYMin meet" x="760" y="-408.2"/>
<text text-anchor="start" x="775" y="-398.3" font-family="Helvetica,sans-Serif" font-size="11.00" fill="#000000">PRODUCT_ID</text>
<polygon fill="none" stroke="#000000" points="755,-369.2 755,-391.2 874,-391.2 874,-369.2 755,-369.2"/>
<image xlink:href="../../images/primaryKeys.png" width="11px" height="12px" preserveAspectRatio="xMinYMin meet" x="760" y="-386.2"/>
<text text-anchor="start" x="775" y="-376.3" font-family="Helvetica,sans-Serif" font-size="11.00" fill="#000000">WAREHOUSE_ID</text>
<polygon fill="none" stroke="#000000" points="755,-347.2 755,-369.2 874,-369.2 874,-347.2 755,-347.2"/>
<text text-anchor="start" x="775" y="-354.3" font-family="Helvetica,sans-Serif" font-size="11.00" fill="#000000">QUANTITY</text>
<polygon fill="#ffffff" stroke="transparent" points="755,-328.2 755,-347.2 800,-347.2 800,-328.2 755,-328.2"/>
<polygon fill="none" stroke="#000000" points="755,-328.2 755,-347.2 800,-347.2 800,-328.2 755,-328.2"/>
<text text-anchor="start" x="758" y="-334.3" font-family="Helvetica,sans-Serif" font-size="11.00" fill="#000000">&lt; 2</text>
<polygon fill="#ffffff" stroke="transparent" points="800,-328.2 800,-347.2 850,-347.2 850,-328.2 800,-328.2"/>
<polygon fill="none" stroke="#000000" points="800,-328.2 800,-347.2 850,-347.2 850,-328.2 800,-328.2"/>
<text text-anchor="start" x="814.6105" y="-334.3" font-family="Helvetica,sans-Serif" font-size="11.00" fill="#000000">0 rows</text>
<polygon fill="#ffffff" stroke="transparent" points="850,-328.2 850,-347.2 874,-347.2 874,-328.2 850,-328.2"/>
<polygon fill="none" stroke="#000000" points="850,-328.2 850,-347.2 874,-347.2 874,-328.2 850,-328.2"/>
<text text-anchor="start" x="864.8862" y="-334.3" font-family="Helvetica,sans-Serif" font-size="11.00" fill="#000000"> &#160;</text>
</a>
</g>
</g>
<!-- PRODUCTS -->
<g id="node10" class="node">
<title>PRODUCTS</title>
<g id="a_node10"><a xlink:href="../../tables/PRODUCTS.html" xlink:title="PRODUCTS" target="_top">
<polygon fill="#ffffff" stroke="transparent" points="569,-343.2 569,-517.2 697,-517.2 697,-343.2 569,-343.2"/>
<polygon fill="#f5f5f5" stroke="transparent" points="569,-494.2 569,-517.2 697,-517.2 697,-494.2 569,-494.2"/>
<polygon fill="none" stroke="#000000" points="569,-494.2 569,-517.2 697,-517.2 697,-494.2 569,-494.2"/>
<text text-anchor="start" x="574" y="-503.3" font-family="Helvetica,sans-Serif" font-weight="bold" font-size="11.00" fill="#000000">PRODUCTS</text>
<text text-anchor="start" x="662.0437" y="-502.3" font-family="Helvetica,sans-Serif" font-size="11.00" fill="#000000">[table]</text>
<polygon fill="none" stroke="#000000" points="569,-472.2 569,-494.2 697,-494.2 697,-472.2 569,-472.2"/>
<image xlink:href="../../images/primaryKeys.png" width="11px" height="12px" preserveAspectRatio="xMinYMin meet" x="574" y="-489.2"/>
<text text-anchor="start" x="589" y="-479.3" font-family="Helvetica,sans-Serif" font-size="11.00" fill="#000000">PRODUCT_ID</text>
<polygon fill="none" stroke="#000000" points="569,-450.2 569,-472.2 697,-472.2 697,-450.2 569,-450.2"/>
<text text-anchor="start" x="589" y="-457.3" font-family="Helvetica,sans-Serif" font-size="11.00" fill="#000000">PRODUCT_NAME</text>
<polygon fill="none" stroke="#000000" points="569,-428.2 569,-450.2 697,-450.2 697,-428.2 569,-428.2"/>
<text text-anchor="start" x="589" y="-435.3" font-family="Helvetica,sans-Serif" font-size="11.00" fill="#000000">DESCRIPTION</text>
<polygon fill="none" stroke="#000000" points="569,-406.2 569,-428.2 697,-428.2 697,-406.2 569,-406.2"/>
<text text-anchor="start" x="589" y="-413.3" font-family="Helvetica,sans-Serif" font-size="11.00" fill="#000000">STANDARD_COST</text>
<polygon fill="none" stroke="#000000" points="569,-384.2 569,-406.2 697,-406.2 697,-384.2 569,-384.2"/>
<text text-anchor="start" x="589" y="-391.3" font-family="Helvetica,sans-Serif" font-size="11.00" fill="#000000">LIST_PRICE</text>
<polygon fill="none" stroke="#000000" points="569,-362.2 569,-384.2 697,-384.2 697,-362.2 569,-362.2"/>
<image xlink:href="../../images/foreignKeys.png" width="11px" height="12px" preserveAspectRatio="xMinYMin meet" x="574" y="-379.2"/>
<text text-anchor="start" x="589" y="-369.3" font-family="Helvetica,sans-Serif" font-size="11.00" fill="#000000">CATEGORY_ID</text>
<polygon fill="#ffffff" stroke="transparent" points="569,-343.2 569,-362.2 614,-362.2 614,-343.2 569,-343.2"/>
<polygon fill="none" stroke="#000000" points="569,-343.2 569,-362.2 614,-362.2 614,-343.2 569,-343.2"/>
<text text-anchor="start" x="572" y="-349.3" font-family="Helvetica,sans-Serif" font-size="11.00" fill="#000000">&lt; 1</text>
<polygon fill="#ffffff" stroke="transparent" points="614,-343.2 614,-362.2 664,-362.2 664,-343.2 614,-343.2"/>
<polygon fill="none" stroke="#000000" points="614,-343.2 614,-362.2 664,-362.2 664,-343.2 614,-343.2"/>
<text text-anchor="start" x="628.6105" y="-349.3" font-family="Helvetica,sans-Serif" font-size="11.00" fill="#000000">0 rows</text>
<polygon fill="#ffffff" stroke="transparent" points="664,-343.2 664,-362.2 697,-362.2 697,-343.2 664,-343.2"/>
<polygon fill="none" stroke="#000000" points="664,-343.2 664,-362.2 697,-362.2 697,-343.2 664,-343.2"/>
<text text-anchor="start" x="678.4053" y="-349.3" font-family="Helvetica,sans-Serif" font-size="11.00" fill="#000000">2 &gt;</text>
</a>
</g>
</g>
<!-- INVENTORIES&#45;&gt;PRODUCTS -->
<g id="edge4" class="edge">
<title>INVENTORIES:w&#45;&gt;PRODUCTS:e</title>
<path fill="none" stroke="#000000" d="M740.9675,-406.1068C717.5187,-422.2869 735.3969,-483.2 697,-483.2"/>
<polygon fill="#000000" stroke="#000000" points="747.2931,-404.3457 755.9656,-405.6681 751.1466,-403.2729 755,-402.2 755,-402.2 755,-402.2 751.1466,-403.2729 754.0344,-398.7319 747.2931,-404.3457 747.2931,-404.3457"/>
<ellipse fill="none" stroke="#000000" cx="744.2104" cy="-405.204" rx="3.2" ry="3.2"/>
</g>
<!-- WAREHOUSES -->
<g id="node12" class="node">
<title>WAREHOUSES</title>
<g id="a_node12"><a xlink:href="../../tables/WAREHOUSES.html" xlink:title="WAREHOUSES" target="_top">
<polygon fill="#ffffff" stroke="transparent" points="562,-214.2 562,-322.2 704,-322.2 704,-214.2 562,-214.2"/>
<polygon fill="#f5f5f5" stroke="transparent" points="562,-299.2 562,-322.2 704,-322.2 704,-299.2 562,-299.2"/>
<polygon fill="none" stroke="#000000" points="562,-299.2 562,-322.2 704,-322.2 704,-299.2 562,-299.2"/>
<text text-anchor="start" x="567" y="-308.3" font-family="Helvetica,sans-Serif" font-weight="bold" font-size="11.00" fill="#000000">WAREHOUSES</text>
<text text-anchor="start" x="669.0437" y="-307.3" font-family="Helvetica,sans-Serif" font-size="11.00" fill="#000000">[table]</text>
<polygon fill="none" stroke="#000000" points="562,-277.2 562,-299.2 704,-299.2 704,-277.2 562,-277.2"/>
<image xlink:href="../../images/primaryKeys.png" width="11px" height="12px" preserveAspectRatio="xMinYMin meet" x="567" y="-294.2"/>
<text text-anchor="start" x="582" y="-284.3" font-family="Helvetica,sans-Serif" font-size="11.00" fill="#000000">WAREHOUSE_ID</text>
<polygon fill="none" stroke="#000000" points="562,-255.2 562,-277.2 704,-277.2 704,-255.2 562,-255.2"/>
<text text-anchor="start" x="582" y="-262.3" font-family="Helvetica,sans-Serif" font-size="11.00" fill="#000000">WAREHOUSE_NAME</text>
<polygon fill="none" stroke="#000000" points="562,-233.2 562,-255.2 704,-255.2 704,-233.2 562,-233.2"/>
<image xlink:href="../../images/foreignKeys.png" width="11px" height="12px" preserveAspectRatio="xMinYMin meet" x="567" y="-250.2"/>
<text text-anchor="start" x="582" y="-240.3" font-family="Helvetica,sans-Serif" font-size="11.00" fill="#000000">LOCATION_ID</text>
<polygon fill="#ffffff" stroke="transparent" points="562,-214.2 562,-233.2 614,-233.2 614,-214.2 562,-214.2"/>
<polygon fill="none" stroke="#000000" points="562,-214.2 562,-233.2 614,-233.2 614,-214.2 562,-214.2"/>
<text text-anchor="start" x="565" y="-220.3" font-family="Helvetica,sans-Serif" font-size="11.00" fill="#000000">&lt; 1</text>
<polygon fill="#ffffff" stroke="transparent" points="614,-214.2 614,-233.2 667,-233.2 667,-214.2 614,-214.2"/>
<polygon fill="none" stroke="#000000" points="614,-214.2 614,-233.2 667,-233.2 667,-214.2 614,-214.2"/>
<text text-anchor="start" x="631.6105" y="-220.3" font-family="Helvetica,sans-Serif" font-size="11.00" fill="#000000">0 rows</text>
<polygon fill="#ffffff" stroke="transparent" points="667,-214.2 667,-233.2 704,-233.2 704,-214.2 667,-214.2"/>
<polygon fill="none" stroke="#000000" points="667,-214.2 667,-233.2 704,-233.2 704,-214.2 667,-214.2"/>
<text text-anchor="start" x="685.4053" y="-220.3" font-family="Helvetica,sans-Serif" font-size="11.00" fill="#000000">1 &gt;</text>
</a>
</g>
</g>
<!-- INVENTORIES&#45;&gt;WAREHOUSES -->
<g id="edge5" class="edge">
<title>INVENTORIES:w&#45;&gt;WAREHOUSES:e</title>
<path fill="none" stroke="#000000" d="M740.9874,-376.0079C717.7233,-358.01 744.7247,-288.2 704,-288.2"/>
<polygon fill="#000000" stroke="#000000" points="747.3356,-377.907 753.9682,-383.649 751.1678,-379.0535 755,-380.2 755,-380.2 755,-380.2 751.1678,-379.0535 756.0318,-376.751 747.3356,-377.907 747.3356,-377.907"/>
<ellipse fill="none" stroke="#000000" cx="744.2699" cy="-376.9898" rx="3.2" ry="3.2"/>
</g>
<!-- LOCATIONS -->
<g id="node6" class="node">
<title>LOCATIONS</title>
<g id="a_node6"><a xlink:href="../../tables/LOCATIONS.html" xlink:title="LOCATIONS" target="_top">
<polygon fill="#ffffff" stroke="transparent" points="370,-104.2 370,-278.2 481,-278.2 481,-104.2 370,-104.2"/>
<polygon fill="#f5f5f5" stroke="transparent" points="370.5,-255.2 370.5,-278.2 481.5,-278.2 481.5,-255.2 370.5,-255.2"/>
<polygon fill="none" stroke="#000000" points="370.5,-255.2 370.5,-278.2 481.5,-278.2 481.5,-255.2 370.5,-255.2"/>
<text text-anchor="start" x="375.5" y="-264.3" font-family="Helvetica,sans-Serif" font-weight="bold" font-size="11.00" fill="#000000">LOCATIONS</text>
<text text-anchor="start" x="446.5437" y="-263.3" font-family="Helvetica,sans-Serif" font-size="11.00" fill="#000000">[table]</text>
<polygon fill="none" stroke="#000000" points="370.5,-233.2 370.5,-255.2 481.5,-255.2 481.5,-233.2 370.5,-233.2"/>
<image xlink:href="../../images/primaryKeys.png" width="11px" height="12px" preserveAspectRatio="xMinYMin meet" x="375.5" y="-250.2"/>
<text text-anchor="start" x="390.5" y="-240.3" font-family="Helvetica,sans-Serif" font-size="11.00" fill="#000000">LOCATION_ID</text>
<polygon fill="none" stroke="#000000" points="370.5,-211.2 370.5,-233.2 481.5,-233.2 481.5,-211.2 370.5,-211.2"/>
<text text-anchor="start" x="390.5" y="-218.3" font-family="Helvetica,sans-Serif" font-size="11.00" fill="#000000">ADDRESS</text>
<polygon fill="none" stroke="#000000" points="370.5,-189.2 370.5,-211.2 481.5,-211.2 481.5,-189.2 370.5,-189.2"/>
<text text-anchor="start" x="390.5" y="-196.3" font-family="Helvetica,sans-Serif" font-size="11.00" fill="#000000">POSTAL_CODE</text>
<polygon fill="none" stroke="#000000" points="370.5,-167.2 370.5,-189.2 481.5,-189.2 481.5,-167.2 370.5,-167.2"/>
<text text-anchor="start" x="390.5" y="-174.3" font-family="Helvetica,sans-Serif" font-size="11.00" fill="#000000">CITY</text>
<polygon fill="none" stroke="#000000" points="370.5,-145.2 370.5,-167.2 481.5,-167.2 481.5,-145.2 370.5,-145.2"/>
<text text-anchor="start" x="390.5" y="-152.3" font-family="Helvetica,sans-Serif" font-size="11.00" fill="#000000">STATE</text>
<polygon fill="none" stroke="#000000" points="370.5,-123.2 370.5,-145.2 481.5,-145.2 481.5,-123.2 370.5,-123.2"/>
<image xlink:href="../../images/foreignKeys.png" width="11px" height="12px" preserveAspectRatio="xMinYMin meet" x="375.5" y="-140.2"/>
<text text-anchor="start" x="390.5" y="-130.3" font-family="Helvetica,sans-Serif" font-size="11.00" fill="#000000">COUNTRY_ID</text>
<polygon fill="#ffffff" stroke="transparent" points="370.5,-104.2 370.5,-123.2 406.5,-123.2 406.5,-104.2 370.5,-104.2"/>
<polygon fill="none" stroke="#000000" points="370.5,-104.2 370.5,-123.2 406.5,-123.2 406.5,-104.2 370.5,-104.2"/>
<text text-anchor="start" x="373.5" y="-110.3" font-family="Helvetica,sans-Serif" font-size="11.00" fill="#000000">&lt; 1</text>
<polygon fill="#ffffff" stroke="transparent" points="406.5,-104.2 406.5,-123.2 452.5,-123.2 452.5,-104.2 406.5,-104.2"/>
<polygon fill="none" stroke="#000000" points="406.5,-104.2 406.5,-123.2 452.5,-123.2 452.5,-104.2 406.5,-104.2"/>
<text text-anchor="start" x="417.1105" y="-110.3" font-family="Helvetica,sans-Serif" font-size="11.00" fill="#000000">0 rows</text>
<polygon fill="#ffffff" stroke="transparent" points="452.5,-104.2 452.5,-123.2 481.5,-123.2 481.5,-104.2 452.5,-104.2"/>
<polygon fill="none" stroke="#000000" points="452.5,-104.2 452.5,-123.2 481.5,-123.2 481.5,-104.2 452.5,-104.2"/>
<text text-anchor="start" x="462.9053" y="-110.3" font-family="Helvetica,sans-Serif" font-size="11.00" fill="#000000">1 &gt;</text>
</a>
</g>
</g>
<!-- LOCATIONS&#45;&gt;COUNTRIES -->
<g id="edge6" class="edge">
<title>LOCATIONS:w&#45;&gt;COUNTRIES:e</title>
<path fill="none" stroke="#000000" d="M355.9878,-134.2C330.9908,-134.2 319.8455,-134.2 289,-134.2"/>
<polygon fill="#000000" stroke="#000000" points="362.5,-134.2001 370.5,-137.8 366.5,-134.2 370.5,-134.2 370.5,-134.2 370.5,-134.2 366.5,-134.2 370.5,-130.6 362.5,-134.2001 362.5,-134.2001"/>
<ellipse fill="none" stroke="#000000" cx="359.3" cy="-134.2001" rx="3.2" ry="3.2"/>
</g>
<!-- ORDER_ITEMS -->
<g id="node7" class="node">
<title>ORDER_ITEMS</title>
<g id="a_node7"><a xlink:href="../../tables/ORDER_ITEMS.html" xlink:title="ORDER_ITEMS" target="_top">
<polygon fill="#ffffff" stroke="transparent" points="753,-479.2 753,-631.2 875,-631.2 875,-479.2 753,-479.2"/>
<polygon fill="#f5f5f5" stroke="transparent" points="753,-608.2 753,-631.2 875,-631.2 875,-608.2 753,-608.2"/>
<polygon fill="none" stroke="#000000" points="753,-608.2 753,-631.2 875,-631.2 875,-608.2 753,-608.2"/>
<text text-anchor="start" x="757.7796" y="-617.3" font-family="Helvetica,sans-Serif" font-weight="bold" font-size="11.00" fill="#000000">ORDER_ITEMS</text>
<text text-anchor="start" x="840.5219" y="-616.3" font-family="Helvetica,sans-Serif" font-size="11.00" fill="#000000">[table]</text>
<polygon fill="none" stroke="#000000" points="753,-586.2 753,-608.2 875,-608.2 875,-586.2 753,-586.2"/>
<image xlink:href="../../images/primaryKeys.png" width="11px" height="12px" preserveAspectRatio="xMinYMin meet" x="758" y="-603.2"/>
<text text-anchor="start" x="781" y="-593.3" font-family="Helvetica,sans-Serif" font-size="11.00" fill="#000000">ORDER_ID</text>
<polygon fill="none" stroke="#000000" points="753,-564.2 753,-586.2 875,-586.2 875,-564.2 753,-564.2"/>
<image xlink:href="../../images/primaryKeys.png" width="11px" height="12px" preserveAspectRatio="xMinYMin meet" x="758" y="-581.2"/>
<text text-anchor="start" x="781" y="-571.3" font-family="Helvetica,sans-Serif" font-size="11.00" fill="#000000">ITEM_ID</text>
<polygon fill="none" stroke="#000000" points="753,-542.2 753,-564.2 875,-564.2 875,-542.2 753,-542.2"/>
<image xlink:href="../../images/foreignKeys.png" width="11px" height="12px" preserveAspectRatio="xMinYMin meet" x="758" y="-559.2"/>
<text text-anchor="start" x="781" y="-549.3" font-family="Helvetica,sans-Serif" font-size="11.00" fill="#000000">PRODUCT_ID</text>
<polygon fill="none" stroke="#000000" points="753,-520.2 753,-542.2 875,-542.2 875,-520.2 753,-520.2"/>
<text text-anchor="start" x="781" y="-527.3" font-family="Helvetica,sans-Serif" font-size="11.00" fill="#000000">QUANTITY</text>
<polygon fill="none" stroke="#000000" points="753,-498.2 753,-520.2 875,-520.2 875,-498.2 753,-498.2"/>
<text text-anchor="start" x="781" y="-505.3" font-family="Helvetica,sans-Serif" font-size="11.00" fill="#000000">UNIT_PRICE</text>
<polygon fill="#ffffff" stroke="transparent" points="753,-479.2 753,-498.2 799,-498.2 799,-479.2 753,-479.2"/>
<polygon fill="none" stroke="#000000" points="753,-479.2 753,-498.2 799,-498.2 799,-479.2 753,-479.2"/>
<text text-anchor="start" x="756" y="-485.3" font-family="Helvetica,sans-Serif" font-size="11.00" fill="#000000">&lt; 2</text>
<polygon fill="#ffffff" stroke="transparent" points="799,-479.2 799,-498.2 850,-498.2 850,-479.2 799,-479.2"/>
<polygon fill="none" stroke="#000000" points="799,-479.2 799,-498.2 850,-498.2 850,-479.2 799,-479.2"/>
<text text-anchor="start" x="814.6105" y="-485.3" font-family="Helvetica,sans-Serif" font-size="11.00" fill="#000000">0 rows</text>
<polygon fill="#ffffff" stroke="transparent" points="850,-479.2 850,-498.2 875,-498.2 875,-479.2 850,-479.2"/>
<polygon fill="none" stroke="#000000" points="850,-479.2 850,-498.2 875,-498.2 875,-479.2 850,-479.2"/>
<text text-anchor="start" x="865.8862" y="-485.3" font-family="Helvetica,sans-Serif" font-size="11.00" fill="#000000"> &#160;</text>
</a>
</g>
</g>
<!-- ORDERS -->
<g id="node8" class="node">
<title>ORDERS</title>
<g id="a_node8"><a xlink:href="../../tables/ORDERS.html" xlink:title="ORDERS" target="_top">
<polygon fill="#ffffff" stroke="transparent" points="579,-549.2 579,-701.2 687,-701.2 687,-549.2 579,-549.2"/>
<polygon fill="#f5f5f5" stroke="transparent" points="579,-678.2 579,-701.2 687,-701.2 687,-678.2 579,-678.2"/>
<polygon fill="none" stroke="#000000" points="579,-678.2 579,-701.2 687,-701.2 687,-678.2 579,-678.2"/>
<text text-anchor="start" x="584" y="-687.3" font-family="Helvetica,sans-Serif" font-weight="bold" font-size="11.00" fill="#000000">ORDERS</text>
<text text-anchor="start" x="652.0437" y="-686.3" font-family="Helvetica,sans-Serif" font-size="11.00" fill="#000000">[table]</text>
<polygon fill="none" stroke="#000000" points="579,-656.2 579,-678.2 687,-678.2 687,-656.2 579,-656.2"/>
<image xlink:href="../../images/primaryKeys.png" width="11px" height="12px" preserveAspectRatio="xMinYMin meet" x="584" y="-673.2"/>
<text text-anchor="start" x="599" y="-663.3" font-family="Helvetica,sans-Serif" font-size="11.00" fill="#000000">ORDER_ID</text>
<polygon fill="none" stroke="#000000" points="579,-634.2 579,-656.2 687,-656.2 687,-634.2 579,-634.2"/>
<image xlink:href="../../images/foreignKeys.png" width="11px" height="12px" preserveAspectRatio="xMinYMin meet" x="584" y="-651.2"/>
<text text-anchor="start" x="599" y="-641.3" font-family="Helvetica,sans-Serif" font-size="11.00" fill="#000000">CUSTOMER_ID</text>
<polygon fill="none" stroke="#000000" points="579,-612.2 579,-634.2 687,-634.2 687,-612.2 579,-612.2"/>
<text text-anchor="start" x="599" y="-619.3" font-family="Helvetica,sans-Serif" font-size="11.00" fill="#000000">STATUS</text>
<polygon fill="none" stroke="#000000" points="579,-590.2 579,-612.2 687,-612.2 687,-590.2 579,-590.2"/>
<image xlink:href="../../images/foreignKeys.png" width="11px" height="12px" preserveAspectRatio="xMinYMin meet" x="584" y="-607.2"/>
<text text-anchor="start" x="599" y="-597.3" font-family="Helvetica,sans-Serif" font-size="11.00" fill="#000000">SALESMAN_ID</text>
<polygon fill="none" stroke="#000000" points="579,-568.2 579,-590.2 687,-590.2 687,-568.2 579,-568.2"/>
<text text-anchor="start" x="599" y="-575.3" font-family="Helvetica,sans-Serif" font-size="11.00" fill="#000000">ORDER_DATE</text>
<polygon fill="#ffffff" stroke="transparent" points="579,-549.2 579,-568.2 614,-568.2 614,-549.2 579,-549.2"/>
<polygon fill="none" stroke="#000000" points="579,-549.2 579,-568.2 614,-568.2 614,-549.2 579,-549.2"/>
<text text-anchor="start" x="582" y="-555.3" font-family="Helvetica,sans-Serif" font-size="11.00" fill="#000000">&lt; 2</text>
<polygon fill="#ffffff" stroke="transparent" points="614,-549.2 614,-568.2 659,-568.2 659,-549.2 614,-549.2"/>
<polygon fill="none" stroke="#000000" points="614,-549.2 614,-568.2 659,-568.2 659,-549.2 614,-549.2"/>
<text text-anchor="start" x="623.6105" y="-555.3" font-family="Helvetica,sans-Serif" font-size="11.00" fill="#000000">0 rows</text>
<polygon fill="#ffffff" stroke="transparent" points="659,-549.2 659,-568.2 687,-568.2 687,-549.2 659,-549.2"/>
<polygon fill="none" stroke="#000000" points="659,-549.2 659,-568.2 687,-568.2 687,-549.2 659,-549.2"/>
<text text-anchor="start" x="668.4053" y="-555.3" font-family="Helvetica,sans-Serif" font-size="11.00" fill="#000000">1 &gt;</text>
</a>
</g>
</g>
<!-- ORDER_ITEMS&#45;&gt;ORDERS -->
<g id="edge7" class="edge">
<title>ORDER_ITEMS:w&#45;&gt;ORDERS:e</title>
<path fill="none" stroke="#000000" d="M738.9669,-600.5762C714.3269,-614.559 724.0802,-667.2 687,-667.2"/>
<polygon fill="#000000" stroke="#000000" points="745.2219,-599.0714 753.8421,-600.7001 749.111,-598.1357 753,-597.2 753,-597.2 753,-597.2 749.111,-598.1357 752.1579,-593.6999 745.2219,-599.0714 745.2219,-599.0714"/>
<ellipse fill="none" stroke="#000000" cx="742.1107" cy="-599.8199" rx="3.2" ry="3.2"/>
</g>
<!-- ORDER_ITEMS&#45;&gt;PRODUCTS -->
<g id="edge8" class="edge">
<title>ORDER_ITEMS:w&#45;&gt;PRODUCTS:e</title>
<path fill="none" stroke="#000000" d="M739.0415,-549.0308C718.7896,-533.9611 730.9277,-483.2 697,-483.2"/>
<polygon fill="#000000" stroke="#000000" points="745.3346,-550.9104 751.9697,-556.6494 749.1673,-552.0552 753,-553.2 753,-553.2 753,-553.2 749.1673,-552.0552 754.0303,-549.7506 745.3346,-550.9104 745.3346,-550.9104"/>
<ellipse fill="none" stroke="#000000" cx="742.2685" cy="-549.9946" rx="3.2" ry="3.2"/>
</g>
<!-- ORDERS&#45;&gt;CUSTOMERS -->
<g id="edge9" class="edge">
<title>ORDERS:w&#45;&gt;CUSTOMERS:e</title>
<path fill="none" stroke="#000000" d="M564.4648,-647.278C508.5751,-665.1451 555.1579,-792.2 482.5,-792.2"/>
<polygon fill="#000000" stroke="#000000" points="571.0805,-646.3323 579.5095,-648.7638 575.0403,-645.7661 579,-645.2 579,-645.2 579,-645.2 575.0403,-645.7661 578.4905,-641.6362 571.0805,-646.3323 571.0805,-646.3323"/>
<ellipse fill="none" stroke="#000000" cx="567.9127" cy="-646.7852" rx="3.2" ry="3.2"/>
</g>
<!-- ORDERS&#45;&gt;EMPLOYEES -->
<g id="edge10" class="edge">
<title>ORDERS:w&#45;&gt;EMPLOYEES:e</title>
<path fill="none" stroke="#000000" d="M564.4241,-601.2C532.0902,-601.2 518.9766,-601.2 480.5,-601.2"/>
<polygon fill="#000000" stroke="#000000" points="571,-601.2001 579,-604.8 575,-601.2 579,-601.2 579,-601.2 579,-601.2 575,-601.2 579,-597.6 571,-601.2001 571,-601.2001"/>
<ellipse fill="none" stroke="#000000" cx="567.8" cy="-601.2001" rx="3.2" ry="3.2"/>
</g>
<!-- PRODUCT_CATEGORIES -->
<g id="node9" class="node">
<title>PRODUCT_CATEGORIES</title>
<g id="a_node9"><a xlink:href="../../tables/PRODUCT_CATEGORIES.html" xlink:title="PRODUCT_CATEGORIES" target="_top">
<polygon fill="#ffffff" stroke="transparent" points="338,-310.2 338,-396.2 513,-396.2 513,-310.2 338,-310.2"/>
<polygon fill="#f5f5f5" stroke="transparent" points="338.5,-373.2 338.5,-396.2 513.5,-396.2 513.5,-373.2 338.5,-373.2"/>
<polygon fill="none" stroke="#000000" points="338.5,-373.2 338.5,-396.2 513.5,-396.2 513.5,-373.2 338.5,-373.2"/>
<text text-anchor="start" x="343.1964" y="-382.3" font-family="Helvetica,sans-Serif" font-weight="bold" font-size="11.00" fill="#000000">PRODUCT_CATEGORIES</text>
<text text-anchor="start" x="479.0219" y="-381.3" font-family="Helvetica,sans-Serif" font-size="11.00" fill="#000000">[table]</text>
<polygon fill="none" stroke="#000000" points="338.5,-351.2 338.5,-373.2 513.5,-373.2 513.5,-351.2 338.5,-351.2"/>
<image xlink:href="../../images/primaryKeys.png" width="11px" height="12px" preserveAspectRatio="xMinYMin meet" x="343.5" y="-368.2"/>
<text text-anchor="start" x="363.5" y="-358.3" font-family="Helvetica,sans-Serif" font-size="11.00" fill="#000000">CATEGORY_ID</text>
<polygon fill="none" stroke="#000000" points="338.5,-329.2 338.5,-351.2 513.5,-351.2 513.5,-329.2 338.5,-329.2"/>
<text text-anchor="start" x="363.5" y="-336.3" font-family="Helvetica,sans-Serif" font-size="11.00" fill="#000000">CATEGORY_NAME</text>
<polygon fill="#ffffff" stroke="transparent" points="338.5,-310.2 338.5,-329.2 402.5,-329.2 402.5,-310.2 338.5,-310.2"/>
<polygon fill="none" stroke="#000000" points="338.5,-310.2 338.5,-329.2 402.5,-329.2 402.5,-310.2 338.5,-310.2"/>
<text text-anchor="start" x="341.5" y="-316.3" font-family="Helvetica,sans-Serif" font-size="11.00" fill="#000000"> &#160;</text>
<polygon fill="#ffffff" stroke="transparent" points="402.5,-310.2 402.5,-329.2 466.5,-329.2 466.5,-310.2 402.5,-310.2"/>
<polygon fill="none" stroke="#000000" points="402.5,-310.2 402.5,-329.2 466.5,-329.2 466.5,-310.2 402.5,-310.2"/>
<text text-anchor="start" x="431.1105" y="-316.3" font-family="Helvetica,sans-Serif" font-size="11.00" fill="#000000">0 rows</text>
<polygon fill="#ffffff" stroke="transparent" points="466.5,-310.2 466.5,-329.2 513.5,-329.2 513.5,-310.2 466.5,-310.2"/>
<polygon fill="none" stroke="#000000" points="466.5,-310.2 466.5,-329.2 513.5,-329.2 513.5,-310.2 466.5,-310.2"/>
<text text-anchor="start" x="494.9053" y="-316.3" font-family="Helvetica,sans-Serif" font-size="11.00" fill="#000000">1 &gt;</text>
</a>
</g>
</g>
<!-- PRODUCTS&#45;&gt;PRODUCT_CATEGORIES -->
<g id="edge11" class="edge">
<title>PRODUCTS:w&#45;&gt;PRODUCT_CATEGORIES:e</title>
<path fill="none" stroke="#000000" d="M554.515,-371.7619C540.4706,-368.7803 532.9492,-362.2 513.5,-362.2"/>
<polygon fill="#000000" stroke="#000000" points="561.0391,-372.4096 568.6443,-376.7824 565.0196,-372.8048 569,-373.2 569,-373.2 569,-373.2 565.0196,-372.8048 569.3557,-369.6176 561.0391,-372.4096 561.0391,-372.4096"/>
<ellipse fill="none" stroke="#000000" cx="557.8548" cy="-372.0934" rx="3.2" ry="3.2"/>
</g>
<!-- WAREHOUSES&#45;&gt;LOCATIONS -->
<g id="edge12" class="edge">
<title>WAREHOUSES:w&#45;&gt;LOCATIONS:e</title>
<path fill="none" stroke="#000000" d="M547.327,-244.2C522.8742,-244.2 511.8273,-244.2 481.5,-244.2"/>
<polygon fill="#000000" stroke="#000000" points="554,-244.2001 562,-247.8 558,-244.2 562,-244.2 562,-244.2 562,-244.2 558,-244.2 562,-240.6 554,-244.2001 554,-244.2001"/>
<ellipse fill="none" stroke="#000000" cx="550.8" cy="-244.2001" rx="3.2" ry="3.2"/>
</g>
</g>
</svg>
