<?xml version="1.0" encoding="UTF-8" standalone="no"?>
<!DOCTYPE svg PUBLIC "-//W3C//DTD SVG 1.1//EN"
 "http://www.w3.org/Graphics/SVG/1.1/DTD/svg11.dtd">
<!-- Generated by graphviz version 2.40.1 (20161225.0304)
 -->
<!-- Title: oneDegreeRelationshipsDiagram Pages: 1 -->
<svg width="371pt" height="245pt"
 viewBox="0.00 0.00 371.00 244.70" xmlns="http://www.w3.org/2000/svg" xmlns:xlink="http://www.w3.org/1999/xlink">
<g id="graph0" class="graph" transform="scale(1 1) rotate(0) translate(4 240.7)">
<title>oneDegreeRelationshipsDiagram</title>
<polygon fill="#ffffff" stroke="transparent" points="-4,4 -4,-240.7 367,-240.7 367,4 -4,4"/>
<text text-anchor="middle" x="72.4936" y="-7.3" font-family="Helvetica,sans-Serif" font-size="11.00" fill="#000000">Generated by SchemaSpy</text>
<!-- CONTACTS -->
<g id="node1" class="node">
<title>CONTACTS</title>
<g id="a_node1"><a xlink:href="../../tables/CONTACTS.html" xlink:title="CONTACTS" target="_top">
<polygon fill="#ffffff" stroke="transparent" points="170,-54.7 170,-232.7 355,-232.7 355,-54.7 170,-54.7"/>
<polygon fill="#f5f5f5" stroke="transparent" points="172.5,-207.7 172.5,-230.7 353.5,-230.7 353.5,-207.7 172.5,-207.7"/>
<polygon fill="none" stroke="#000000" points="172.5,-207.7 172.5,-230.7 353.5,-230.7 353.5,-207.7 172.5,-207.7"/>
<text text-anchor="start" x="177.5" y="-216.8" font-family="Helvetica,sans-Serif" font-weight="bold" font-size="11.00" fill="#000000">CONTACTS</text>
<text text-anchor="start" x="318.5437" y="-215.8" font-family="Helvetica,sans-Serif" font-size="11.00" fill="#000000">[table]</text>
<polygon fill="none" stroke="#000000" points="172.5,-185.7 172.5,-207.7 280.5,-207.7 280.5,-185.7 172.5,-185.7"/>
<image xlink:href="../../images/primaryKeys.png" width="11px" height="12px" preserveAspectRatio="xMinYMin meet" x="177.5" y="-202.7"/>
<text text-anchor="start" x="192.5" y="-192.8" font-family="Helvetica,sans-Serif" font-size="11.00" fill="#000000">CONTACT_ID</text>
<polygon fill="none" stroke="#000000" points="280.5,-185.7 280.5,-207.7 353.5,-207.7 353.5,-185.7 280.5,-185.7"/>
<text text-anchor="start" x="283.5" y="-193.4" font-family="Helvetica,sans-Serif" font-size="11.00" fill="#000000">number[0]</text>
<polygon fill="none" stroke="#000000" points="172.5,-163.7 172.5,-185.7 280.5,-185.7 280.5,-163.7 172.5,-163.7"/>
<text text-anchor="start" x="192.5" y="-170.8" font-family="Helvetica,sans-Serif" font-size="11.00" fill="#000000">FIRST_NAME</text>
<polygon fill="none" stroke="#000000" points="280.5,-163.7 280.5,-185.7 353.5,-185.7 353.5,-163.7 280.5,-163.7"/>
<text text-anchor="start" x="283.3791" y="-171.4" font-family="Helvetica,sans-Serif" font-size="11.00" fill="#000000">varchar2[255]</text>
<polygon fill="none" stroke="#000000" points="172.5,-141.7 172.5,-163.7 280.5,-163.7 280.5,-141.7 172.5,-141.7"/>
<text text-anchor="start" x="192.5" y="-148.8" font-family="Helvetica,sans-Serif" font-size="11.00" fill="#000000">LAST_NAME</text>
<polygon fill="none" stroke="#000000" points="280.5,-141.7 280.5,-163.7 353.5,-163.7 353.5,-141.7 280.5,-141.7"/>
<text text-anchor="start" x="283.3791" y="-149.4" font-family="Helvetica,sans-Serif" font-size="11.00" fill="#000000">varchar2[255]</text>
<polygon fill="none" stroke="#000000" points="172.5,-119.7 172.5,-141.7 280.5,-141.7 280.5,-119.7 172.5,-119.7"/>
<text text-anchor="start" x="192.5" y="-126.8" font-family="Helvetica,sans-Serif" font-size="11.00" fill="#000000">EMAIL</text>
<polygon fill="none" stroke="#000000" points="280.5,-119.7 280.5,-141.7 353.5,-141.7 353.5,-119.7 280.5,-119.7"/>
<text text-anchor="start" x="283.3791" y="-127.4" font-family="Helvetica,sans-Serif" font-size="11.00" fill="#000000">varchar2[255]</text>
<polygon fill="none" stroke="#000000" points="172.5,-97.7 172.5,-119.7 280.5,-119.7 280.5,-97.7 172.5,-97.7"/>
<text text-anchor="start" x="192.5" y="-104.8" font-family="Helvetica,sans-Serif" font-size="11.00" fill="#000000">PHONE</text>
<polygon fill="none" stroke="#000000" points="280.5,-97.7 280.5,-119.7 353.5,-119.7 353.5,-97.7 280.5,-97.7"/>
<text text-anchor="start" x="283.5" y="-105.4" font-family="Helvetica,sans-Serif" font-size="11.00" fill="#000000">varchar2[20]</text>
<polygon fill="none" stroke="#000000" points="172.5,-75.7 172.5,-97.7 280.5,-97.7 280.5,-75.7 172.5,-75.7"/>
<image xlink:href="../../images/foreignKeys.png" width="11px" height="12px" preserveAspectRatio="xMinYMin meet" x="177.5" y="-92.7"/>
<text text-anchor="start" x="192.5" y="-82.8" font-family="Helvetica,sans-Serif" font-size="11.00" fill="#000000">CUSTOMER_ID</text>
<polygon fill="none" stroke="#000000" points="280.5,-75.7 280.5,-97.7 353.5,-97.7 353.5,-75.7 280.5,-75.7"/>
<text text-anchor="start" x="283.5" y="-83.4" font-family="Helvetica,sans-Serif" font-size="11.00" fill="#000000">number[0]</text>
<polygon fill="#ffffff" stroke="transparent" points="172.5,-56.7 172.5,-75.7 217.5,-75.7 217.5,-56.7 172.5,-56.7"/>
<polygon fill="none" stroke="#000000" points="172.5,-56.7 172.5,-75.7 217.5,-75.7 217.5,-56.7 172.5,-56.7"/>
<text text-anchor="start" x="175.5" y="-62.8" font-family="Helvetica,sans-Serif" font-size="11.00" fill="#000000">&lt; 1</text>
<polygon fill="#ffffff" stroke="transparent" points="217.5,-56.7 217.5,-75.7 280.5,-75.7 280.5,-56.7 217.5,-56.7"/>
<polygon fill="none" stroke="#000000" points="217.5,-56.7 217.5,-75.7 280.5,-75.7 280.5,-56.7 217.5,-56.7"/>
<text text-anchor="start" x="245.1105" y="-62.8" font-family="Helvetica,sans-Serif" font-size="11.00" fill="#000000">0 rows</text>
<polygon fill="#ffffff" stroke="transparent" points="280.5,-56.7 280.5,-75.7 353.5,-75.7 353.5,-56.7 280.5,-56.7"/>
<polygon fill="none" stroke="#000000" points="280.5,-56.7 280.5,-75.7 353.5,-75.7 353.5,-56.7 280.5,-56.7"/>
<text text-anchor="start" x="334.9053" y="-62.8" font-family="Helvetica,sans-Serif" font-size="11.00" fill="#000000">0 &gt;</text>
<polygon fill="none" stroke="#000000" stroke-width="2" points="171,-55.7 171,-231.7 354,-231.7 354,-55.7 171,-55.7"/>
</a>
</g>
</g>
<!-- CUSTOMERS -->
<g id="node2" class="node">
<title>CUSTOMERS</title>
<g id="a_node2"><a xlink:href="../../tables/CUSTOMERS.html" xlink:title="CUSTOMERS" target="_top">
<polygon fill="#ffffff" stroke="transparent" points="8,-38.2 8,-121.2 121,-121.2 121,-38.2 8,-38.2"/>
<polygon fill="#f5f5f5" stroke="transparent" points="8.5,-97.7 8.5,-120.7 121.5,-120.7 121.5,-97.7 8.5,-97.7"/>
<polygon fill="none" stroke="#000000" points="8.5,-97.7 8.5,-120.7 121.5,-120.7 121.5,-97.7 8.5,-97.7"/>
<text text-anchor="start" x="13.3655" y="-106.8" font-family="Helvetica,sans-Serif" font-weight="bold" font-size="11.00" fill="#000000">CUSTOMERS</text>
<text text-anchor="start" x="87.0219" y="-105.8" font-family="Helvetica,sans-Serif" font-size="11.00" fill="#000000">[table]</text>
<polygon fill="none" stroke="#000000" points="8.5,-75.7 8.5,-97.7 121.5,-97.7 121.5,-75.7 8.5,-75.7"/>
<image xlink:href="../../images/primaryKeys.png" width="11px" height="12px" preserveAspectRatio="xMinYMin meet" x="13.5" y="-92.7"/>
<text text-anchor="start" x="31.5" y="-82.8" font-family="Helvetica,sans-Serif" font-size="11.00" fill="#000000">CUSTOMER_ID</text>
<polygon fill="none" stroke="#000000" points="8.5,-56.7 8.5,-75.7 121.5,-75.7 121.5,-56.7 8.5,-56.7"/>
<text text-anchor="start" x="11.5" y="-62.8" font-family="Helvetica,sans-Serif" font-size="11.00" fill="#000000">...</text>
<polygon fill="#ffffff" stroke="transparent" points="8.5,-37.7 8.5,-56.7 41.5,-56.7 41.5,-37.7 8.5,-37.7"/>
<polygon fill="none" stroke="#000000" points="8.5,-37.7 8.5,-56.7 41.5,-56.7 41.5,-37.7 8.5,-37.7"/>
<text text-anchor="start" x="11.5" y="-43.8" font-family="Helvetica,sans-Serif" font-size="11.00" fill="#000000"> &#160;</text>
<polygon fill="#ffffff" stroke="transparent" points="41.5,-37.7 41.5,-56.7 89.5,-56.7 89.5,-37.7 41.5,-37.7"/>
<polygon fill="none" stroke="#000000" points="41.5,-37.7 41.5,-56.7 89.5,-56.7 89.5,-37.7 41.5,-37.7"/>
<text text-anchor="start" x="54.1105" y="-43.8" font-family="Helvetica,sans-Serif" font-size="11.00" fill="#000000">0 rows</text>
<polygon fill="#ffffff" stroke="transparent" points="89.5,-37.7 89.5,-56.7 121.5,-56.7 121.5,-37.7 89.5,-37.7"/>
<polygon fill="none" stroke="#000000" points="89.5,-37.7 89.5,-56.7 121.5,-56.7 121.5,-37.7 89.5,-37.7"/>
<text text-anchor="start" x="102.9053" y="-43.8" font-family="Helvetica,sans-Serif" font-size="11.00" fill="#000000">2 &gt;</text>
</a>
</g>
</g>
<!-- CONTACTS&#45;&gt;CUSTOMERS -->
<g id="edge1" class="edge">
<title>CONTACTS:w&#45;&gt;CUSTOMERS:e</title>
<path fill="none" stroke="#000000" d="M157.776,-86.7C145.7815,-86.7 138.3229,-86.7 121.5,-86.7"/>
<polygon fill="#000000" stroke="#000000" points="164.5,-86.7001 172.5,-90.3 168.5,-86.7 172.5,-86.7 172.5,-86.7 172.5,-86.7 168.5,-86.7 172.5,-83.1 164.5,-86.7001 164.5,-86.7001"/>
<ellipse fill="none" stroke="#000000" cx="161.3" cy="-86.7001" rx="3.2" ry="3.2"/>
</g>
</g>
</svg>
