<?xml version="1.0" encoding="UTF-8" standalone="no"?>
<!DOCTYPE svg PUBLIC "-//W3C//DTD SVG 1.1//EN"
 "http://www.w3.org/Graphics/SVG/1.1/DTD/svg11.dtd">
<!-- Generated by graphviz version 2.40.1 (20161225.0304)
 -->
<!-- Title: twoDegreesRelationshipsDiagram Pages: 1 -->
<svg width="371pt" height="311pt"
 viewBox="0.00 0.00 371.00 310.70" xmlns="http://www.w3.org/2000/svg" xmlns:xlink="http://www.w3.org/1999/xlink">
<g id="graph0" class="graph" transform="scale(1 1) rotate(0) translate(4 306.7)">
<title>twoDegreesRelationshipsDiagram</title>
<polygon fill="#ffffff" stroke="transparent" points="-4,4 -4,-306.7 367,-306.7 367,4 -4,4"/>
<text text-anchor="middle" x="72.4936" y="-7.3" font-family="Helvetica,sans-Serif" font-size="11.00" fill="#000000">Generated by SchemaSpy</text>
<!-- CONTACTS -->
<g id="node1" class="node">
<title>CONTACTS</title>
<g id="a_node1"><a xlink:href="../../tables/CONTACTS.html" xlink:title="CONTACTS" target="_top">
<polygon fill="#ffffff" stroke="transparent" points="170,-120.7 170,-298.7 355,-298.7 355,-120.7 170,-120.7"/>
<polygon fill="#f5f5f5" stroke="transparent" points="172.5,-273.7 172.5,-296.7 353.5,-296.7 353.5,-273.7 172.5,-273.7"/>
<polygon fill="none" stroke="#000000" points="172.5,-273.7 172.5,-296.7 353.5,-296.7 353.5,-273.7 172.5,-273.7"/>
<text text-anchor="start" x="177.5" y="-282.8" font-family="Helvetica,sans-Serif" font-weight="bold" font-size="11.00" fill="#000000">CONTACTS</text>
<text text-anchor="start" x="318.5437" y="-281.8" font-family="Helvetica,sans-Serif" font-size="11.00" fill="#000000">[table]</text>
<polygon fill="none" stroke="#000000" points="172.5,-251.7 172.5,-273.7 280.5,-273.7 280.5,-251.7 172.5,-251.7"/>
<image xlink:href="../../images/primaryKeys.png" width="11px" height="12px" preserveAspectRatio="xMinYMin meet" x="177.5" y="-268.7"/>
<text text-anchor="start" x="192.5" y="-258.8" font-family="Helvetica,sans-Serif" font-size="11.00" fill="#000000">CONTACT_ID</text>
<polygon fill="none" stroke="#000000" points="280.5,-251.7 280.5,-273.7 353.5,-273.7 353.5,-251.7 280.5,-251.7"/>
<text text-anchor="start" x="283.5" y="-259.4" font-family="Helvetica,sans-Serif" font-size="11.00" fill="#000000">number[0]</text>
<polygon fill="none" stroke="#000000" points="172.5,-229.7 172.5,-251.7 280.5,-251.7 280.5,-229.7 172.5,-229.7"/>
<text text-anchor="start" x="192.5" y="-236.8" font-family="Helvetica,sans-Serif" font-size="11.00" fill="#000000">FIRST_NAME</text>
<polygon fill="none" stroke="#000000" points="280.5,-229.7 280.5,-251.7 353.5,-251.7 353.5,-229.7 280.5,-229.7"/>
<text text-anchor="start" x="283.3791" y="-237.4" font-family="Helvetica,sans-Serif" font-size="11.00" fill="#000000">varchar2[255]</text>
<polygon fill="none" stroke="#000000" points="172.5,-207.7 172.5,-229.7 280.5,-229.7 280.5,-207.7 172.5,-207.7"/>
<text text-anchor="start" x="192.5" y="-214.8" font-family="Helvetica,sans-Serif" font-size="11.00" fill="#000000">LAST_NAME</text>
<polygon fill="none" stroke="#000000" points="280.5,-207.7 280.5,-229.7 353.5,-229.7 353.5,-207.7 280.5,-207.7"/>
<text text-anchor="start" x="283.3791" y="-215.4" font-family="Helvetica,sans-Serif" font-size="11.00" fill="#000000">varchar2[255]</text>
<polygon fill="none" stroke="#000000" points="172.5,-185.7 172.5,-207.7 280.5,-207.7 280.5,-185.7 172.5,-185.7"/>
<text text-anchor="start" x="192.5" y="-192.8" font-family="Helvetica,sans-Serif" font-size="11.00" fill="#000000">EMAIL</text>
<polygon fill="none" stroke="#000000" points="280.5,-185.7 280.5,-207.7 353.5,-207.7 353.5,-185.7 280.5,-185.7"/>
<text text-anchor="start" x="283.3791" y="-193.4" font-family="Helvetica,sans-Serif" font-size="11.00" fill="#000000">varchar2[255]</text>
<polygon fill="none" stroke="#000000" points="172.5,-163.7 172.5,-185.7 280.5,-185.7 280.5,-163.7 172.5,-163.7"/>
<text text-anchor="start" x="192.5" y="-170.8" font-family="Helvetica,sans-Serif" font-size="11.00" fill="#000000">PHONE</text>
<polygon fill="none" stroke="#000000" points="280.5,-163.7 280.5,-185.7 353.5,-185.7 353.5,-163.7 280.5,-163.7"/>
<text text-anchor="start" x="283.5" y="-171.4" font-family="Helvetica,sans-Serif" font-size="11.00" fill="#000000">varchar2[20]</text>
<polygon fill="none" stroke="#000000" points="172.5,-141.7 172.5,-163.7 280.5,-163.7 280.5,-141.7 172.5,-141.7"/>
<image xlink:href="../../images/foreignKeys.png" width="11px" height="12px" preserveAspectRatio="xMinYMin meet" x="177.5" y="-158.7"/>
<text text-anchor="start" x="192.5" y="-148.8" font-family="Helvetica,sans-Serif" font-size="11.00" fill="#000000">CUSTOMER_ID</text>
<polygon fill="none" stroke="#000000" points="280.5,-141.7 280.5,-163.7 353.5,-163.7 353.5,-141.7 280.5,-141.7"/>
<text text-anchor="start" x="283.5" y="-149.4" font-family="Helvetica,sans-Serif" font-size="11.00" fill="#000000">number[0]</text>
<polygon fill="#ffffff" stroke="transparent" points="172.5,-122.7 172.5,-141.7 217.5,-141.7 217.5,-122.7 172.5,-122.7"/>
<polygon fill="none" stroke="#000000" points="172.5,-122.7 172.5,-141.7 217.5,-141.7 217.5,-122.7 172.5,-122.7"/>
<text text-anchor="start" x="175.5" y="-128.8" font-family="Helvetica,sans-Serif" font-size="11.00" fill="#000000">&lt; 1</text>
<polygon fill="#ffffff" stroke="transparent" points="217.5,-122.7 217.5,-141.7 280.5,-141.7 280.5,-122.7 217.5,-122.7"/>
<polygon fill="none" stroke="#000000" points="217.5,-122.7 217.5,-141.7 280.5,-141.7 280.5,-122.7 217.5,-122.7"/>
<text text-anchor="start" x="245.1105" y="-128.8" font-family="Helvetica,sans-Serif" font-size="11.00" fill="#000000">0 rows</text>
<polygon fill="#ffffff" stroke="transparent" points="280.5,-122.7 280.5,-141.7 353.5,-141.7 353.5,-122.7 280.5,-122.7"/>
<polygon fill="none" stroke="#000000" points="280.5,-122.7 280.5,-141.7 353.5,-141.7 353.5,-122.7 280.5,-122.7"/>
<text text-anchor="start" x="334.9053" y="-128.8" font-family="Helvetica,sans-Serif" font-size="11.00" fill="#000000">0 &gt;</text>
<polygon fill="none" stroke="#000000" stroke-width="2" points="171,-121.7 171,-297.7 354,-297.7 354,-121.7 171,-121.7"/>
</a>
</g>
</g>
<!-- CUSTOMERS -->
<g id="node2" class="node">
<title>CUSTOMERS</title>
<g id="a_node2"><a xlink:href="../../tables/CUSTOMERS.html" xlink:title="CUSTOMERS" target="_top">
<polygon fill="#ffffff" stroke="transparent" points="8,-60.2 8,-143.2 121,-143.2 121,-60.2 8,-60.2"/>
<polygon fill="#f5f5f5" stroke="transparent" points="8.5,-119.7 8.5,-142.7 121.5,-142.7 121.5,-119.7 8.5,-119.7"/>
<polygon fill="none" stroke="#000000" points="8.5,-119.7 8.5,-142.7 121.5,-142.7 121.5,-119.7 8.5,-119.7"/>
<text text-anchor="start" x="13.3655" y="-128.8" font-family="Helvetica,sans-Serif" font-weight="bold" font-size="11.00" fill="#000000">CUSTOMERS</text>
<text text-anchor="start" x="87.0219" y="-127.8" font-family="Helvetica,sans-Serif" font-size="11.00" fill="#000000">[table]</text>
<polygon fill="none" stroke="#000000" points="8.5,-97.7 8.5,-119.7 121.5,-119.7 121.5,-97.7 8.5,-97.7"/>
<image xlink:href="../../images/primaryKeys.png" width="11px" height="12px" preserveAspectRatio="xMinYMin meet" x="13.5" y="-114.7"/>
<text text-anchor="start" x="31.5" y="-104.8" font-family="Helvetica,sans-Serif" font-size="11.00" fill="#000000">CUSTOMER_ID</text>
<polygon fill="none" stroke="#000000" points="8.5,-78.7 8.5,-97.7 121.5,-97.7 121.5,-78.7 8.5,-78.7"/>
<text text-anchor="start" x="11.5" y="-84.8" font-family="Helvetica,sans-Serif" font-size="11.00" fill="#000000">...</text>
<polygon fill="#ffffff" stroke="transparent" points="8.5,-59.7 8.5,-78.7 41.5,-78.7 41.5,-59.7 8.5,-59.7"/>
<polygon fill="none" stroke="#000000" points="8.5,-59.7 8.5,-78.7 41.5,-78.7 41.5,-59.7 8.5,-59.7"/>
<text text-anchor="start" x="11.5" y="-65.8" font-family="Helvetica,sans-Serif" font-size="11.00" fill="#000000"> &#160;</text>
<polygon fill="#ffffff" stroke="transparent" points="41.5,-59.7 41.5,-78.7 89.5,-78.7 89.5,-59.7 41.5,-59.7"/>
<polygon fill="none" stroke="#000000" points="41.5,-59.7 41.5,-78.7 89.5,-78.7 89.5,-59.7 41.5,-59.7"/>
<text text-anchor="start" x="54.1105" y="-65.8" font-family="Helvetica,sans-Serif" font-size="11.00" fill="#000000">0 rows</text>
<polygon fill="#ffffff" stroke="transparent" points="89.5,-59.7 89.5,-78.7 121.5,-78.7 121.5,-59.7 89.5,-59.7"/>
<polygon fill="none" stroke="#000000" points="89.5,-59.7 89.5,-78.7 121.5,-78.7 121.5,-59.7 89.5,-59.7"/>
<text text-anchor="start" x="102.9053" y="-65.8" font-family="Helvetica,sans-Serif" font-size="11.00" fill="#000000">2 &gt;</text>
</a>
</g>
</g>
<!-- CONTACTS&#45;&gt;CUSTOMERS -->
<g id="edge1" class="edge">
<title>CONTACTS:w&#45;&gt;CUSTOMERS:e</title>
<path fill="none" stroke="#000000" d="M158.4107,-147.9912C144.5669,-136.6404 145.3557,-108.7 121.5,-108.7"/>
<polygon fill="#000000" stroke="#000000" points="164.9125,-150.1642 171.3589,-156.1144 168.7063,-151.4321 172.5,-152.7 172.5,-152.7 172.5,-152.7 168.7063,-151.4321 173.6411,-149.2856 164.9125,-150.1642 164.9125,-150.1642"/>
<ellipse fill="none" stroke="#000000" cx="161.8775" cy="-149.1498" rx="3.2" ry="3.2"/>
</g>
<!-- ORDERS -->
<g id="node3" class="node">
<title>ORDERS</title>
<g id="a_node3"><a xlink:href="../../tables/ORDERS.html" xlink:title="ORDERS" target="_top">
<polygon fill="#ffffff" stroke="transparent" points="217.5,-38.2 217.5,-99.2 307.5,-99.2 307.5,-38.2 217.5,-38.2"/>
<polygon fill="#f5f5f5" stroke="transparent" points="217.5,-75.7 217.5,-98.7 307.5,-98.7 307.5,-75.7 217.5,-75.7"/>
<polygon fill="none" stroke="#000000" points="217.5,-75.7 217.5,-98.7 307.5,-98.7 307.5,-75.7 217.5,-75.7"/>
<text text-anchor="start" x="222.4743" y="-84.8" font-family="Helvetica,sans-Serif" font-weight="bold" font-size="11.00" fill="#000000">ORDERS</text>
<text text-anchor="start" x="273.0219" y="-83.8" font-family="Helvetica,sans-Serif" font-size="11.00" fill="#000000">[table]</text>
<polygon fill="none" stroke="#000000" points="217.5,-56.7 217.5,-75.7 307.5,-75.7 307.5,-56.7 217.5,-56.7"/>
<text text-anchor="start" x="220.5" y="-62.8" font-family="Helvetica,sans-Serif" font-size="11.00" fill="#000000">...</text>
<polygon fill="#ffffff" stroke="transparent" points="217.5,-37.7 217.5,-56.7 243.5,-56.7 243.5,-37.7 217.5,-37.7"/>
<polygon fill="none" stroke="#000000" points="217.5,-37.7 217.5,-56.7 243.5,-56.7 243.5,-37.7 217.5,-37.7"/>
<text text-anchor="start" x="220.5" y="-43.8" font-family="Helvetica,sans-Serif" font-size="11.00" fill="#000000">&lt; 2</text>
<polygon fill="#ffffff" stroke="transparent" points="243.5,-37.7 243.5,-56.7 283.5,-56.7 283.5,-37.7 243.5,-37.7"/>
<polygon fill="none" stroke="#000000" points="243.5,-37.7 243.5,-56.7 283.5,-56.7 283.5,-37.7 243.5,-37.7"/>
<text text-anchor="start" x="248.1105" y="-43.8" font-family="Helvetica,sans-Serif" font-size="11.00" fill="#000000">0 rows</text>
<polygon fill="#ffffff" stroke="transparent" points="283.5,-37.7 283.5,-56.7 307.5,-56.7 307.5,-37.7 283.5,-37.7"/>
<polygon fill="none" stroke="#000000" points="283.5,-37.7 283.5,-56.7 307.5,-56.7 307.5,-37.7 283.5,-37.7"/>
<text text-anchor="start" x="288.9053" y="-43.8" font-family="Helvetica,sans-Serif" font-size="11.00" fill="#000000">1 &gt;</text>
</a>
</g>
</g>
<!-- ORDERS&#45;&gt;CUSTOMERS -->
<g id="edge2" class="edge">
<title>ORDERS:w&#45;&gt;CUSTOMERS:e</title>
<path fill="none" stroke="#000000" d="M202.7448,-67.3331C169.5557,-75.1876 162.7726,-108.7 121.5,-108.7"/>
<polygon fill="#000000" stroke="#000000" points="209.5486,-66.5801 217.8961,-69.2781 213.5243,-66.1401 217.5,-65.7 217.5,-65.7 217.5,-65.7 213.5243,-66.1401 217.1039,-62.1219 209.5486,-66.5801 209.5486,-66.5801"/>
<ellipse fill="none" stroke="#000000" cx="206.368" cy="-66.9322" rx="3.2" ry="3.2"/>
</g>
</g>
</svg>
