<?xml version="1.0" encoding="UTF-8" standalone="no"?>
<!DOCTYPE svg PUBLIC "-//W3C//DTD SVG 1.1//EN"
 "http://www.w3.org/Graphics/SVG/1.1/DTD/svg11.dtd">
<!-- Generated by graphviz version 2.40.1 (20161225.0304)
 -->
<!-- Title: twoDegreesRelationshipsDiagram Pages: 1 -->
<svg width="707pt" height="199pt"
 viewBox="0.00 0.00 707.00 199.20" xmlns="http://www.w3.org/2000/svg" xmlns:xlink="http://www.w3.org/1999/xlink">
<g id="graph0" class="graph" transform="scale(1 1) rotate(0) translate(4 195.2)">
<title>twoDegreesRelationshipsDiagram</title>
<polygon fill="#ffffff" stroke="transparent" points="-4,4 -4,-195.2 703,-195.2 703,4 -4,4"/>
<text text-anchor="middle" x="72.4936" y="-7.3" font-family="Helvetica,sans-Serif" font-size="11.00" fill="#000000">Generated by SchemaSpy</text>
<!-- COUNTRIES -->
<g id="node1" class="node">
<title>COUNTRIES</title>
<g id="a_node1"><a xlink:href="../../tables/COUNTRIES.html" xlink:title="COUNTRIES" target="_top">
<polygon fill="#ffffff" stroke="transparent" points="167,-54.7 167,-166.7 360,-166.7 360,-54.7 167,-54.7"/>
<polygon fill="#f5f5f5" stroke="transparent" points="169.5,-141.7 169.5,-164.7 358.5,-164.7 358.5,-141.7 169.5,-141.7"/>
<polygon fill="none" stroke="#000000" points="169.5,-141.7 169.5,-164.7 358.5,-164.7 358.5,-141.7 169.5,-141.7"/>
<text text-anchor="start" x="174.5" y="-150.8" font-family="Helvetica,sans-Serif" font-weight="bold" font-size="11.00" fill="#000000">COUNTRIES</text>
<text text-anchor="start" x="323.5437" y="-149.8" font-family="Helvetica,sans-Serif" font-size="11.00" fill="#000000">[table]</text>
<polygon fill="none" stroke="#000000" points="169.5,-119.7 169.5,-141.7 291.5,-141.7 291.5,-119.7 169.5,-119.7"/>
<image xlink:href="../../images/primaryKeys.png" width="11px" height="12px" preserveAspectRatio="xMinYMin meet" x="174.5" y="-136.7"/>
<text text-anchor="start" x="189.5" y="-126.8" font-family="Helvetica,sans-Serif" font-size="11.00" fill="#000000">COUNTRY_ID</text>
<polygon fill="none" stroke="#000000" points="291.5,-119.7 291.5,-141.7 358.5,-141.7 358.5,-119.7 291.5,-119.7"/>
<text text-anchor="start" x="294.5" y="-127.4" font-family="Helvetica,sans-Serif" font-size="11.00" fill="#000000">char[2]</text>
<polygon fill="none" stroke="#000000" points="169.5,-97.7 169.5,-119.7 291.5,-119.7 291.5,-97.7 169.5,-97.7"/>
<text text-anchor="start" x="189.5" y="-104.8" font-family="Helvetica,sans-Serif" font-size="11.00" fill="#000000">COUNTRY_NAME</text>
<polygon fill="none" stroke="#000000" points="291.5,-97.7 291.5,-119.7 358.5,-119.7 358.5,-97.7 291.5,-97.7"/>
<text text-anchor="start" x="294.4365" y="-105.4" font-family="Helvetica,sans-Serif" font-size="11.00" fill="#000000">varchar2[40]</text>
<polygon fill="none" stroke="#000000" points="169.5,-75.7 169.5,-97.7 291.5,-97.7 291.5,-75.7 169.5,-75.7"/>
<image xlink:href="../../images/foreignKeys.png" width="11px" height="12px" preserveAspectRatio="xMinYMin meet" x="174.5" y="-92.7"/>
<text text-anchor="start" x="189.5" y="-82.8" font-family="Helvetica,sans-Serif" font-size="11.00" fill="#000000">REGION_ID</text>
<polygon fill="none" stroke="#000000" points="291.5,-75.7 291.5,-97.7 358.5,-97.7 358.5,-75.7 291.5,-75.7"/>
<text text-anchor="start" x="294.5" y="-83.4" font-family="Helvetica,sans-Serif" font-size="11.00" fill="#000000">number[0]</text>
<polygon fill="#ffffff" stroke="transparent" points="169.5,-56.7 169.5,-75.7 221.5,-75.7 221.5,-56.7 169.5,-56.7"/>
<polygon fill="none" stroke="#000000" points="169.5,-56.7 169.5,-75.7 221.5,-75.7 221.5,-56.7 169.5,-56.7"/>
<text text-anchor="start" x="172.5" y="-62.8" font-family="Helvetica,sans-Serif" font-size="11.00" fill="#000000">&lt; 1</text>
<polygon fill="#ffffff" stroke="transparent" points="221.5,-56.7 221.5,-75.7 291.5,-75.7 291.5,-56.7 221.5,-56.7"/>
<polygon fill="none" stroke="#000000" points="221.5,-56.7 221.5,-75.7 291.5,-75.7 291.5,-56.7 221.5,-56.7"/>
<text text-anchor="start" x="256.1105" y="-62.8" font-family="Helvetica,sans-Serif" font-size="11.00" fill="#000000">0 rows</text>
<polygon fill="#ffffff" stroke="transparent" points="291.5,-56.7 291.5,-75.7 358.5,-75.7 358.5,-56.7 291.5,-56.7"/>
<polygon fill="none" stroke="#000000" points="291.5,-56.7 291.5,-75.7 358.5,-75.7 358.5,-56.7 291.5,-56.7"/>
<text text-anchor="start" x="339.9053" y="-62.8" font-family="Helvetica,sans-Serif" font-size="11.00" fill="#000000">1 &gt;</text>
<polygon fill="none" stroke="#000000" stroke-width="2" points="168,-55.7 168,-165.7 359,-165.7 359,-55.7 168,-55.7"/>
</a>
</g>
</g>
<!-- REGIONS -->
<g id="node2" class="node">
<title>REGIONS</title>
<g id="a_node2"><a xlink:href="../../tables/REGIONS.html" xlink:title="REGIONS" target="_top">
<polygon fill="#ffffff" stroke="transparent" points="8,-38.2 8,-121.2 118,-121.2 118,-38.2 8,-38.2"/>
<polygon fill="#f5f5f5" stroke="transparent" points="8,-97.7 8,-120.7 118,-120.7 118,-97.7 8,-97.7"/>
<polygon fill="none" stroke="#000000" points="8,-97.7 8,-120.7 118,-120.7 118,-97.7 8,-97.7"/>
<text text-anchor="start" x="13" y="-106.8" font-family="Helvetica,sans-Serif" font-weight="bold" font-size="11.00" fill="#000000">REGIONS</text>
<text text-anchor="start" x="83.0437" y="-105.8" font-family="Helvetica,sans-Serif" font-size="11.00" fill="#000000">[table]</text>
<polygon fill="none" stroke="#000000" points="8,-75.7 8,-97.7 118,-97.7 118,-75.7 8,-75.7"/>
<image xlink:href="../../images/primaryKeys.png" width="11px" height="12px" preserveAspectRatio="xMinYMin meet" x="13" y="-92.7"/>
<text text-anchor="start" x="28" y="-82.8" font-family="Helvetica,sans-Serif" font-size="11.00" fill="#000000">REGION_ID</text>
<polygon fill="none" stroke="#000000" points="8,-56.7 8,-75.7 118,-75.7 118,-56.7 8,-56.7"/>
<text text-anchor="start" x="11" y="-62.8" font-family="Helvetica,sans-Serif" font-size="11.00" fill="#000000">...</text>
<polygon fill="#ffffff" stroke="transparent" points="8,-37.7 8,-56.7 39,-56.7 39,-37.7 8,-37.7"/>
<polygon fill="none" stroke="#000000" points="8,-37.7 8,-56.7 39,-56.7 39,-37.7 8,-37.7"/>
<text text-anchor="start" x="11" y="-43.8" font-family="Helvetica,sans-Serif" font-size="11.00" fill="#000000"> &#160;</text>
<polygon fill="#ffffff" stroke="transparent" points="39,-37.7 39,-56.7 87,-56.7 87,-37.7 39,-37.7"/>
<polygon fill="none" stroke="#000000" points="39,-37.7 39,-56.7 87,-56.7 87,-37.7 39,-37.7"/>
<text text-anchor="start" x="51.6105" y="-43.8" font-family="Helvetica,sans-Serif" font-size="11.00" fill="#000000">0 rows</text>
<polygon fill="#ffffff" stroke="transparent" points="87,-37.7 87,-56.7 118,-56.7 118,-37.7 87,-37.7"/>
<polygon fill="none" stroke="#000000" points="87,-37.7 87,-56.7 118,-56.7 118,-37.7 87,-37.7"/>
<text text-anchor="start" x="99.4053" y="-43.8" font-family="Helvetica,sans-Serif" font-size="11.00" fill="#000000">1 &gt;</text>
</a>
</g>
</g>
<!-- COUNTRIES&#45;&gt;REGIONS -->
<g id="edge1" class="edge">
<title>COUNTRIES:w&#45;&gt;REGIONS:e</title>
<path fill="none" stroke="#000000" d="M155.0156,-86.7C142.6771,-86.7 135.1667,-86.7 118,-86.7"/>
<polygon fill="#000000" stroke="#000000" points="161.5,-86.7001 169.5,-90.3 165.5,-86.7 169.5,-86.7 169.5,-86.7 169.5,-86.7 165.5,-86.7 169.5,-83.1 161.5,-86.7001 161.5,-86.7001"/>
<ellipse fill="none" stroke="#000000" cx="158.3" cy="-86.7001" rx="3.2" ry="3.2"/>
</g>
<!-- LOCATIONS -->
<g id="node3" class="node">
<title>LOCATIONS</title>
<g id="a_node3"><a xlink:href="../../tables/LOCATIONS.html" xlink:title="LOCATIONS" target="_top">
<polygon fill="#ffffff" stroke="transparent" points="409,-82.2 409,-187.2 520,-187.2 520,-82.2 409,-82.2"/>
<polygon fill="#f5f5f5" stroke="transparent" points="409.5,-163.7 409.5,-186.7 520.5,-186.7 520.5,-163.7 409.5,-163.7"/>
<polygon fill="none" stroke="#000000" points="409.5,-163.7 409.5,-186.7 520.5,-186.7 520.5,-163.7 409.5,-163.7"/>
<text text-anchor="start" x="414.5" y="-172.8" font-family="Helvetica,sans-Serif" font-weight="bold" font-size="11.00" fill="#000000">LOCATIONS</text>
<text text-anchor="start" x="485.5437" y="-171.8" font-family="Helvetica,sans-Serif" font-size="11.00" fill="#000000">[table]</text>
<polygon fill="none" stroke="#000000" points="409.5,-141.7 409.5,-163.7 520.5,-163.7 520.5,-141.7 409.5,-141.7"/>
<image xlink:href="../../images/primaryKeys.png" width="11px" height="12px" preserveAspectRatio="xMinYMin meet" x="414.5" y="-158.7"/>
<text text-anchor="start" x="429.5" y="-148.8" font-family="Helvetica,sans-Serif" font-size="11.00" fill="#000000">LOCATION_ID</text>
<polygon fill="none" stroke="#000000" points="409.5,-119.7 409.5,-141.7 520.5,-141.7 520.5,-119.7 409.5,-119.7"/>
<image xlink:href="../../images/foreignKeys.png" width="11px" height="12px" preserveAspectRatio="xMinYMin meet" x="414.5" y="-136.7"/>
<text text-anchor="start" x="429.5" y="-126.8" font-family="Helvetica,sans-Serif" font-size="11.00" fill="#000000">COUNTRY_ID</text>
<polygon fill="none" stroke="#000000" points="409.5,-100.7 409.5,-119.7 520.5,-119.7 520.5,-100.7 409.5,-100.7"/>
<text text-anchor="start" x="412.5" y="-106.8" font-family="Helvetica,sans-Serif" font-size="11.00" fill="#000000">...</text>
<polygon fill="#ffffff" stroke="transparent" points="409.5,-81.7 409.5,-100.7 445.5,-100.7 445.5,-81.7 409.5,-81.7"/>
<polygon fill="none" stroke="#000000" points="409.5,-81.7 409.5,-100.7 445.5,-100.7 445.5,-81.7 409.5,-81.7"/>
<text text-anchor="start" x="412.5" y="-87.8" font-family="Helvetica,sans-Serif" font-size="11.00" fill="#000000">&lt; 1</text>
<polygon fill="#ffffff" stroke="transparent" points="445.5,-81.7 445.5,-100.7 491.5,-100.7 491.5,-81.7 445.5,-81.7"/>
<polygon fill="none" stroke="#000000" points="445.5,-81.7 445.5,-100.7 491.5,-100.7 491.5,-81.7 445.5,-81.7"/>
<text text-anchor="start" x="456.1105" y="-87.8" font-family="Helvetica,sans-Serif" font-size="11.00" fill="#000000">0 rows</text>
<polygon fill="#ffffff" stroke="transparent" points="491.5,-81.7 491.5,-100.7 520.5,-100.7 520.5,-81.7 491.5,-81.7"/>
<polygon fill="none" stroke="#000000" points="491.5,-81.7 491.5,-100.7 520.5,-100.7 520.5,-81.7 491.5,-81.7"/>
<text text-anchor="start" x="501.9053" y="-87.8" font-family="Helvetica,sans-Serif" font-size="11.00" fill="#000000">1 &gt;</text>
</a>
</g>
</g>
<!-- LOCATIONS&#45;&gt;COUNTRIES -->
<g id="edge2" class="edge">
<title>LOCATIONS:w&#45;&gt;COUNTRIES:e</title>
<path fill="none" stroke="#000000" d="M394.776,-130.7C382.7815,-130.7 375.3229,-130.7 358.5,-130.7"/>
<polygon fill="#000000" stroke="#000000" points="401.5,-130.7001 409.5,-134.3 405.5,-130.7 409.5,-130.7 409.5,-130.7 409.5,-130.7 405.5,-130.7 409.5,-127.1 401.5,-130.7001 401.5,-130.7001"/>
<ellipse fill="none" stroke="#000000" cx="398.3" cy="-130.7001" rx="3.2" ry="3.2"/>
</g>
<!-- WAREHOUSES -->
<g id="node4" class="node">
<title>WAREHOUSES</title>
<g id="a_node4"><a xlink:href="../../tables/WAREHOUSES.html" xlink:title="WAREHOUSES" target="_top">
<polygon fill="#ffffff" stroke="transparent" points="569,-125.2 569,-186.2 691,-186.2 691,-125.2 569,-125.2"/>
<polygon fill="#f5f5f5" stroke="transparent" points="569,-162.7 569,-185.7 691,-185.7 691,-162.7 569,-162.7"/>
<polygon fill="none" stroke="#000000" points="569,-162.7 569,-185.7 691,-185.7 691,-162.7 569,-162.7"/>
<text text-anchor="start" x="573.779" y="-171.8" font-family="Helvetica,sans-Serif" font-weight="bold" font-size="11.00" fill="#000000">WAREHOUSES</text>
<text text-anchor="start" x="656.5219" y="-170.8" font-family="Helvetica,sans-Serif" font-size="11.00" fill="#000000">[table]</text>
<polygon fill="none" stroke="#000000" points="569,-143.7 569,-162.7 691,-162.7 691,-143.7 569,-143.7"/>
<text text-anchor="start" x="572" y="-149.8" font-family="Helvetica,sans-Serif" font-size="11.00" fill="#000000">...</text>
<polygon fill="#ffffff" stroke="transparent" points="569,-124.7 569,-143.7 611,-143.7 611,-124.7 569,-124.7"/>
<polygon fill="none" stroke="#000000" points="569,-124.7 569,-143.7 611,-143.7 611,-124.7 569,-124.7"/>
<text text-anchor="start" x="572" y="-130.8" font-family="Helvetica,sans-Serif" font-size="11.00" fill="#000000">&lt; 1</text>
<polygon fill="#ffffff" stroke="transparent" points="611,-124.7 611,-143.7 659,-143.7 659,-124.7 611,-124.7"/>
<polygon fill="none" stroke="#000000" points="611,-124.7 611,-143.7 659,-143.7 659,-124.7 611,-124.7"/>
<text text-anchor="start" x="623.6105" y="-130.8" font-family="Helvetica,sans-Serif" font-size="11.00" fill="#000000">0 rows</text>
<polygon fill="#ffffff" stroke="transparent" points="659,-124.7 659,-143.7 691,-143.7 691,-124.7 659,-124.7"/>
<polygon fill="none" stroke="#000000" points="659,-124.7 659,-143.7 691,-143.7 691,-124.7 659,-124.7"/>
<text text-anchor="start" x="672.4053" y="-130.8" font-family="Helvetica,sans-Serif" font-size="11.00" fill="#000000">1 &gt;</text>
</a>
</g>
</g>
<!-- WAREHOUSES&#45;&gt;LOCATIONS -->
<g id="edge3" class="edge">
<title>WAREHOUSES:w&#45;&gt;LOCATIONS:e</title>
<path fill="none" stroke="#000000" d="M554.2829,-152.7C543.2886,-152.7 536.1615,-152.7 520.5,-152.7"/>
<polygon fill="#000000" stroke="#000000" points="561,-152.7001 569,-156.3 565,-152.7 569,-152.7 569,-152.7 569,-152.7 565,-152.7 569,-149.1 561,-152.7001 561,-152.7001"/>
<ellipse fill="none" stroke="#000000" cx="557.8" cy="-152.7001" rx="3.2" ry="3.2"/>
</g>
</g>
</svg>
