<?xml version="1.0" encoding="UTF-8" standalone="no"?>
<!DOCTYPE svg PUBLIC "-//W3C//DTD SVG 1.1//EN"
 "http://www.w3.org/Graphics/SVG/1.1/DTD/svg11.dtd">
<!-- Generated by graphviz version 2.40.1 (20161225.0304)
 -->
<!-- Title: twoDegreesRelationshipsDiagram Pages: 1 -->
<svg width="537pt" height="316pt"
 viewBox="0.00 0.00 537.00 316.20" xmlns="http://www.w3.org/2000/svg" xmlns:xlink="http://www.w3.org/1999/xlink">
<g id="graph0" class="graph" transform="scale(1 1) rotate(0) translate(4 312.2)">
<title>twoDegreesRelationshipsDiagram</title>
<polygon fill="#ffffff" stroke="transparent" points="-4,4 -4,-312.2 533,-312.2 533,4 -4,4"/>
<text text-anchor="middle" x="72.4936" y="-7.3" font-family="Helvetica,sans-Serif" font-size="11.00" fill="#000000">Generated by SchemaSpy</text>
<!-- CONTACTS -->
<g id="node1" class="node">
<title>CONTACTS</title>
<g id="a_node1"><a xlink:href="../../tables/CONTACTS.html" xlink:title="CONTACTS" target="_top">
<polygon fill="#ffffff" stroke="transparent" points="242,-199.2 242,-304.2 350,-304.2 350,-199.2 242,-199.2"/>
<polygon fill="#f5f5f5" stroke="transparent" points="242,-280.7 242,-303.7 350,-303.7 350,-280.7 242,-280.7"/>
<polygon fill="none" stroke="#000000" points="242,-280.7 242,-303.7 350,-303.7 350,-280.7 242,-280.7"/>
<text text-anchor="start" x="247" y="-289.8" font-family="Helvetica,sans-Serif" font-weight="bold" font-size="11.00" fill="#000000">CONTACTS</text>
<text text-anchor="start" x="315.0437" y="-288.8" font-family="Helvetica,sans-Serif" font-size="11.00" fill="#000000">[table]</text>
<polygon fill="none" stroke="#000000" points="242,-258.7 242,-280.7 350,-280.7 350,-258.7 242,-258.7"/>
<image xlink:href="../../images/primaryKeys.png" width="11px" height="12px" preserveAspectRatio="xMinYMin meet" x="247" y="-275.7"/>
<text text-anchor="start" x="262" y="-265.8" font-family="Helvetica,sans-Serif" font-size="11.00" fill="#000000">CONTACT_ID</text>
<polygon fill="none" stroke="#000000" points="242,-236.7 242,-258.7 350,-258.7 350,-236.7 242,-236.7"/>
<image xlink:href="../../images/foreignKeys.png" width="11px" height="12px" preserveAspectRatio="xMinYMin meet" x="247" y="-253.7"/>
<text text-anchor="start" x="262" y="-243.8" font-family="Helvetica,sans-Serif" font-size="11.00" fill="#000000">CUSTOMER_ID</text>
<polygon fill="none" stroke="#000000" points="242,-217.7 242,-236.7 350,-236.7 350,-217.7 242,-217.7"/>
<text text-anchor="start" x="245" y="-223.8" font-family="Helvetica,sans-Serif" font-size="11.00" fill="#000000">...</text>
<polygon fill="#ffffff" stroke="transparent" points="242,-198.7 242,-217.7 281,-217.7 281,-198.7 242,-198.7"/>
<polygon fill="none" stroke="#000000" points="242,-198.7 242,-217.7 281,-217.7 281,-198.7 242,-198.7"/>
<text text-anchor="start" x="245" y="-204.8" font-family="Helvetica,sans-Serif" font-size="11.00" fill="#000000">&lt; 1</text>
<polygon fill="#ffffff" stroke="transparent" points="281,-198.7 281,-217.7 328,-217.7 328,-198.7 281,-198.7"/>
<polygon fill="none" stroke="#000000" points="281,-198.7 281,-217.7 328,-217.7 328,-198.7 281,-198.7"/>
<text text-anchor="start" x="292.6105" y="-204.8" font-family="Helvetica,sans-Serif" font-size="11.00" fill="#000000">0 rows</text>
<polygon fill="#ffffff" stroke="transparent" points="328,-198.7 328,-217.7 350,-217.7 350,-198.7 328,-198.7"/>
<polygon fill="none" stroke="#000000" points="328,-198.7 328,-217.7 350,-217.7 350,-198.7 328,-198.7"/>
<text text-anchor="start" x="340.8862" y="-204.8" font-family="Helvetica,sans-Serif" font-size="11.00" fill="#000000"> &#160;</text>
</a>
</g>
</g>
<!-- CUSTOMERS -->
<g id="node2" class="node">
<title>CUSTOMERS</title>
<g id="a_node2"><a xlink:href="../../tables/CUSTOMERS.html" xlink:title="CUSTOMERS" target="_top">
<polygon fill="#ffffff" stroke="transparent" points="8,-127.7 8,-283.7 193,-283.7 193,-127.7 8,-127.7"/>
<polygon fill="#f5f5f5" stroke="transparent" points="10.5,-258.7 10.5,-281.7 191.5,-281.7 191.5,-258.7 10.5,-258.7"/>
<polygon fill="none" stroke="#000000" points="10.5,-258.7 10.5,-281.7 191.5,-281.7 191.5,-258.7 10.5,-258.7"/>
<text text-anchor="start" x="15.5" y="-267.8" font-family="Helvetica,sans-Serif" font-weight="bold" font-size="11.00" fill="#000000">CUSTOMERS</text>
<text text-anchor="start" x="156.5437" y="-266.8" font-family="Helvetica,sans-Serif" font-size="11.00" fill="#000000">[table]</text>
<polygon fill="none" stroke="#000000" points="10.5,-236.7 10.5,-258.7 118.5,-258.7 118.5,-236.7 10.5,-236.7"/>
<image xlink:href="../../images/primaryKeys.png" width="11px" height="12px" preserveAspectRatio="xMinYMin meet" x="15.5" y="-253.7"/>
<text text-anchor="start" x="30.5" y="-243.8" font-family="Helvetica,sans-Serif" font-size="11.00" fill="#000000">CUSTOMER_ID</text>
<polygon fill="none" stroke="#000000" points="118.5,-236.7 118.5,-258.7 191.5,-258.7 191.5,-236.7 118.5,-236.7"/>
<text text-anchor="start" x="121.5" y="-244.4" font-family="Helvetica,sans-Serif" font-size="11.00" fill="#000000">number[0]</text>
<polygon fill="none" stroke="#000000" points="10.5,-214.7 10.5,-236.7 118.5,-236.7 118.5,-214.7 10.5,-214.7"/>
<text text-anchor="start" x="30.5" y="-221.8" font-family="Helvetica,sans-Serif" font-size="11.00" fill="#000000">NAME</text>
<polygon fill="none" stroke="#000000" points="118.5,-214.7 118.5,-236.7 191.5,-236.7 191.5,-214.7 118.5,-214.7"/>
<text text-anchor="start" x="121.3791" y="-222.4" font-family="Helvetica,sans-Serif" font-size="11.00" fill="#000000">varchar2[255]</text>
<polygon fill="none" stroke="#000000" points="10.5,-192.7 10.5,-214.7 118.5,-214.7 118.5,-192.7 10.5,-192.7"/>
<text text-anchor="start" x="30.5" y="-199.8" font-family="Helvetica,sans-Serif" font-size="11.00" fill="#000000">ADDRESS</text>
<polygon fill="none" stroke="#000000" points="118.5,-192.7 118.5,-214.7 191.5,-214.7 191.5,-192.7 118.5,-192.7"/>
<text text-anchor="start" x="121.3791" y="-200.4" font-family="Helvetica,sans-Serif" font-size="11.00" fill="#000000">varchar2[255]</text>
<polygon fill="none" stroke="#000000" points="10.5,-170.7 10.5,-192.7 118.5,-192.7 118.5,-170.7 10.5,-170.7"/>
<text text-anchor="start" x="30.5" y="-177.8" font-family="Helvetica,sans-Serif" font-size="11.00" fill="#000000">WEBSITE</text>
<polygon fill="none" stroke="#000000" points="118.5,-170.7 118.5,-192.7 191.5,-192.7 191.5,-170.7 118.5,-170.7"/>
<text text-anchor="start" x="121.3791" y="-178.4" font-family="Helvetica,sans-Serif" font-size="11.00" fill="#000000">varchar2[255]</text>
<polygon fill="none" stroke="#000000" points="10.5,-148.7 10.5,-170.7 118.5,-170.7 118.5,-148.7 10.5,-148.7"/>
<text text-anchor="start" x="30.5" y="-155.8" font-family="Helvetica,sans-Serif" font-size="11.00" fill="#000000">CREDIT_LIMIT</text>
<polygon fill="none" stroke="#000000" points="118.5,-148.7 118.5,-170.7 191.5,-170.7 191.5,-148.7 118.5,-148.7"/>
<text text-anchor="start" x="121.5" y="-156.4" font-family="Helvetica,sans-Serif" font-size="11.00" fill="#000000">number[8,2]</text>
<polygon fill="#ffffff" stroke="transparent" points="10.5,-129.7 10.5,-148.7 55.5,-148.7 55.5,-129.7 10.5,-129.7"/>
<polygon fill="none" stroke="#000000" points="10.5,-129.7 10.5,-148.7 55.5,-148.7 55.5,-129.7 10.5,-129.7"/>
<text text-anchor="start" x="13.5" y="-135.8" font-family="Helvetica,sans-Serif" font-size="11.00" fill="#000000">&lt; 0</text>
<polygon fill="#ffffff" stroke="transparent" points="55.5,-129.7 55.5,-148.7 118.5,-148.7 118.5,-129.7 55.5,-129.7"/>
<polygon fill="none" stroke="#000000" points="55.5,-129.7 55.5,-148.7 118.5,-148.7 118.5,-129.7 55.5,-129.7"/>
<text text-anchor="start" x="83.1105" y="-135.8" font-family="Helvetica,sans-Serif" font-size="11.00" fill="#000000">0 rows</text>
<polygon fill="#ffffff" stroke="transparent" points="118.5,-129.7 118.5,-148.7 191.5,-148.7 191.5,-129.7 118.5,-129.7"/>
<polygon fill="none" stroke="#000000" points="118.5,-129.7 118.5,-148.7 191.5,-148.7 191.5,-129.7 118.5,-129.7"/>
<text text-anchor="start" x="172.9053" y="-135.8" font-family="Helvetica,sans-Serif" font-size="11.00" fill="#000000">2 &gt;</text>
<polygon fill="none" stroke="#000000" stroke-width="2" points="9,-128.7 9,-282.7 192,-282.7 192,-128.7 9,-128.7"/>
</a>
</g>
</g>
<!-- CONTACTS&#45;&gt;CUSTOMERS -->
<g id="edge1" class="edge">
<title>CONTACTS:w&#45;&gt;CUSTOMERS:e</title>
<path fill="none" stroke="#000000" d="M227.4203,-247.7C215.5435,-247.7 208.158,-247.7 191.5,-247.7"/>
<polygon fill="#000000" stroke="#000000" points="234,-247.7001 242,-251.3 238,-247.7 242,-247.7 242,-247.7 242,-247.7 238,-247.7 242,-244.1 234,-247.7001 234,-247.7001"/>
<ellipse fill="none" stroke="#000000" cx="230.8" cy="-247.7001" rx="3.2" ry="3.2"/>
</g>
<!-- ORDER_ITEMS -->
<g id="node3" class="node">
<title>ORDER_ITEMS</title>
<g id="a_node3"><a xlink:href="../../tables/ORDER_ITEMS.html" xlink:title="ORDER_ITEMS" target="_top">
<polygon fill="#ffffff" stroke="transparent" points="399,-103.2 399,-164.2 521,-164.2 521,-103.2 399,-103.2"/>
<polygon fill="#f5f5f5" stroke="transparent" points="399,-140.7 399,-163.7 521,-163.7 521,-140.7 399,-140.7"/>
<polygon fill="none" stroke="#000000" points="399,-140.7 399,-163.7 521,-163.7 521,-140.7 399,-140.7"/>
<text text-anchor="start" x="403.7795" y="-149.8" font-family="Helvetica,sans-Serif" font-weight="bold" font-size="11.00" fill="#000000">ORDER_ITEMS</text>
<text text-anchor="start" x="486.5219" y="-148.8" font-family="Helvetica,sans-Serif" font-size="11.00" fill="#000000">[table]</text>
<polygon fill="none" stroke="#000000" points="399,-121.7 399,-140.7 521,-140.7 521,-121.7 399,-121.7"/>
<text text-anchor="start" x="402" y="-127.8" font-family="Helvetica,sans-Serif" font-size="11.00" fill="#000000">...</text>
<polygon fill="#ffffff" stroke="transparent" points="399,-102.7 399,-121.7 445,-121.7 445,-102.7 399,-102.7"/>
<polygon fill="none" stroke="#000000" points="399,-102.7 399,-121.7 445,-121.7 445,-102.7 399,-102.7"/>
<text text-anchor="start" x="402" y="-108.8" font-family="Helvetica,sans-Serif" font-size="11.00" fill="#000000">&lt; 2</text>
<polygon fill="#ffffff" stroke="transparent" points="445,-102.7 445,-121.7 496,-121.7 496,-102.7 445,-102.7"/>
<polygon fill="none" stroke="#000000" points="445,-102.7 445,-121.7 496,-121.7 496,-102.7 445,-102.7"/>
<text text-anchor="start" x="460.6105" y="-108.8" font-family="Helvetica,sans-Serif" font-size="11.00" fill="#000000">0 rows</text>
<polygon fill="#ffffff" stroke="transparent" points="496,-102.7 496,-121.7 521,-121.7 521,-102.7 496,-102.7"/>
<polygon fill="none" stroke="#000000" points="496,-102.7 496,-121.7 521,-121.7 521,-102.7 496,-102.7"/>
<text text-anchor="start" x="511.8862" y="-108.8" font-family="Helvetica,sans-Serif" font-size="11.00" fill="#000000"> &#160;</text>
</a>
</g>
</g>
<!-- ORDERS -->
<g id="node4" class="node">
<title>ORDERS</title>
<g id="a_node4"><a xlink:href="../../tables/ORDERS.html" xlink:title="ORDERS" target="_top">
<polygon fill="#ffffff" stroke="transparent" points="242,-38.2 242,-165.2 350,-165.2 350,-38.2 242,-38.2"/>
<polygon fill="#f5f5f5" stroke="transparent" points="242,-141.7 242,-164.7 350,-164.7 350,-141.7 242,-141.7"/>
<polygon fill="none" stroke="#000000" points="242,-141.7 242,-164.7 350,-164.7 350,-141.7 242,-141.7"/>
<text text-anchor="start" x="247" y="-150.8" font-family="Helvetica,sans-Serif" font-weight="bold" font-size="11.00" fill="#000000">ORDERS</text>
<text text-anchor="start" x="315.0437" y="-149.8" font-family="Helvetica,sans-Serif" font-size="11.00" fill="#000000">[table]</text>
<polygon fill="none" stroke="#000000" points="242,-119.7 242,-141.7 350,-141.7 350,-119.7 242,-119.7"/>
<image xlink:href="../../images/primaryKeys.png" width="11px" height="12px" preserveAspectRatio="xMinYMin meet" x="247" y="-136.7"/>
<text text-anchor="start" x="262" y="-126.8" font-family="Helvetica,sans-Serif" font-size="11.00" fill="#000000">ORDER_ID</text>
<polygon fill="none" stroke="#000000" points="242,-97.7 242,-119.7 350,-119.7 350,-97.7 242,-97.7"/>
<image xlink:href="../../images/foreignKeys.png" width="11px" height="12px" preserveAspectRatio="xMinYMin meet" x="247" y="-114.7"/>
<text text-anchor="start" x="262" y="-104.8" font-family="Helvetica,sans-Serif" font-size="11.00" fill="#000000">CUSTOMER_ID</text>
<polygon fill="none" stroke="#000000" points="242,-75.7 242,-97.7 350,-97.7 350,-75.7 242,-75.7"/>
<image xlink:href="../../images/foreignKeys.png" width="11px" height="12px" preserveAspectRatio="xMinYMin meet" x="247" y="-92.7"/>
<text text-anchor="start" x="262" y="-82.8" font-family="Helvetica,sans-Serif" font-size="11.00" fill="#000000">SALESMAN_ID</text>
<polygon fill="none" stroke="#000000" points="242,-56.7 242,-75.7 350,-75.7 350,-56.7 242,-56.7"/>
<text text-anchor="start" x="245" y="-62.8" font-family="Helvetica,sans-Serif" font-size="11.00" fill="#000000">...</text>
<polygon fill="#ffffff" stroke="transparent" points="242,-37.7 242,-56.7 277,-56.7 277,-37.7 242,-37.7"/>
<polygon fill="none" stroke="#000000" points="242,-37.7 242,-56.7 277,-56.7 277,-37.7 242,-37.7"/>
<text text-anchor="start" x="245" y="-43.8" font-family="Helvetica,sans-Serif" font-size="11.00" fill="#000000">&lt; 2</text>
<polygon fill="#ffffff" stroke="transparent" points="277,-37.7 277,-56.7 322,-56.7 322,-37.7 277,-37.7"/>
<polygon fill="none" stroke="#000000" points="277,-37.7 277,-56.7 322,-56.7 322,-37.7 277,-37.7"/>
<text text-anchor="start" x="286.6105" y="-43.8" font-family="Helvetica,sans-Serif" font-size="11.00" fill="#000000">0 rows</text>
<polygon fill="#ffffff" stroke="transparent" points="322,-37.7 322,-56.7 350,-56.7 350,-37.7 322,-37.7"/>
<polygon fill="none" stroke="#000000" points="322,-37.7 322,-56.7 350,-56.7 350,-37.7 322,-37.7"/>
<text text-anchor="start" x="331.4053" y="-43.8" font-family="Helvetica,sans-Serif" font-size="11.00" fill="#000000">1 &gt;</text>
</a>
</g>
</g>
<!-- ORDER_ITEMS&#45;&gt;ORDERS -->
<g id="edge2" class="edge">
<title>ORDER_ITEMS:w&#45;&gt;ORDERS:e</title>
<path fill="none" stroke="#000000" d="M384.4909,-130.7C373.1774,-130.7 365.9931,-130.7 350,-130.7"/>
<polygon fill="#000000" stroke="#000000" points="391,-130.7001 399,-134.3 395,-130.7 399,-130.7 399,-130.7 399,-130.7 395,-130.7 399,-127.1 391,-130.7001 391,-130.7001"/>
<ellipse fill="none" stroke="#000000" cx="387.8" cy="-130.7001" rx="3.2" ry="3.2"/>
</g>
<!-- ORDERS&#45;&gt;CUSTOMERS -->
<g id="edge3" class="edge">
<title>ORDERS:w&#45;&gt;CUSTOMERS:e</title>
<path fill="none" stroke="#000000" d="M227.6234,-111.8644C189.6344,-132.5546 251.3233,-247.7 191.5,-247.7"/>
<polygon fill="#000000" stroke="#000000" points="234.187,-110.4197 242.7739,-112.2158 238.0935,-109.5599 242,-108.7 242,-108.7 242,-108.7 238.0935,-109.5599 241.2261,-105.1842 234.187,-110.4197 234.187,-110.4197"/>
<ellipse fill="none" stroke="#000000" cx="231.0618" cy="-111.1076" rx="3.2" ry="3.2"/>
</g>
<!-- EMPLOYEES -->
<g id="node5" class="node">
<title>EMPLOYEES</title>
<g id="a_node5"><a xlink:href="../../tables/EMPLOYEES.html" xlink:title="EMPLOYEES" target="_top">
<polygon fill="#ffffff" stroke="transparent" points="45.5,-45.2 45.5,-106.2 155.5,-106.2 155.5,-45.2 45.5,-45.2"/>
<polygon fill="#f5f5f5" stroke="transparent" points="45.5,-82.7 45.5,-105.7 155.5,-105.7 155.5,-82.7 45.5,-82.7"/>
<polygon fill="none" stroke="#000000" points="45.5,-82.7 45.5,-105.7 155.5,-105.7 155.5,-82.7 45.5,-82.7"/>
<text text-anchor="start" x="50.0755" y="-91.8" font-family="Helvetica,sans-Serif" font-weight="bold" font-size="11.00" fill="#000000">EMPLOYEES</text>
<text text-anchor="start" x="121.0219" y="-90.8" font-family="Helvetica,sans-Serif" font-size="11.00" fill="#000000">[table]</text>
<polygon fill="none" stroke="#000000" points="45.5,-63.7 45.5,-82.7 155.5,-82.7 155.5,-63.7 45.5,-63.7"/>
<text text-anchor="start" x="48.5" y="-69.8" font-family="Helvetica,sans-Serif" font-size="11.00" fill="#000000">...</text>
<polygon fill="#ffffff" stroke="transparent" points="45.5,-44.7 45.5,-63.7 81.5,-63.7 81.5,-44.7 45.5,-44.7"/>
<polygon fill="none" stroke="#000000" points="45.5,-44.7 45.5,-63.7 81.5,-63.7 81.5,-44.7 45.5,-44.7"/>
<text text-anchor="start" x="48.5" y="-50.8" font-family="Helvetica,sans-Serif" font-size="11.00" fill="#000000">&lt; 1</text>
<polygon fill="#ffffff" stroke="transparent" points="81.5,-44.7 81.5,-63.7 126.5,-63.7 126.5,-44.7 81.5,-44.7"/>
<polygon fill="none" stroke="#000000" points="81.5,-44.7 81.5,-63.7 126.5,-63.7 126.5,-44.7 81.5,-44.7"/>
<text text-anchor="start" x="91.1105" y="-50.8" font-family="Helvetica,sans-Serif" font-size="11.00" fill="#000000">0 rows</text>
<polygon fill="#ffffff" stroke="transparent" points="126.5,-44.7 126.5,-63.7 155.5,-63.7 155.5,-44.7 126.5,-44.7"/>
<polygon fill="none" stroke="#000000" points="126.5,-44.7 126.5,-63.7 155.5,-63.7 155.5,-44.7 126.5,-44.7"/>
<text text-anchor="start" x="136.9053" y="-50.8" font-family="Helvetica,sans-Serif" font-size="11.00" fill="#000000">2 &gt;</text>
</a>
</g>
</g>
<!-- ORDERS&#45;&gt;EMPLOYEES -->
<g id="edge4" class="edge">
<title>ORDERS:w&#45;&gt;EMPLOYEES:e</title>
<path fill="none" stroke="#000000" d="M227.5726,-85.9865C200.1338,-83.1336 189.1202,-72.7 155.5,-72.7"/>
<polygon fill="#000000" stroke="#000000" points="234.0098,-86.3048 241.8222,-90.2956 238.0049,-86.5024 242,-86.7 242,-86.7 242,-86.7 238.0049,-86.5024 242.1778,-83.1044 234.0098,-86.3048 234.0098,-86.3048"/>
<ellipse fill="none" stroke="#000000" cx="230.8137" cy="-86.1467" rx="3.2" ry="3.2"/>
</g>
</g>
</svg>
