<?xml version="1.0" encoding="UTF-8" standalone="no"?>
<!DOCTYPE svg PUBLIC "-//W3C//DTD SVG 1.1//EN"
 "http://www.w3.org/Graphics/SVG/1.1/DTD/svg11.dtd">
<!-- Generated by graphviz version 2.40.1 (20161225.0304)
 -->
<!-- Title: oneDegreeRelationshipsDiagram Pages: 1 -->
<svg width="366pt" height="303pt"
 viewBox="0.00 0.00 366.00 303.20" xmlns="http://www.w3.org/2000/svg" xmlns:xlink="http://www.w3.org/1999/xlink">
<g id="graph0" class="graph" transform="scale(1 1) rotate(0) translate(4 299.2)">
<title>oneDegreeRelationshipsDiagram</title>
<polygon fill="#ffffff" stroke="transparent" points="-4,4 -4,-299.2 362,-299.2 362,4 -4,4"/>
<text text-anchor="middle" x="72.4936" y="-7.3" font-family="Helvetica,sans-Serif" font-size="11.00" fill="#000000">Generated by SchemaSpy</text>
<!-- CONTACTS -->
<g id="node1" class="node">
<title>CONTACTS</title>
<g id="a_node1"><a xlink:href="../../tables/CONTACTS.html" xlink:title="CONTACTS" target="_top">
<polygon fill="#ffffff" stroke="transparent" points="242,-186.2 242,-291.2 350,-291.2 350,-186.2 242,-186.2"/>
<polygon fill="#f5f5f5" stroke="transparent" points="242,-267.7 242,-290.7 350,-290.7 350,-267.7 242,-267.7"/>
<polygon fill="none" stroke="#000000" points="242,-267.7 242,-290.7 350,-290.7 350,-267.7 242,-267.7"/>
<text text-anchor="start" x="247" y="-276.8" font-family="Helvetica,sans-Serif" font-weight="bold" font-size="11.00" fill="#000000">CONTACTS</text>
<text text-anchor="start" x="315.0437" y="-275.8" font-family="Helvetica,sans-Serif" font-size="11.00" fill="#000000">[table]</text>
<polygon fill="none" stroke="#000000" points="242,-245.7 242,-267.7 350,-267.7 350,-245.7 242,-245.7"/>
<image xlink:href="../../images/primaryKeys.png" width="11px" height="12px" preserveAspectRatio="xMinYMin meet" x="247" y="-262.7"/>
<text text-anchor="start" x="262" y="-252.8" font-family="Helvetica,sans-Serif" font-size="11.00" fill="#000000">CONTACT_ID</text>
<polygon fill="none" stroke="#000000" points="242,-223.7 242,-245.7 350,-245.7 350,-223.7 242,-223.7"/>
<image xlink:href="../../images/foreignKeys.png" width="11px" height="12px" preserveAspectRatio="xMinYMin meet" x="247" y="-240.7"/>
<text text-anchor="start" x="262" y="-230.8" font-family="Helvetica,sans-Serif" font-size="11.00" fill="#000000">CUSTOMER_ID</text>
<polygon fill="none" stroke="#000000" points="242,-204.7 242,-223.7 350,-223.7 350,-204.7 242,-204.7"/>
<text text-anchor="start" x="245" y="-210.8" font-family="Helvetica,sans-Serif" font-size="11.00" fill="#000000">...</text>
<polygon fill="#ffffff" stroke="transparent" points="242,-185.7 242,-204.7 281,-204.7 281,-185.7 242,-185.7"/>
<polygon fill="none" stroke="#000000" points="242,-185.7 242,-204.7 281,-204.7 281,-185.7 242,-185.7"/>
<text text-anchor="start" x="245" y="-191.8" font-family="Helvetica,sans-Serif" font-size="11.00" fill="#000000">&lt; 1</text>
<polygon fill="#ffffff" stroke="transparent" points="281,-185.7 281,-204.7 328,-204.7 328,-185.7 281,-185.7"/>
<polygon fill="none" stroke="#000000" points="281,-185.7 281,-204.7 328,-204.7 328,-185.7 281,-185.7"/>
<text text-anchor="start" x="292.6105" y="-191.8" font-family="Helvetica,sans-Serif" font-size="11.00" fill="#000000">0 rows</text>
<polygon fill="#ffffff" stroke="transparent" points="328,-185.7 328,-204.7 350,-204.7 350,-185.7 328,-185.7"/>
<polygon fill="none" stroke="#000000" points="328,-185.7 328,-204.7 350,-204.7 350,-185.7 328,-185.7"/>
<text text-anchor="start" x="340.8862" y="-191.8" font-family="Helvetica,sans-Serif" font-size="11.00" fill="#000000"> &#160;</text>
</a>
</g>
</g>
<!-- CUSTOMERS -->
<g id="node2" class="node">
<title>CUSTOMERS</title>
<g id="a_node2"><a xlink:href="../../tables/CUSTOMERS.html" xlink:title="CUSTOMERS" target="_top">
<polygon fill="#ffffff" stroke="transparent" points="8,-51.7 8,-207.7 193,-207.7 193,-51.7 8,-51.7"/>
<polygon fill="#f5f5f5" stroke="transparent" points="10.5,-182.7 10.5,-205.7 191.5,-205.7 191.5,-182.7 10.5,-182.7"/>
<polygon fill="none" stroke="#000000" points="10.5,-182.7 10.5,-205.7 191.5,-205.7 191.5,-182.7 10.5,-182.7"/>
<text text-anchor="start" x="15.5" y="-191.8" font-family="Helvetica,sans-Serif" font-weight="bold" font-size="11.00" fill="#000000">CUSTOMERS</text>
<text text-anchor="start" x="156.5437" y="-190.8" font-family="Helvetica,sans-Serif" font-size="11.00" fill="#000000">[table]</text>
<polygon fill="none" stroke="#000000" points="10.5,-160.7 10.5,-182.7 118.5,-182.7 118.5,-160.7 10.5,-160.7"/>
<image xlink:href="../../images/primaryKeys.png" width="11px" height="12px" preserveAspectRatio="xMinYMin meet" x="15.5" y="-177.7"/>
<text text-anchor="start" x="30.5" y="-167.8" font-family="Helvetica,sans-Serif" font-size="11.00" fill="#000000">CUSTOMER_ID</text>
<polygon fill="none" stroke="#000000" points="118.5,-160.7 118.5,-182.7 191.5,-182.7 191.5,-160.7 118.5,-160.7"/>
<text text-anchor="start" x="121.5" y="-168.4" font-family="Helvetica,sans-Serif" font-size="11.00" fill="#000000">number[0]</text>
<polygon fill="none" stroke="#000000" points="10.5,-138.7 10.5,-160.7 118.5,-160.7 118.5,-138.7 10.5,-138.7"/>
<text text-anchor="start" x="30.5" y="-145.8" font-family="Helvetica,sans-Serif" font-size="11.00" fill="#000000">NAME</text>
<polygon fill="none" stroke="#000000" points="118.5,-138.7 118.5,-160.7 191.5,-160.7 191.5,-138.7 118.5,-138.7"/>
<text text-anchor="start" x="121.3791" y="-146.4" font-family="Helvetica,sans-Serif" font-size="11.00" fill="#000000">varchar2[255]</text>
<polygon fill="none" stroke="#000000" points="10.5,-116.7 10.5,-138.7 118.5,-138.7 118.5,-116.7 10.5,-116.7"/>
<text text-anchor="start" x="30.5" y="-123.8" font-family="Helvetica,sans-Serif" font-size="11.00" fill="#000000">ADDRESS</text>
<polygon fill="none" stroke="#000000" points="118.5,-116.7 118.5,-138.7 191.5,-138.7 191.5,-116.7 118.5,-116.7"/>
<text text-anchor="start" x="121.3791" y="-124.4" font-family="Helvetica,sans-Serif" font-size="11.00" fill="#000000">varchar2[255]</text>
<polygon fill="none" stroke="#000000" points="10.5,-94.7 10.5,-116.7 118.5,-116.7 118.5,-94.7 10.5,-94.7"/>
<text text-anchor="start" x="30.5" y="-101.8" font-family="Helvetica,sans-Serif" font-size="11.00" fill="#000000">WEBSITE</text>
<polygon fill="none" stroke="#000000" points="118.5,-94.7 118.5,-116.7 191.5,-116.7 191.5,-94.7 118.5,-94.7"/>
<text text-anchor="start" x="121.3791" y="-102.4" font-family="Helvetica,sans-Serif" font-size="11.00" fill="#000000">varchar2[255]</text>
<polygon fill="none" stroke="#000000" points="10.5,-72.7 10.5,-94.7 118.5,-94.7 118.5,-72.7 10.5,-72.7"/>
<text text-anchor="start" x="30.5" y="-79.8" font-family="Helvetica,sans-Serif" font-size="11.00" fill="#000000">CREDIT_LIMIT</text>
<polygon fill="none" stroke="#000000" points="118.5,-72.7 118.5,-94.7 191.5,-94.7 191.5,-72.7 118.5,-72.7"/>
<text text-anchor="start" x="121.5" y="-80.4" font-family="Helvetica,sans-Serif" font-size="11.00" fill="#000000">number[8,2]</text>
<polygon fill="#ffffff" stroke="transparent" points="10.5,-53.7 10.5,-72.7 55.5,-72.7 55.5,-53.7 10.5,-53.7"/>
<polygon fill="none" stroke="#000000" points="10.5,-53.7 10.5,-72.7 55.5,-72.7 55.5,-53.7 10.5,-53.7"/>
<text text-anchor="start" x="13.5" y="-59.8" font-family="Helvetica,sans-Serif" font-size="11.00" fill="#000000">&lt; 0</text>
<polygon fill="#ffffff" stroke="transparent" points="55.5,-53.7 55.5,-72.7 118.5,-72.7 118.5,-53.7 55.5,-53.7"/>
<polygon fill="none" stroke="#000000" points="55.5,-53.7 55.5,-72.7 118.5,-72.7 118.5,-53.7 55.5,-53.7"/>
<text text-anchor="start" x="83.1105" y="-59.8" font-family="Helvetica,sans-Serif" font-size="11.00" fill="#000000">0 rows</text>
<polygon fill="#ffffff" stroke="transparent" points="118.5,-53.7 118.5,-72.7 191.5,-72.7 191.5,-53.7 118.5,-53.7"/>
<polygon fill="none" stroke="#000000" points="118.5,-53.7 118.5,-72.7 191.5,-72.7 191.5,-53.7 118.5,-53.7"/>
<text text-anchor="start" x="172.9053" y="-59.8" font-family="Helvetica,sans-Serif" font-size="11.00" fill="#000000">2 &gt;</text>
<polygon fill="none" stroke="#000000" stroke-width="2" points="9,-52.7 9,-206.7 192,-206.7 192,-52.7 9,-52.7"/>
</a>
</g>
</g>
<!-- CONTACTS&#45;&gt;CUSTOMERS -->
<g id="edge1" class="edge">
<title>CONTACTS:w&#45;&gt;CUSTOMERS:e</title>
<path fill="none" stroke="#000000" d="M227.9816,-229.7565C211.738,-214.9048 221.2175,-171.7 191.5,-171.7"/>
<polygon fill="#000000" stroke="#000000" points="234.4554,-232.0394 240.8027,-238.0951 238.2277,-233.3697 242,-234.7 242,-234.7 242,-234.7 238.2277,-233.3697 243.1973,-231.3049 234.4554,-232.0394 234.4554,-232.0394"/>
<ellipse fill="none" stroke="#000000" cx="231.4375" cy="-230.9752" rx="3.2" ry="3.2"/>
</g>
<!-- ORDERS -->
<g id="node3" class="node">
<title>ORDERS</title>
<g id="a_node3"><a xlink:href="../../tables/ORDERS.html" xlink:title="ORDERS" target="_top">
<polygon fill="#ffffff" stroke="transparent" points="242,-38.2 242,-165.2 350,-165.2 350,-38.2 242,-38.2"/>
<polygon fill="#f5f5f5" stroke="transparent" points="242,-141.7 242,-164.7 350,-164.7 350,-141.7 242,-141.7"/>
<polygon fill="none" stroke="#000000" points="242,-141.7 242,-164.7 350,-164.7 350,-141.7 242,-141.7"/>
<text text-anchor="start" x="247" y="-150.8" font-family="Helvetica,sans-Serif" font-weight="bold" font-size="11.00" fill="#000000">ORDERS</text>
<text text-anchor="start" x="315.0437" y="-149.8" font-family="Helvetica,sans-Serif" font-size="11.00" fill="#000000">[table]</text>
<polygon fill="none" stroke="#000000" points="242,-119.7 242,-141.7 350,-141.7 350,-119.7 242,-119.7"/>
<image xlink:href="../../images/primaryKeys.png" width="11px" height="12px" preserveAspectRatio="xMinYMin meet" x="247" y="-136.7"/>
<text text-anchor="start" x="262" y="-126.8" font-family="Helvetica,sans-Serif" font-size="11.00" fill="#000000">ORDER_ID</text>
<polygon fill="none" stroke="#000000" points="242,-97.7 242,-119.7 350,-119.7 350,-97.7 242,-97.7"/>
<image xlink:href="../../images/foreignKeys.png" width="11px" height="12px" preserveAspectRatio="xMinYMin meet" x="247" y="-114.7"/>
<text text-anchor="start" x="262" y="-104.8" font-family="Helvetica,sans-Serif" font-size="11.00" fill="#000000">CUSTOMER_ID</text>
<polygon fill="none" stroke="#000000" points="242,-75.7 242,-97.7 350,-97.7 350,-75.7 242,-75.7"/>
<image xlink:href="../../images/foreignKeys.png" width="11px" height="12px" preserveAspectRatio="xMinYMin meet" x="247" y="-92.7"/>
<text text-anchor="start" x="262" y="-82.8" font-family="Helvetica,sans-Serif" font-size="11.00" fill="#000000">SALESMAN_ID</text>
<polygon fill="none" stroke="#000000" points="242,-56.7 242,-75.7 350,-75.7 350,-56.7 242,-56.7"/>
<text text-anchor="start" x="245" y="-62.8" font-family="Helvetica,sans-Serif" font-size="11.00" fill="#000000">...</text>
<polygon fill="#ffffff" stroke="transparent" points="242,-37.7 242,-56.7 277,-56.7 277,-37.7 242,-37.7"/>
<polygon fill="none" stroke="#000000" points="242,-37.7 242,-56.7 277,-56.7 277,-37.7 242,-37.7"/>
<text text-anchor="start" x="245" y="-43.8" font-family="Helvetica,sans-Serif" font-size="11.00" fill="#000000">&lt; 2</text>
<polygon fill="#ffffff" stroke="transparent" points="277,-37.7 277,-56.7 322,-56.7 322,-37.7 277,-37.7"/>
<polygon fill="none" stroke="#000000" points="277,-37.7 277,-56.7 322,-56.7 322,-37.7 277,-37.7"/>
<text text-anchor="start" x="286.6105" y="-43.8" font-family="Helvetica,sans-Serif" font-size="11.00" fill="#000000">0 rows</text>
<polygon fill="#ffffff" stroke="transparent" points="322,-37.7 322,-56.7 350,-56.7 350,-37.7 322,-37.7"/>
<polygon fill="none" stroke="#000000" points="322,-37.7 322,-56.7 350,-56.7 350,-37.7 322,-37.7"/>
<text text-anchor="start" x="331.4053" y="-43.8" font-family="Helvetica,sans-Serif" font-size="11.00" fill="#000000">1 &gt;</text>
</a>
</g>
</g>
<!-- ORDERS&#45;&gt;CUSTOMERS -->
<g id="edge2" class="edge">
<title>ORDERS:w&#45;&gt;CUSTOMERS:e</title>
<path fill="none" stroke="#000000" d="M227.9816,-113.6435C211.738,-128.4952 221.2175,-171.7 191.5,-171.7"/>
<polygon fill="#000000" stroke="#000000" points="234.4554,-111.3606 243.1973,-112.0951 238.2277,-110.0303 242,-108.7 242,-108.7 242,-108.7 238.2277,-110.0303 240.8027,-105.3049 234.4554,-111.3606 234.4554,-111.3606"/>
<ellipse fill="none" stroke="#000000" cx="231.4375" cy="-112.4248" rx="3.2" ry="3.2"/>
</g>
</g>
</svg>
