<?xml version="1.0" encoding="UTF-8" standalone="no"?>
<!DOCTYPE svg PUBLIC "-//W3C//DTD SVG 1.1//EN"
 "http://www.w3.org/Graphics/SVG/1.1/DTD/svg11.dtd">
<!-- Generated by graphviz version 2.40.1 (20161225.0304)
 -->
<!-- Title: twoDegreesRelationshipsDiagram Pages: 1 -->
<svg width="554pt" height="373pt"
 viewBox="0.00 0.00 554.24 372.70" xmlns="http://www.w3.org/2000/svg" xmlns:xlink="http://www.w3.org/1999/xlink">
<g id="graph0" class="graph" transform="scale(1 1) rotate(0) translate(4 368.7)">
<title>twoDegreesRelationshipsDiagram</title>
<polygon fill="#ffffff" stroke="transparent" points="-4,4 -4,-368.7 550.2432,-368.7 550.2432,4 -4,4"/>
<text text-anchor="middle" x="72.4936" y="-7.3" font-family="Helvetica,sans-Serif" font-size="11.00" fill="#000000">Generated by SchemaSpy</text>
<!-- EMPLOYEES -->
<g id="node1" class="node">
<title>EMPLOYEES</title>
<g id="a_node1"><a xlink:href="../../tables/EMPLOYEES.html" xlink:title="EMPLOYEES" target="_top">
<polygon fill="#ffffff" stroke="transparent" points="27.2432,-38.2 27.2432,-260.2 210.2432,-260.2 210.2432,-38.2 27.2432,-38.2"/>
<polygon fill="#f5f5f5" stroke="transparent" points="29.7432,-235.2 29.7432,-258.2 208.7432,-258.2 208.7432,-235.2 29.7432,-235.2"/>
<polygon fill="none" stroke="#000000" points="29.7432,-235.2 29.7432,-258.2 208.7432,-258.2 208.7432,-235.2 29.7432,-235.2"/>
<text text-anchor="start" x="34.7432" y="-244.3" font-family="Helvetica,sans-Serif" font-weight="bold" font-size="11.00" fill="#000000">EMPLOYEES</text>
<text text-anchor="start" x="173.7869" y="-243.3" font-family="Helvetica,sans-Serif" font-size="11.00" fill="#000000">[table]</text>
<polygon fill="none" stroke="#000000" points="29.7432,-213.2 29.7432,-235.2 135.7432,-235.2 135.7432,-213.2 29.7432,-213.2"/>
<image xlink:href="../../images/primaryKeys.png" width="11px" height="12px" preserveAspectRatio="xMinYMin meet" x="34.7432" y="-230.2"/>
<text text-anchor="start" x="49.7432" y="-220.3" font-family="Helvetica,sans-Serif" font-size="11.00" fill="#000000">EMPLOYEE_ID</text>
<polygon fill="none" stroke="#000000" points="135.7432,-213.2 135.7432,-235.2 208.7432,-235.2 208.7432,-213.2 135.7432,-213.2"/>
<text text-anchor="start" x="138.7432" y="-220.9" font-family="Helvetica,sans-Serif" font-size="11.00" fill="#000000">number[0]</text>
<polygon fill="none" stroke="#000000" points="29.7432,-191.2 29.7432,-213.2 135.7432,-213.2 135.7432,-191.2 29.7432,-191.2"/>
<text text-anchor="start" x="49.7432" y="-198.3" font-family="Helvetica,sans-Serif" font-size="11.00" fill="#000000">FIRST_NAME</text>
<polygon fill="none" stroke="#000000" points="135.7432,-191.2 135.7432,-213.2 208.7432,-213.2 208.7432,-191.2 135.7432,-191.2"/>
<text text-anchor="start" x="138.6222" y="-198.9" font-family="Helvetica,sans-Serif" font-size="11.00" fill="#000000">varchar2[255]</text>
<polygon fill="none" stroke="#000000" points="29.7432,-169.2 29.7432,-191.2 135.7432,-191.2 135.7432,-169.2 29.7432,-169.2"/>
<text text-anchor="start" x="49.7432" y="-176.3" font-family="Helvetica,sans-Serif" font-size="11.00" fill="#000000">LAST_NAME</text>
<polygon fill="none" stroke="#000000" points="135.7432,-169.2 135.7432,-191.2 208.7432,-191.2 208.7432,-169.2 135.7432,-169.2"/>
<text text-anchor="start" x="138.6222" y="-176.9" font-family="Helvetica,sans-Serif" font-size="11.00" fill="#000000">varchar2[255]</text>
<polygon fill="none" stroke="#000000" points="29.7432,-147.2 29.7432,-169.2 135.7432,-169.2 135.7432,-147.2 29.7432,-147.2"/>
<text text-anchor="start" x="49.7432" y="-154.3" font-family="Helvetica,sans-Serif" font-size="11.00" fill="#000000">EMAIL</text>
<polygon fill="none" stroke="#000000" points="135.7432,-147.2 135.7432,-169.2 208.7432,-169.2 208.7432,-147.2 135.7432,-147.2"/>
<text text-anchor="start" x="138.6222" y="-154.9" font-family="Helvetica,sans-Serif" font-size="11.00" fill="#000000">varchar2[255]</text>
<polygon fill="none" stroke="#000000" points="29.7432,-125.2 29.7432,-147.2 135.7432,-147.2 135.7432,-125.2 29.7432,-125.2"/>
<text text-anchor="start" x="49.7432" y="-132.3" font-family="Helvetica,sans-Serif" font-size="11.00" fill="#000000">PHONE</text>
<polygon fill="none" stroke="#000000" points="135.7432,-125.2 135.7432,-147.2 208.7432,-147.2 208.7432,-125.2 135.7432,-125.2"/>
<text text-anchor="start" x="138.7432" y="-132.9" font-family="Helvetica,sans-Serif" font-size="11.00" fill="#000000">varchar2[50]</text>
<polygon fill="none" stroke="#000000" points="29.7432,-103.2 29.7432,-125.2 135.7432,-125.2 135.7432,-103.2 29.7432,-103.2"/>
<text text-anchor="start" x="49.7432" y="-110.3" font-family="Helvetica,sans-Serif" font-size="11.00" fill="#000000">HIRE_DATE</text>
<polygon fill="none" stroke="#000000" points="135.7432,-103.2 135.7432,-125.2 208.7432,-125.2 208.7432,-103.2 135.7432,-103.2"/>
<text text-anchor="start" x="138.7432" y="-110.9" font-family="Helvetica,sans-Serif" font-size="11.00" fill="#000000">date[7]</text>
<polygon fill="none" stroke="#000000" points="29.7432,-81.2 29.7432,-103.2 135.7432,-103.2 135.7432,-81.2 29.7432,-81.2"/>
<image xlink:href="../../images/foreignKeys.png" width="11px" height="12px" preserveAspectRatio="xMinYMin meet" x="34.7432" y="-98.2"/>
<text text-anchor="start" x="49.7432" y="-88.3" font-family="Helvetica,sans-Serif" font-size="11.00" fill="#000000">MANAGER_ID</text>
<polygon fill="none" stroke="#000000" points="135.7432,-81.2 135.7432,-103.2 208.7432,-103.2 208.7432,-81.2 135.7432,-81.2"/>
<text text-anchor="start" x="138.7432" y="-88.9" font-family="Helvetica,sans-Serif" font-size="11.00" fill="#000000">number[12]</text>
<polygon fill="none" stroke="#000000" points="29.7432,-59.2 29.7432,-81.2 135.7432,-81.2 135.7432,-59.2 29.7432,-59.2"/>
<text text-anchor="start" x="49.7432" y="-66.3" font-family="Helvetica,sans-Serif" font-size="11.00" fill="#000000">JOB_TITLE</text>
<polygon fill="none" stroke="#000000" points="135.7432,-59.2 135.7432,-81.2 208.7432,-81.2 208.7432,-59.2 135.7432,-59.2"/>
<text text-anchor="start" x="138.6222" y="-66.9" font-family="Helvetica,sans-Serif" font-size="11.00" fill="#000000">varchar2[255]</text>
<polygon fill="#ffffff" stroke="transparent" points="29.7432,-40.2 29.7432,-59.2 73.7432,-59.2 73.7432,-40.2 29.7432,-40.2"/>
<polygon fill="none" stroke="#000000" points="29.7432,-40.2 29.7432,-59.2 73.7432,-59.2 73.7432,-40.2 29.7432,-40.2"/>
<text text-anchor="start" x="32.7432" y="-46.3" font-family="Helvetica,sans-Serif" font-size="11.00" fill="#000000">&lt; 1</text>
<polygon fill="#ffffff" stroke="transparent" points="73.7432,-40.2 73.7432,-59.2 135.7432,-59.2 135.7432,-40.2 73.7432,-40.2"/>
<polygon fill="none" stroke="#000000" points="73.7432,-40.2 73.7432,-59.2 135.7432,-59.2 135.7432,-40.2 73.7432,-40.2"/>
<text text-anchor="start" x="100.3537" y="-46.3" font-family="Helvetica,sans-Serif" font-size="11.00" fill="#000000">0 rows</text>
<polygon fill="#ffffff" stroke="transparent" points="135.7432,-40.2 135.7432,-59.2 208.7432,-59.2 208.7432,-40.2 135.7432,-40.2"/>
<polygon fill="none" stroke="#000000" points="135.7432,-40.2 135.7432,-59.2 208.7432,-59.2 208.7432,-40.2 135.7432,-40.2"/>
<text text-anchor="start" x="190.1485" y="-46.3" font-family="Helvetica,sans-Serif" font-size="11.00" fill="#000000">2 &gt;</text>
<polygon fill="none" stroke="#000000" stroke-width="2" points="28.2432,-39.2 28.2432,-259.2 209.2432,-259.2 209.2432,-39.2 28.2432,-39.2"/>
</a>
</g>
</g>
<!-- EMPLOYEES&#45;&gt;EMPLOYEES -->
<g id="edge1" class="edge">
<title>EMPLOYEES:w&#45;&gt;EMPLOYEES:e</title>
<path fill="none" stroke="#000000" d="M20.0222,-102.9201C-18.0361,-154.695 -8.7842,-277.2 119.2432,-277.2 257.2432,-277.2 257.2432,-266.8667 208.7432,-224.2"/>
<polygon fill="#000000" stroke="#000000" points="24.3692,-98.1263 32.41,-94.6183 27.0562,-95.1631 29.7432,-92.2 29.7432,-92.2 29.7432,-92.2 27.0562,-95.1631 27.0764,-89.7817 24.3692,-98.1263 24.3692,-98.1263"/>
<ellipse fill="none" stroke="#000000" cx="22.2196" cy="-100.4968" rx="3.2" ry="3.2"/>
</g>
<!-- ORDER_ITEMS -->
<g id="node2" class="node">
<title>ORDER_ITEMS</title>
<g id="a_node2"><a xlink:href="../../tables/ORDER_ITEMS.html" xlink:title="ORDER_ITEMS" target="_top">
<polygon fill="#ffffff" stroke="transparent" points="416.2432,-280.7 416.2432,-341.7 538.2432,-341.7 538.2432,-280.7 416.2432,-280.7"/>
<polygon fill="#f5f5f5" stroke="transparent" points="416.2432,-318.2 416.2432,-341.2 538.2432,-341.2 538.2432,-318.2 416.2432,-318.2"/>
<polygon fill="none" stroke="#000000" points="416.2432,-318.2 416.2432,-341.2 538.2432,-341.2 538.2432,-318.2 416.2432,-318.2"/>
<text text-anchor="start" x="421.0227" y="-327.3" font-family="Helvetica,sans-Serif" font-weight="bold" font-size="11.00" fill="#000000">ORDER_ITEMS</text>
<text text-anchor="start" x="503.765" y="-326.3" font-family="Helvetica,sans-Serif" font-size="11.00" fill="#000000">[table]</text>
<polygon fill="none" stroke="#000000" points="416.2432,-299.2 416.2432,-318.2 538.2432,-318.2 538.2432,-299.2 416.2432,-299.2"/>
<text text-anchor="start" x="419.2432" y="-305.3" font-family="Helvetica,sans-Serif" font-size="11.00" fill="#000000">...</text>
<polygon fill="#ffffff" stroke="transparent" points="416.2432,-280.2 416.2432,-299.2 462.2432,-299.2 462.2432,-280.2 416.2432,-280.2"/>
<polygon fill="none" stroke="#000000" points="416.2432,-280.2 416.2432,-299.2 462.2432,-299.2 462.2432,-280.2 416.2432,-280.2"/>
<text text-anchor="start" x="419.2432" y="-286.3" font-family="Helvetica,sans-Serif" font-size="11.00" fill="#000000">&lt; 2</text>
<polygon fill="#ffffff" stroke="transparent" points="462.2432,-280.2 462.2432,-299.2 513.2432,-299.2 513.2432,-280.2 462.2432,-280.2"/>
<polygon fill="none" stroke="#000000" points="462.2432,-280.2 462.2432,-299.2 513.2432,-299.2 513.2432,-280.2 462.2432,-280.2"/>
<text text-anchor="start" x="477.8537" y="-286.3" font-family="Helvetica,sans-Serif" font-size="11.00" fill="#000000">0 rows</text>
<polygon fill="#ffffff" stroke="transparent" points="513.2432,-280.2 513.2432,-299.2 538.2432,-299.2 538.2432,-280.2 513.2432,-280.2"/>
<polygon fill="none" stroke="#000000" points="513.2432,-280.2 513.2432,-299.2 538.2432,-299.2 538.2432,-280.2 513.2432,-280.2"/>
<text text-anchor="start" x="529.1294" y="-286.3" font-family="Helvetica,sans-Serif" font-size="11.00" fill="#000000"> &#160;</text>
</a>
</g>
</g>
<!-- ORDERS -->
<g id="node3" class="node">
<title>ORDERS</title>
<g id="a_node3"><a xlink:href="../../tables/ORDERS.html" xlink:title="ORDERS" target="_top">
<polygon fill="#ffffff" stroke="transparent" points="259.2432,-215.7 259.2432,-342.7 367.2432,-342.7 367.2432,-215.7 259.2432,-215.7"/>
<polygon fill="#f5f5f5" stroke="transparent" points="259.2432,-319.2 259.2432,-342.2 367.2432,-342.2 367.2432,-319.2 259.2432,-319.2"/>
<polygon fill="none" stroke="#000000" points="259.2432,-319.2 259.2432,-342.2 367.2432,-342.2 367.2432,-319.2 259.2432,-319.2"/>
<text text-anchor="start" x="264.2432" y="-328.3" font-family="Helvetica,sans-Serif" font-weight="bold" font-size="11.00" fill="#000000">ORDERS</text>
<text text-anchor="start" x="332.2869" y="-327.3" font-family="Helvetica,sans-Serif" font-size="11.00" fill="#000000">[table]</text>
<polygon fill="none" stroke="#000000" points="259.2432,-297.2 259.2432,-319.2 367.2432,-319.2 367.2432,-297.2 259.2432,-297.2"/>
<image xlink:href="../../images/primaryKeys.png" width="11px" height="12px" preserveAspectRatio="xMinYMin meet" x="264.243" y="-314.2"/>
<text text-anchor="start" x="279.2432" y="-304.3" font-family="Helvetica,sans-Serif" font-size="11.00" fill="#000000">ORDER_ID</text>
<polygon fill="none" stroke="#000000" points="259.2432,-275.2 259.2432,-297.2 367.2432,-297.2 367.2432,-275.2 259.2432,-275.2"/>
<image xlink:href="../../images/foreignKeys.png" width="11px" height="12px" preserveAspectRatio="xMinYMin meet" x="264.243" y="-292.2"/>
<text text-anchor="start" x="279.2432" y="-282.3" font-family="Helvetica,sans-Serif" font-size="11.00" fill="#000000">CUSTOMER_ID</text>
<polygon fill="none" stroke="#000000" points="259.2432,-253.2 259.2432,-275.2 367.2432,-275.2 367.2432,-253.2 259.2432,-253.2"/>
<image xlink:href="../../images/foreignKeys.png" width="11px" height="12px" preserveAspectRatio="xMinYMin meet" x="264.243" y="-270.2"/>
<text text-anchor="start" x="279.2432" y="-260.3" font-family="Helvetica,sans-Serif" font-size="11.00" fill="#000000">SALESMAN_ID</text>
<polygon fill="none" stroke="#000000" points="259.2432,-234.2 259.2432,-253.2 367.2432,-253.2 367.2432,-234.2 259.2432,-234.2"/>
<text text-anchor="start" x="262.2432" y="-240.3" font-family="Helvetica,sans-Serif" font-size="11.00" fill="#000000">...</text>
<polygon fill="#ffffff" stroke="transparent" points="259.2432,-215.2 259.2432,-234.2 294.2432,-234.2 294.2432,-215.2 259.2432,-215.2"/>
<polygon fill="none" stroke="#000000" points="259.2432,-215.2 259.2432,-234.2 294.2432,-234.2 294.2432,-215.2 259.2432,-215.2"/>
<text text-anchor="start" x="262.2432" y="-221.3" font-family="Helvetica,sans-Serif" font-size="11.00" fill="#000000">&lt; 2</text>
<polygon fill="#ffffff" stroke="transparent" points="294.2432,-215.2 294.2432,-234.2 339.2432,-234.2 339.2432,-215.2 294.2432,-215.2"/>
<polygon fill="none" stroke="#000000" points="294.2432,-215.2 294.2432,-234.2 339.2432,-234.2 339.2432,-215.2 294.2432,-215.2"/>
<text text-anchor="start" x="303.8537" y="-221.3" font-family="Helvetica,sans-Serif" font-size="11.00" fill="#000000">0 rows</text>
<polygon fill="#ffffff" stroke="transparent" points="339.2432,-215.2 339.2432,-234.2 367.2432,-234.2 367.2432,-215.2 339.2432,-215.2"/>
<polygon fill="none" stroke="#000000" points="339.2432,-215.2 339.2432,-234.2 367.2432,-234.2 367.2432,-215.2 339.2432,-215.2"/>
<text text-anchor="start" x="348.6485" y="-221.3" font-family="Helvetica,sans-Serif" font-size="11.00" fill="#000000">1 &gt;</text>
</a>
</g>
</g>
<!-- ORDER_ITEMS&#45;&gt;ORDERS -->
<g id="edge2" class="edge">
<title>ORDER_ITEMS:w&#45;&gt;ORDERS:e</title>
<path fill="none" stroke="#000000" d="M401.7341,-308.2C390.4206,-308.2 383.2362,-308.2 367.2432,-308.2"/>
<polygon fill="#000000" stroke="#000000" points="408.2432,-308.2001 416.2432,-311.8 412.2432,-308.2 416.2432,-308.2 416.2432,-308.2 416.2432,-308.2 412.2432,-308.2 416.2432,-304.6 408.2432,-308.2001 408.2432,-308.2001"/>
<ellipse fill="none" stroke="#000000" cx="405.0432" cy="-308.2001" rx="3.2" ry="3.2"/>
</g>
<!-- ORDERS&#45;&gt;EMPLOYEES -->
<g id="edge4" class="edge">
<title>ORDERS:w&#45;&gt;EMPLOYEES:e</title>
<path fill="none" stroke="#000000" d="M245.1848,-259.6115C231.8898,-249.1048 231.3358,-224.2 208.7432,-224.2"/>
<polygon fill="#000000" stroke="#000000" points="251.638,-261.7177 258.1262,-267.6223 255.4406,-262.9589 259.2432,-264.2 259.2432,-264.2 259.2432,-264.2 255.4406,-262.9589 260.3602,-260.7777 251.638,-261.7177 251.638,-261.7177"/>
<ellipse fill="none" stroke="#000000" cx="248.596" cy="-260.7248" rx="3.2" ry="3.2"/>
</g>
<!-- CUSTOMERS -->
<g id="node4" class="node">
<title>CUSTOMERS</title>
<g id="a_node4"><a xlink:href="../../tables/CUSTOMERS.html" xlink:title="CUSTOMERS" target="_top">
<polygon fill="#ffffff" stroke="transparent" points="62.2432,-299.7 62.2432,-360.7 175.2432,-360.7 175.2432,-299.7 62.2432,-299.7"/>
<polygon fill="#f5f5f5" stroke="transparent" points="62.7432,-337.2 62.7432,-360.2 175.7432,-360.2 175.7432,-337.2 62.7432,-337.2"/>
<polygon fill="none" stroke="#000000" points="62.7432,-337.2 62.7432,-360.2 175.7432,-360.2 175.7432,-337.2 62.7432,-337.2"/>
<text text-anchor="start" x="67.6086" y="-346.3" font-family="Helvetica,sans-Serif" font-weight="bold" font-size="11.00" fill="#000000">CUSTOMERS</text>
<text text-anchor="start" x="141.265" y="-345.3" font-family="Helvetica,sans-Serif" font-size="11.00" fill="#000000">[table]</text>
<polygon fill="none" stroke="#000000" points="62.7432,-318.2 62.7432,-337.2 175.7432,-337.2 175.7432,-318.2 62.7432,-318.2"/>
<text text-anchor="start" x="65.7432" y="-324.3" font-family="Helvetica,sans-Serif" font-size="11.00" fill="#000000">...</text>
<polygon fill="#ffffff" stroke="transparent" points="62.7432,-299.2 62.7432,-318.2 95.7432,-318.2 95.7432,-299.2 62.7432,-299.2"/>
<polygon fill="none" stroke="#000000" points="62.7432,-299.2 62.7432,-318.2 95.7432,-318.2 95.7432,-299.2 62.7432,-299.2"/>
<text text-anchor="start" x="65.7432" y="-305.3" font-family="Helvetica,sans-Serif" font-size="11.00" fill="#000000"> &#160;</text>
<polygon fill="#ffffff" stroke="transparent" points="95.7432,-299.2 95.7432,-318.2 143.7432,-318.2 143.7432,-299.2 95.7432,-299.2"/>
<polygon fill="none" stroke="#000000" points="95.7432,-299.2 95.7432,-318.2 143.7432,-318.2 143.7432,-299.2 95.7432,-299.2"/>
<text text-anchor="start" x="108.3537" y="-305.3" font-family="Helvetica,sans-Serif" font-size="11.00" fill="#000000">0 rows</text>
<polygon fill="#ffffff" stroke="transparent" points="143.7432,-299.2 143.7432,-318.2 175.7432,-318.2 175.7432,-299.2 143.7432,-299.2"/>
<polygon fill="none" stroke="#000000" points="143.7432,-299.2 143.7432,-318.2 175.7432,-318.2 175.7432,-299.2 143.7432,-299.2"/>
<text text-anchor="start" x="157.1485" y="-305.3" font-family="Helvetica,sans-Serif" font-size="11.00" fill="#000000">2 &gt;</text>
</a>
</g>
</g>
<!-- ORDERS&#45;&gt;CUSTOMERS -->
<g id="edge3" class="edge">
<title>ORDERS:w&#45;&gt;CUSTOMERS:e</title>
<path fill="none" stroke="#000000" d="M244.7253,-288.1775C216.9688,-296.3674 211.5957,-327.2 175.7432,-327.2"/>
<polygon fill="#000000" stroke="#000000" points="251.3164,-287.2798 259.7291,-289.7671 255.2798,-286.7399 259.2432,-286.2 259.2432,-286.2 259.2432,-286.2 255.2798,-286.7399 258.7573,-282.6329 251.3164,-287.2798 251.3164,-287.2798"/>
<ellipse fill="none" stroke="#000000" cx="248.1457" cy="-287.7117" rx="3.2" ry="3.2"/>
</g>
</g>
</svg>
