<?xml version="1.0" encoding="UTF-8" standalone="no"?>
<!DOCTYPE svg PUBLIC "-//W3C//DTD SVG 1.1//EN"
 "http://www.w3.org/Graphics/SVG/1.1/DTD/svg11.dtd">
<!-- Generated by graphviz version 2.40.1 (20161225.0304)
 -->
<!-- Title: oneDegreeRelationshipsDiagram Pages: 1 -->
<svg width="383pt" height="315pt"
 viewBox="0.00 0.00 383.24 314.70" xmlns="http://www.w3.org/2000/svg" xmlns:xlink="http://www.w3.org/1999/xlink">
<g id="graph0" class="graph" transform="scale(1 1) rotate(0) translate(4 310.7)">
<title>oneDegreeRelationshipsDiagram</title>
<polygon fill="#ffffff" stroke="transparent" points="-4,4 -4,-310.7 379.2432,-310.7 379.2432,4 -4,4"/>
<text text-anchor="middle" x="72.4936" y="-7.3" font-family="Helvetica,sans-Serif" font-size="11.00" fill="#000000">Generated by SchemaSpy</text>
<!-- EMPLOYEES -->
<g id="node1" class="node">
<title>EMPLOYEES</title>
<g id="a_node1"><a xlink:href="../../tables/EMPLOYEES.html" xlink:title="EMPLOYEES" target="_top">
<polygon fill="#ffffff" stroke="transparent" points="27.2432,-38.2 27.2432,-260.2 210.2432,-260.2 210.2432,-38.2 27.2432,-38.2"/>
<polygon fill="#f5f5f5" stroke="transparent" points="29.7432,-235.2 29.7432,-258.2 208.7432,-258.2 208.7432,-235.2 29.7432,-235.2"/>
<polygon fill="none" stroke="#000000" points="29.7432,-235.2 29.7432,-258.2 208.7432,-258.2 208.7432,-235.2 29.7432,-235.2"/>
<text text-anchor="start" x="34.7432" y="-244.3" font-family="Helvetica,sans-Serif" font-weight="bold" font-size="11.00" fill="#000000">EMPLOYEES</text>
<text text-anchor="start" x="173.7869" y="-243.3" font-family="Helvetica,sans-Serif" font-size="11.00" fill="#000000">[table]</text>
<polygon fill="none" stroke="#000000" points="29.7432,-213.2 29.7432,-235.2 135.7432,-235.2 135.7432,-213.2 29.7432,-213.2"/>
<image xlink:href="../../images/primaryKeys.png" width="11px" height="12px" preserveAspectRatio="xMinYMin meet" x="34.7432" y="-230.2"/>
<text text-anchor="start" x="49.7432" y="-220.3" font-family="Helvetica,sans-Serif" font-size="11.00" fill="#000000">EMPLOYEE_ID</text>
<polygon fill="none" stroke="#000000" points="135.7432,-213.2 135.7432,-235.2 208.7432,-235.2 208.7432,-213.2 135.7432,-213.2"/>
<text text-anchor="start" x="138.7432" y="-220.9" font-family="Helvetica,sans-Serif" font-size="11.00" fill="#000000">number[0]</text>
<polygon fill="none" stroke="#000000" points="29.7432,-191.2 29.7432,-213.2 135.7432,-213.2 135.7432,-191.2 29.7432,-191.2"/>
<text text-anchor="start" x="49.7432" y="-198.3" font-family="Helvetica,sans-Serif" font-size="11.00" fill="#000000">FIRST_NAME</text>
<polygon fill="none" stroke="#000000" points="135.7432,-191.2 135.7432,-213.2 208.7432,-213.2 208.7432,-191.2 135.7432,-191.2"/>
<text text-anchor="start" x="138.6222" y="-198.9" font-family="Helvetica,sans-Serif" font-size="11.00" fill="#000000">varchar2[255]</text>
<polygon fill="none" stroke="#000000" points="29.7432,-169.2 29.7432,-191.2 135.7432,-191.2 135.7432,-169.2 29.7432,-169.2"/>
<text text-anchor="start" x="49.7432" y="-176.3" font-family="Helvetica,sans-Serif" font-size="11.00" fill="#000000">LAST_NAME</text>
<polygon fill="none" stroke="#000000" points="135.7432,-169.2 135.7432,-191.2 208.7432,-191.2 208.7432,-169.2 135.7432,-169.2"/>
<text text-anchor="start" x="138.6222" y="-176.9" font-family="Helvetica,sans-Serif" font-size="11.00" fill="#000000">varchar2[255]</text>
<polygon fill="none" stroke="#000000" points="29.7432,-147.2 29.7432,-169.2 135.7432,-169.2 135.7432,-147.2 29.7432,-147.2"/>
<text text-anchor="start" x="49.7432" y="-154.3" font-family="Helvetica,sans-Serif" font-size="11.00" fill="#000000">EMAIL</text>
<polygon fill="none" stroke="#000000" points="135.7432,-147.2 135.7432,-169.2 208.7432,-169.2 208.7432,-147.2 135.7432,-147.2"/>
<text text-anchor="start" x="138.6222" y="-154.9" font-family="Helvetica,sans-Serif" font-size="11.00" fill="#000000">varchar2[255]</text>
<polygon fill="none" stroke="#000000" points="29.7432,-125.2 29.7432,-147.2 135.7432,-147.2 135.7432,-125.2 29.7432,-125.2"/>
<text text-anchor="start" x="49.7432" y="-132.3" font-family="Helvetica,sans-Serif" font-size="11.00" fill="#000000">PHONE</text>
<polygon fill="none" stroke="#000000" points="135.7432,-125.2 135.7432,-147.2 208.7432,-147.2 208.7432,-125.2 135.7432,-125.2"/>
<text text-anchor="start" x="138.7432" y="-132.9" font-family="Helvetica,sans-Serif" font-size="11.00" fill="#000000">varchar2[50]</text>
<polygon fill="none" stroke="#000000" points="29.7432,-103.2 29.7432,-125.2 135.7432,-125.2 135.7432,-103.2 29.7432,-103.2"/>
<text text-anchor="start" x="49.7432" y="-110.3" font-family="Helvetica,sans-Serif" font-size="11.00" fill="#000000">HIRE_DATE</text>
<polygon fill="none" stroke="#000000" points="135.7432,-103.2 135.7432,-125.2 208.7432,-125.2 208.7432,-103.2 135.7432,-103.2"/>
<text text-anchor="start" x="138.7432" y="-110.9" font-family="Helvetica,sans-Serif" font-size="11.00" fill="#000000">date[7]</text>
<polygon fill="none" stroke="#000000" points="29.7432,-81.2 29.7432,-103.2 135.7432,-103.2 135.7432,-81.2 29.7432,-81.2"/>
<image xlink:href="../../images/foreignKeys.png" width="11px" height="12px" preserveAspectRatio="xMinYMin meet" x="34.7432" y="-98.2"/>
<text text-anchor="start" x="49.7432" y="-88.3" font-family="Helvetica,sans-Serif" font-size="11.00" fill="#000000">MANAGER_ID</text>
<polygon fill="none" stroke="#000000" points="135.7432,-81.2 135.7432,-103.2 208.7432,-103.2 208.7432,-81.2 135.7432,-81.2"/>
<text text-anchor="start" x="138.7432" y="-88.9" font-family="Helvetica,sans-Serif" font-size="11.00" fill="#000000">number[12]</text>
<polygon fill="none" stroke="#000000" points="29.7432,-59.2 29.7432,-81.2 135.7432,-81.2 135.7432,-59.2 29.7432,-59.2"/>
<text text-anchor="start" x="49.7432" y="-66.3" font-family="Helvetica,sans-Serif" font-size="11.00" fill="#000000">JOB_TITLE</text>
<polygon fill="none" stroke="#000000" points="135.7432,-59.2 135.7432,-81.2 208.7432,-81.2 208.7432,-59.2 135.7432,-59.2"/>
<text text-anchor="start" x="138.6222" y="-66.9" font-family="Helvetica,sans-Serif" font-size="11.00" fill="#000000">varchar2[255]</text>
<polygon fill="#ffffff" stroke="transparent" points="29.7432,-40.2 29.7432,-59.2 73.7432,-59.2 73.7432,-40.2 29.7432,-40.2"/>
<polygon fill="none" stroke="#000000" points="29.7432,-40.2 29.7432,-59.2 73.7432,-59.2 73.7432,-40.2 29.7432,-40.2"/>
<text text-anchor="start" x="32.7432" y="-46.3" font-family="Helvetica,sans-Serif" font-size="11.00" fill="#000000">&lt; 1</text>
<polygon fill="#ffffff" stroke="transparent" points="73.7432,-40.2 73.7432,-59.2 135.7432,-59.2 135.7432,-40.2 73.7432,-40.2"/>
<polygon fill="none" stroke="#000000" points="73.7432,-40.2 73.7432,-59.2 135.7432,-59.2 135.7432,-40.2 73.7432,-40.2"/>
<text text-anchor="start" x="100.3537" y="-46.3" font-family="Helvetica,sans-Serif" font-size="11.00" fill="#000000">0 rows</text>
<polygon fill="#ffffff" stroke="transparent" points="135.7432,-40.2 135.7432,-59.2 208.7432,-59.2 208.7432,-40.2 135.7432,-40.2"/>
<polygon fill="none" stroke="#000000" points="135.7432,-40.2 135.7432,-59.2 208.7432,-59.2 208.7432,-40.2 135.7432,-40.2"/>
<text text-anchor="start" x="190.1485" y="-46.3" font-family="Helvetica,sans-Serif" font-size="11.00" fill="#000000">2 &gt;</text>
<polygon fill="none" stroke="#000000" stroke-width="2" points="28.2432,-39.2 28.2432,-259.2 209.2432,-259.2 209.2432,-39.2 28.2432,-39.2"/>
</a>
</g>
</g>
<!-- EMPLOYEES&#45;&gt;EMPLOYEES -->
<g id="edge1" class="edge">
<title>EMPLOYEES:w&#45;&gt;EMPLOYEES:e</title>
<path fill="none" stroke="#000000" d="M20.0222,-102.9201C-18.0361,-154.695 -8.7842,-277.2 119.2432,-277.2 257.2432,-277.2 257.2432,-266.8667 208.7432,-224.2"/>
<polygon fill="#000000" stroke="#000000" points="24.3692,-98.1263 32.41,-94.6183 27.0562,-95.1631 29.7432,-92.2 29.7432,-92.2 29.7432,-92.2 27.0562,-95.1631 27.0764,-89.7817 24.3692,-98.1263 24.3692,-98.1263"/>
<ellipse fill="none" stroke="#000000" cx="22.2196" cy="-100.4968" rx="3.2" ry="3.2"/>
</g>
<!-- ORDERS -->
<g id="node2" class="node">
<title>ORDERS</title>
<g id="a_node2"><a xlink:href="../../tables/ORDERS.html" xlink:title="ORDERS" target="_top">
<polygon fill="#ffffff" stroke="transparent" points="259.2432,-175.7 259.2432,-302.7 367.2432,-302.7 367.2432,-175.7 259.2432,-175.7"/>
<polygon fill="#f5f5f5" stroke="transparent" points="259.2432,-279.2 259.2432,-302.2 367.2432,-302.2 367.2432,-279.2 259.2432,-279.2"/>
<polygon fill="none" stroke="#000000" points="259.2432,-279.2 259.2432,-302.2 367.2432,-302.2 367.2432,-279.2 259.2432,-279.2"/>
<text text-anchor="start" x="264.2432" y="-288.3" font-family="Helvetica,sans-Serif" font-weight="bold" font-size="11.00" fill="#000000">ORDERS</text>
<text text-anchor="start" x="332.2869" y="-287.3" font-family="Helvetica,sans-Serif" font-size="11.00" fill="#000000">[table]</text>
<polygon fill="none" stroke="#000000" points="259.2432,-257.2 259.2432,-279.2 367.2432,-279.2 367.2432,-257.2 259.2432,-257.2"/>
<image xlink:href="../../images/primaryKeys.png" width="11px" height="12px" preserveAspectRatio="xMinYMin meet" x="264.243" y="-274.2"/>
<text text-anchor="start" x="279.2432" y="-264.3" font-family="Helvetica,sans-Serif" font-size="11.00" fill="#000000">ORDER_ID</text>
<polygon fill="none" stroke="#000000" points="259.2432,-235.2 259.2432,-257.2 367.2432,-257.2 367.2432,-235.2 259.2432,-235.2"/>
<image xlink:href="../../images/foreignKeys.png" width="11px" height="12px" preserveAspectRatio="xMinYMin meet" x="264.243" y="-252.2"/>
<text text-anchor="start" x="279.2432" y="-242.3" font-family="Helvetica,sans-Serif" font-size="11.00" fill="#000000">CUSTOMER_ID</text>
<polygon fill="none" stroke="#000000" points="259.2432,-213.2 259.2432,-235.2 367.2432,-235.2 367.2432,-213.2 259.2432,-213.2"/>
<image xlink:href="../../images/foreignKeys.png" width="11px" height="12px" preserveAspectRatio="xMinYMin meet" x="264.243" y="-230.2"/>
<text text-anchor="start" x="279.2432" y="-220.3" font-family="Helvetica,sans-Serif" font-size="11.00" fill="#000000">SALESMAN_ID</text>
<polygon fill="none" stroke="#000000" points="259.2432,-194.2 259.2432,-213.2 367.2432,-213.2 367.2432,-194.2 259.2432,-194.2"/>
<text text-anchor="start" x="262.2432" y="-200.3" font-family="Helvetica,sans-Serif" font-size="11.00" fill="#000000">...</text>
<polygon fill="#ffffff" stroke="transparent" points="259.2432,-175.2 259.2432,-194.2 294.2432,-194.2 294.2432,-175.2 259.2432,-175.2"/>
<polygon fill="none" stroke="#000000" points="259.2432,-175.2 259.2432,-194.2 294.2432,-194.2 294.2432,-175.2 259.2432,-175.2"/>
<text text-anchor="start" x="262.2432" y="-181.3" font-family="Helvetica,sans-Serif" font-size="11.00" fill="#000000">&lt; 2</text>
<polygon fill="#ffffff" stroke="transparent" points="294.2432,-175.2 294.2432,-194.2 339.2432,-194.2 339.2432,-175.2 294.2432,-175.2"/>
<polygon fill="none" stroke="#000000" points="294.2432,-175.2 294.2432,-194.2 339.2432,-194.2 339.2432,-175.2 294.2432,-175.2"/>
<text text-anchor="start" x="303.8537" y="-181.3" font-family="Helvetica,sans-Serif" font-size="11.00" fill="#000000">0 rows</text>
<polygon fill="#ffffff" stroke="transparent" points="339.2432,-175.2 339.2432,-194.2 367.2432,-194.2 367.2432,-175.2 339.2432,-175.2"/>
<polygon fill="none" stroke="#000000" points="339.2432,-175.2 339.2432,-194.2 367.2432,-194.2 367.2432,-175.2 339.2432,-175.2"/>
<text text-anchor="start" x="348.6485" y="-181.3" font-family="Helvetica,sans-Serif" font-size="11.00" fill="#000000">1 &gt;</text>
</a>
</g>
</g>
<!-- ORDERS&#45;&gt;EMPLOYEES -->
<g id="edge2" class="edge">
<title>ORDERS:w&#45;&gt;EMPLOYEES:e</title>
<path fill="none" stroke="#000000" d="M244.6635,-224.2C232.7867,-224.2 225.4012,-224.2 208.7432,-224.2"/>
<polygon fill="#000000" stroke="#000000" points="251.2432,-224.2001 259.2432,-227.8 255.2432,-224.2 259.2432,-224.2 259.2432,-224.2 259.2432,-224.2 255.2432,-224.2 259.2432,-220.6 251.2432,-224.2001 251.2432,-224.2001"/>
<ellipse fill="none" stroke="#000000" cx="248.0432" cy="-224.2001" rx="3.2" ry="3.2"/>
</g>
</g>
</svg>
