<?xml version="1.0" encoding="UTF-8" standalone="no"?>
<!DOCTYPE svg PUBLIC "-//W3C//DTD SVG 1.1//EN"
 "http://www.w3.org/Graphics/SVG/1.1/DTD/svg11.dtd">
<!-- Generated by graphviz version 2.40.1 (20161225.0304)
 -->
<!-- Title: twoDegreesRelationshipsDiagram Pages: 1 -->
<svg width="623pt" height="281pt"
 viewBox="0.00 0.00 623.00 281.20" xmlns="http://www.w3.org/2000/svg" xmlns:xlink="http://www.w3.org/1999/xlink">
<g id="graph0" class="graph" transform="scale(1 1) rotate(0) translate(4 277.2)">
<title>twoDegreesRelationshipsDiagram</title>
<polygon fill="#ffffff" stroke="transparent" points="-4,4 -4,-277.2 619,-277.2 619,4 -4,4"/>
<text text-anchor="middle" x="72.4936" y="-7.3" font-family="Helvetica,sans-Serif" font-size="11.00" fill="#000000">Generated by SchemaSpy</text>
<!-- INVENTORIES -->
<g id="node1" class="node">
<title>INVENTORIES</title>
<g id="a_node1"><a xlink:href="../../tables/INVENTORIES.html" xlink:title="INVENTORIES" target="_top">
<polygon fill="#ffffff" stroke="transparent" points="423,-64.7 423,-176.7 607,-176.7 607,-64.7 423,-64.7"/>
<polygon fill="#f5f5f5" stroke="transparent" points="425,-151.7 425,-174.7 605,-174.7 605,-151.7 425,-151.7"/>
<polygon fill="none" stroke="#000000" points="425,-151.7 425,-174.7 605,-174.7 605,-151.7 425,-151.7"/>
<text text-anchor="start" x="430" y="-160.8" font-family="Helvetica,sans-Serif" font-weight="bold" font-size="11.00" fill="#000000">INVENTORIES</text>
<text text-anchor="start" x="570.0437" y="-159.8" font-family="Helvetica,sans-Serif" font-size="11.00" fill="#000000">[table]</text>
<polygon fill="none" stroke="#000000" points="425,-129.7 425,-151.7 544,-151.7 544,-129.7 425,-129.7"/>
<image xlink:href="../../images/primaryKeys.png" width="11px" height="12px" preserveAspectRatio="xMinYMin meet" x="430" y="-146.7"/>
<text text-anchor="start" x="445" y="-136.8" font-family="Helvetica,sans-Serif" font-size="11.00" fill="#000000">PRODUCT_ID</text>
<polygon fill="none" stroke="#000000" points="544,-129.7 544,-151.7 605,-151.7 605,-129.7 544,-129.7"/>
<text text-anchor="start" x="546.6865" y="-137.4" font-family="Helvetica,sans-Serif" font-size="11.00" fill="#000000">number[12]</text>
<polygon fill="none" stroke="#000000" points="425,-107.7 425,-129.7 544,-129.7 544,-107.7 425,-107.7"/>
<image xlink:href="../../images/primaryKeys.png" width="11px" height="12px" preserveAspectRatio="xMinYMin meet" x="430" y="-124.7"/>
<text text-anchor="start" x="445" y="-114.8" font-family="Helvetica,sans-Serif" font-size="11.00" fill="#000000">WAREHOUSE_ID</text>
<polygon fill="none" stroke="#000000" points="544,-107.7 544,-129.7 605,-129.7 605,-107.7 544,-107.7"/>
<text text-anchor="start" x="546.6865" y="-115.4" font-family="Helvetica,sans-Serif" font-size="11.00" fill="#000000">number[12]</text>
<polygon fill="none" stroke="#000000" points="425,-85.7 425,-107.7 544,-107.7 544,-85.7 425,-85.7"/>
<text text-anchor="start" x="445" y="-92.8" font-family="Helvetica,sans-Serif" font-size="11.00" fill="#000000">QUANTITY</text>
<polygon fill="none" stroke="#000000" points="544,-85.7 544,-107.7 605,-107.7 605,-85.7 544,-85.7"/>
<text text-anchor="start" x="547" y="-93.4" font-family="Helvetica,sans-Serif" font-size="11.00" fill="#000000">number[8]</text>
<polygon fill="#ffffff" stroke="transparent" points="425,-66.7 425,-85.7 476,-85.7 476,-66.7 425,-66.7"/>
<polygon fill="none" stroke="#000000" points="425,-66.7 425,-85.7 476,-85.7 476,-66.7 425,-66.7"/>
<text text-anchor="start" x="428" y="-72.8" font-family="Helvetica,sans-Serif" font-size="11.00" fill="#000000">&lt; 2</text>
<polygon fill="#ffffff" stroke="transparent" points="476,-66.7 476,-85.7 544,-85.7 544,-66.7 476,-66.7"/>
<polygon fill="none" stroke="#000000" points="476,-66.7 476,-85.7 544,-85.7 544,-66.7 476,-66.7"/>
<text text-anchor="start" x="508.6105" y="-72.8" font-family="Helvetica,sans-Serif" font-size="11.00" fill="#000000">0 rows</text>
<polygon fill="#ffffff" stroke="transparent" points="544,-66.7 544,-85.7 605,-85.7 605,-66.7 544,-66.7"/>
<polygon fill="none" stroke="#000000" points="544,-66.7 544,-85.7 605,-85.7 605,-66.7 544,-66.7"/>
<text text-anchor="start" x="586.4053" y="-72.8" font-family="Helvetica,sans-Serif" font-size="11.00" fill="#000000">0 &gt;</text>
<polygon fill="none" stroke="#000000" stroke-width="2" points="424,-65.7 424,-175.7 606,-175.7 606,-65.7 424,-65.7"/>
</a>
</g>
</g>
<!-- PRODUCTS -->
<g id="node2" class="node">
<title>PRODUCTS</title>
<g id="a_node2"><a xlink:href="../../tables/PRODUCTS.html" xlink:title="PRODUCTS" target="_top">
<polygon fill="#ffffff" stroke="transparent" points="239,-164.2 239,-269.2 367,-269.2 367,-164.2 239,-164.2"/>
<polygon fill="#f5f5f5" stroke="transparent" points="239,-245.7 239,-268.7 367,-268.7 367,-245.7 239,-245.7"/>
<polygon fill="none" stroke="#000000" points="239,-245.7 239,-268.7 367,-268.7 367,-245.7 239,-245.7"/>
<text text-anchor="start" x="244" y="-254.8" font-family="Helvetica,sans-Serif" font-weight="bold" font-size="11.00" fill="#000000">PRODUCTS</text>
<text text-anchor="start" x="332.0437" y="-253.8" font-family="Helvetica,sans-Serif" font-size="11.00" fill="#000000">[table]</text>
<polygon fill="none" stroke="#000000" points="239,-223.7 239,-245.7 367,-245.7 367,-223.7 239,-223.7"/>
<image xlink:href="../../images/primaryKeys.png" width="11px" height="12px" preserveAspectRatio="xMinYMin meet" x="244" y="-240.7"/>
<text text-anchor="start" x="259" y="-230.8" font-family="Helvetica,sans-Serif" font-size="11.00" fill="#000000">PRODUCT_ID</text>
<polygon fill="none" stroke="#000000" points="239,-201.7 239,-223.7 367,-223.7 367,-201.7 239,-201.7"/>
<image xlink:href="../../images/foreignKeys.png" width="11px" height="12px" preserveAspectRatio="xMinYMin meet" x="244" y="-218.7"/>
<text text-anchor="start" x="259" y="-208.8" font-family="Helvetica,sans-Serif" font-size="11.00" fill="#000000">CATEGORY_ID</text>
<polygon fill="none" stroke="#000000" points="239,-182.7 239,-201.7 367,-201.7 367,-182.7 239,-182.7"/>
<text text-anchor="start" x="242" y="-188.8" font-family="Helvetica,sans-Serif" font-size="11.00" fill="#000000">...</text>
<polygon fill="#ffffff" stroke="transparent" points="239,-163.7 239,-182.7 284,-182.7 284,-163.7 239,-163.7"/>
<polygon fill="none" stroke="#000000" points="239,-163.7 239,-182.7 284,-182.7 284,-163.7 239,-163.7"/>
<text text-anchor="start" x="242" y="-169.8" font-family="Helvetica,sans-Serif" font-size="11.00" fill="#000000">&lt; 1</text>
<polygon fill="#ffffff" stroke="transparent" points="284,-163.7 284,-182.7 334,-182.7 334,-163.7 284,-163.7"/>
<polygon fill="none" stroke="#000000" points="284,-163.7 284,-182.7 334,-182.7 334,-163.7 284,-163.7"/>
<text text-anchor="start" x="298.6105" y="-169.8" font-family="Helvetica,sans-Serif" font-size="11.00" fill="#000000">0 rows</text>
<polygon fill="#ffffff" stroke="transparent" points="334,-163.7 334,-182.7 367,-182.7 367,-163.7 334,-163.7"/>
<polygon fill="none" stroke="#000000" points="334,-163.7 334,-182.7 367,-182.7 367,-163.7 334,-163.7"/>
<text text-anchor="start" x="348.4053" y="-169.8" font-family="Helvetica,sans-Serif" font-size="11.00" fill="#000000">2 &gt;</text>
</a>
</g>
</g>
<!-- INVENTORIES&#45;&gt;PRODUCTS -->
<g id="edge1" class="edge">
<title>INVENTORIES:w&#45;&gt;PRODUCTS:e</title>
<path fill="none" stroke="#000000" d="M410.7765,-144.5013C384.3318,-162.0872 410.1459,-234.7 367,-234.7"/>
<polygon fill="#000000" stroke="#000000" points="417.2713,-142.7656 425.9295,-144.1779 421.1356,-141.7328 425,-140.7 425,-140.7 425,-140.7 421.1356,-141.7328 424.0705,-137.2221 417.2713,-142.7656 417.2713,-142.7656"/>
<ellipse fill="none" stroke="#000000" cx="414.1798" cy="-143.5918" rx="3.2" ry="3.2"/>
</g>
<!-- WAREHOUSES -->
<g id="node3" class="node">
<title>WAREHOUSES</title>
<g id="a_node3"><a xlink:href="../../tables/WAREHOUSES.html" xlink:title="WAREHOUSES" target="_top">
<polygon fill="#ffffff" stroke="transparent" points="232,-38.2 232,-143.2 374,-143.2 374,-38.2 232,-38.2"/>
<polygon fill="#f5f5f5" stroke="transparent" points="232,-119.7 232,-142.7 374,-142.7 374,-119.7 232,-119.7"/>
<polygon fill="none" stroke="#000000" points="232,-119.7 232,-142.7 374,-142.7 374,-119.7 232,-119.7"/>
<text text-anchor="start" x="237" y="-128.8" font-family="Helvetica,sans-Serif" font-weight="bold" font-size="11.00" fill="#000000">WAREHOUSES</text>
<text text-anchor="start" x="339.0437" y="-127.8" font-family="Helvetica,sans-Serif" font-size="11.00" fill="#000000">[table]</text>
<polygon fill="none" stroke="#000000" points="232,-97.7 232,-119.7 374,-119.7 374,-97.7 232,-97.7"/>
<image xlink:href="../../images/primaryKeys.png" width="11px" height="12px" preserveAspectRatio="xMinYMin meet" x="237" y="-114.7"/>
<text text-anchor="start" x="252" y="-104.8" font-family="Helvetica,sans-Serif" font-size="11.00" fill="#000000">WAREHOUSE_ID</text>
<polygon fill="none" stroke="#000000" points="232,-75.7 232,-97.7 374,-97.7 374,-75.7 232,-75.7"/>
<image xlink:href="../../images/foreignKeys.png" width="11px" height="12px" preserveAspectRatio="xMinYMin meet" x="237" y="-92.7"/>
<text text-anchor="start" x="252" y="-82.8" font-family="Helvetica,sans-Serif" font-size="11.00" fill="#000000">LOCATION_ID</text>
<polygon fill="none" stroke="#000000" points="232,-56.7 232,-75.7 374,-75.7 374,-56.7 232,-56.7"/>
<text text-anchor="start" x="235" y="-62.8" font-family="Helvetica,sans-Serif" font-size="11.00" fill="#000000">...</text>
<polygon fill="#ffffff" stroke="transparent" points="232,-37.7 232,-56.7 284,-56.7 284,-37.7 232,-37.7"/>
<polygon fill="none" stroke="#000000" points="232,-37.7 232,-56.7 284,-56.7 284,-37.7 232,-37.7"/>
<text text-anchor="start" x="235" y="-43.8" font-family="Helvetica,sans-Serif" font-size="11.00" fill="#000000">&lt; 1</text>
<polygon fill="#ffffff" stroke="transparent" points="284,-37.7 284,-56.7 337,-56.7 337,-37.7 284,-37.7"/>
<polygon fill="none" stroke="#000000" points="284,-37.7 284,-56.7 337,-56.7 337,-37.7 284,-37.7"/>
<text text-anchor="start" x="301.6105" y="-43.8" font-family="Helvetica,sans-Serif" font-size="11.00" fill="#000000">0 rows</text>
<polygon fill="#ffffff" stroke="transparent" points="337,-37.7 337,-56.7 374,-56.7 374,-37.7 337,-37.7"/>
<polygon fill="none" stroke="#000000" points="337,-37.7 337,-56.7 374,-56.7 374,-37.7 337,-37.7"/>
<text text-anchor="start" x="355.4053" y="-43.8" font-family="Helvetica,sans-Serif" font-size="11.00" fill="#000000">1 &gt;</text>
</a>
</g>
</g>
<!-- INVENTORIES&#45;&gt;WAREHOUSES -->
<g id="edge2" class="edge">
<title>INVENTORIES:w&#45;&gt;WAREHOUSES:e</title>
<path fill="none" stroke="#000000" d="M410.5349,-117.1375C398.3566,-114.325 391.3237,-108.7 374,-108.7"/>
<polygon fill="#000000" stroke="#000000" points="417.0463,-117.8408 424.6134,-122.2792 421.0231,-118.2704 425,-118.7 425,-118.7 425,-118.7 421.0231,-118.2704 425.3866,-115.1208 417.0463,-117.8408 417.0463,-117.8408"/>
<ellipse fill="none" stroke="#000000" cx="413.8648" cy="-117.4971" rx="3.2" ry="3.2"/>
</g>
<!-- PRODUCT_CATEGORIES -->
<g id="node5" class="node">
<title>PRODUCT_CATEGORIES</title>
<g id="a_node5"><a xlink:href="../../tables/PRODUCT_CATEGORIES.html" xlink:title="PRODUCT_CATEGORIES" target="_top">
<polygon fill="#ffffff" stroke="transparent" points="8,-185.2 8,-246.2 183,-246.2 183,-185.2 8,-185.2"/>
<polygon fill="#f5f5f5" stroke="transparent" points="8.5,-222.7 8.5,-245.7 183.5,-245.7 183.5,-222.7 8.5,-222.7"/>
<polygon fill="none" stroke="#000000" points="8.5,-222.7 8.5,-245.7 183.5,-245.7 183.5,-222.7 8.5,-222.7"/>
<text text-anchor="start" x="13.1964" y="-231.8" font-family="Helvetica,sans-Serif" font-weight="bold" font-size="11.00" fill="#000000">PRODUCT_CATEGORIES</text>
<text text-anchor="start" x="149.0219" y="-230.8" font-family="Helvetica,sans-Serif" font-size="11.00" fill="#000000">[table]</text>
<polygon fill="none" stroke="#000000" points="8.5,-203.7 8.5,-222.7 183.5,-222.7 183.5,-203.7 8.5,-203.7"/>
<text text-anchor="start" x="11.5" y="-209.8" font-family="Helvetica,sans-Serif" font-size="11.00" fill="#000000">...</text>
<polygon fill="#ffffff" stroke="transparent" points="8.5,-184.7 8.5,-203.7 72.5,-203.7 72.5,-184.7 8.5,-184.7"/>
<polygon fill="none" stroke="#000000" points="8.5,-184.7 8.5,-203.7 72.5,-203.7 72.5,-184.7 8.5,-184.7"/>
<text text-anchor="start" x="11.5" y="-190.8" font-family="Helvetica,sans-Serif" font-size="11.00" fill="#000000"> &#160;</text>
<polygon fill="#ffffff" stroke="transparent" points="72.5,-184.7 72.5,-203.7 136.5,-203.7 136.5,-184.7 72.5,-184.7"/>
<polygon fill="none" stroke="#000000" points="72.5,-184.7 72.5,-203.7 136.5,-203.7 136.5,-184.7 72.5,-184.7"/>
<text text-anchor="start" x="101.1105" y="-190.8" font-family="Helvetica,sans-Serif" font-size="11.00" fill="#000000">0 rows</text>
<polygon fill="#ffffff" stroke="transparent" points="136.5,-184.7 136.5,-203.7 183.5,-203.7 183.5,-184.7 136.5,-184.7"/>
<polygon fill="none" stroke="#000000" points="136.5,-184.7 136.5,-203.7 183.5,-203.7 183.5,-184.7 136.5,-184.7"/>
<text text-anchor="start" x="164.9053" y="-190.8" font-family="Helvetica,sans-Serif" font-size="11.00" fill="#000000">1 &gt;</text>
</a>
</g>
</g>
<!-- PRODUCTS&#45;&gt;PRODUCT_CATEGORIES -->
<g id="edge4" class="edge">
<title>PRODUCTS:w&#45;&gt;PRODUCT_CATEGORIES:e</title>
<path fill="none" stroke="#000000" d="M224.2286,-212.7C210.4265,-212.7 202.3854,-212.7 183.5,-212.7"/>
<polygon fill="#000000" stroke="#000000" points="231,-212.7001 239,-216.3 235,-212.7 239,-212.7 239,-212.7 239,-212.7 235,-212.7 239,-209.1 231,-212.7001 231,-212.7001"/>
<ellipse fill="none" stroke="#000000" cx="227.8" cy="-212.7001" rx="3.2" ry="3.2"/>
</g>
<!-- LOCATIONS -->
<g id="node6" class="node">
<title>LOCATIONS</title>
<g id="a_node6"><a xlink:href="../../tables/LOCATIONS.html" xlink:title="LOCATIONS" target="_top">
<polygon fill="#ffffff" stroke="transparent" points="42.5,-59.2 42.5,-120.2 148.5,-120.2 148.5,-59.2 42.5,-59.2"/>
<polygon fill="#f5f5f5" stroke="transparent" points="42.5,-96.7 42.5,-119.7 148.5,-119.7 148.5,-96.7 42.5,-96.7"/>
<polygon fill="none" stroke="#000000" points="42.5,-96.7 42.5,-119.7 148.5,-119.7 148.5,-96.7 42.5,-96.7"/>
<text text-anchor="start" x="47.2205" y="-105.8" font-family="Helvetica,sans-Serif" font-weight="bold" font-size="11.00" fill="#000000">LOCATIONS</text>
<text text-anchor="start" x="114.0219" y="-104.8" font-family="Helvetica,sans-Serif" font-size="11.00" fill="#000000">[table]</text>
<polygon fill="none" stroke="#000000" points="42.5,-77.7 42.5,-96.7 148.5,-96.7 148.5,-77.7 42.5,-77.7"/>
<text text-anchor="start" x="45.5" y="-83.8" font-family="Helvetica,sans-Serif" font-size="11.00" fill="#000000">...</text>
<polygon fill="#ffffff" stroke="transparent" points="42.5,-58.7 42.5,-77.7 76.5,-77.7 76.5,-58.7 42.5,-58.7"/>
<polygon fill="none" stroke="#000000" points="42.5,-58.7 42.5,-77.7 76.5,-77.7 76.5,-58.7 42.5,-58.7"/>
<text text-anchor="start" x="45.5" y="-64.8" font-family="Helvetica,sans-Serif" font-size="11.00" fill="#000000">&lt; 1</text>
<polygon fill="#ffffff" stroke="transparent" points="76.5,-58.7 76.5,-77.7 120.5,-77.7 120.5,-58.7 76.5,-58.7"/>
<polygon fill="none" stroke="#000000" points="76.5,-58.7 76.5,-77.7 120.5,-77.7 120.5,-58.7 76.5,-58.7"/>
<text text-anchor="start" x="85.1105" y="-64.8" font-family="Helvetica,sans-Serif" font-size="11.00" fill="#000000">0 rows</text>
<polygon fill="#ffffff" stroke="transparent" points="120.5,-58.7 120.5,-77.7 148.5,-77.7 148.5,-58.7 120.5,-58.7"/>
<polygon fill="none" stroke="#000000" points="120.5,-58.7 120.5,-77.7 148.5,-77.7 148.5,-58.7 120.5,-58.7"/>
<text text-anchor="start" x="129.9053" y="-64.8" font-family="Helvetica,sans-Serif" font-size="11.00" fill="#000000">1 &gt;</text>
</a>
</g>
</g>
<!-- WAREHOUSES&#45;&gt;LOCATIONS -->
<g id="edge5" class="edge">
<title>WAREHOUSES:w&#45;&gt;LOCATIONS:e</title>
<path fill="none" stroke="#000000" d="M217.485,-86.7C191.6256,-86.7 180.2474,-86.7 148.5,-86.7"/>
<polygon fill="#000000" stroke="#000000" points="224,-86.7001 232,-90.3 228,-86.7 232,-86.7 232,-86.7 232,-86.7 228,-86.7 232,-83.1 224,-86.7001 224,-86.7001"/>
<ellipse fill="none" stroke="#000000" cx="220.8" cy="-86.7001" rx="3.2" ry="3.2"/>
</g>
<!-- ORDER_ITEMS -->
<g id="node4" class="node">
<title>ORDER_ITEMS</title>
<g id="a_node4"><a xlink:href="../../tables/ORDER_ITEMS.html" xlink:title="ORDER_ITEMS" target="_top">
<polygon fill="#ffffff" stroke="transparent" points="454,-207.2 454,-268.2 576,-268.2 576,-207.2 454,-207.2"/>
<polygon fill="#f5f5f5" stroke="transparent" points="454,-244.7 454,-267.7 576,-267.7 576,-244.7 454,-244.7"/>
<polygon fill="none" stroke="#000000" points="454,-244.7 454,-267.7 576,-267.7 576,-244.7 454,-244.7"/>
<text text-anchor="start" x="458.7796" y="-253.8" font-family="Helvetica,sans-Serif" font-weight="bold" font-size="11.00" fill="#000000">ORDER_ITEMS</text>
<text text-anchor="start" x="541.5219" y="-252.8" font-family="Helvetica,sans-Serif" font-size="11.00" fill="#000000">[table]</text>
<polygon fill="none" stroke="#000000" points="454,-225.7 454,-244.7 576,-244.7 576,-225.7 454,-225.7"/>
<text text-anchor="start" x="457" y="-231.8" font-family="Helvetica,sans-Serif" font-size="11.00" fill="#000000">...</text>
<polygon fill="#ffffff" stroke="transparent" points="454,-206.7 454,-225.7 500,-225.7 500,-206.7 454,-206.7"/>
<polygon fill="none" stroke="#000000" points="454,-206.7 454,-225.7 500,-225.7 500,-206.7 454,-206.7"/>
<text text-anchor="start" x="457" y="-212.8" font-family="Helvetica,sans-Serif" font-size="11.00" fill="#000000">&lt; 2</text>
<polygon fill="#ffffff" stroke="transparent" points="500,-206.7 500,-225.7 551,-225.7 551,-206.7 500,-206.7"/>
<polygon fill="none" stroke="#000000" points="500,-206.7 500,-225.7 551,-225.7 551,-206.7 500,-206.7"/>
<text text-anchor="start" x="515.6105" y="-212.8" font-family="Helvetica,sans-Serif" font-size="11.00" fill="#000000">0 rows</text>
<polygon fill="#ffffff" stroke="transparent" points="551,-206.7 551,-225.7 576,-225.7 576,-206.7 551,-206.7"/>
<polygon fill="none" stroke="#000000" points="551,-206.7 551,-225.7 576,-225.7 576,-206.7 551,-206.7"/>
<text text-anchor="start" x="566.8862" y="-212.8" font-family="Helvetica,sans-Serif" font-size="11.00" fill="#000000"> &#160;</text>
</a>
</g>
</g>
<!-- ORDER_ITEMS&#45;&gt;PRODUCTS -->
<g id="edge3" class="edge">
<title>ORDER_ITEMS:w&#45;&gt;PRODUCTS:e</title>
<path fill="none" stroke="#000000" d="M439.2467,-234.7C412.0411,-234.7 400.2292,-234.7 367,-234.7"/>
<polygon fill="#000000" stroke="#000000" points="446,-234.7001 454,-238.3 450,-234.7 454,-234.7 454,-234.7 454,-234.7 450,-234.7 454,-231.1 446,-234.7001 446,-234.7001"/>
<ellipse fill="none" stroke="#000000" cx="442.8" cy="-234.7001" rx="3.2" ry="3.2"/>
</g>
</g>
</svg>
