<?xml version="1.0" encoding="UTF-8" standalone="no"?>
<!DOCTYPE svg PUBLIC "-//W3C//DTD SVG 1.1//EN"
 "http://www.w3.org/Graphics/SVG/1.1/DTD/svg11.dtd">
<!-- Generated by graphviz version 2.40.1 (20161225.0304)
 -->
<!-- Title: oneDegreeRelationshipsDiagram Pages: 1 -->
<svg width="399pt" height="281pt"
 viewBox="0.00 0.00 399.00 281.20" xmlns="http://www.w3.org/2000/svg" xmlns:xlink="http://www.w3.org/1999/xlink">
<g id="graph0" class="graph" transform="scale(1 1) rotate(0) translate(4 277.2)">
<title>oneDegreeRelationshipsDiagram</title>
<polygon fill="#ffffff" stroke="transparent" points="-4,4 -4,-277.2 395,-277.2 395,4 -4,4"/>
<text text-anchor="middle" x="72.4936" y="-7.3" font-family="Helvetica,sans-Serif" font-size="11.00" fill="#000000">Generated by SchemaSpy</text>
<!-- INVENTORIES -->
<g id="node1" class="node">
<title>INVENTORIES</title>
<g id="a_node1"><a xlink:href="../../tables/INVENTORIES.html" xlink:title="INVENTORIES" target="_top">
<polygon fill="#ffffff" stroke="transparent" points="199,-106.7 199,-218.7 383,-218.7 383,-106.7 199,-106.7"/>
<polygon fill="#f5f5f5" stroke="transparent" points="201,-193.7 201,-216.7 381,-216.7 381,-193.7 201,-193.7"/>
<polygon fill="none" stroke="#000000" points="201,-193.7 201,-216.7 381,-216.7 381,-193.7 201,-193.7"/>
<text text-anchor="start" x="206" y="-202.8" font-family="Helvetica,sans-Serif" font-weight="bold" font-size="11.00" fill="#000000">INVENTORIES</text>
<text text-anchor="start" x="346.0437" y="-201.8" font-family="Helvetica,sans-Serif" font-size="11.00" fill="#000000">[table]</text>
<polygon fill="none" stroke="#000000" points="201,-171.7 201,-193.7 320,-193.7 320,-171.7 201,-171.7"/>
<image xlink:href="../../images/primaryKeys.png" width="11px" height="12px" preserveAspectRatio="xMinYMin meet" x="206" y="-188.7"/>
<text text-anchor="start" x="221" y="-178.8" font-family="Helvetica,sans-Serif" font-size="11.00" fill="#000000">PRODUCT_ID</text>
<polygon fill="none" stroke="#000000" points="320,-171.7 320,-193.7 381,-193.7 381,-171.7 320,-171.7"/>
<text text-anchor="start" x="322.6865" y="-179.4" font-family="Helvetica,sans-Serif" font-size="11.00" fill="#000000">number[12]</text>
<polygon fill="none" stroke="#000000" points="201,-149.7 201,-171.7 320,-171.7 320,-149.7 201,-149.7"/>
<image xlink:href="../../images/primaryKeys.png" width="11px" height="12px" preserveAspectRatio="xMinYMin meet" x="206" y="-166.7"/>
<text text-anchor="start" x="221" y="-156.8" font-family="Helvetica,sans-Serif" font-size="11.00" fill="#000000">WAREHOUSE_ID</text>
<polygon fill="none" stroke="#000000" points="320,-149.7 320,-171.7 381,-171.7 381,-149.7 320,-149.7"/>
<text text-anchor="start" x="322.6865" y="-157.4" font-family="Helvetica,sans-Serif" font-size="11.00" fill="#000000">number[12]</text>
<polygon fill="none" stroke="#000000" points="201,-127.7 201,-149.7 320,-149.7 320,-127.7 201,-127.7"/>
<text text-anchor="start" x="221" y="-134.8" font-family="Helvetica,sans-Serif" font-size="11.00" fill="#000000">QUANTITY</text>
<polygon fill="none" stroke="#000000" points="320,-127.7 320,-149.7 381,-149.7 381,-127.7 320,-127.7"/>
<text text-anchor="start" x="323" y="-135.4" font-family="Helvetica,sans-Serif" font-size="11.00" fill="#000000">number[8]</text>
<polygon fill="#ffffff" stroke="transparent" points="201,-108.7 201,-127.7 252,-127.7 252,-108.7 201,-108.7"/>
<polygon fill="none" stroke="#000000" points="201,-108.7 201,-127.7 252,-127.7 252,-108.7 201,-108.7"/>
<text text-anchor="start" x="204" y="-114.8" font-family="Helvetica,sans-Serif" font-size="11.00" fill="#000000">&lt; 2</text>
<polygon fill="#ffffff" stroke="transparent" points="252,-108.7 252,-127.7 320,-127.7 320,-108.7 252,-108.7"/>
<polygon fill="none" stroke="#000000" points="252,-108.7 252,-127.7 320,-127.7 320,-108.7 252,-108.7"/>
<text text-anchor="start" x="284.6105" y="-114.8" font-family="Helvetica,sans-Serif" font-size="11.00" fill="#000000">0 rows</text>
<polygon fill="#ffffff" stroke="transparent" points="320,-108.7 320,-127.7 381,-127.7 381,-108.7 320,-108.7"/>
<polygon fill="none" stroke="#000000" points="320,-108.7 320,-127.7 381,-127.7 381,-108.7 320,-108.7"/>
<text text-anchor="start" x="362.4053" y="-114.8" font-family="Helvetica,sans-Serif" font-size="11.00" fill="#000000">0 &gt;</text>
<polygon fill="none" stroke="#000000" stroke-width="2" points="200,-107.7 200,-217.7 382,-217.7 382,-107.7 200,-107.7"/>
</a>
</g>
</g>
<!-- PRODUCTS -->
<g id="node2" class="node">
<title>PRODUCTS</title>
<g id="a_node2"><a xlink:href="../../tables/PRODUCTS.html" xlink:title="PRODUCTS" target="_top">
<polygon fill="#ffffff" stroke="transparent" points="15,-164.2 15,-269.2 143,-269.2 143,-164.2 15,-164.2"/>
<polygon fill="#f5f5f5" stroke="transparent" points="15,-245.7 15,-268.7 143,-268.7 143,-245.7 15,-245.7"/>
<polygon fill="none" stroke="#000000" points="15,-245.7 15,-268.7 143,-268.7 143,-245.7 15,-245.7"/>
<text text-anchor="start" x="20" y="-254.8" font-family="Helvetica,sans-Serif" font-weight="bold" font-size="11.00" fill="#000000">PRODUCTS</text>
<text text-anchor="start" x="108.0437" y="-253.8" font-family="Helvetica,sans-Serif" font-size="11.00" fill="#000000">[table]</text>
<polygon fill="none" stroke="#000000" points="15,-223.7 15,-245.7 143,-245.7 143,-223.7 15,-223.7"/>
<image xlink:href="../../images/primaryKeys.png" width="11px" height="12px" preserveAspectRatio="xMinYMin meet" x="20" y="-240.7"/>
<text text-anchor="start" x="35" y="-230.8" font-family="Helvetica,sans-Serif" font-size="11.00" fill="#000000">PRODUCT_ID</text>
<polygon fill="none" stroke="#000000" points="15,-201.7 15,-223.7 143,-223.7 143,-201.7 15,-201.7"/>
<image xlink:href="../../images/foreignKeys.png" width="11px" height="12px" preserveAspectRatio="xMinYMin meet" x="20" y="-218.7"/>
<text text-anchor="start" x="35" y="-208.8" font-family="Helvetica,sans-Serif" font-size="11.00" fill="#000000">CATEGORY_ID</text>
<polygon fill="none" stroke="#000000" points="15,-182.7 15,-201.7 143,-201.7 143,-182.7 15,-182.7"/>
<text text-anchor="start" x="18" y="-188.8" font-family="Helvetica,sans-Serif" font-size="11.00" fill="#000000">...</text>
<polygon fill="#ffffff" stroke="transparent" points="15,-163.7 15,-182.7 60,-182.7 60,-163.7 15,-163.7"/>
<polygon fill="none" stroke="#000000" points="15,-163.7 15,-182.7 60,-182.7 60,-163.7 15,-163.7"/>
<text text-anchor="start" x="18" y="-169.8" font-family="Helvetica,sans-Serif" font-size="11.00" fill="#000000">&lt; 1</text>
<polygon fill="#ffffff" stroke="transparent" points="60,-163.7 60,-182.7 110,-182.7 110,-163.7 60,-163.7"/>
<polygon fill="none" stroke="#000000" points="60,-163.7 60,-182.7 110,-182.7 110,-163.7 60,-163.7"/>
<text text-anchor="start" x="74.6105" y="-169.8" font-family="Helvetica,sans-Serif" font-size="11.00" fill="#000000">0 rows</text>
<polygon fill="#ffffff" stroke="transparent" points="110,-163.7 110,-182.7 143,-182.7 143,-163.7 110,-163.7"/>
<polygon fill="none" stroke="#000000" points="110,-163.7 110,-182.7 143,-182.7 143,-163.7 110,-163.7"/>
<text text-anchor="start" x="124.4053" y="-169.8" font-family="Helvetica,sans-Serif" font-size="11.00" fill="#000000">2 &gt;</text>
</a>
</g>
</g>
<!-- INVENTORIES&#45;&gt;PRODUCTS -->
<g id="edge1" class="edge">
<title>INVENTORIES:w&#45;&gt;PRODUCTS:e</title>
<path fill="none" stroke="#000000" d="M187.0014,-186.6085C168.8616,-198.7016 171.8058,-234.7 143,-234.7"/>
<polygon fill="#000000" stroke="#000000" points="193.2947,-184.8514 201.9681,-186.1674 197.1473,-183.7757 201,-182.7 201,-182.7 201,-182.7 197.1473,-183.7757 200.0319,-179.2326 193.2947,-184.8514 193.2947,-184.8514"/>
<ellipse fill="none" stroke="#000000" cx="190.2126" cy="-185.7119" rx="3.2" ry="3.2"/>
</g>
<!-- WAREHOUSES -->
<g id="node3" class="node">
<title>WAREHOUSES</title>
<g id="a_node3"><a xlink:href="../../tables/WAREHOUSES.html" xlink:title="WAREHOUSES" target="_top">
<polygon fill="#ffffff" stroke="transparent" points="8,-38.2 8,-143.2 150,-143.2 150,-38.2 8,-38.2"/>
<polygon fill="#f5f5f5" stroke="transparent" points="8,-119.7 8,-142.7 150,-142.7 150,-119.7 8,-119.7"/>
<polygon fill="none" stroke="#000000" points="8,-119.7 8,-142.7 150,-142.7 150,-119.7 8,-119.7"/>
<text text-anchor="start" x="13" y="-128.8" font-family="Helvetica,sans-Serif" font-weight="bold" font-size="11.00" fill="#000000">WAREHOUSES</text>
<text text-anchor="start" x="115.0437" y="-127.8" font-family="Helvetica,sans-Serif" font-size="11.00" fill="#000000">[table]</text>
<polygon fill="none" stroke="#000000" points="8,-97.7 8,-119.7 150,-119.7 150,-97.7 8,-97.7"/>
<image xlink:href="../../images/primaryKeys.png" width="11px" height="12px" preserveAspectRatio="xMinYMin meet" x="13" y="-114.7"/>
<text text-anchor="start" x="28" y="-104.8" font-family="Helvetica,sans-Serif" font-size="11.00" fill="#000000">WAREHOUSE_ID</text>
<polygon fill="none" stroke="#000000" points="8,-75.7 8,-97.7 150,-97.7 150,-75.7 8,-75.7"/>
<image xlink:href="../../images/foreignKeys.png" width="11px" height="12px" preserveAspectRatio="xMinYMin meet" x="13" y="-92.7"/>
<text text-anchor="start" x="28" y="-82.8" font-family="Helvetica,sans-Serif" font-size="11.00" fill="#000000">LOCATION_ID</text>
<polygon fill="none" stroke="#000000" points="8,-56.7 8,-75.7 150,-75.7 150,-56.7 8,-56.7"/>
<text text-anchor="start" x="11" y="-62.8" font-family="Helvetica,sans-Serif" font-size="11.00" fill="#000000">...</text>
<polygon fill="#ffffff" stroke="transparent" points="8,-37.7 8,-56.7 60,-56.7 60,-37.7 8,-37.7"/>
<polygon fill="none" stroke="#000000" points="8,-37.7 8,-56.7 60,-56.7 60,-37.7 8,-37.7"/>
<text text-anchor="start" x="11" y="-43.8" font-family="Helvetica,sans-Serif" font-size="11.00" fill="#000000">&lt; 1</text>
<polygon fill="#ffffff" stroke="transparent" points="60,-37.7 60,-56.7 113,-56.7 113,-37.7 60,-37.7"/>
<polygon fill="none" stroke="#000000" points="60,-37.7 60,-56.7 113,-56.7 113,-37.7 60,-37.7"/>
<text text-anchor="start" x="77.6105" y="-43.8" font-family="Helvetica,sans-Serif" font-size="11.00" fill="#000000">0 rows</text>
<polygon fill="#ffffff" stroke="transparent" points="113,-37.7 113,-56.7 150,-56.7 150,-37.7 113,-37.7"/>
<polygon fill="none" stroke="#000000" points="113,-37.7 113,-56.7 150,-56.7 150,-37.7 113,-37.7"/>
<text text-anchor="start" x="131.4053" y="-43.8" font-family="Helvetica,sans-Serif" font-size="11.00" fill="#000000">1 &gt;</text>
</a>
</g>
</g>
<!-- INVENTORIES&#45;&gt;WAREHOUSES -->
<g id="edge2" class="edge">
<title>INVENTORIES:w&#45;&gt;WAREHOUSES:e</title>
<path fill="none" stroke="#000000" d="M187.0468,-155.9012C172.161,-143.0281 176.3017,-108.7 150,-108.7"/>
<polygon fill="#000000" stroke="#000000" points="193.4349,-158.0982 199.8292,-164.1043 197.2175,-159.3991 201,-160.7 201,-160.7 201,-160.7 197.2175,-159.3991 202.1708,-157.2957 193.4349,-158.0982 193.4349,-158.0982"/>
<ellipse fill="none" stroke="#000000" cx="190.4089" cy="-157.0574" rx="3.2" ry="3.2"/>
</g>
</g>
</svg>
