<?xml version="1.0" encoding="UTF-8" standalone="no"?>
<!DOCTYPE svg PUBLIC "-//W3C//DTD SVG 1.1//EN"
 "http://www.w3.org/Graphics/SVG/1.1/DTD/svg11.dtd">
<!-- Generated by graphviz version 2.40.1 (20161225.0304)
 -->
<!-- Title: oneDegreeRelationshipsDiagram Pages: 1 -->
<svg width="574pt" height="287pt"
 viewBox="0.00 0.00 574.00 287.20" xmlns="http://www.w3.org/2000/svg" xmlns:xlink="http://www.w3.org/1999/xlink">
<g id="graph0" class="graph" transform="scale(1 1) rotate(0) translate(4 283.2)">
<title>oneDegreeRelationshipsDiagram</title>
<polygon fill="#ffffff" stroke="transparent" points="-4,4 -4,-283.2 570,-283.2 570,4 -4,4"/>
<text text-anchor="middle" x="72.4936" y="-7.3" font-family="Helvetica,sans-Serif" font-size="11.00" fill="#000000">Generated by SchemaSpy</text>
<!-- LOCATIONS -->
<g id="node1" class="node">
<title>LOCATIONS</title>
<g id="a_node1"><a xlink:href="../../tables/LOCATIONS.html" xlink:title="LOCATIONS" target="_top">
<polygon fill="#ffffff" stroke="transparent" points="179,-76.7 179,-254.7 367,-254.7 367,-76.7 179,-76.7"/>
<polygon fill="#f5f5f5" stroke="transparent" points="181,-229.7 181,-252.7 365,-252.7 365,-229.7 181,-229.7"/>
<polygon fill="none" stroke="#000000" points="181,-229.7 181,-252.7 365,-252.7 365,-229.7 181,-229.7"/>
<text text-anchor="start" x="186" y="-238.8" font-family="Helvetica,sans-Serif" font-weight="bold" font-size="11.00" fill="#000000">LOCATIONS</text>
<text text-anchor="start" x="330.0437" y="-237.8" font-family="Helvetica,sans-Serif" font-size="11.00" fill="#000000">[table]</text>
<polygon fill="none" stroke="#000000" points="181,-207.7 181,-229.7 292,-229.7 292,-207.7 181,-207.7"/>
<image xlink:href="../../images/primaryKeys.png" width="11px" height="12px" preserveAspectRatio="xMinYMin meet" x="186" y="-224.7"/>
<text text-anchor="start" x="201" y="-214.8" font-family="Helvetica,sans-Serif" font-size="11.00" fill="#000000">LOCATION_ID</text>
<polygon fill="none" stroke="#000000" points="292,-207.7 292,-229.7 365,-229.7 365,-207.7 292,-207.7"/>
<text text-anchor="start" x="295" y="-215.4" font-family="Helvetica,sans-Serif" font-size="11.00" fill="#000000">number[0]</text>
<polygon fill="none" stroke="#000000" points="181,-185.7 181,-207.7 292,-207.7 292,-185.7 181,-185.7"/>
<text text-anchor="start" x="201" y="-192.8" font-family="Helvetica,sans-Serif" font-size="11.00" fill="#000000">ADDRESS</text>
<polygon fill="none" stroke="#000000" points="292,-185.7 292,-207.7 365,-207.7 365,-185.7 292,-185.7"/>
<text text-anchor="start" x="294.8791" y="-193.4" font-family="Helvetica,sans-Serif" font-size="11.00" fill="#000000">varchar2[255]</text>
<polygon fill="none" stroke="#000000" points="181,-163.7 181,-185.7 292,-185.7 292,-163.7 181,-163.7"/>
<text text-anchor="start" x="201" y="-170.8" font-family="Helvetica,sans-Serif" font-size="11.00" fill="#000000">POSTAL_CODE</text>
<polygon fill="none" stroke="#000000" points="292,-163.7 292,-185.7 365,-185.7 365,-163.7 292,-163.7"/>
<text text-anchor="start" x="295" y="-171.4" font-family="Helvetica,sans-Serif" font-size="11.00" fill="#000000">varchar2[20]</text>
<polygon fill="none" stroke="#000000" points="181,-141.7 181,-163.7 292,-163.7 292,-141.7 181,-141.7"/>
<text text-anchor="start" x="201" y="-148.8" font-family="Helvetica,sans-Serif" font-size="11.00" fill="#000000">CITY</text>
<polygon fill="none" stroke="#000000" points="292,-141.7 292,-163.7 365,-163.7 365,-141.7 292,-141.7"/>
<text text-anchor="start" x="295" y="-149.4" font-family="Helvetica,sans-Serif" font-size="11.00" fill="#000000">varchar2[50]</text>
<polygon fill="none" stroke="#000000" points="181,-119.7 181,-141.7 292,-141.7 292,-119.7 181,-119.7"/>
<text text-anchor="start" x="201" y="-126.8" font-family="Helvetica,sans-Serif" font-size="11.00" fill="#000000">STATE</text>
<polygon fill="none" stroke="#000000" points="292,-119.7 292,-141.7 365,-141.7 365,-119.7 292,-119.7"/>
<text text-anchor="start" x="295" y="-127.4" font-family="Helvetica,sans-Serif" font-size="11.00" fill="#000000">varchar2[50]</text>
<polygon fill="none" stroke="#000000" points="181,-97.7 181,-119.7 292,-119.7 292,-97.7 181,-97.7"/>
<image xlink:href="../../images/foreignKeys.png" width="11px" height="12px" preserveAspectRatio="xMinYMin meet" x="186" y="-114.7"/>
<text text-anchor="start" x="201" y="-104.8" font-family="Helvetica,sans-Serif" font-size="11.00" fill="#000000">COUNTRY_ID</text>
<polygon fill="none" stroke="#000000" points="292,-97.7 292,-119.7 365,-119.7 365,-97.7 292,-97.7"/>
<text text-anchor="start" x="295" y="-105.4" font-family="Helvetica,sans-Serif" font-size="11.00" fill="#000000">char[2]</text>
<polygon fill="#ffffff" stroke="transparent" points="181,-78.7 181,-97.7 228,-97.7 228,-78.7 181,-78.7"/>
<polygon fill="none" stroke="#000000" points="181,-78.7 181,-97.7 228,-97.7 228,-78.7 181,-78.7"/>
<text text-anchor="start" x="184" y="-84.8" font-family="Helvetica,sans-Serif" font-size="11.00" fill="#000000">&lt; 1</text>
<polygon fill="#ffffff" stroke="transparent" points="228,-78.7 228,-97.7 292,-97.7 292,-78.7 228,-78.7"/>
<polygon fill="none" stroke="#000000" points="228,-78.7 228,-97.7 292,-97.7 292,-78.7 228,-78.7"/>
<text text-anchor="start" x="256.6105" y="-84.8" font-family="Helvetica,sans-Serif" font-size="11.00" fill="#000000">0 rows</text>
<polygon fill="#ffffff" stroke="transparent" points="292,-78.7 292,-97.7 365,-97.7 365,-78.7 292,-78.7"/>
<polygon fill="none" stroke="#000000" points="292,-78.7 292,-97.7 365,-97.7 365,-78.7 292,-78.7"/>
<text text-anchor="start" x="346.4053" y="-84.8" font-family="Helvetica,sans-Serif" font-size="11.00" fill="#000000">1 &gt;</text>
<polygon fill="none" stroke="#000000" stroke-width="2" points="180,-77.7 180,-253.7 366,-253.7 366,-77.7 180,-77.7"/>
</a>
</g>
</g>
<!-- COUNTRIES -->
<g id="node2" class="node">
<title>COUNTRIES</title>
<g id="a_node2"><a xlink:href="../../tables/COUNTRIES.html" xlink:title="COUNTRIES" target="_top">
<polygon fill="#ffffff" stroke="transparent" points="8,-38.2 8,-143.2 130,-143.2 130,-38.2 8,-38.2"/>
<polygon fill="#f5f5f5" stroke="transparent" points="8,-119.7 8,-142.7 130,-142.7 130,-119.7 8,-119.7"/>
<polygon fill="none" stroke="#000000" points="8,-119.7 8,-142.7 130,-142.7 130,-119.7 8,-119.7"/>
<text text-anchor="start" x="13" y="-128.8" font-family="Helvetica,sans-Serif" font-weight="bold" font-size="11.00" fill="#000000">COUNTRIES</text>
<text text-anchor="start" x="95.0437" y="-127.8" font-family="Helvetica,sans-Serif" font-size="11.00" fill="#000000">[table]</text>
<polygon fill="none" stroke="#000000" points="8,-97.7 8,-119.7 130,-119.7 130,-97.7 8,-97.7"/>
<image xlink:href="../../images/primaryKeys.png" width="11px" height="12px" preserveAspectRatio="xMinYMin meet" x="13" y="-114.7"/>
<text text-anchor="start" x="28" y="-104.8" font-family="Helvetica,sans-Serif" font-size="11.00" fill="#000000">COUNTRY_ID</text>
<polygon fill="none" stroke="#000000" points="8,-75.7 8,-97.7 130,-97.7 130,-75.7 8,-75.7"/>
<image xlink:href="../../images/foreignKeys.png" width="11px" height="12px" preserveAspectRatio="xMinYMin meet" x="13" y="-92.7"/>
<text text-anchor="start" x="28" y="-82.8" font-family="Helvetica,sans-Serif" font-size="11.00" fill="#000000">REGION_ID</text>
<polygon fill="none" stroke="#000000" points="8,-56.7 8,-75.7 130,-75.7 130,-56.7 8,-56.7"/>
<text text-anchor="start" x="11" y="-62.8" font-family="Helvetica,sans-Serif" font-size="11.00" fill="#000000">...</text>
<polygon fill="#ffffff" stroke="transparent" points="8,-37.7 8,-56.7 50,-56.7 50,-37.7 8,-37.7"/>
<polygon fill="none" stroke="#000000" points="8,-37.7 8,-56.7 50,-56.7 50,-37.7 8,-37.7"/>
<text text-anchor="start" x="11" y="-43.8" font-family="Helvetica,sans-Serif" font-size="11.00" fill="#000000">&lt; 1</text>
<polygon fill="#ffffff" stroke="transparent" points="50,-37.7 50,-56.7 98,-56.7 98,-37.7 50,-37.7"/>
<polygon fill="none" stroke="#000000" points="50,-37.7 50,-56.7 98,-56.7 98,-37.7 50,-37.7"/>
<text text-anchor="start" x="62.6105" y="-43.8" font-family="Helvetica,sans-Serif" font-size="11.00" fill="#000000">0 rows</text>
<polygon fill="#ffffff" stroke="transparent" points="98,-37.7 98,-56.7 130,-56.7 130,-37.7 98,-37.7"/>
<polygon fill="none" stroke="#000000" points="98,-37.7 98,-56.7 130,-56.7 130,-37.7 98,-37.7"/>
<text text-anchor="start" x="111.4053" y="-43.8" font-family="Helvetica,sans-Serif" font-size="11.00" fill="#000000">1 &gt;</text>
</a>
</g>
</g>
<!-- LOCATIONS&#45;&gt;COUNTRIES -->
<g id="edge1" class="edge">
<title>LOCATIONS:w&#45;&gt;COUNTRIES:e</title>
<path fill="none" stroke="#000000" d="M166.276,-108.7C154.2815,-108.7 146.8229,-108.7 130,-108.7"/>
<polygon fill="#000000" stroke="#000000" points="173,-108.7001 181,-112.3 177,-108.7 181,-108.7 181,-108.7 181,-108.7 177,-108.7 181,-105.1 173,-108.7001 173,-108.7001"/>
<ellipse fill="none" stroke="#000000" cx="169.8" cy="-108.7001" rx="3.2" ry="3.2"/>
</g>
<!-- WAREHOUSES -->
<g id="node3" class="node">
<title>WAREHOUSES</title>
<g id="a_node3"><a xlink:href="../../tables/WAREHOUSES.html" xlink:title="WAREHOUSES" target="_top">
<polygon fill="#ffffff" stroke="transparent" points="416,-170.2 416,-275.2 558,-275.2 558,-170.2 416,-170.2"/>
<polygon fill="#f5f5f5" stroke="transparent" points="416,-251.7 416,-274.7 558,-274.7 558,-251.7 416,-251.7"/>
<polygon fill="none" stroke="#000000" points="416,-251.7 416,-274.7 558,-274.7 558,-251.7 416,-251.7"/>
<text text-anchor="start" x="421" y="-260.8" font-family="Helvetica,sans-Serif" font-weight="bold" font-size="11.00" fill="#000000">WAREHOUSES</text>
<text text-anchor="start" x="523.0437" y="-259.8" font-family="Helvetica,sans-Serif" font-size="11.00" fill="#000000">[table]</text>
<polygon fill="none" stroke="#000000" points="416,-229.7 416,-251.7 558,-251.7 558,-229.7 416,-229.7"/>
<image xlink:href="../../images/primaryKeys.png" width="11px" height="12px" preserveAspectRatio="xMinYMin meet" x="421" y="-246.7"/>
<text text-anchor="start" x="436" y="-236.8" font-family="Helvetica,sans-Serif" font-size="11.00" fill="#000000">WAREHOUSE_ID</text>
<polygon fill="none" stroke="#000000" points="416,-207.7 416,-229.7 558,-229.7 558,-207.7 416,-207.7"/>
<image xlink:href="../../images/foreignKeys.png" width="11px" height="12px" preserveAspectRatio="xMinYMin meet" x="421" y="-224.7"/>
<text text-anchor="start" x="436" y="-214.8" font-family="Helvetica,sans-Serif" font-size="11.00" fill="#000000">LOCATION_ID</text>
<polygon fill="none" stroke="#000000" points="416,-188.7 416,-207.7 558,-207.7 558,-188.7 416,-188.7"/>
<text text-anchor="start" x="419" y="-194.8" font-family="Helvetica,sans-Serif" font-size="11.00" fill="#000000">...</text>
<polygon fill="#ffffff" stroke="transparent" points="416,-169.7 416,-188.7 468,-188.7 468,-169.7 416,-169.7"/>
<polygon fill="none" stroke="#000000" points="416,-169.7 416,-188.7 468,-188.7 468,-169.7 416,-169.7"/>
<text text-anchor="start" x="419" y="-175.8" font-family="Helvetica,sans-Serif" font-size="11.00" fill="#000000">&lt; 1</text>
<polygon fill="#ffffff" stroke="transparent" points="468,-169.7 468,-188.7 521,-188.7 521,-169.7 468,-169.7"/>
<polygon fill="none" stroke="#000000" points="468,-169.7 468,-188.7 521,-188.7 521,-169.7 468,-169.7"/>
<text text-anchor="start" x="485.6105" y="-175.8" font-family="Helvetica,sans-Serif" font-size="11.00" fill="#000000">0 rows</text>
<polygon fill="#ffffff" stroke="transparent" points="521,-169.7 521,-188.7 558,-188.7 558,-169.7 521,-169.7"/>
<polygon fill="none" stroke="#000000" points="521,-169.7 521,-188.7 558,-188.7 558,-169.7 521,-169.7"/>
<text text-anchor="start" x="539.4053" y="-175.8" font-family="Helvetica,sans-Serif" font-size="11.00" fill="#000000">1 &gt;</text>
</a>
</g>
</g>
<!-- WAREHOUSES&#45;&gt;LOCATIONS -->
<g id="edge2" class="edge">
<title>WAREHOUSES:w&#45;&gt;LOCATIONS:e</title>
<path fill="none" stroke="#000000" d="M401.276,-218.7C389.2815,-218.7 381.8229,-218.7 365,-218.7"/>
<polygon fill="#000000" stroke="#000000" points="408,-218.7001 416,-222.3 412,-218.7 416,-218.7 416,-218.7 416,-218.7 412,-218.7 416,-215.1 408,-218.7001 408,-218.7001"/>
<ellipse fill="none" stroke="#000000" cx="404.8" cy="-218.7001" rx="3.2" ry="3.2"/>
</g>
</g>
</svg>
