<?xml version="1.0" encoding="UTF-8" standalone="no"?>
<!DOCTYPE svg PUBLIC "-//W3C//DTD SVG 1.1//EN"
 "http://www.w3.org/Graphics/SVG/1.1/DTD/svg11.dtd">
<!-- Generated by graphviz version 2.40.1 (20161225.0304)
 -->
<!-- Title: twoDegreesRelationshipsDiagram Pages: 1 -->
<svg width="882pt" height="287pt"
 viewBox="0.00 0.00 882.00 287.20" xmlns="http://www.w3.org/2000/svg" xmlns:xlink="http://www.w3.org/1999/xlink">
<g id="graph0" class="graph" transform="scale(1 1) rotate(0) translate(4 283.2)">
<title>twoDegreesRelationshipsDiagram</title>
<polygon fill="#ffffff" stroke="transparent" points="-4,4 -4,-283.2 878,-283.2 878,4 -4,4"/>
<text text-anchor="middle" x="72.4936" y="-7.3" font-family="Helvetica,sans-Serif" font-size="11.00" fill="#000000">Generated by SchemaSpy</text>
<!-- COUNTRIES -->
<g id="node1" class="node">
<title>COUNTRIES</title>
<g id="a_node1"><a xlink:href="../../tables/COUNTRIES.html" xlink:title="COUNTRIES" target="_top">
<polygon fill="#ffffff" stroke="transparent" points="150,-38.2 150,-143.2 272,-143.2 272,-38.2 150,-38.2"/>
<polygon fill="#f5f5f5" stroke="transparent" points="150,-119.7 150,-142.7 272,-142.7 272,-119.7 150,-119.7"/>
<polygon fill="none" stroke="#000000" points="150,-119.7 150,-142.7 272,-142.7 272,-119.7 150,-119.7"/>
<text text-anchor="start" x="155" y="-128.8" font-family="Helvetica,sans-Serif" font-weight="bold" font-size="11.00" fill="#000000">COUNTRIES</text>
<text text-anchor="start" x="237.0437" y="-127.8" font-family="Helvetica,sans-Serif" font-size="11.00" fill="#000000">[table]</text>
<polygon fill="none" stroke="#000000" points="150,-97.7 150,-119.7 272,-119.7 272,-97.7 150,-97.7"/>
<image xlink:href="../../images/primaryKeys.png" width="11px" height="12px" preserveAspectRatio="xMinYMin meet" x="155" y="-114.7"/>
<text text-anchor="start" x="170" y="-104.8" font-family="Helvetica,sans-Serif" font-size="11.00" fill="#000000">COUNTRY_ID</text>
<polygon fill="none" stroke="#000000" points="150,-75.7 150,-97.7 272,-97.7 272,-75.7 150,-75.7"/>
<image xlink:href="../../images/foreignKeys.png" width="11px" height="12px" preserveAspectRatio="xMinYMin meet" x="155" y="-92.7"/>
<text text-anchor="start" x="170" y="-82.8" font-family="Helvetica,sans-Serif" font-size="11.00" fill="#000000">REGION_ID</text>
<polygon fill="none" stroke="#000000" points="150,-56.7 150,-75.7 272,-75.7 272,-56.7 150,-56.7"/>
<text text-anchor="start" x="153" y="-62.8" font-family="Helvetica,sans-Serif" font-size="11.00" fill="#000000">...</text>
<polygon fill="#ffffff" stroke="transparent" points="150,-37.7 150,-56.7 192,-56.7 192,-37.7 150,-37.7"/>
<polygon fill="none" stroke="#000000" points="150,-37.7 150,-56.7 192,-56.7 192,-37.7 150,-37.7"/>
<text text-anchor="start" x="153" y="-43.8" font-family="Helvetica,sans-Serif" font-size="11.00" fill="#000000">&lt; 1</text>
<polygon fill="#ffffff" stroke="transparent" points="192,-37.7 192,-56.7 240,-56.7 240,-37.7 192,-37.7"/>
<polygon fill="none" stroke="#000000" points="192,-37.7 192,-56.7 240,-56.7 240,-37.7 192,-37.7"/>
<text text-anchor="start" x="204.6105" y="-43.8" font-family="Helvetica,sans-Serif" font-size="11.00" fill="#000000">0 rows</text>
<polygon fill="#ffffff" stroke="transparent" points="240,-37.7 240,-56.7 272,-56.7 272,-37.7 240,-37.7"/>
<polygon fill="none" stroke="#000000" points="240,-37.7 240,-56.7 272,-56.7 272,-37.7 240,-37.7"/>
<text text-anchor="start" x="253.4053" y="-43.8" font-family="Helvetica,sans-Serif" font-size="11.00" fill="#000000">1 &gt;</text>
</a>
</g>
</g>
<!-- REGIONS -->
<g id="node2" class="node">
<title>REGIONS</title>
<g id="a_node2"><a xlink:href="../../tables/REGIONS.html" xlink:title="REGIONS" target="_top">
<polygon fill="#ffffff" stroke="transparent" points="8,-59.2 8,-120.2 101,-120.2 101,-59.2 8,-59.2"/>
<polygon fill="#f5f5f5" stroke="transparent" points="8.5,-96.7 8.5,-119.7 101.5,-119.7 101.5,-96.7 8.5,-96.7"/>
<polygon fill="none" stroke="#000000" points="8.5,-96.7 8.5,-119.7 101.5,-119.7 101.5,-96.7 8.5,-96.7"/>
<text text-anchor="start" x="13.1379" y="-105.8" font-family="Helvetica,sans-Serif" font-weight="bold" font-size="11.00" fill="#000000">REGIONS</text>
<text text-anchor="start" x="67.0219" y="-104.8" font-family="Helvetica,sans-Serif" font-size="11.00" fill="#000000">[table]</text>
<polygon fill="none" stroke="#000000" points="8.5,-77.7 8.5,-96.7 101.5,-96.7 101.5,-77.7 8.5,-77.7"/>
<text text-anchor="start" x="11.5" y="-83.8" font-family="Helvetica,sans-Serif" font-size="11.00" fill="#000000">...</text>
<polygon fill="#ffffff" stroke="transparent" points="8.5,-58.7 8.5,-77.7 31.5,-77.7 31.5,-58.7 8.5,-58.7"/>
<polygon fill="none" stroke="#000000" points="8.5,-58.7 8.5,-77.7 31.5,-77.7 31.5,-58.7 8.5,-58.7"/>
<text text-anchor="start" x="11.5" y="-64.8" font-family="Helvetica,sans-Serif" font-size="11.00" fill="#000000"> &#160;</text>
<polygon fill="#ffffff" stroke="transparent" points="31.5,-58.7 31.5,-77.7 74.5,-77.7 74.5,-58.7 31.5,-58.7"/>
<polygon fill="none" stroke="#000000" points="31.5,-58.7 31.5,-77.7 74.5,-77.7 74.5,-58.7 31.5,-58.7"/>
<text text-anchor="start" x="39.1105" y="-64.8" font-family="Helvetica,sans-Serif" font-size="11.00" fill="#000000">0 rows</text>
<polygon fill="#ffffff" stroke="transparent" points="74.5,-58.7 74.5,-77.7 101.5,-77.7 101.5,-58.7 74.5,-58.7"/>
<polygon fill="none" stroke="#000000" points="74.5,-58.7 74.5,-77.7 101.5,-77.7 101.5,-58.7 74.5,-58.7"/>
<text text-anchor="start" x="82.9053" y="-64.8" font-family="Helvetica,sans-Serif" font-size="11.00" fill="#000000">1 &gt;</text>
</a>
</g>
</g>
<!-- COUNTRIES&#45;&gt;REGIONS -->
<g id="edge1" class="edge">
<title>COUNTRIES:w&#45;&gt;REGIONS:e</title>
<path fill="none" stroke="#000000" d="M135.2829,-86.7C124.2886,-86.7 117.1615,-86.7 101.5,-86.7"/>
<polygon fill="#000000" stroke="#000000" points="142,-86.7001 150,-90.3 146,-86.7 150,-86.7 150,-86.7 150,-86.7 146,-86.7 150,-83.1 142,-86.7001 142,-86.7001"/>
<ellipse fill="none" stroke="#000000" cx="138.8" cy="-86.7001" rx="3.2" ry="3.2"/>
</g>
<!-- INVENTORIES -->
<g id="node3" class="node">
<title>INVENTORIES</title>
<g id="a_node3"><a xlink:href="../../tables/INVENTORIES.html" xlink:title="INVENTORIES" target="_top">
<polygon fill="#ffffff" stroke="transparent" points="749,-213.2 749,-274.2 866,-274.2 866,-213.2 749,-213.2"/>
<polygon fill="#f5f5f5" stroke="transparent" points="749.5,-250.7 749.5,-273.7 866.5,-273.7 866.5,-250.7 749.5,-250.7"/>
<polygon fill="none" stroke="#000000" points="749.5,-250.7 749.5,-273.7 866.5,-273.7 866.5,-250.7 749.5,-250.7"/>
<text text-anchor="start" x="754.2216" y="-259.8" font-family="Helvetica,sans-Serif" font-weight="bold" font-size="11.00" fill="#000000">INVENTORIES</text>
<text text-anchor="start" x="832.0219" y="-258.8" font-family="Helvetica,sans-Serif" font-size="11.00" fill="#000000">[table]</text>
<polygon fill="none" stroke="#000000" points="749.5,-231.7 749.5,-250.7 866.5,-250.7 866.5,-231.7 749.5,-231.7"/>
<text text-anchor="start" x="752.5" y="-237.8" font-family="Helvetica,sans-Serif" font-size="11.00" fill="#000000">...</text>
<polygon fill="#ffffff" stroke="transparent" points="749.5,-212.7 749.5,-231.7 793.5,-231.7 793.5,-212.7 749.5,-212.7"/>
<polygon fill="none" stroke="#000000" points="749.5,-212.7 749.5,-231.7 793.5,-231.7 793.5,-212.7 749.5,-212.7"/>
<text text-anchor="start" x="752.5" y="-218.8" font-family="Helvetica,sans-Serif" font-size="11.00" fill="#000000">&lt; 2</text>
<polygon fill="#ffffff" stroke="transparent" points="793.5,-212.7 793.5,-231.7 842.5,-231.7 842.5,-212.7 793.5,-212.7"/>
<polygon fill="none" stroke="#000000" points="793.5,-212.7 793.5,-231.7 842.5,-231.7 842.5,-212.7 793.5,-212.7"/>
<text text-anchor="start" x="807.1105" y="-218.8" font-family="Helvetica,sans-Serif" font-size="11.00" fill="#000000">0 rows</text>
<polygon fill="#ffffff" stroke="transparent" points="842.5,-212.7 842.5,-231.7 866.5,-231.7 866.5,-212.7 842.5,-212.7"/>
<polygon fill="none" stroke="#000000" points="842.5,-212.7 842.5,-231.7 866.5,-231.7 866.5,-212.7 842.5,-212.7"/>
<text text-anchor="start" x="857.3862" y="-218.8" font-family="Helvetica,sans-Serif" font-size="11.00" fill="#000000"> &#160;</text>
</a>
</g>
</g>
<!-- WAREHOUSES -->
<g id="node4" class="node">
<title>WAREHOUSES</title>
<g id="a_node4"><a xlink:href="../../tables/WAREHOUSES.html" xlink:title="WAREHOUSES" target="_top">
<polygon fill="#ffffff" stroke="transparent" points="558,-170.2 558,-275.2 700,-275.2 700,-170.2 558,-170.2"/>
<polygon fill="#f5f5f5" stroke="transparent" points="558,-251.7 558,-274.7 700,-274.7 700,-251.7 558,-251.7"/>
<polygon fill="none" stroke="#000000" points="558,-251.7 558,-274.7 700,-274.7 700,-251.7 558,-251.7"/>
<text text-anchor="start" x="563" y="-260.8" font-family="Helvetica,sans-Serif" font-weight="bold" font-size="11.00" fill="#000000">WAREHOUSES</text>
<text text-anchor="start" x="665.0437" y="-259.8" font-family="Helvetica,sans-Serif" font-size="11.00" fill="#000000">[table]</text>
<polygon fill="none" stroke="#000000" points="558,-229.7 558,-251.7 700,-251.7 700,-229.7 558,-229.7"/>
<image xlink:href="../../images/primaryKeys.png" width="11px" height="12px" preserveAspectRatio="xMinYMin meet" x="563" y="-246.7"/>
<text text-anchor="start" x="578" y="-236.8" font-family="Helvetica,sans-Serif" font-size="11.00" fill="#000000">WAREHOUSE_ID</text>
<polygon fill="none" stroke="#000000" points="558,-207.7 558,-229.7 700,-229.7 700,-207.7 558,-207.7"/>
<image xlink:href="../../images/foreignKeys.png" width="11px" height="12px" preserveAspectRatio="xMinYMin meet" x="563" y="-224.7"/>
<text text-anchor="start" x="578" y="-214.8" font-family="Helvetica,sans-Serif" font-size="11.00" fill="#000000">LOCATION_ID</text>
<polygon fill="none" stroke="#000000" points="558,-188.7 558,-207.7 700,-207.7 700,-188.7 558,-188.7"/>
<text text-anchor="start" x="561" y="-194.8" font-family="Helvetica,sans-Serif" font-size="11.00" fill="#000000">...</text>
<polygon fill="#ffffff" stroke="transparent" points="558,-169.7 558,-188.7 610,-188.7 610,-169.7 558,-169.7"/>
<polygon fill="none" stroke="#000000" points="558,-169.7 558,-188.7 610,-188.7 610,-169.7 558,-169.7"/>
<text text-anchor="start" x="561" y="-175.8" font-family="Helvetica,sans-Serif" font-size="11.00" fill="#000000">&lt; 1</text>
<polygon fill="#ffffff" stroke="transparent" points="610,-169.7 610,-188.7 663,-188.7 663,-169.7 610,-169.7"/>
<polygon fill="none" stroke="#000000" points="610,-169.7 610,-188.7 663,-188.7 663,-169.7 610,-169.7"/>
<text text-anchor="start" x="627.6105" y="-175.8" font-family="Helvetica,sans-Serif" font-size="11.00" fill="#000000">0 rows</text>
<polygon fill="#ffffff" stroke="transparent" points="663,-169.7 663,-188.7 700,-188.7 700,-169.7 663,-169.7"/>
<polygon fill="none" stroke="#000000" points="663,-169.7 663,-188.7 700,-188.7 700,-169.7 663,-169.7"/>
<text text-anchor="start" x="681.4053" y="-175.8" font-family="Helvetica,sans-Serif" font-size="11.00" fill="#000000">1 &gt;</text>
</a>
</g>
</g>
<!-- INVENTORIES&#45;&gt;WAREHOUSES -->
<g id="edge2" class="edge">
<title>INVENTORIES:w&#45;&gt;WAREHOUSES:e</title>
<path fill="none" stroke="#000000" d="M734.8428,-240.7C723.4139,-240.7 716.1563,-240.7 700,-240.7"/>
<polygon fill="#000000" stroke="#000000" points="741.5,-240.7001 749.5,-244.3 745.5,-240.7 749.5,-240.7 749.5,-240.7 749.5,-240.7 745.5,-240.7 749.5,-237.1 741.5,-240.7001 741.5,-240.7001"/>
<ellipse fill="none" stroke="#000000" cx="738.3" cy="-240.7001" rx="3.2" ry="3.2"/>
</g>
<!-- LOCATIONS -->
<g id="node5" class="node">
<title>LOCATIONS</title>
<g id="a_node5"><a xlink:href="../../tables/LOCATIONS.html" xlink:title="LOCATIONS" target="_top">
<polygon fill="#ffffff" stroke="transparent" points="321,-76.7 321,-254.7 509,-254.7 509,-76.7 321,-76.7"/>
<polygon fill="#f5f5f5" stroke="transparent" points="323,-229.7 323,-252.7 507,-252.7 507,-229.7 323,-229.7"/>
<polygon fill="none" stroke="#000000" points="323,-229.7 323,-252.7 507,-252.7 507,-229.7 323,-229.7"/>
<text text-anchor="start" x="328" y="-238.8" font-family="Helvetica,sans-Serif" font-weight="bold" font-size="11.00" fill="#000000">LOCATIONS</text>
<text text-anchor="start" x="472.0437" y="-237.8" font-family="Helvetica,sans-Serif" font-size="11.00" fill="#000000">[table]</text>
<polygon fill="none" stroke="#000000" points="323,-207.7 323,-229.7 434,-229.7 434,-207.7 323,-207.7"/>
<image xlink:href="../../images/primaryKeys.png" width="11px" height="12px" preserveAspectRatio="xMinYMin meet" x="328" y="-224.7"/>
<text text-anchor="start" x="343" y="-214.8" font-family="Helvetica,sans-Serif" font-size="11.00" fill="#000000">LOCATION_ID</text>
<polygon fill="none" stroke="#000000" points="434,-207.7 434,-229.7 507,-229.7 507,-207.7 434,-207.7"/>
<text text-anchor="start" x="437" y="-215.4" font-family="Helvetica,sans-Serif" font-size="11.00" fill="#000000">number[0]</text>
<polygon fill="none" stroke="#000000" points="323,-185.7 323,-207.7 434,-207.7 434,-185.7 323,-185.7"/>
<text text-anchor="start" x="343" y="-192.8" font-family="Helvetica,sans-Serif" font-size="11.00" fill="#000000">ADDRESS</text>
<polygon fill="none" stroke="#000000" points="434,-185.7 434,-207.7 507,-207.7 507,-185.7 434,-185.7"/>
<text text-anchor="start" x="436.8791" y="-193.4" font-family="Helvetica,sans-Serif" font-size="11.00" fill="#000000">varchar2[255]</text>
<polygon fill="none" stroke="#000000" points="323,-163.7 323,-185.7 434,-185.7 434,-163.7 323,-163.7"/>
<text text-anchor="start" x="343" y="-170.8" font-family="Helvetica,sans-Serif" font-size="11.00" fill="#000000">POSTAL_CODE</text>
<polygon fill="none" stroke="#000000" points="434,-163.7 434,-185.7 507,-185.7 507,-163.7 434,-163.7"/>
<text text-anchor="start" x="437" y="-171.4" font-family="Helvetica,sans-Serif" font-size="11.00" fill="#000000">varchar2[20]</text>
<polygon fill="none" stroke="#000000" points="323,-141.7 323,-163.7 434,-163.7 434,-141.7 323,-141.7"/>
<text text-anchor="start" x="343" y="-148.8" font-family="Helvetica,sans-Serif" font-size="11.00" fill="#000000">CITY</text>
<polygon fill="none" stroke="#000000" points="434,-141.7 434,-163.7 507,-163.7 507,-141.7 434,-141.7"/>
<text text-anchor="start" x="437" y="-149.4" font-family="Helvetica,sans-Serif" font-size="11.00" fill="#000000">varchar2[50]</text>
<polygon fill="none" stroke="#000000" points="323,-119.7 323,-141.7 434,-141.7 434,-119.7 323,-119.7"/>
<text text-anchor="start" x="343" y="-126.8" font-family="Helvetica,sans-Serif" font-size="11.00" fill="#000000">STATE</text>
<polygon fill="none" stroke="#000000" points="434,-119.7 434,-141.7 507,-141.7 507,-119.7 434,-119.7"/>
<text text-anchor="start" x="437" y="-127.4" font-family="Helvetica,sans-Serif" font-size="11.00" fill="#000000">varchar2[50]</text>
<polygon fill="none" stroke="#000000" points="323,-97.7 323,-119.7 434,-119.7 434,-97.7 323,-97.7"/>
<image xlink:href="../../images/foreignKeys.png" width="11px" height="12px" preserveAspectRatio="xMinYMin meet" x="328" y="-114.7"/>
<text text-anchor="start" x="343" y="-104.8" font-family="Helvetica,sans-Serif" font-size="11.00" fill="#000000">COUNTRY_ID</text>
<polygon fill="none" stroke="#000000" points="434,-97.7 434,-119.7 507,-119.7 507,-97.7 434,-97.7"/>
<text text-anchor="start" x="437" y="-105.4" font-family="Helvetica,sans-Serif" font-size="11.00" fill="#000000">char[2]</text>
<polygon fill="#ffffff" stroke="transparent" points="323,-78.7 323,-97.7 370,-97.7 370,-78.7 323,-78.7"/>
<polygon fill="none" stroke="#000000" points="323,-78.7 323,-97.7 370,-97.7 370,-78.7 323,-78.7"/>
<text text-anchor="start" x="326" y="-84.8" font-family="Helvetica,sans-Serif" font-size="11.00" fill="#000000">&lt; 1</text>
<polygon fill="#ffffff" stroke="transparent" points="370,-78.7 370,-97.7 434,-97.7 434,-78.7 370,-78.7"/>
<polygon fill="none" stroke="#000000" points="370,-78.7 370,-97.7 434,-97.7 434,-78.7 370,-78.7"/>
<text text-anchor="start" x="398.6105" y="-84.8" font-family="Helvetica,sans-Serif" font-size="11.00" fill="#000000">0 rows</text>
<polygon fill="#ffffff" stroke="transparent" points="434,-78.7 434,-97.7 507,-97.7 507,-78.7 434,-78.7"/>
<polygon fill="none" stroke="#000000" points="434,-78.7 434,-97.7 507,-97.7 507,-78.7 434,-78.7"/>
<text text-anchor="start" x="488.4053" y="-84.8" font-family="Helvetica,sans-Serif" font-size="11.00" fill="#000000">1 &gt;</text>
<polygon fill="none" stroke="#000000" stroke-width="2" points="322,-77.7 322,-253.7 508,-253.7 508,-77.7 322,-77.7"/>
</a>
</g>
</g>
<!-- WAREHOUSES&#45;&gt;LOCATIONS -->
<g id="edge4" class="edge">
<title>WAREHOUSES:w&#45;&gt;LOCATIONS:e</title>
<path fill="none" stroke="#000000" d="M543.276,-218.7C531.2815,-218.7 523.8229,-218.7 507,-218.7"/>
<polygon fill="#000000" stroke="#000000" points="550,-218.7001 558,-222.3 554,-218.7 558,-218.7 558,-218.7 558,-218.7 554,-218.7 558,-215.1 550,-218.7001 550,-218.7001"/>
<ellipse fill="none" stroke="#000000" cx="546.8" cy="-218.7001" rx="3.2" ry="3.2"/>
</g>
<!-- LOCATIONS&#45;&gt;COUNTRIES -->
<g id="edge3" class="edge">
<title>LOCATIONS:w&#45;&gt;COUNTRIES:e</title>
<path fill="none" stroke="#000000" d="M308.276,-108.7C296.2815,-108.7 288.8229,-108.7 272,-108.7"/>
<polygon fill="#000000" stroke="#000000" points="315,-108.7001 323,-112.3 319,-108.7 323,-108.7 323,-108.7 323,-108.7 319,-108.7 323,-105.1 315,-108.7001 315,-108.7001"/>
<ellipse fill="none" stroke="#000000" cx="311.8" cy="-108.7001" rx="3.2" ry="3.2"/>
</g>
</g>
</svg>
