<?xml version="1.0" encoding="UTF-8" standalone="no"?>
<!DOCTYPE svg PUBLIC "-//W3C//DTD SVG 1.1//EN"
 "http://www.w3.org/Graphics/SVG/1.1/DTD/svg11.dtd">
<!-- Generated by graphviz version 2.40.1 (20161225.0304)
 -->
<!-- Title: twoDegreesRelationshipsDiagram Pages: 1 -->
<svg width="600pt" height="320pt"
 viewBox="0.00 0.00 600.00 320.20" xmlns="http://www.w3.org/2000/svg" xmlns:xlink="http://www.w3.org/1999/xlink">
<g id="graph0" class="graph" transform="scale(1 1) rotate(0) translate(4 316.2)">
<title>twoDegreesRelationshipsDiagram</title>
<polygon fill="#ffffff" stroke="transparent" points="-4,4 -4,-316.2 596,-316.2 596,4 -4,4"/>
<text text-anchor="middle" x="72.4936" y="-7.3" font-family="Helvetica,sans-Serif" font-size="11.00" fill="#000000">Generated by SchemaSpy</text>
<!-- INVENTORIES -->
<g id="node1" class="node">
<title>INVENTORIES</title>
<g id="a_node1"><a xlink:href="../../tables/INVENTORIES.html" xlink:title="INVENTORIES" target="_top">
<polygon fill="#ffffff" stroke="transparent" points="438,-246.2 438,-307.2 555,-307.2 555,-246.2 438,-246.2"/>
<polygon fill="#f5f5f5" stroke="transparent" points="438.5,-283.7 438.5,-306.7 555.5,-306.7 555.5,-283.7 438.5,-283.7"/>
<polygon fill="none" stroke="#000000" points="438.5,-283.7 438.5,-306.7 555.5,-306.7 555.5,-283.7 438.5,-283.7"/>
<text text-anchor="start" x="443.2216" y="-292.8" font-family="Helvetica,sans-Serif" font-weight="bold" font-size="11.00" fill="#000000">INVENTORIES</text>
<text text-anchor="start" x="521.0219" y="-291.8" font-family="Helvetica,sans-Serif" font-size="11.00" fill="#000000">[table]</text>
<polygon fill="none" stroke="#000000" points="438.5,-264.7 438.5,-283.7 555.5,-283.7 555.5,-264.7 438.5,-264.7"/>
<text text-anchor="start" x="441.5" y="-270.8" font-family="Helvetica,sans-Serif" font-size="11.00" fill="#000000">...</text>
<polygon fill="#ffffff" stroke="transparent" points="438.5,-245.7 438.5,-264.7 482.5,-264.7 482.5,-245.7 438.5,-245.7"/>
<polygon fill="none" stroke="#000000" points="438.5,-245.7 438.5,-264.7 482.5,-264.7 482.5,-245.7 438.5,-245.7"/>
<text text-anchor="start" x="441.5" y="-251.8" font-family="Helvetica,sans-Serif" font-size="11.00" fill="#000000">&lt; 2</text>
<polygon fill="#ffffff" stroke="transparent" points="482.5,-245.7 482.5,-264.7 531.5,-264.7 531.5,-245.7 482.5,-245.7"/>
<polygon fill="none" stroke="#000000" points="482.5,-245.7 482.5,-264.7 531.5,-264.7 531.5,-245.7 482.5,-245.7"/>
<text text-anchor="start" x="496.1105" y="-251.8" font-family="Helvetica,sans-Serif" font-size="11.00" fill="#000000">0 rows</text>
<polygon fill="#ffffff" stroke="transparent" points="531.5,-245.7 531.5,-264.7 555.5,-264.7 555.5,-245.7 531.5,-245.7"/>
<polygon fill="none" stroke="#000000" points="531.5,-245.7 531.5,-264.7 555.5,-264.7 555.5,-245.7 531.5,-245.7"/>
<text text-anchor="start" x="546.3862" y="-251.8" font-family="Helvetica,sans-Serif" font-size="11.00" fill="#000000"> &#160;</text>
</a>
</g>
</g>
<!-- PRODUCTS -->
<g id="node2" class="node">
<title>PRODUCTS</title>
<g id="a_node2"><a xlink:href="../../tables/PRODUCTS.html" xlink:title="PRODUCTS" target="_top">
<polygon fill="#ffffff" stroke="transparent" points="232,-203.2 232,-308.2 360,-308.2 360,-203.2 232,-203.2"/>
<polygon fill="#f5f5f5" stroke="transparent" points="232,-284.7 232,-307.7 360,-307.7 360,-284.7 232,-284.7"/>
<polygon fill="none" stroke="#000000" points="232,-284.7 232,-307.7 360,-307.7 360,-284.7 232,-284.7"/>
<text text-anchor="start" x="237" y="-293.8" font-family="Helvetica,sans-Serif" font-weight="bold" font-size="11.00" fill="#000000">PRODUCTS</text>
<text text-anchor="start" x="325.0437" y="-292.8" font-family="Helvetica,sans-Serif" font-size="11.00" fill="#000000">[table]</text>
<polygon fill="none" stroke="#000000" points="232,-262.7 232,-284.7 360,-284.7 360,-262.7 232,-262.7"/>
<image xlink:href="../../images/primaryKeys.png" width="11px" height="12px" preserveAspectRatio="xMinYMin meet" x="237" y="-279.7"/>
<text text-anchor="start" x="252" y="-269.8" font-family="Helvetica,sans-Serif" font-size="11.00" fill="#000000">PRODUCT_ID</text>
<polygon fill="none" stroke="#000000" points="232,-240.7 232,-262.7 360,-262.7 360,-240.7 232,-240.7"/>
<image xlink:href="../../images/foreignKeys.png" width="11px" height="12px" preserveAspectRatio="xMinYMin meet" x="237" y="-257.7"/>
<text text-anchor="start" x="252" y="-247.8" font-family="Helvetica,sans-Serif" font-size="11.00" fill="#000000">CATEGORY_ID</text>
<polygon fill="none" stroke="#000000" points="232,-221.7 232,-240.7 360,-240.7 360,-221.7 232,-221.7"/>
<text text-anchor="start" x="235" y="-227.8" font-family="Helvetica,sans-Serif" font-size="11.00" fill="#000000">...</text>
<polygon fill="#ffffff" stroke="transparent" points="232,-202.7 232,-221.7 277,-221.7 277,-202.7 232,-202.7"/>
<polygon fill="none" stroke="#000000" points="232,-202.7 232,-221.7 277,-221.7 277,-202.7 232,-202.7"/>
<text text-anchor="start" x="235" y="-208.8" font-family="Helvetica,sans-Serif" font-size="11.00" fill="#000000">&lt; 1</text>
<polygon fill="#ffffff" stroke="transparent" points="277,-202.7 277,-221.7 327,-221.7 327,-202.7 277,-202.7"/>
<polygon fill="none" stroke="#000000" points="277,-202.7 277,-221.7 327,-221.7 327,-202.7 277,-202.7"/>
<text text-anchor="start" x="291.6105" y="-208.8" font-family="Helvetica,sans-Serif" font-size="11.00" fill="#000000">0 rows</text>
<polygon fill="#ffffff" stroke="transparent" points="327,-202.7 327,-221.7 360,-221.7 360,-202.7 327,-202.7"/>
<polygon fill="none" stroke="#000000" points="327,-202.7 327,-221.7 360,-221.7 360,-202.7 327,-202.7"/>
<text text-anchor="start" x="341.4053" y="-208.8" font-family="Helvetica,sans-Serif" font-size="11.00" fill="#000000">2 &gt;</text>
</a>
</g>
</g>
<!-- INVENTORIES&#45;&gt;PRODUCTS -->
<g id="edge1" class="edge">
<title>INVENTORIES:w&#45;&gt;PRODUCTS:e</title>
<path fill="none" stroke="#000000" d="M423.8627,-273.7C400.2466,-273.7 389.4375,-273.7 360,-273.7"/>
<polygon fill="#000000" stroke="#000000" points="430.5,-273.7001 438.5,-277.3 434.5,-273.7 438.5,-273.7 438.5,-273.7 438.5,-273.7 434.5,-273.7 438.5,-270.1 430.5,-273.7001 430.5,-273.7001"/>
<ellipse fill="none" stroke="#000000" cx="427.3" cy="-273.7001" rx="3.2" ry="3.2"/>
</g>
<!-- PRODUCT_CATEGORIES -->
<g id="node7" class="node">
<title>PRODUCT_CATEGORIES</title>
<g id="a_node7"><a xlink:href="../../tables/PRODUCT_CATEGORIES.html" xlink:title="PRODUCT_CATEGORIES" target="_top">
<polygon fill="#ffffff" stroke="transparent" points="8,-224.2 8,-285.2 183,-285.2 183,-224.2 8,-224.2"/>
<polygon fill="#f5f5f5" stroke="transparent" points="8.5,-261.7 8.5,-284.7 183.5,-284.7 183.5,-261.7 8.5,-261.7"/>
<polygon fill="none" stroke="#000000" points="8.5,-261.7 8.5,-284.7 183.5,-284.7 183.5,-261.7 8.5,-261.7"/>
<text text-anchor="start" x="13.1964" y="-270.8" font-family="Helvetica,sans-Serif" font-weight="bold" font-size="11.00" fill="#000000">PRODUCT_CATEGORIES</text>
<text text-anchor="start" x="149.0219" y="-269.8" font-family="Helvetica,sans-Serif" font-size="11.00" fill="#000000">[table]</text>
<polygon fill="none" stroke="#000000" points="8.5,-242.7 8.5,-261.7 183.5,-261.7 183.5,-242.7 8.5,-242.7"/>
<text text-anchor="start" x="11.5" y="-248.8" font-family="Helvetica,sans-Serif" font-size="11.00" fill="#000000">...</text>
<polygon fill="#ffffff" stroke="transparent" points="8.5,-223.7 8.5,-242.7 72.5,-242.7 72.5,-223.7 8.5,-223.7"/>
<polygon fill="none" stroke="#000000" points="8.5,-223.7 8.5,-242.7 72.5,-242.7 72.5,-223.7 8.5,-223.7"/>
<text text-anchor="start" x="11.5" y="-229.8" font-family="Helvetica,sans-Serif" font-size="11.00" fill="#000000"> &#160;</text>
<polygon fill="#ffffff" stroke="transparent" points="72.5,-223.7 72.5,-242.7 136.5,-242.7 136.5,-223.7 72.5,-223.7"/>
<polygon fill="none" stroke="#000000" points="72.5,-223.7 72.5,-242.7 136.5,-242.7 136.5,-223.7 72.5,-223.7"/>
<text text-anchor="start" x="101.1105" y="-229.8" font-family="Helvetica,sans-Serif" font-size="11.00" fill="#000000">0 rows</text>
<polygon fill="#ffffff" stroke="transparent" points="136.5,-223.7 136.5,-242.7 183.5,-242.7 183.5,-223.7 136.5,-223.7"/>
<polygon fill="none" stroke="#000000" points="136.5,-223.7 136.5,-242.7 183.5,-242.7 183.5,-223.7 136.5,-223.7"/>
<text text-anchor="start" x="164.9053" y="-229.8" font-family="Helvetica,sans-Serif" font-size="11.00" fill="#000000">1 &gt;</text>
</a>
</g>
</g>
<!-- PRODUCTS&#45;&gt;PRODUCT_CATEGORIES -->
<g id="edge6" class="edge">
<title>PRODUCTS:w&#45;&gt;PRODUCT_CATEGORIES:e</title>
<path fill="none" stroke="#000000" d="M217.2829,-251.7C206.2886,-251.7 199.1615,-251.7 183.5,-251.7"/>
<polygon fill="#000000" stroke="#000000" points="224,-251.7001 232,-255.3 228,-251.7 232,-251.7 232,-251.7 232,-251.7 228,-251.7 232,-248.1 224,-251.7001 224,-251.7001"/>
<ellipse fill="none" stroke="#000000" cx="220.8" cy="-251.7001" rx="3.2" ry="3.2"/>
</g>
<!-- ORDER_ITEMS -->
<g id="node3" class="node">
<title>ORDER_ITEMS</title>
<g id="a_node3"><a xlink:href="../../tables/ORDER_ITEMS.html" xlink:title="ORDER_ITEMS" target="_top">
<polygon fill="#ffffff" stroke="transparent" points="409,-47.7 409,-203.7 584,-203.7 584,-47.7 409,-47.7"/>
<polygon fill="#f5f5f5" stroke="transparent" points="411.5,-178.7 411.5,-201.7 582.5,-201.7 582.5,-178.7 411.5,-178.7"/>
<polygon fill="none" stroke="#000000" points="411.5,-178.7 411.5,-201.7 582.5,-201.7 582.5,-178.7 411.5,-178.7"/>
<text text-anchor="start" x="416.5" y="-187.8" font-family="Helvetica,sans-Serif" font-weight="bold" font-size="11.00" fill="#000000">ORDER_ITEMS</text>
<text text-anchor="start" x="547.5437" y="-186.8" font-family="Helvetica,sans-Serif" font-size="11.00" fill="#000000">[table]</text>
<polygon fill="none" stroke="#000000" points="411.5,-156.7 411.5,-178.7 518.5,-178.7 518.5,-156.7 411.5,-156.7"/>
<image xlink:href="../../images/primaryKeys.png" width="11px" height="12px" preserveAspectRatio="xMinYMin meet" x="416.5" y="-173.7"/>
<text text-anchor="start" x="431.5" y="-163.8" font-family="Helvetica,sans-Serif" font-size="11.00" fill="#000000">ORDER_ID</text>
<polygon fill="none" stroke="#000000" points="518.5,-156.7 518.5,-178.7 582.5,-178.7 582.5,-156.7 518.5,-156.7"/>
<text text-anchor="start" x="521.5" y="-164.4" font-family="Helvetica,sans-Serif" font-size="11.00" fill="#000000">number[12]</text>
<polygon fill="none" stroke="#000000" points="411.5,-134.7 411.5,-156.7 518.5,-156.7 518.5,-134.7 411.5,-134.7"/>
<image xlink:href="../../images/primaryKeys.png" width="11px" height="12px" preserveAspectRatio="xMinYMin meet" x="416.5" y="-151.7"/>
<text text-anchor="start" x="431.5" y="-141.8" font-family="Helvetica,sans-Serif" font-size="11.00" fill="#000000">ITEM_ID</text>
<polygon fill="none" stroke="#000000" points="518.5,-134.7 518.5,-156.7 582.5,-156.7 582.5,-134.7 518.5,-134.7"/>
<text text-anchor="start" x="521.5" y="-142.4" font-family="Helvetica,sans-Serif" font-size="11.00" fill="#000000">number[12]</text>
<polygon fill="none" stroke="#000000" points="411.5,-112.7 411.5,-134.7 518.5,-134.7 518.5,-112.7 411.5,-112.7"/>
<image xlink:href="../../images/foreignKeys.png" width="11px" height="12px" preserveAspectRatio="xMinYMin meet" x="416.5" y="-129.7"/>
<text text-anchor="start" x="431.5" y="-119.8" font-family="Helvetica,sans-Serif" font-size="11.00" fill="#000000">PRODUCT_ID</text>
<polygon fill="none" stroke="#000000" points="518.5,-112.7 518.5,-134.7 582.5,-134.7 582.5,-112.7 518.5,-112.7"/>
<text text-anchor="start" x="521.5" y="-120.4" font-family="Helvetica,sans-Serif" font-size="11.00" fill="#000000">number[12]</text>
<polygon fill="none" stroke="#000000" points="411.5,-90.7 411.5,-112.7 518.5,-112.7 518.5,-90.7 411.5,-90.7"/>
<text text-anchor="start" x="431.5" y="-97.8" font-family="Helvetica,sans-Serif" font-size="11.00" fill="#000000">QUANTITY</text>
<polygon fill="none" stroke="#000000" points="518.5,-90.7 518.5,-112.7 582.5,-112.7 582.5,-90.7 518.5,-90.7"/>
<text text-anchor="start" x="521.1581" y="-98.4" font-family="Helvetica,sans-Serif" font-size="11.00" fill="#000000">number[8,2]</text>
<polygon fill="none" stroke="#000000" points="411.5,-68.7 411.5,-90.7 518.5,-90.7 518.5,-68.7 411.5,-68.7"/>
<text text-anchor="start" x="431.5" y="-75.8" font-family="Helvetica,sans-Serif" font-size="11.00" fill="#000000">UNIT_PRICE</text>
<polygon fill="none" stroke="#000000" points="518.5,-68.7 518.5,-90.7 582.5,-90.7 582.5,-68.7 518.5,-68.7"/>
<text text-anchor="start" x="521.1581" y="-76.4" font-family="Helvetica,sans-Serif" font-size="11.00" fill="#000000">number[8,2]</text>
<polygon fill="#ffffff" stroke="transparent" points="411.5,-49.7 411.5,-68.7 456.5,-68.7 456.5,-49.7 411.5,-49.7"/>
<polygon fill="none" stroke="#000000" points="411.5,-49.7 411.5,-68.7 456.5,-68.7 456.5,-49.7 411.5,-49.7"/>
<text text-anchor="start" x="414.5" y="-55.8" font-family="Helvetica,sans-Serif" font-size="11.00" fill="#000000">&lt; 2</text>
<polygon fill="#ffffff" stroke="transparent" points="456.5,-49.7 456.5,-68.7 518.5,-68.7 518.5,-49.7 456.5,-49.7"/>
<polygon fill="none" stroke="#000000" points="456.5,-49.7 456.5,-68.7 518.5,-68.7 518.5,-49.7 456.5,-49.7"/>
<text text-anchor="start" x="483.1105" y="-55.8" font-family="Helvetica,sans-Serif" font-size="11.00" fill="#000000">0 rows</text>
<polygon fill="#ffffff" stroke="transparent" points="518.5,-49.7 518.5,-68.7 582.5,-68.7 582.5,-49.7 518.5,-49.7"/>
<polygon fill="none" stroke="#000000" points="518.5,-49.7 518.5,-68.7 582.5,-68.7 582.5,-49.7 518.5,-49.7"/>
<text text-anchor="start" x="563.9053" y="-55.8" font-family="Helvetica,sans-Serif" font-size="11.00" fill="#000000">0 &gt;</text>
<polygon fill="none" stroke="#000000" stroke-width="2" points="410,-48.7 410,-202.7 583,-202.7 583,-48.7 410,-48.7"/>
</a>
</g>
</g>
<!-- ORDER_ITEMS&#45;&gt;PRODUCTS -->
<g id="edge3" class="edge">
<title>ORDER_ITEMS:w&#45;&gt;PRODUCTS:e</title>
<path fill="none" stroke="#000000" d="M397.2063,-126.5625C354.6163,-147.3 424.7044,-273.7 360,-273.7"/>
<polygon fill="#000000" stroke="#000000" points="403.6558,-125.271 412.2069,-127.2299 407.5779,-124.4855 411.5,-123.7 411.5,-123.7 411.5,-123.7 407.5779,-124.4855 410.7931,-120.1701 403.6558,-125.271 403.6558,-125.271"/>
<ellipse fill="none" stroke="#000000" cx="400.5181" cy="-125.8993" rx="3.2" ry="3.2"/>
</g>
<!-- ORDERS -->
<g id="node4" class="node">
<title>ORDERS</title>
<g id="a_node4"><a xlink:href="../../tables/ORDERS.html" xlink:title="ORDERS" target="_top">
<polygon fill="#ffffff" stroke="transparent" points="242,-55.2 242,-182.2 350,-182.2 350,-55.2 242,-55.2"/>
<polygon fill="#f5f5f5" stroke="transparent" points="242,-158.7 242,-181.7 350,-181.7 350,-158.7 242,-158.7"/>
<polygon fill="none" stroke="#000000" points="242,-158.7 242,-181.7 350,-181.7 350,-158.7 242,-158.7"/>
<text text-anchor="start" x="247" y="-167.8" font-family="Helvetica,sans-Serif" font-weight="bold" font-size="11.00" fill="#000000">ORDERS</text>
<text text-anchor="start" x="315.0437" y="-166.8" font-family="Helvetica,sans-Serif" font-size="11.00" fill="#000000">[table]</text>
<polygon fill="none" stroke="#000000" points="242,-136.7 242,-158.7 350,-158.7 350,-136.7 242,-136.7"/>
<image xlink:href="../../images/primaryKeys.png" width="11px" height="12px" preserveAspectRatio="xMinYMin meet" x="247" y="-153.7"/>
<text text-anchor="start" x="262" y="-143.8" font-family="Helvetica,sans-Serif" font-size="11.00" fill="#000000">ORDER_ID</text>
<polygon fill="none" stroke="#000000" points="242,-114.7 242,-136.7 350,-136.7 350,-114.7 242,-114.7"/>
<image xlink:href="../../images/foreignKeys.png" width="11px" height="12px" preserveAspectRatio="xMinYMin meet" x="247" y="-131.7"/>
<text text-anchor="start" x="262" y="-121.8" font-family="Helvetica,sans-Serif" font-size="11.00" fill="#000000">CUSTOMER_ID</text>
<polygon fill="none" stroke="#000000" points="242,-92.7 242,-114.7 350,-114.7 350,-92.7 242,-92.7"/>
<image xlink:href="../../images/foreignKeys.png" width="11px" height="12px" preserveAspectRatio="xMinYMin meet" x="247" y="-109.7"/>
<text text-anchor="start" x="262" y="-99.8" font-family="Helvetica,sans-Serif" font-size="11.00" fill="#000000">SALESMAN_ID</text>
<polygon fill="none" stroke="#000000" points="242,-73.7 242,-92.7 350,-92.7 350,-73.7 242,-73.7"/>
<text text-anchor="start" x="245" y="-79.8" font-family="Helvetica,sans-Serif" font-size="11.00" fill="#000000">...</text>
<polygon fill="#ffffff" stroke="transparent" points="242,-54.7 242,-73.7 277,-73.7 277,-54.7 242,-54.7"/>
<polygon fill="none" stroke="#000000" points="242,-54.7 242,-73.7 277,-73.7 277,-54.7 242,-54.7"/>
<text text-anchor="start" x="245" y="-60.8" font-family="Helvetica,sans-Serif" font-size="11.00" fill="#000000">&lt; 2</text>
<polygon fill="#ffffff" stroke="transparent" points="277,-54.7 277,-73.7 322,-73.7 322,-54.7 277,-54.7"/>
<polygon fill="none" stroke="#000000" points="277,-54.7 277,-73.7 322,-73.7 322,-54.7 277,-54.7"/>
<text text-anchor="start" x="286.6105" y="-60.8" font-family="Helvetica,sans-Serif" font-size="11.00" fill="#000000">0 rows</text>
<polygon fill="#ffffff" stroke="transparent" points="322,-54.7 322,-73.7 350,-73.7 350,-54.7 322,-54.7"/>
<polygon fill="none" stroke="#000000" points="322,-54.7 322,-73.7 350,-73.7 350,-54.7 322,-54.7"/>
<text text-anchor="start" x="331.4053" y="-60.8" font-family="Helvetica,sans-Serif" font-size="11.00" fill="#000000">1 &gt;</text>
</a>
</g>
</g>
<!-- ORDER_ITEMS&#45;&gt;ORDERS -->
<g id="edge2" class="edge">
<title>ORDER_ITEMS:w&#45;&gt;ORDERS:e</title>
<path fill="none" stroke="#000000" d="M397.1201,-165.7092C380.2459,-160.6504 373.1286,-147.7 350,-147.7"/>
<polygon fill="#000000" stroke="#000000" points="403.5756,-166.6029 411.0063,-171.266 407.5378,-167.1514 411.5,-167.7 411.5,-167.7 411.5,-167.7 407.5378,-167.1514 411.9937,-164.134 403.5756,-166.6029 403.5756,-166.6029"/>
<ellipse fill="none" stroke="#000000" cx="400.4058" cy="-166.164" rx="3.2" ry="3.2"/>
</g>
<!-- CUSTOMERS -->
<g id="node5" class="node">
<title>CUSTOMERS</title>
<g id="a_node5"><a xlink:href="../../tables/CUSTOMERS.html" xlink:title="CUSTOMERS" target="_top">
<polygon fill="#ffffff" stroke="transparent" points="39,-120.2 39,-181.2 152,-181.2 152,-120.2 39,-120.2"/>
<polygon fill="#f5f5f5" stroke="transparent" points="39.5,-157.7 39.5,-180.7 152.5,-180.7 152.5,-157.7 39.5,-157.7"/>
<polygon fill="none" stroke="#000000" points="39.5,-157.7 39.5,-180.7 152.5,-180.7 152.5,-157.7 39.5,-157.7"/>
<text text-anchor="start" x="44.3655" y="-166.8" font-family="Helvetica,sans-Serif" font-weight="bold" font-size="11.00" fill="#000000">CUSTOMERS</text>
<text text-anchor="start" x="118.0219" y="-165.8" font-family="Helvetica,sans-Serif" font-size="11.00" fill="#000000">[table]</text>
<polygon fill="none" stroke="#000000" points="39.5,-138.7 39.5,-157.7 152.5,-157.7 152.5,-138.7 39.5,-138.7"/>
<text text-anchor="start" x="42.5" y="-144.8" font-family="Helvetica,sans-Serif" font-size="11.00" fill="#000000">...</text>
<polygon fill="#ffffff" stroke="transparent" points="39.5,-119.7 39.5,-138.7 72.5,-138.7 72.5,-119.7 39.5,-119.7"/>
<polygon fill="none" stroke="#000000" points="39.5,-119.7 39.5,-138.7 72.5,-138.7 72.5,-119.7 39.5,-119.7"/>
<text text-anchor="start" x="42.5" y="-125.8" font-family="Helvetica,sans-Serif" font-size="11.00" fill="#000000"> &#160;</text>
<polygon fill="#ffffff" stroke="transparent" points="72.5,-119.7 72.5,-138.7 120.5,-138.7 120.5,-119.7 72.5,-119.7"/>
<polygon fill="none" stroke="#000000" points="72.5,-119.7 72.5,-138.7 120.5,-138.7 120.5,-119.7 72.5,-119.7"/>
<text text-anchor="start" x="85.1105" y="-125.8" font-family="Helvetica,sans-Serif" font-size="11.00" fill="#000000">0 rows</text>
<polygon fill="#ffffff" stroke="transparent" points="120.5,-119.7 120.5,-138.7 152.5,-138.7 152.5,-119.7 120.5,-119.7"/>
<polygon fill="none" stroke="#000000" points="120.5,-119.7 120.5,-138.7 152.5,-138.7 152.5,-119.7 120.5,-119.7"/>
<text text-anchor="start" x="133.9053" y="-125.8" font-family="Helvetica,sans-Serif" font-size="11.00" fill="#000000">2 &gt;</text>
</a>
</g>
</g>
<!-- ORDERS&#45;&gt;CUSTOMERS -->
<g id="edge4" class="edge">
<title>ORDERS:w&#45;&gt;CUSTOMERS:e</title>
<path fill="none" stroke="#000000" d="M227.2895,-126.7611C198.4368,-131.1557 188.0216,-147.7 152.5,-147.7"/>
<polygon fill="#000000" stroke="#000000" points="234.0207,-126.2756 242.259,-129.2907 238.0104,-125.9878 242,-125.7 242,-125.7 242,-125.7 238.0104,-125.9878 241.741,-122.1093 234.0207,-126.2756 234.0207,-126.2756"/>
<ellipse fill="none" stroke="#000000" cx="230.829" cy="-126.5059" rx="3.2" ry="3.2"/>
</g>
<!-- EMPLOYEES -->
<g id="node6" class="node">
<title>EMPLOYEES</title>
<g id="a_node6"><a xlink:href="../../tables/EMPLOYEES.html" xlink:title="EMPLOYEES" target="_top">
<polygon fill="#ffffff" stroke="transparent" points="40.5,-38.2 40.5,-99.2 150.5,-99.2 150.5,-38.2 40.5,-38.2"/>
<polygon fill="#f5f5f5" stroke="transparent" points="40.5,-75.7 40.5,-98.7 150.5,-98.7 150.5,-75.7 40.5,-75.7"/>
<polygon fill="none" stroke="#000000" points="40.5,-75.7 40.5,-98.7 150.5,-98.7 150.5,-75.7 40.5,-75.7"/>
<text text-anchor="start" x="45.0755" y="-84.8" font-family="Helvetica,sans-Serif" font-weight="bold" font-size="11.00" fill="#000000">EMPLOYEES</text>
<text text-anchor="start" x="116.0219" y="-83.8" font-family="Helvetica,sans-Serif" font-size="11.00" fill="#000000">[table]</text>
<polygon fill="none" stroke="#000000" points="40.5,-56.7 40.5,-75.7 150.5,-75.7 150.5,-56.7 40.5,-56.7"/>
<text text-anchor="start" x="43.5" y="-62.8" font-family="Helvetica,sans-Serif" font-size="11.00" fill="#000000">...</text>
<polygon fill="#ffffff" stroke="transparent" points="40.5,-37.7 40.5,-56.7 76.5,-56.7 76.5,-37.7 40.5,-37.7"/>
<polygon fill="none" stroke="#000000" points="40.5,-37.7 40.5,-56.7 76.5,-56.7 76.5,-37.7 40.5,-37.7"/>
<text text-anchor="start" x="43.5" y="-43.8" font-family="Helvetica,sans-Serif" font-size="11.00" fill="#000000">&lt; 1</text>
<polygon fill="#ffffff" stroke="transparent" points="76.5,-37.7 76.5,-56.7 121.5,-56.7 121.5,-37.7 76.5,-37.7"/>
<polygon fill="none" stroke="#000000" points="76.5,-37.7 76.5,-56.7 121.5,-56.7 121.5,-37.7 76.5,-37.7"/>
<text text-anchor="start" x="86.1105" y="-43.8" font-family="Helvetica,sans-Serif" font-size="11.00" fill="#000000">0 rows</text>
<polygon fill="#ffffff" stroke="transparent" points="121.5,-37.7 121.5,-56.7 150.5,-56.7 150.5,-37.7 121.5,-37.7"/>
<polygon fill="none" stroke="#000000" points="121.5,-37.7 121.5,-56.7 150.5,-56.7 150.5,-37.7 121.5,-37.7"/>
<text text-anchor="start" x="131.9053" y="-43.8" font-family="Helvetica,sans-Serif" font-size="11.00" fill="#000000">2 &gt;</text>
</a>
</g>
</g>
<!-- ORDERS&#45;&gt;EMPLOYEES -->
<g id="edge5" class="edge">
<title>ORDERS:w&#45;&gt;EMPLOYEES:e</title>
<path fill="none" stroke="#000000" d="M227.6452,-102.1633C196.5393,-95.0541 189.2019,-65.7 150.5,-65.7"/>
<polygon fill="#000000" stroke="#000000" points="234.0454,-102.8484 241.6168,-107.2795 238.0227,-103.2742 242,-103.7 242,-103.7 242,-103.7 238.0227,-103.2742 242.3832,-100.1205 234.0454,-102.8484 234.0454,-102.8484"/>
<ellipse fill="none" stroke="#000000" cx="230.8636" cy="-102.5078" rx="3.2" ry="3.2"/>
</g>
</g>
</svg>
