<?xml version="1.0" encoding="UTF-8" standalone="no"?>
<!DOCTYPE svg PUBLIC "-//W3C//DTD SVG 1.1//EN"
 "http://www.w3.org/Graphics/SVG/1.1/DTD/svg11.dtd">
<!-- Generated by graphviz version 2.40.1 (20161225.0304)
 -->
<!-- Title: twoDegreesRelationshipsDiagram Pages: 1 -->
<svg width="536pt" height="371pt"
 viewBox="0.00 0.00 536.00 371.20" xmlns="http://www.w3.org/2000/svg" xmlns:xlink="http://www.w3.org/1999/xlink">
<g id="graph0" class="graph" transform="scale(1 1) rotate(0) translate(4 367.2)">
<title>twoDegreesRelationshipsDiagram</title>
<polygon fill="#ffffff" stroke="transparent" points="-4,4 -4,-367.2 532,-367.2 532,4 -4,4"/>
<text text-anchor="middle" x="72.4936" y="-7.3" font-family="Helvetica,sans-Serif" font-size="11.00" fill="#000000">Generated by SchemaSpy</text>
<!-- CONTACTS -->
<g id="node1" class="node">
<title>CONTACTS</title>
<g id="a_node1"><a xlink:href="../../tables/CONTACTS.html" xlink:title="CONTACTS" target="_top">
<polygon fill="#ffffff" stroke="transparent" points="208,-298.2 208,-359.2 311,-359.2 311,-298.2 208,-298.2"/>
<polygon fill="#f5f5f5" stroke="transparent" points="208.5,-335.7 208.5,-358.7 311.5,-358.7 311.5,-335.7 208.5,-335.7"/>
<polygon fill="none" stroke="#000000" points="208.5,-335.7 208.5,-358.7 311.5,-358.7 311.5,-335.7 208.5,-335.7"/>
<text text-anchor="start" x="213.2544" y="-344.8" font-family="Helvetica,sans-Serif" font-weight="bold" font-size="11.00" fill="#000000">CONTACTS</text>
<text text-anchor="start" x="277.0219" y="-343.8" font-family="Helvetica,sans-Serif" font-size="11.00" fill="#000000">[table]</text>
<polygon fill="none" stroke="#000000" points="208.5,-316.7 208.5,-335.7 311.5,-335.7 311.5,-316.7 208.5,-316.7"/>
<text text-anchor="start" x="211.5" y="-322.8" font-family="Helvetica,sans-Serif" font-size="11.00" fill="#000000">...</text>
<polygon fill="#ffffff" stroke="transparent" points="208.5,-297.7 208.5,-316.7 245.5,-316.7 245.5,-297.7 208.5,-297.7"/>
<polygon fill="none" stroke="#000000" points="208.5,-297.7 208.5,-316.7 245.5,-316.7 245.5,-297.7 208.5,-297.7"/>
<text text-anchor="start" x="211.5" y="-303.8" font-family="Helvetica,sans-Serif" font-size="11.00" fill="#000000">&lt; 1</text>
<polygon fill="#ffffff" stroke="transparent" points="245.5,-297.7 245.5,-316.7 291.5,-316.7 291.5,-297.7 245.5,-297.7"/>
<polygon fill="none" stroke="#000000" points="245.5,-297.7 245.5,-316.7 291.5,-316.7 291.5,-297.7 245.5,-297.7"/>
<text text-anchor="start" x="256.1105" y="-303.8" font-family="Helvetica,sans-Serif" font-size="11.00" fill="#000000">0 rows</text>
<polygon fill="#ffffff" stroke="transparent" points="291.5,-297.7 291.5,-316.7 311.5,-316.7 311.5,-297.7 291.5,-297.7"/>
<polygon fill="none" stroke="#000000" points="291.5,-297.7 291.5,-316.7 311.5,-316.7 311.5,-297.7 291.5,-297.7"/>
<text text-anchor="start" x="302.3862" y="-303.8" font-family="Helvetica,sans-Serif" font-size="11.00" fill="#000000"> &#160;</text>
</a>
</g>
</g>
<!-- CUSTOMERS -->
<g id="node2" class="node">
<title>CUSTOMERS</title>
<g id="a_node2"><a xlink:href="../../tables/CUSTOMERS.html" xlink:title="CUSTOMERS" target="_top">
<polygon fill="#ffffff" stroke="transparent" points="8,-253.2 8,-336.2 121,-336.2 121,-253.2 8,-253.2"/>
<polygon fill="#f5f5f5" stroke="transparent" points="8.5,-312.7 8.5,-335.7 121.5,-335.7 121.5,-312.7 8.5,-312.7"/>
<polygon fill="none" stroke="#000000" points="8.5,-312.7 8.5,-335.7 121.5,-335.7 121.5,-312.7 8.5,-312.7"/>
<text text-anchor="start" x="13.3655" y="-321.8" font-family="Helvetica,sans-Serif" font-weight="bold" font-size="11.00" fill="#000000">CUSTOMERS</text>
<text text-anchor="start" x="87.0219" y="-320.8" font-family="Helvetica,sans-Serif" font-size="11.00" fill="#000000">[table]</text>
<polygon fill="none" stroke="#000000" points="8.5,-290.7 8.5,-312.7 121.5,-312.7 121.5,-290.7 8.5,-290.7"/>
<image xlink:href="../../images/primaryKeys.png" width="11px" height="12px" preserveAspectRatio="xMinYMin meet" x="13.5" y="-307.7"/>
<text text-anchor="start" x="31.5" y="-297.8" font-family="Helvetica,sans-Serif" font-size="11.00" fill="#000000">CUSTOMER_ID</text>
<polygon fill="none" stroke="#000000" points="8.5,-271.7 8.5,-290.7 121.5,-290.7 121.5,-271.7 8.5,-271.7"/>
<text text-anchor="start" x="11.5" y="-277.8" font-family="Helvetica,sans-Serif" font-size="11.00" fill="#000000">...</text>
<polygon fill="#ffffff" stroke="transparent" points="8.5,-252.7 8.5,-271.7 41.5,-271.7 41.5,-252.7 8.5,-252.7"/>
<polygon fill="none" stroke="#000000" points="8.5,-252.7 8.5,-271.7 41.5,-271.7 41.5,-252.7 8.5,-252.7"/>
<text text-anchor="start" x="11.5" y="-258.8" font-family="Helvetica,sans-Serif" font-size="11.00" fill="#000000"> &#160;</text>
<polygon fill="#ffffff" stroke="transparent" points="41.5,-252.7 41.5,-271.7 89.5,-271.7 89.5,-252.7 41.5,-252.7"/>
<polygon fill="none" stroke="#000000" points="41.5,-252.7 41.5,-271.7 89.5,-271.7 89.5,-252.7 41.5,-252.7"/>
<text text-anchor="start" x="54.1105" y="-258.8" font-family="Helvetica,sans-Serif" font-size="11.00" fill="#000000">0 rows</text>
<polygon fill="#ffffff" stroke="transparent" points="89.5,-252.7 89.5,-271.7 121.5,-271.7 121.5,-252.7 89.5,-252.7"/>
<polygon fill="none" stroke="#000000" points="89.5,-252.7 89.5,-271.7 121.5,-271.7 121.5,-252.7 89.5,-252.7"/>
<text text-anchor="start" x="102.9053" y="-258.8" font-family="Helvetica,sans-Serif" font-size="11.00" fill="#000000">2 &gt;</text>
</a>
</g>
</g>
<!-- CONTACTS&#45;&gt;CUSTOMERS -->
<g id="edge1" class="edge">
<title>CONTACTS:w&#45;&gt;CUSTOMERS:e</title>
<path fill="none" stroke="#000000" d="M194.126,-324.5424C166.0006,-319.7483 156.2837,-301.7 121.5,-301.7"/>
<polygon fill="#000000" stroke="#000000" points="200.5258,-325.0578 208.211,-329.2884 204.5129,-325.3789 208.5,-325.7 208.5,-325.7 208.5,-325.7 204.5129,-325.3789 208.789,-322.1116 200.5258,-325.0578 200.5258,-325.0578"/>
<ellipse fill="none" stroke="#000000" cx="197.3361" cy="-324.8009" rx="3.2" ry="3.2"/>
</g>
<!-- ORDER_ITEMS -->
<g id="node3" class="node">
<title>ORDER_ITEMS</title>
<g id="a_node3"><a xlink:href="../../tables/ORDER_ITEMS.html" xlink:title="ORDER_ITEMS" target="_top">
<polygon fill="#ffffff" stroke="transparent" points="398,-82.2 398,-209.2 520,-209.2 520,-82.2 398,-82.2"/>
<polygon fill="#f5f5f5" stroke="transparent" points="398,-185.7 398,-208.7 520,-208.7 520,-185.7 398,-185.7"/>
<polygon fill="none" stroke="#000000" points="398,-185.7 398,-208.7 520,-208.7 520,-185.7 398,-185.7"/>
<text text-anchor="start" x="402.7795" y="-194.8" font-family="Helvetica,sans-Serif" font-weight="bold" font-size="11.00" fill="#000000">ORDER_ITEMS</text>
<text text-anchor="start" x="485.5219" y="-193.8" font-family="Helvetica,sans-Serif" font-size="11.00" fill="#000000">[table]</text>
<polygon fill="none" stroke="#000000" points="398,-163.7 398,-185.7 520,-185.7 520,-163.7 398,-163.7"/>
<image xlink:href="../../images/primaryKeys.png" width="11px" height="12px" preserveAspectRatio="xMinYMin meet" x="403" y="-180.7"/>
<text text-anchor="start" x="426" y="-170.8" font-family="Helvetica,sans-Serif" font-size="11.00" fill="#000000">ORDER_ID</text>
<polygon fill="none" stroke="#000000" points="398,-141.7 398,-163.7 520,-163.7 520,-141.7 398,-141.7"/>
<image xlink:href="../../images/primaryKeys.png" width="11px" height="12px" preserveAspectRatio="xMinYMin meet" x="403" y="-158.7"/>
<text text-anchor="start" x="426" y="-148.8" font-family="Helvetica,sans-Serif" font-size="11.00" fill="#000000">ITEM_ID</text>
<polygon fill="none" stroke="#000000" points="398,-119.7 398,-141.7 520,-141.7 520,-119.7 398,-119.7"/>
<image xlink:href="../../images/foreignKeys.png" width="11px" height="12px" preserveAspectRatio="xMinYMin meet" x="403" y="-136.7"/>
<text text-anchor="start" x="426" y="-126.8" font-family="Helvetica,sans-Serif" font-size="11.00" fill="#000000">PRODUCT_ID</text>
<polygon fill="none" stroke="#000000" points="398,-100.7 398,-119.7 520,-119.7 520,-100.7 398,-100.7"/>
<text text-anchor="start" x="401" y="-106.8" font-family="Helvetica,sans-Serif" font-size="11.00" fill="#000000">...</text>
<polygon fill="#ffffff" stroke="transparent" points="398,-81.7 398,-100.7 444,-100.7 444,-81.7 398,-81.7"/>
<polygon fill="none" stroke="#000000" points="398,-81.7 398,-100.7 444,-100.7 444,-81.7 398,-81.7"/>
<text text-anchor="start" x="401" y="-87.8" font-family="Helvetica,sans-Serif" font-size="11.00" fill="#000000">&lt; 2</text>
<polygon fill="#ffffff" stroke="transparent" points="444,-81.7 444,-100.7 495,-100.7 495,-81.7 444,-81.7"/>
<polygon fill="none" stroke="#000000" points="444,-81.7 444,-100.7 495,-100.7 495,-81.7 444,-81.7"/>
<text text-anchor="start" x="459.6105" y="-87.8" font-family="Helvetica,sans-Serif" font-size="11.00" fill="#000000">0 rows</text>
<polygon fill="#ffffff" stroke="transparent" points="495,-81.7 495,-100.7 520,-100.7 520,-81.7 495,-81.7"/>
<polygon fill="none" stroke="#000000" points="495,-81.7 495,-100.7 520,-100.7 520,-81.7 495,-81.7"/>
<text text-anchor="start" x="510.8862" y="-87.8" font-family="Helvetica,sans-Serif" font-size="11.00" fill="#000000"> &#160;</text>
</a>
</g>
</g>
<!-- ORDERS -->
<g id="node4" class="node">
<title>ORDERS</title>
<g id="a_node4"><a xlink:href="../../tables/ORDERS.html" xlink:title="ORDERS" target="_top">
<polygon fill="#ffffff" stroke="transparent" points="170,-120.7 170,-276.7 349,-276.7 349,-120.7 170,-120.7"/>
<polygon fill="#f5f5f5" stroke="transparent" points="172.5,-251.7 172.5,-274.7 347.5,-274.7 347.5,-251.7 172.5,-251.7"/>
<polygon fill="none" stroke="#000000" points="172.5,-251.7 172.5,-274.7 347.5,-274.7 347.5,-251.7 172.5,-251.7"/>
<text text-anchor="start" x="177.5" y="-260.8" font-family="Helvetica,sans-Serif" font-weight="bold" font-size="11.00" fill="#000000">ORDERS</text>
<text text-anchor="start" x="312.5437" y="-259.8" font-family="Helvetica,sans-Serif" font-size="11.00" fill="#000000">[table]</text>
<polygon fill="none" stroke="#000000" points="172.5,-229.7 172.5,-251.7 280.5,-251.7 280.5,-229.7 172.5,-229.7"/>
<image xlink:href="../../images/primaryKeys.png" width="11px" height="12px" preserveAspectRatio="xMinYMin meet" x="177.5" y="-246.7"/>
<text text-anchor="start" x="192.5" y="-236.8" font-family="Helvetica,sans-Serif" font-size="11.00" fill="#000000">ORDER_ID</text>
<polygon fill="none" stroke="#000000" points="280.5,-229.7 280.5,-251.7 347.5,-251.7 347.5,-229.7 280.5,-229.7"/>
<text text-anchor="start" x="283.5" y="-237.4" font-family="Helvetica,sans-Serif" font-size="11.00" fill="#000000">number[0]</text>
<polygon fill="none" stroke="#000000" points="172.5,-207.7 172.5,-229.7 280.5,-229.7 280.5,-207.7 172.5,-207.7"/>
<image xlink:href="../../images/foreignKeys.png" width="11px" height="12px" preserveAspectRatio="xMinYMin meet" x="177.5" y="-224.7"/>
<text text-anchor="start" x="192.5" y="-214.8" font-family="Helvetica,sans-Serif" font-size="11.00" fill="#000000">CUSTOMER_ID</text>
<polygon fill="none" stroke="#000000" points="280.5,-207.7 280.5,-229.7 347.5,-229.7 347.5,-207.7 280.5,-207.7"/>
<text text-anchor="start" x="283.5" y="-215.4" font-family="Helvetica,sans-Serif" font-size="11.00" fill="#000000">number[6]</text>
<polygon fill="none" stroke="#000000" points="172.5,-185.7 172.5,-207.7 280.5,-207.7 280.5,-185.7 172.5,-185.7"/>
<text text-anchor="start" x="192.5" y="-192.8" font-family="Helvetica,sans-Serif" font-size="11.00" fill="#000000">STATUS</text>
<polygon fill="none" stroke="#000000" points="280.5,-185.7 280.5,-207.7 347.5,-207.7 347.5,-185.7 280.5,-185.7"/>
<text text-anchor="start" x="283.4365" y="-193.4" font-family="Helvetica,sans-Serif" font-size="11.00" fill="#000000">varchar2[20]</text>
<polygon fill="none" stroke="#000000" points="172.5,-163.7 172.5,-185.7 280.5,-185.7 280.5,-163.7 172.5,-163.7"/>
<image xlink:href="../../images/foreignKeys.png" width="11px" height="12px" preserveAspectRatio="xMinYMin meet" x="177.5" y="-180.7"/>
<text text-anchor="start" x="192.5" y="-170.8" font-family="Helvetica,sans-Serif" font-size="11.00" fill="#000000">SALESMAN_ID</text>
<polygon fill="none" stroke="#000000" points="280.5,-163.7 280.5,-185.7 347.5,-185.7 347.5,-163.7 280.5,-163.7"/>
<text text-anchor="start" x="283.5" y="-171.4" font-family="Helvetica,sans-Serif" font-size="11.00" fill="#000000">number[6]</text>
<polygon fill="none" stroke="#000000" points="172.5,-141.7 172.5,-163.7 280.5,-163.7 280.5,-141.7 172.5,-141.7"/>
<text text-anchor="start" x="192.5" y="-148.8" font-family="Helvetica,sans-Serif" font-size="11.00" fill="#000000">ORDER_DATE</text>
<polygon fill="none" stroke="#000000" points="280.5,-141.7 280.5,-163.7 347.5,-163.7 347.5,-141.7 280.5,-141.7"/>
<text text-anchor="start" x="283.5" y="-149.4" font-family="Helvetica,sans-Serif" font-size="11.00" fill="#000000">date[7]</text>
<polygon fill="#ffffff" stroke="transparent" points="172.5,-122.7 172.5,-141.7 217.5,-141.7 217.5,-122.7 172.5,-122.7"/>
<polygon fill="none" stroke="#000000" points="172.5,-122.7 172.5,-141.7 217.5,-141.7 217.5,-122.7 172.5,-122.7"/>
<text text-anchor="start" x="175.5" y="-128.8" font-family="Helvetica,sans-Serif" font-size="11.00" fill="#000000">&lt; 2</text>
<polygon fill="#ffffff" stroke="transparent" points="217.5,-122.7 217.5,-141.7 280.5,-141.7 280.5,-122.7 217.5,-122.7"/>
<polygon fill="none" stroke="#000000" points="217.5,-122.7 217.5,-141.7 280.5,-141.7 280.5,-122.7 217.5,-122.7"/>
<text text-anchor="start" x="245.1105" y="-128.8" font-family="Helvetica,sans-Serif" font-size="11.00" fill="#000000">0 rows</text>
<polygon fill="#ffffff" stroke="transparent" points="280.5,-122.7 280.5,-141.7 347.5,-141.7 347.5,-122.7 280.5,-122.7"/>
<polygon fill="none" stroke="#000000" points="280.5,-122.7 280.5,-141.7 347.5,-141.7 347.5,-122.7 280.5,-122.7"/>
<text text-anchor="start" x="328.9053" y="-128.8" font-family="Helvetica,sans-Serif" font-size="11.00" fill="#000000">1 &gt;</text>
<polygon fill="none" stroke="#000000" stroke-width="2" points="171,-121.7 171,-275.7 348,-275.7 348,-121.7 171,-121.7"/>
</a>
</g>
</g>
<!-- ORDER_ITEMS&#45;&gt;ORDERS -->
<g id="edge2" class="edge">
<title>ORDER_ITEMS:w&#45;&gt;ORDERS:e</title>
<path fill="none" stroke="#000000" d="M384.158,-179.4466C367.1101,-194.5798 378.3754,-240.7 347.5,-240.7"/>
<polygon fill="#000000" stroke="#000000" points="390.4326,-177.295 399.1677,-178.1054 394.2163,-175.9975 398,-174.7 398,-174.7 398,-174.7 394.2163,-175.9975 396.8323,-171.2946 390.4326,-177.295 390.4326,-177.295"/>
<ellipse fill="none" stroke="#000000" cx="387.4056" cy="-178.333" rx="3.2" ry="3.2"/>
</g>
<!-- PRODUCTS -->
<g id="node5" class="node">
<title>PRODUCTS</title>
<g id="a_node5"><a xlink:href="../../tables/PRODUCTS.html" xlink:title="PRODUCTS" target="_top">
<polygon fill="#ffffff" stroke="transparent" points="207.5,-38.2 207.5,-99.2 311.5,-99.2 311.5,-38.2 207.5,-38.2"/>
<polygon fill="#f5f5f5" stroke="transparent" points="207.5,-75.7 207.5,-98.7 311.5,-98.7 311.5,-75.7 207.5,-75.7"/>
<polygon fill="none" stroke="#000000" points="207.5,-75.7 207.5,-98.7 311.5,-98.7 311.5,-75.7 207.5,-75.7"/>
<text text-anchor="start" x="212.1439" y="-84.8" font-family="Helvetica,sans-Serif" font-weight="bold" font-size="11.00" fill="#000000">PRODUCTS</text>
<text text-anchor="start" x="277.0219" y="-83.8" font-family="Helvetica,sans-Serif" font-size="11.00" fill="#000000">[table]</text>
<polygon fill="none" stroke="#000000" points="207.5,-56.7 207.5,-75.7 311.5,-75.7 311.5,-56.7 207.5,-56.7"/>
<text text-anchor="start" x="210.5" y="-62.8" font-family="Helvetica,sans-Serif" font-size="11.00" fill="#000000">...</text>
<polygon fill="#ffffff" stroke="transparent" points="207.5,-37.7 207.5,-56.7 240.5,-56.7 240.5,-37.7 207.5,-37.7"/>
<polygon fill="none" stroke="#000000" points="207.5,-37.7 207.5,-56.7 240.5,-56.7 240.5,-37.7 207.5,-37.7"/>
<text text-anchor="start" x="210.5" y="-43.8" font-family="Helvetica,sans-Serif" font-size="11.00" fill="#000000">&lt; 1</text>
<polygon fill="#ffffff" stroke="transparent" points="240.5,-37.7 240.5,-56.7 284.5,-56.7 284.5,-37.7 240.5,-37.7"/>
<polygon fill="none" stroke="#000000" points="240.5,-37.7 240.5,-56.7 284.5,-56.7 284.5,-37.7 240.5,-37.7"/>
<text text-anchor="start" x="249.1105" y="-43.8" font-family="Helvetica,sans-Serif" font-size="11.00" fill="#000000">0 rows</text>
<polygon fill="#ffffff" stroke="transparent" points="284.5,-37.7 284.5,-56.7 311.5,-56.7 311.5,-37.7 284.5,-37.7"/>
<polygon fill="none" stroke="#000000" points="284.5,-37.7 284.5,-56.7 311.5,-56.7 311.5,-37.7 284.5,-37.7"/>
<text text-anchor="start" x="292.9053" y="-43.8" font-family="Helvetica,sans-Serif" font-size="11.00" fill="#000000">2 &gt;</text>
</a>
</g>
</g>
<!-- ORDER_ITEMS&#45;&gt;PRODUCTS -->
<g id="edge3" class="edge">
<title>ORDER_ITEMS:w&#45;&gt;PRODUCTS:e</title>
<path fill="none" stroke="#000000" d="M383.7132,-128.3866C351.3624,-116.8076 354.1413,-65.7 311.5,-65.7"/>
<polygon fill="#000000" stroke="#000000" points="390.1029,-129.4212 397.4245,-134.2537 394.0514,-130.0606 398,-130.7 398,-130.7 398,-130.7 394.0514,-130.0606 398.5755,-127.1463 390.1029,-129.4212 390.1029,-129.4212"/>
<ellipse fill="none" stroke="#000000" cx="386.944" cy="-128.9097" rx="3.2" ry="3.2"/>
</g>
<!-- ORDERS&#45;&gt;CUSTOMERS -->
<g id="edge4" class="edge">
<title>ORDERS:w&#45;&gt;CUSTOMERS:e</title>
<path fill="none" stroke="#000000" d="M158.4758,-223.1624C137.6541,-240.4024 158.7077,-301.7 121.5,-301.7"/>
<polygon fill="#000000" stroke="#000000" points="164.8766,-221.1258 173.5916,-222.1305 168.6883,-219.9129 172.5,-218.7 172.5,-218.7 172.5,-218.7 168.6883,-219.9129 171.4084,-215.2695 164.8766,-221.1258 164.8766,-221.1258"/>
<ellipse fill="none" stroke="#000000" cx="161.8273" cy="-222.0961" rx="3.2" ry="3.2"/>
</g>
<!-- EMPLOYEES -->
<g id="node6" class="node">
<title>EMPLOYEES</title>
<g id="a_node6"><a xlink:href="../../tables/EMPLOYEES.html" xlink:title="EMPLOYEES" target="_top">
<polygon fill="#ffffff" stroke="transparent" points="9.5,-104.2 9.5,-209.2 119.5,-209.2 119.5,-104.2 9.5,-104.2"/>
<polygon fill="#f5f5f5" stroke="transparent" points="9.5,-185.7 9.5,-208.7 119.5,-208.7 119.5,-185.7 9.5,-185.7"/>
<polygon fill="none" stroke="#000000" points="9.5,-185.7 9.5,-208.7 119.5,-208.7 119.5,-185.7 9.5,-185.7"/>
<text text-anchor="start" x="14.0755" y="-194.8" font-family="Helvetica,sans-Serif" font-weight="bold" font-size="11.00" fill="#000000">EMPLOYEES</text>
<text text-anchor="start" x="85.0219" y="-193.8" font-family="Helvetica,sans-Serif" font-size="11.00" fill="#000000">[table]</text>
<polygon fill="none" stroke="#000000" points="9.5,-163.7 9.5,-185.7 119.5,-185.7 119.5,-163.7 9.5,-163.7"/>
<image xlink:href="../../images/primaryKeys.png" width="11px" height="12px" preserveAspectRatio="xMinYMin meet" x="14.5" y="-180.7"/>
<text text-anchor="start" x="31.5" y="-170.8" font-family="Helvetica,sans-Serif" font-size="11.00" fill="#000000">EMPLOYEE_ID</text>
<polygon fill="none" stroke="#000000" points="9.5,-141.7 9.5,-163.7 119.5,-163.7 119.5,-141.7 9.5,-141.7"/>
<image xlink:href="../../images/foreignKeys.png" width="11px" height="12px" preserveAspectRatio="xMinYMin meet" x="14.5" y="-158.7"/>
<text text-anchor="start" x="31.5" y="-148.8" font-family="Helvetica,sans-Serif" font-size="11.00" fill="#000000">MANAGER_ID</text>
<polygon fill="none" stroke="#000000" points="9.5,-122.7 9.5,-141.7 119.5,-141.7 119.5,-122.7 9.5,-122.7"/>
<text text-anchor="start" x="12.5" y="-128.8" font-family="Helvetica,sans-Serif" font-size="11.00" fill="#000000">...</text>
<polygon fill="#ffffff" stroke="transparent" points="9.5,-103.7 9.5,-122.7 45.5,-122.7 45.5,-103.7 9.5,-103.7"/>
<polygon fill="none" stroke="#000000" points="9.5,-103.7 9.5,-122.7 45.5,-122.7 45.5,-103.7 9.5,-103.7"/>
<text text-anchor="start" x="12.5" y="-109.8" font-family="Helvetica,sans-Serif" font-size="11.00" fill="#000000">&lt; 1</text>
<polygon fill="#ffffff" stroke="transparent" points="45.5,-103.7 45.5,-122.7 90.5,-122.7 90.5,-103.7 45.5,-103.7"/>
<polygon fill="none" stroke="#000000" points="45.5,-103.7 45.5,-122.7 90.5,-122.7 90.5,-103.7 45.5,-103.7"/>
<text text-anchor="start" x="55.1105" y="-109.8" font-family="Helvetica,sans-Serif" font-size="11.00" fill="#000000">0 rows</text>
<polygon fill="#ffffff" stroke="transparent" points="90.5,-103.7 90.5,-122.7 119.5,-122.7 119.5,-103.7 90.5,-103.7"/>
<polygon fill="none" stroke="#000000" points="90.5,-103.7 90.5,-122.7 119.5,-122.7 119.5,-103.7 90.5,-103.7"/>
<text text-anchor="start" x="100.9053" y="-109.8" font-family="Helvetica,sans-Serif" font-size="11.00" fill="#000000">2 &gt;</text>
</a>
</g>
</g>
<!-- ORDERS&#45;&gt;EMPLOYEES -->
<g id="edge5" class="edge">
<title>ORDERS:w&#45;&gt;EMPLOYEES:e</title>
<path fill="none" stroke="#000000" d="M157.9922,-174.7C145.0558,-174.7 137.3507,-174.7 119.5,-174.7"/>
<polygon fill="#000000" stroke="#000000" points="164.5,-174.7001 172.5,-178.3 168.5,-174.7 172.5,-174.7 172.5,-174.7 172.5,-174.7 168.5,-174.7 172.5,-171.1 164.5,-174.7001 164.5,-174.7001"/>
<ellipse fill="none" stroke="#000000" cx="161.3" cy="-174.7001" rx="3.2" ry="3.2"/>
</g>
</g>
</svg>
