<?xml version="1.0" encoding="UTF-8" standalone="no"?>
<!DOCTYPE svg PUBLIC "-//W3C//DTD SVG 1.1//EN"
 "http://www.w3.org/Graphics/SVG/1.1/DTD/svg11.dtd">
<!-- Generated by graphviz version 2.40.1 (20161225.0304)
 -->
<!-- Title: oneDegreeRelationshipsDiagram Pages: 1 -->
<svg width="376pt" height="303pt"
 viewBox="0.00 0.00 376.00 303.20" xmlns="http://www.w3.org/2000/svg" xmlns:xlink="http://www.w3.org/1999/xlink">
<g id="graph0" class="graph" transform="scale(1 1) rotate(0) translate(4 299.2)">
<title>oneDegreeRelationshipsDiagram</title>
<polygon fill="#ffffff" stroke="transparent" points="-4,4 -4,-299.2 372,-299.2 372,4 -4,4"/>
<text text-anchor="middle" x="72.4936" y="-7.3" font-family="Helvetica,sans-Serif" font-size="11.00" fill="#000000">Generated by SchemaSpy</text>
<!-- ORDER_ITEMS -->
<g id="node1" class="node">
<title>ORDER_ITEMS</title>
<g id="a_node1"><a xlink:href="../../tables/ORDER_ITEMS.html" xlink:title="ORDER_ITEMS" target="_top">
<polygon fill="#ffffff" stroke="transparent" points="185,-84.7 185,-240.7 360,-240.7 360,-84.7 185,-84.7"/>
<polygon fill="#f5f5f5" stroke="transparent" points="187.5,-215.7 187.5,-238.7 358.5,-238.7 358.5,-215.7 187.5,-215.7"/>
<polygon fill="none" stroke="#000000" points="187.5,-215.7 187.5,-238.7 358.5,-238.7 358.5,-215.7 187.5,-215.7"/>
<text text-anchor="start" x="192.5" y="-224.8" font-family="Helvetica,sans-Serif" font-weight="bold" font-size="11.00" fill="#000000">ORDER_ITEMS</text>
<text text-anchor="start" x="323.5437" y="-223.8" font-family="Helvetica,sans-Serif" font-size="11.00" fill="#000000">[table]</text>
<polygon fill="none" stroke="#000000" points="187.5,-193.7 187.5,-215.7 294.5,-215.7 294.5,-193.7 187.5,-193.7"/>
<image xlink:href="../../images/primaryKeys.png" width="11px" height="12px" preserveAspectRatio="xMinYMin meet" x="192.5" y="-210.7"/>
<text text-anchor="start" x="207.5" y="-200.8" font-family="Helvetica,sans-Serif" font-size="11.00" fill="#000000">ORDER_ID</text>
<polygon fill="none" stroke="#000000" points="294.5,-193.7 294.5,-215.7 358.5,-215.7 358.5,-193.7 294.5,-193.7"/>
<text text-anchor="start" x="297.5" y="-201.4" font-family="Helvetica,sans-Serif" font-size="11.00" fill="#000000">number[12]</text>
<polygon fill="none" stroke="#000000" points="187.5,-171.7 187.5,-193.7 294.5,-193.7 294.5,-171.7 187.5,-171.7"/>
<image xlink:href="../../images/primaryKeys.png" width="11px" height="12px" preserveAspectRatio="xMinYMin meet" x="192.5" y="-188.7"/>
<text text-anchor="start" x="207.5" y="-178.8" font-family="Helvetica,sans-Serif" font-size="11.00" fill="#000000">ITEM_ID</text>
<polygon fill="none" stroke="#000000" points="294.5,-171.7 294.5,-193.7 358.5,-193.7 358.5,-171.7 294.5,-171.7"/>
<text text-anchor="start" x="297.5" y="-179.4" font-family="Helvetica,sans-Serif" font-size="11.00" fill="#000000">number[12]</text>
<polygon fill="none" stroke="#000000" points="187.5,-149.7 187.5,-171.7 294.5,-171.7 294.5,-149.7 187.5,-149.7"/>
<image xlink:href="../../images/foreignKeys.png" width="11px" height="12px" preserveAspectRatio="xMinYMin meet" x="192.5" y="-166.7"/>
<text text-anchor="start" x="207.5" y="-156.8" font-family="Helvetica,sans-Serif" font-size="11.00" fill="#000000">PRODUCT_ID</text>
<polygon fill="none" stroke="#000000" points="294.5,-149.7 294.5,-171.7 358.5,-171.7 358.5,-149.7 294.5,-149.7"/>
<text text-anchor="start" x="297.5" y="-157.4" font-family="Helvetica,sans-Serif" font-size="11.00" fill="#000000">number[12]</text>
<polygon fill="none" stroke="#000000" points="187.5,-127.7 187.5,-149.7 294.5,-149.7 294.5,-127.7 187.5,-127.7"/>
<text text-anchor="start" x="207.5" y="-134.8" font-family="Helvetica,sans-Serif" font-size="11.00" fill="#000000">QUANTITY</text>
<polygon fill="none" stroke="#000000" points="294.5,-127.7 294.5,-149.7 358.5,-149.7 358.5,-127.7 294.5,-127.7"/>
<text text-anchor="start" x="297.1581" y="-135.4" font-family="Helvetica,sans-Serif" font-size="11.00" fill="#000000">number[8,2]</text>
<polygon fill="none" stroke="#000000" points="187.5,-105.7 187.5,-127.7 294.5,-127.7 294.5,-105.7 187.5,-105.7"/>
<text text-anchor="start" x="207.5" y="-112.8" font-family="Helvetica,sans-Serif" font-size="11.00" fill="#000000">UNIT_PRICE</text>
<polygon fill="none" stroke="#000000" points="294.5,-105.7 294.5,-127.7 358.5,-127.7 358.5,-105.7 294.5,-105.7"/>
<text text-anchor="start" x="297.1581" y="-113.4" font-family="Helvetica,sans-Serif" font-size="11.00" fill="#000000">number[8,2]</text>
<polygon fill="#ffffff" stroke="transparent" points="187.5,-86.7 187.5,-105.7 232.5,-105.7 232.5,-86.7 187.5,-86.7"/>
<polygon fill="none" stroke="#000000" points="187.5,-86.7 187.5,-105.7 232.5,-105.7 232.5,-86.7 187.5,-86.7"/>
<text text-anchor="start" x="190.5" y="-92.8" font-family="Helvetica,sans-Serif" font-size="11.00" fill="#000000">&lt; 2</text>
<polygon fill="#ffffff" stroke="transparent" points="232.5,-86.7 232.5,-105.7 294.5,-105.7 294.5,-86.7 232.5,-86.7"/>
<polygon fill="none" stroke="#000000" points="232.5,-86.7 232.5,-105.7 294.5,-105.7 294.5,-86.7 232.5,-86.7"/>
<text text-anchor="start" x="259.1105" y="-92.8" font-family="Helvetica,sans-Serif" font-size="11.00" fill="#000000">0 rows</text>
<polygon fill="#ffffff" stroke="transparent" points="294.5,-86.7 294.5,-105.7 358.5,-105.7 358.5,-86.7 294.5,-86.7"/>
<polygon fill="none" stroke="#000000" points="294.5,-86.7 294.5,-105.7 358.5,-105.7 358.5,-86.7 294.5,-86.7"/>
<text text-anchor="start" x="339.9053" y="-92.8" font-family="Helvetica,sans-Serif" font-size="11.00" fill="#000000">0 &gt;</text>
<polygon fill="none" stroke="#000000" stroke-width="2" points="186,-85.7 186,-239.7 359,-239.7 359,-85.7 186,-85.7"/>
</a>
</g>
</g>
<!-- ORDERS -->
<g id="node2" class="node">
<title>ORDERS</title>
<g id="a_node2"><a xlink:href="../../tables/ORDERS.html" xlink:title="ORDERS" target="_top">
<polygon fill="#ffffff" stroke="transparent" points="18,-164.2 18,-291.2 126,-291.2 126,-164.2 18,-164.2"/>
<polygon fill="#f5f5f5" stroke="transparent" points="18,-267.7 18,-290.7 126,-290.7 126,-267.7 18,-267.7"/>
<polygon fill="none" stroke="#000000" points="18,-267.7 18,-290.7 126,-290.7 126,-267.7 18,-267.7"/>
<text text-anchor="start" x="23" y="-276.8" font-family="Helvetica,sans-Serif" font-weight="bold" font-size="11.00" fill="#000000">ORDERS</text>
<text text-anchor="start" x="91.0437" y="-275.8" font-family="Helvetica,sans-Serif" font-size="11.00" fill="#000000">[table]</text>
<polygon fill="none" stroke="#000000" points="18,-245.7 18,-267.7 126,-267.7 126,-245.7 18,-245.7"/>
<image xlink:href="../../images/primaryKeys.png" width="11px" height="12px" preserveAspectRatio="xMinYMin meet" x="23" y="-262.7"/>
<text text-anchor="start" x="38" y="-252.8" font-family="Helvetica,sans-Serif" font-size="11.00" fill="#000000">ORDER_ID</text>
<polygon fill="none" stroke="#000000" points="18,-223.7 18,-245.7 126,-245.7 126,-223.7 18,-223.7"/>
<image xlink:href="../../images/foreignKeys.png" width="11px" height="12px" preserveAspectRatio="xMinYMin meet" x="23" y="-240.7"/>
<text text-anchor="start" x="38" y="-230.8" font-family="Helvetica,sans-Serif" font-size="11.00" fill="#000000">CUSTOMER_ID</text>
<polygon fill="none" stroke="#000000" points="18,-201.7 18,-223.7 126,-223.7 126,-201.7 18,-201.7"/>
<image xlink:href="../../images/foreignKeys.png" width="11px" height="12px" preserveAspectRatio="xMinYMin meet" x="23" y="-218.7"/>
<text text-anchor="start" x="38" y="-208.8" font-family="Helvetica,sans-Serif" font-size="11.00" fill="#000000">SALESMAN_ID</text>
<polygon fill="none" stroke="#000000" points="18,-182.7 18,-201.7 126,-201.7 126,-182.7 18,-182.7"/>
<text text-anchor="start" x="21" y="-188.8" font-family="Helvetica,sans-Serif" font-size="11.00" fill="#000000">...</text>
<polygon fill="#ffffff" stroke="transparent" points="18,-163.7 18,-182.7 53,-182.7 53,-163.7 18,-163.7"/>
<polygon fill="none" stroke="#000000" points="18,-163.7 18,-182.7 53,-182.7 53,-163.7 18,-163.7"/>
<text text-anchor="start" x="21" y="-169.8" font-family="Helvetica,sans-Serif" font-size="11.00" fill="#000000">&lt; 2</text>
<polygon fill="#ffffff" stroke="transparent" points="53,-163.7 53,-182.7 98,-182.7 98,-163.7 53,-163.7"/>
<polygon fill="none" stroke="#000000" points="53,-163.7 53,-182.7 98,-182.7 98,-163.7 53,-163.7"/>
<text text-anchor="start" x="62.6105" y="-169.8" font-family="Helvetica,sans-Serif" font-size="11.00" fill="#000000">0 rows</text>
<polygon fill="#ffffff" stroke="transparent" points="98,-163.7 98,-182.7 126,-182.7 126,-163.7 98,-163.7"/>
<polygon fill="none" stroke="#000000" points="98,-163.7 98,-182.7 126,-182.7 126,-163.7 98,-163.7"/>
<text text-anchor="start" x="107.4053" y="-169.8" font-family="Helvetica,sans-Serif" font-size="11.00" fill="#000000">1 &gt;</text>
</a>
</g>
</g>
<!-- ORDER_ITEMS&#45;&gt;ORDERS -->
<g id="edge1" class="edge">
<title>ORDER_ITEMS:w&#45;&gt;ORDERS:e</title>
<path fill="none" stroke="#000000" d="M173.4557,-208.2742C153.7603,-220.0224 156.0617,-256.7 126,-256.7"/>
<polygon fill="#000000" stroke="#000000" points="179.7471,-206.6731 188.3879,-208.1888 183.6236,-205.6865 187.5,-204.7 187.5,-204.7 187.5,-204.7 183.6236,-205.6865 186.6121,-201.2112 179.7471,-206.6731 179.7471,-206.6731"/>
<ellipse fill="none" stroke="#000000" cx="176.646" cy="-207.4623" rx="3.2" ry="3.2"/>
</g>
<!-- PRODUCTS -->
<g id="node3" class="node">
<title>PRODUCTS</title>
<g id="a_node3"><a xlink:href="../../tables/PRODUCTS.html" xlink:title="PRODUCTS" target="_top">
<polygon fill="#ffffff" stroke="transparent" points="8,-38.2 8,-143.2 136,-143.2 136,-38.2 8,-38.2"/>
<polygon fill="#f5f5f5" stroke="transparent" points="8,-119.7 8,-142.7 136,-142.7 136,-119.7 8,-119.7"/>
<polygon fill="none" stroke="#000000" points="8,-119.7 8,-142.7 136,-142.7 136,-119.7 8,-119.7"/>
<text text-anchor="start" x="13" y="-128.8" font-family="Helvetica,sans-Serif" font-weight="bold" font-size="11.00" fill="#000000">PRODUCTS</text>
<text text-anchor="start" x="101.0437" y="-127.8" font-family="Helvetica,sans-Serif" font-size="11.00" fill="#000000">[table]</text>
<polygon fill="none" stroke="#000000" points="8,-97.7 8,-119.7 136,-119.7 136,-97.7 8,-97.7"/>
<image xlink:href="../../images/primaryKeys.png" width="11px" height="12px" preserveAspectRatio="xMinYMin meet" x="13" y="-114.7"/>
<text text-anchor="start" x="28" y="-104.8" font-family="Helvetica,sans-Serif" font-size="11.00" fill="#000000">PRODUCT_ID</text>
<polygon fill="none" stroke="#000000" points="8,-75.7 8,-97.7 136,-97.7 136,-75.7 8,-75.7"/>
<image xlink:href="../../images/foreignKeys.png" width="11px" height="12px" preserveAspectRatio="xMinYMin meet" x="13" y="-92.7"/>
<text text-anchor="start" x="28" y="-82.8" font-family="Helvetica,sans-Serif" font-size="11.00" fill="#000000">CATEGORY_ID</text>
<polygon fill="none" stroke="#000000" points="8,-56.7 8,-75.7 136,-75.7 136,-56.7 8,-56.7"/>
<text text-anchor="start" x="11" y="-62.8" font-family="Helvetica,sans-Serif" font-size="11.00" fill="#000000">...</text>
<polygon fill="#ffffff" stroke="transparent" points="8,-37.7 8,-56.7 53,-56.7 53,-37.7 8,-37.7"/>
<polygon fill="none" stroke="#000000" points="8,-37.7 8,-56.7 53,-56.7 53,-37.7 8,-37.7"/>
<text text-anchor="start" x="11" y="-43.8" font-family="Helvetica,sans-Serif" font-size="11.00" fill="#000000">&lt; 1</text>
<polygon fill="#ffffff" stroke="transparent" points="53,-37.7 53,-56.7 103,-56.7 103,-37.7 53,-37.7"/>
<polygon fill="none" stroke="#000000" points="53,-37.7 53,-56.7 103,-56.7 103,-37.7 53,-37.7"/>
<text text-anchor="start" x="67.6105" y="-43.8" font-family="Helvetica,sans-Serif" font-size="11.00" fill="#000000">0 rows</text>
<polygon fill="#ffffff" stroke="transparent" points="103,-37.7 103,-56.7 136,-56.7 136,-37.7 103,-37.7"/>
<polygon fill="none" stroke="#000000" points="103,-37.7 103,-56.7 136,-56.7 136,-37.7 103,-37.7"/>
<text text-anchor="start" x="117.4053" y="-43.8" font-family="Helvetica,sans-Serif" font-size="11.00" fill="#000000">2 &gt;</text>
</a>
</g>
</g>
<!-- ORDER_ITEMS&#45;&gt;PRODUCTS -->
<g id="edge2" class="edge">
<title>ORDER_ITEMS:w&#45;&gt;PRODUCTS:e</title>
<path fill="none" stroke="#000000" d="M173.4561,-155.9012C158.4356,-143.0281 162.4284,-108.7 136,-108.7"/>
<polygon fill="#000000" stroke="#000000" points="179.9297,-158.1132 186.3359,-164.1066 183.7149,-159.4066 187.5,-160.7 187.5,-160.7 187.5,-160.7 183.7149,-159.4066 188.6641,-157.2934 179.9297,-158.1132 179.9297,-158.1132"/>
<ellipse fill="none" stroke="#000000" cx="176.9016" cy="-157.0785" rx="3.2" ry="3.2"/>
</g>
</g>
</svg>
