<?xml version="1.0" encoding="UTF-8" standalone="no"?>
<!DOCTYPE svg PUBLIC "-//W3C//DTD SVG 1.1//EN"
 "http://www.w3.org/Graphics/SVG/1.1/DTD/svg11.dtd">
<!-- Generated by graphviz version 2.40.1 (20161225.0304)
 -->
<!-- Title: oneDegreeRelationshipsDiagram Pages: 1 -->
<svg width="536pt" height="259pt"
 viewBox="0.00 0.00 536.00 259.20" xmlns="http://www.w3.org/2000/svg" xmlns:xlink="http://www.w3.org/1999/xlink">
<g id="graph0" class="graph" transform="scale(1 1) rotate(0) translate(4 255.2)">
<title>oneDegreeRelationshipsDiagram</title>
<polygon fill="#ffffff" stroke="transparent" points="-4,4 -4,-255.2 532,-255.2 532,4 -4,4"/>
<text text-anchor="middle" x="72.4936" y="-7.3" font-family="Helvetica,sans-Serif" font-size="11.00" fill="#000000">Generated by SchemaSpy</text>
<!-- ORDER_ITEMS -->
<g id="node1" class="node">
<title>ORDER_ITEMS</title>
<g id="a_node1"><a xlink:href="../../tables/ORDER_ITEMS.html" xlink:title="ORDER_ITEMS" target="_top">
<polygon fill="#ffffff" stroke="transparent" points="398,-112.2 398,-239.2 520,-239.2 520,-112.2 398,-112.2"/>
<polygon fill="#f5f5f5" stroke="transparent" points="398,-215.7 398,-238.7 520,-238.7 520,-215.7 398,-215.7"/>
<polygon fill="none" stroke="#000000" points="398,-215.7 398,-238.7 520,-238.7 520,-215.7 398,-215.7"/>
<text text-anchor="start" x="402.7795" y="-224.8" font-family="Helvetica,sans-Serif" font-weight="bold" font-size="11.00" fill="#000000">ORDER_ITEMS</text>
<text text-anchor="start" x="485.5219" y="-223.8" font-family="Helvetica,sans-Serif" font-size="11.00" fill="#000000">[table]</text>
<polygon fill="none" stroke="#000000" points="398,-193.7 398,-215.7 520,-215.7 520,-193.7 398,-193.7"/>
<image xlink:href="../../images/primaryKeys.png" width="11px" height="12px" preserveAspectRatio="xMinYMin meet" x="403" y="-210.7"/>
<text text-anchor="start" x="426" y="-200.8" font-family="Helvetica,sans-Serif" font-size="11.00" fill="#000000">ORDER_ID</text>
<polygon fill="none" stroke="#000000" points="398,-171.7 398,-193.7 520,-193.7 520,-171.7 398,-171.7"/>
<image xlink:href="../../images/primaryKeys.png" width="11px" height="12px" preserveAspectRatio="xMinYMin meet" x="403" y="-188.7"/>
<text text-anchor="start" x="426" y="-178.8" font-family="Helvetica,sans-Serif" font-size="11.00" fill="#000000">ITEM_ID</text>
<polygon fill="none" stroke="#000000" points="398,-149.7 398,-171.7 520,-171.7 520,-149.7 398,-149.7"/>
<image xlink:href="../../images/foreignKeys.png" width="11px" height="12px" preserveAspectRatio="xMinYMin meet" x="403" y="-166.7"/>
<text text-anchor="start" x="426" y="-156.8" font-family="Helvetica,sans-Serif" font-size="11.00" fill="#000000">PRODUCT_ID</text>
<polygon fill="none" stroke="#000000" points="398,-130.7 398,-149.7 520,-149.7 520,-130.7 398,-130.7"/>
<text text-anchor="start" x="401" y="-136.8" font-family="Helvetica,sans-Serif" font-size="11.00" fill="#000000">...</text>
<polygon fill="#ffffff" stroke="transparent" points="398,-111.7 398,-130.7 444,-130.7 444,-111.7 398,-111.7"/>
<polygon fill="none" stroke="#000000" points="398,-111.7 398,-130.7 444,-130.7 444,-111.7 398,-111.7"/>
<text text-anchor="start" x="401" y="-117.8" font-family="Helvetica,sans-Serif" font-size="11.00" fill="#000000">&lt; 2</text>
<polygon fill="#ffffff" stroke="transparent" points="444,-111.7 444,-130.7 495,-130.7 495,-111.7 444,-111.7"/>
<polygon fill="none" stroke="#000000" points="444,-111.7 444,-130.7 495,-130.7 495,-111.7 444,-111.7"/>
<text text-anchor="start" x="459.6105" y="-117.8" font-family="Helvetica,sans-Serif" font-size="11.00" fill="#000000">0 rows</text>
<polygon fill="#ffffff" stroke="transparent" points="495,-111.7 495,-130.7 520,-130.7 520,-111.7 495,-111.7"/>
<polygon fill="none" stroke="#000000" points="495,-111.7 495,-130.7 520,-130.7 520,-111.7 495,-111.7"/>
<text text-anchor="start" x="510.8862" y="-117.8" font-family="Helvetica,sans-Serif" font-size="11.00" fill="#000000"> &#160;</text>
</a>
</g>
</g>
<!-- ORDERS -->
<g id="node2" class="node">
<title>ORDERS</title>
<g id="a_node2"><a xlink:href="../../tables/ORDERS.html" xlink:title="ORDERS" target="_top">
<polygon fill="#ffffff" stroke="transparent" points="170,-84.7 170,-240.7 349,-240.7 349,-84.7 170,-84.7"/>
<polygon fill="#f5f5f5" stroke="transparent" points="172.5,-215.7 172.5,-238.7 347.5,-238.7 347.5,-215.7 172.5,-215.7"/>
<polygon fill="none" stroke="#000000" points="172.5,-215.7 172.5,-238.7 347.5,-238.7 347.5,-215.7 172.5,-215.7"/>
<text text-anchor="start" x="177.5" y="-224.8" font-family="Helvetica,sans-Serif" font-weight="bold" font-size="11.00" fill="#000000">ORDERS</text>
<text text-anchor="start" x="312.5437" y="-223.8" font-family="Helvetica,sans-Serif" font-size="11.00" fill="#000000">[table]</text>
<polygon fill="none" stroke="#000000" points="172.5,-193.7 172.5,-215.7 280.5,-215.7 280.5,-193.7 172.5,-193.7"/>
<image xlink:href="../../images/primaryKeys.png" width="11px" height="12px" preserveAspectRatio="xMinYMin meet" x="177.5" y="-210.7"/>
<text text-anchor="start" x="192.5" y="-200.8" font-family="Helvetica,sans-Serif" font-size="11.00" fill="#000000">ORDER_ID</text>
<polygon fill="none" stroke="#000000" points="280.5,-193.7 280.5,-215.7 347.5,-215.7 347.5,-193.7 280.5,-193.7"/>
<text text-anchor="start" x="283.5" y="-201.4" font-family="Helvetica,sans-Serif" font-size="11.00" fill="#000000">number[0]</text>
<polygon fill="none" stroke="#000000" points="172.5,-171.7 172.5,-193.7 280.5,-193.7 280.5,-171.7 172.5,-171.7"/>
<image xlink:href="../../images/foreignKeys.png" width="11px" height="12px" preserveAspectRatio="xMinYMin meet" x="177.5" y="-188.7"/>
<text text-anchor="start" x="192.5" y="-178.8" font-family="Helvetica,sans-Serif" font-size="11.00" fill="#000000">CUSTOMER_ID</text>
<polygon fill="none" stroke="#000000" points="280.5,-171.7 280.5,-193.7 347.5,-193.7 347.5,-171.7 280.5,-171.7"/>
<text text-anchor="start" x="283.5" y="-179.4" font-family="Helvetica,sans-Serif" font-size="11.00" fill="#000000">number[6]</text>
<polygon fill="none" stroke="#000000" points="172.5,-149.7 172.5,-171.7 280.5,-171.7 280.5,-149.7 172.5,-149.7"/>
<text text-anchor="start" x="192.5" y="-156.8" font-family="Helvetica,sans-Serif" font-size="11.00" fill="#000000">STATUS</text>
<polygon fill="none" stroke="#000000" points="280.5,-149.7 280.5,-171.7 347.5,-171.7 347.5,-149.7 280.5,-149.7"/>
<text text-anchor="start" x="283.4365" y="-157.4" font-family="Helvetica,sans-Serif" font-size="11.00" fill="#000000">varchar2[20]</text>
<polygon fill="none" stroke="#000000" points="172.5,-127.7 172.5,-149.7 280.5,-149.7 280.5,-127.7 172.5,-127.7"/>
<image xlink:href="../../images/foreignKeys.png" width="11px" height="12px" preserveAspectRatio="xMinYMin meet" x="177.5" y="-144.7"/>
<text text-anchor="start" x="192.5" y="-134.8" font-family="Helvetica,sans-Serif" font-size="11.00" fill="#000000">SALESMAN_ID</text>
<polygon fill="none" stroke="#000000" points="280.5,-127.7 280.5,-149.7 347.5,-149.7 347.5,-127.7 280.5,-127.7"/>
<text text-anchor="start" x="283.5" y="-135.4" font-family="Helvetica,sans-Serif" font-size="11.00" fill="#000000">number[6]</text>
<polygon fill="none" stroke="#000000" points="172.5,-105.7 172.5,-127.7 280.5,-127.7 280.5,-105.7 172.5,-105.7"/>
<text text-anchor="start" x="192.5" y="-112.8" font-family="Helvetica,sans-Serif" font-size="11.00" fill="#000000">ORDER_DATE</text>
<polygon fill="none" stroke="#000000" points="280.5,-105.7 280.5,-127.7 347.5,-127.7 347.5,-105.7 280.5,-105.7"/>
<text text-anchor="start" x="283.5" y="-113.4" font-family="Helvetica,sans-Serif" font-size="11.00" fill="#000000">date[7]</text>
<polygon fill="#ffffff" stroke="transparent" points="172.5,-86.7 172.5,-105.7 217.5,-105.7 217.5,-86.7 172.5,-86.7"/>
<polygon fill="none" stroke="#000000" points="172.5,-86.7 172.5,-105.7 217.5,-105.7 217.5,-86.7 172.5,-86.7"/>
<text text-anchor="start" x="175.5" y="-92.8" font-family="Helvetica,sans-Serif" font-size="11.00" fill="#000000">&lt; 2</text>
<polygon fill="#ffffff" stroke="transparent" points="217.5,-86.7 217.5,-105.7 280.5,-105.7 280.5,-86.7 217.5,-86.7"/>
<polygon fill="none" stroke="#000000" points="217.5,-86.7 217.5,-105.7 280.5,-105.7 280.5,-86.7 217.5,-86.7"/>
<text text-anchor="start" x="245.1105" y="-92.8" font-family="Helvetica,sans-Serif" font-size="11.00" fill="#000000">0 rows</text>
<polygon fill="#ffffff" stroke="transparent" points="280.5,-86.7 280.5,-105.7 347.5,-105.7 347.5,-86.7 280.5,-86.7"/>
<polygon fill="none" stroke="#000000" points="280.5,-86.7 280.5,-105.7 347.5,-105.7 347.5,-86.7 280.5,-86.7"/>
<text text-anchor="start" x="328.9053" y="-92.8" font-family="Helvetica,sans-Serif" font-size="11.00" fill="#000000">1 &gt;</text>
<polygon fill="none" stroke="#000000" stroke-width="2" points="171,-85.7 171,-239.7 348,-239.7 348,-85.7 171,-85.7"/>
</a>
</g>
</g>
<!-- ORDER_ITEMS&#45;&gt;ORDERS -->
<g id="edge1" class="edge">
<title>ORDER_ITEMS:w&#45;&gt;ORDERS:e</title>
<path fill="none" stroke="#000000" d="M383.4203,-204.7C371.5435,-204.7 364.158,-204.7 347.5,-204.7"/>
<polygon fill="#000000" stroke="#000000" points="390,-204.7001 398,-208.3 394,-204.7 398,-204.7 398,-204.7 398,-204.7 394,-204.7 398,-201.1 390,-204.7001 390,-204.7001"/>
<ellipse fill="none" stroke="#000000" cx="386.8" cy="-204.7001" rx="3.2" ry="3.2"/>
</g>
<!-- CUSTOMERS -->
<g id="node3" class="node">
<title>CUSTOMERS</title>
<g id="a_node3"><a xlink:href="../../tables/CUSTOMERS.html" xlink:title="CUSTOMERS" target="_top">
<polygon fill="#ffffff" stroke="transparent" points="8,-164.2 8,-247.2 121,-247.2 121,-164.2 8,-164.2"/>
<polygon fill="#f5f5f5" stroke="transparent" points="8.5,-223.7 8.5,-246.7 121.5,-246.7 121.5,-223.7 8.5,-223.7"/>
<polygon fill="none" stroke="#000000" points="8.5,-223.7 8.5,-246.7 121.5,-246.7 121.5,-223.7 8.5,-223.7"/>
<text text-anchor="start" x="13.3655" y="-232.8" font-family="Helvetica,sans-Serif" font-weight="bold" font-size="11.00" fill="#000000">CUSTOMERS</text>
<text text-anchor="start" x="87.0219" y="-231.8" font-family="Helvetica,sans-Serif" font-size="11.00" fill="#000000">[table]</text>
<polygon fill="none" stroke="#000000" points="8.5,-201.7 8.5,-223.7 121.5,-223.7 121.5,-201.7 8.5,-201.7"/>
<image xlink:href="../../images/primaryKeys.png" width="11px" height="12px" preserveAspectRatio="xMinYMin meet" x="13.5" y="-218.7"/>
<text text-anchor="start" x="31.5" y="-208.8" font-family="Helvetica,sans-Serif" font-size="11.00" fill="#000000">CUSTOMER_ID</text>
<polygon fill="none" stroke="#000000" points="8.5,-182.7 8.5,-201.7 121.5,-201.7 121.5,-182.7 8.5,-182.7"/>
<text text-anchor="start" x="11.5" y="-188.8" font-family="Helvetica,sans-Serif" font-size="11.00" fill="#000000">...</text>
<polygon fill="#ffffff" stroke="transparent" points="8.5,-163.7 8.5,-182.7 41.5,-182.7 41.5,-163.7 8.5,-163.7"/>
<polygon fill="none" stroke="#000000" points="8.5,-163.7 8.5,-182.7 41.5,-182.7 41.5,-163.7 8.5,-163.7"/>
<text text-anchor="start" x="11.5" y="-169.8" font-family="Helvetica,sans-Serif" font-size="11.00" fill="#000000"> &#160;</text>
<polygon fill="#ffffff" stroke="transparent" points="41.5,-163.7 41.5,-182.7 89.5,-182.7 89.5,-163.7 41.5,-163.7"/>
<polygon fill="none" stroke="#000000" points="41.5,-163.7 41.5,-182.7 89.5,-182.7 89.5,-163.7 41.5,-163.7"/>
<text text-anchor="start" x="54.1105" y="-169.8" font-family="Helvetica,sans-Serif" font-size="11.00" fill="#000000">0 rows</text>
<polygon fill="#ffffff" stroke="transparent" points="89.5,-163.7 89.5,-182.7 121.5,-182.7 121.5,-163.7 89.5,-163.7"/>
<polygon fill="none" stroke="#000000" points="89.5,-163.7 89.5,-182.7 121.5,-182.7 121.5,-163.7 89.5,-163.7"/>
<text text-anchor="start" x="102.9053" y="-169.8" font-family="Helvetica,sans-Serif" font-size="11.00" fill="#000000">2 &gt;</text>
</a>
</g>
</g>
<!-- ORDERS&#45;&gt;CUSTOMERS -->
<g id="edge2" class="edge">
<title>ORDERS:w&#45;&gt;CUSTOMERS:e</title>
<path fill="none" stroke="#000000" d="M158.2724,-186.622C145.4935,-194.7538 141.8394,-212.7 121.5,-212.7"/>
<polygon fill="#000000" stroke="#000000" points="164.7877,-184.826 173.4567,-186.1706 168.6438,-183.763 172.5,-182.7 172.5,-182.7 172.5,-182.7 168.6438,-183.763 171.5433,-179.2294 164.7877,-184.826 164.7877,-184.826"/>
<ellipse fill="none" stroke="#000000" cx="161.7027" cy="-185.6764" rx="3.2" ry="3.2"/>
</g>
<!-- EMPLOYEES -->
<g id="node4" class="node">
<title>EMPLOYEES</title>
<g id="a_node4"><a xlink:href="../../tables/EMPLOYEES.html" xlink:title="EMPLOYEES" target="_top">
<polygon fill="#ffffff" stroke="transparent" points="9.5,-38.2 9.5,-143.2 119.5,-143.2 119.5,-38.2 9.5,-38.2"/>
<polygon fill="#f5f5f5" stroke="transparent" points="9.5,-119.7 9.5,-142.7 119.5,-142.7 119.5,-119.7 9.5,-119.7"/>
<polygon fill="none" stroke="#000000" points="9.5,-119.7 9.5,-142.7 119.5,-142.7 119.5,-119.7 9.5,-119.7"/>
<text text-anchor="start" x="14.0755" y="-128.8" font-family="Helvetica,sans-Serif" font-weight="bold" font-size="11.00" fill="#000000">EMPLOYEES</text>
<text text-anchor="start" x="85.0219" y="-127.8" font-family="Helvetica,sans-Serif" font-size="11.00" fill="#000000">[table]</text>
<polygon fill="none" stroke="#000000" points="9.5,-97.7 9.5,-119.7 119.5,-119.7 119.5,-97.7 9.5,-97.7"/>
<image xlink:href="../../images/primaryKeys.png" width="11px" height="12px" preserveAspectRatio="xMinYMin meet" x="14.5" y="-114.7"/>
<text text-anchor="start" x="31.5" y="-104.8" font-family="Helvetica,sans-Serif" font-size="11.00" fill="#000000">EMPLOYEE_ID</text>
<polygon fill="none" stroke="#000000" points="9.5,-75.7 9.5,-97.7 119.5,-97.7 119.5,-75.7 9.5,-75.7"/>
<image xlink:href="../../images/foreignKeys.png" width="11px" height="12px" preserveAspectRatio="xMinYMin meet" x="14.5" y="-92.7"/>
<text text-anchor="start" x="31.5" y="-82.8" font-family="Helvetica,sans-Serif" font-size="11.00" fill="#000000">MANAGER_ID</text>
<polygon fill="none" stroke="#000000" points="9.5,-56.7 9.5,-75.7 119.5,-75.7 119.5,-56.7 9.5,-56.7"/>
<text text-anchor="start" x="12.5" y="-62.8" font-family="Helvetica,sans-Serif" font-size="11.00" fill="#000000">...</text>
<polygon fill="#ffffff" stroke="transparent" points="9.5,-37.7 9.5,-56.7 45.5,-56.7 45.5,-37.7 9.5,-37.7"/>
<polygon fill="none" stroke="#000000" points="9.5,-37.7 9.5,-56.7 45.5,-56.7 45.5,-37.7 9.5,-37.7"/>
<text text-anchor="start" x="12.5" y="-43.8" font-family="Helvetica,sans-Serif" font-size="11.00" fill="#000000">&lt; 1</text>
<polygon fill="#ffffff" stroke="transparent" points="45.5,-37.7 45.5,-56.7 90.5,-56.7 90.5,-37.7 45.5,-37.7"/>
<polygon fill="none" stroke="#000000" points="45.5,-37.7 45.5,-56.7 90.5,-56.7 90.5,-37.7 45.5,-37.7"/>
<text text-anchor="start" x="55.1105" y="-43.8" font-family="Helvetica,sans-Serif" font-size="11.00" fill="#000000">0 rows</text>
<polygon fill="#ffffff" stroke="transparent" points="90.5,-37.7 90.5,-56.7 119.5,-56.7 119.5,-37.7 90.5,-37.7"/>
<polygon fill="none" stroke="#000000" points="90.5,-37.7 90.5,-56.7 119.5,-56.7 119.5,-37.7 90.5,-37.7"/>
<text text-anchor="start" x="100.9053" y="-43.8" font-family="Helvetica,sans-Serif" font-size="11.00" fill="#000000">2 &gt;</text>
</a>
</g>
</g>
<!-- ORDERS&#45;&gt;EMPLOYEES -->
<g id="edge3" class="edge">
<title>ORDERS:w&#45;&gt;EMPLOYEES:e</title>
<path fill="none" stroke="#000000" d="M158.1952,-135.0214C144.5796,-127.0105 140.6464,-108.7 119.5,-108.7"/>
<polygon fill="#000000" stroke="#000000" points="164.7521,-136.7075 171.6034,-142.1866 168.626,-137.7038 172.5,-138.7 172.5,-138.7 172.5,-138.7 168.626,-137.7038 173.3966,-135.2134 164.7521,-136.7075 164.7521,-136.7075"/>
<ellipse fill="none" stroke="#000000" cx="161.6529" cy="-135.9105" rx="3.2" ry="3.2"/>
</g>
</g>
</svg>
