<?xml version="1.0" encoding="UTF-8" standalone="no"?>
<!DOCTYPE svg PUBLIC "-//W3C//DTD SVG 1.1//EN"
 "http://www.w3.org/Graphics/SVG/1.1/DTD/svg11.dtd">
<!-- Generated by graphviz version 2.40.1 (20161225.0304)
 -->
<!-- Title: twoDegreesRelationshipsDiagram Pages: 1 -->
<svg width="630pt" height="393pt"
 viewBox="0.00 0.00 630.00 393.20" xmlns="http://www.w3.org/2000/svg" xmlns:xlink="http://www.w3.org/1999/xlink">
<g id="graph0" class="graph" transform="scale(1 1) rotate(0) translate(4 389.2)">
<title>twoDegreesRelationshipsDiagram</title>
<polygon fill="#ffffff" stroke="transparent" points="-4,4 -4,-389.2 626,-389.2 626,4 -4,4"/>
<text text-anchor="middle" x="72.4936" y="-7.3" font-family="Helvetica,sans-Serif" font-size="11.00" fill="#000000">Generated by SchemaSpy</text>
<!-- INVENTORIES -->
<g id="node1" class="node">
<title>INVENTORIES</title>
<g id="a_node1"><a xlink:href="../../tables/INVENTORIES.html" xlink:title="INVENTORIES" target="_top">
<polygon fill="#ffffff" stroke="transparent" points="493.5,-52.2 493.5,-157.2 612.5,-157.2 612.5,-52.2 493.5,-52.2"/>
<polygon fill="#f5f5f5" stroke="transparent" points="494,-133.7 494,-156.7 613,-156.7 613,-133.7 494,-133.7"/>
<polygon fill="none" stroke="#000000" points="494,-133.7 494,-156.7 613,-156.7 613,-133.7 494,-133.7"/>
<text text-anchor="start" x="499" y="-142.8" font-family="Helvetica,sans-Serif" font-weight="bold" font-size="11.00" fill="#000000">INVENTORIES</text>
<text text-anchor="start" x="578.0437" y="-141.8" font-family="Helvetica,sans-Serif" font-size="11.00" fill="#000000">[table]</text>
<polygon fill="none" stroke="#000000" points="494,-111.7 494,-133.7 613,-133.7 613,-111.7 494,-111.7"/>
<image xlink:href="../../images/primaryKeys.png" width="11px" height="12px" preserveAspectRatio="xMinYMin meet" x="499" y="-128.7"/>
<text text-anchor="start" x="514" y="-118.8" font-family="Helvetica,sans-Serif" font-size="11.00" fill="#000000">PRODUCT_ID</text>
<polygon fill="none" stroke="#000000" points="494,-89.7 494,-111.7 613,-111.7 613,-89.7 494,-89.7"/>
<image xlink:href="../../images/primaryKeys.png" width="11px" height="12px" preserveAspectRatio="xMinYMin meet" x="499" y="-106.7"/>
<text text-anchor="start" x="514" y="-96.8" font-family="Helvetica,sans-Serif" font-size="11.00" fill="#000000">WAREHOUSE_ID</text>
<polygon fill="none" stroke="#000000" points="494,-70.7 494,-89.7 613,-89.7 613,-70.7 494,-70.7"/>
<text text-anchor="start" x="497" y="-76.8" font-family="Helvetica,sans-Serif" font-size="11.00" fill="#000000">...</text>
<polygon fill="#ffffff" stroke="transparent" points="494,-51.7 494,-70.7 539,-70.7 539,-51.7 494,-51.7"/>
<polygon fill="none" stroke="#000000" points="494,-51.7 494,-70.7 539,-70.7 539,-51.7 494,-51.7"/>
<text text-anchor="start" x="497" y="-57.8" font-family="Helvetica,sans-Serif" font-size="11.00" fill="#000000">&lt; 2</text>
<polygon fill="#ffffff" stroke="transparent" points="539,-51.7 539,-70.7 589,-70.7 589,-51.7 539,-51.7"/>
<polygon fill="none" stroke="#000000" points="539,-51.7 539,-70.7 589,-70.7 589,-51.7 539,-51.7"/>
<text text-anchor="start" x="553.6105" y="-57.8" font-family="Helvetica,sans-Serif" font-size="11.00" fill="#000000">0 rows</text>
<polygon fill="#ffffff" stroke="transparent" points="589,-51.7 589,-70.7 613,-70.7 613,-51.7 589,-51.7"/>
<polygon fill="none" stroke="#000000" points="589,-51.7 589,-70.7 613,-70.7 613,-51.7 589,-51.7"/>
<text text-anchor="start" x="603.8862" y="-57.8" font-family="Helvetica,sans-Serif" font-size="11.00" fill="#000000"> &#160;</text>
</a>
</g>
</g>
<!-- PRODUCTS -->
<g id="node2" class="node">
<title>PRODUCTS</title>
<g id="a_node2"><a xlink:href="../../tables/PRODUCTS.html" xlink:title="PRODUCTS" target="_top">
<polygon fill="#ffffff" stroke="transparent" points="232,-120.7 232,-298.7 443,-298.7 443,-120.7 232,-120.7"/>
<polygon fill="#f5f5f5" stroke="transparent" points="234.5,-273.7 234.5,-296.7 441.5,-296.7 441.5,-273.7 234.5,-273.7"/>
<polygon fill="none" stroke="#000000" points="234.5,-273.7 234.5,-296.7 441.5,-296.7 441.5,-273.7 234.5,-273.7"/>
<text text-anchor="start" x="239.5" y="-282.8" font-family="Helvetica,sans-Serif" font-weight="bold" font-size="11.00" fill="#000000">PRODUCTS</text>
<text text-anchor="start" x="406.5437" y="-281.8" font-family="Helvetica,sans-Serif" font-size="11.00" fill="#000000">[table]</text>
<polygon fill="none" stroke="#000000" points="234.5,-251.7 234.5,-273.7 362.5,-273.7 362.5,-251.7 234.5,-251.7"/>
<image xlink:href="../../images/primaryKeys.png" width="11px" height="12px" preserveAspectRatio="xMinYMin meet" x="239.5" y="-268.7"/>
<text text-anchor="start" x="254.5" y="-258.8" font-family="Helvetica,sans-Serif" font-size="11.00" fill="#000000">PRODUCT_ID</text>
<polygon fill="none" stroke="#000000" points="362.5,-251.7 362.5,-273.7 441.5,-273.7 441.5,-251.7 362.5,-251.7"/>
<text text-anchor="start" x="365.5" y="-259.4" font-family="Helvetica,sans-Serif" font-size="11.00" fill="#000000">number[0]</text>
<polygon fill="none" stroke="#000000" points="234.5,-229.7 234.5,-251.7 362.5,-251.7 362.5,-229.7 234.5,-229.7"/>
<text text-anchor="start" x="254.5" y="-236.8" font-family="Helvetica,sans-Serif" font-size="11.00" fill="#000000">PRODUCT_NAME</text>
<polygon fill="none" stroke="#000000" points="362.5,-229.7 362.5,-251.7 441.5,-251.7 441.5,-229.7 362.5,-229.7"/>
<text text-anchor="start" x="365.5" y="-237.4" font-family="Helvetica,sans-Serif" font-size="11.00" fill="#000000">varchar2[255]</text>
<polygon fill="none" stroke="#000000" points="234.5,-207.7 234.5,-229.7 362.5,-229.7 362.5,-207.7 234.5,-207.7"/>
<text text-anchor="start" x="254.5" y="-214.8" font-family="Helvetica,sans-Serif" font-size="11.00" fill="#000000">DESCRIPTION</text>
<polygon fill="none" stroke="#000000" points="362.5,-207.7 362.5,-229.7 441.5,-229.7 441.5,-207.7 362.5,-207.7"/>
<text text-anchor="start" x="365.3216" y="-215.4" font-family="Helvetica,sans-Serif" font-size="11.00" fill="#000000">varchar2[2000]</text>
<polygon fill="none" stroke="#000000" points="234.5,-185.7 234.5,-207.7 362.5,-207.7 362.5,-185.7 234.5,-185.7"/>
<text text-anchor="start" x="254.5" y="-192.8" font-family="Helvetica,sans-Serif" font-size="11.00" fill="#000000">STANDARD_COST</text>
<polygon fill="none" stroke="#000000" points="362.5,-185.7 362.5,-207.7 441.5,-207.7 441.5,-185.7 362.5,-185.7"/>
<text text-anchor="start" x="365.5" y="-193.4" font-family="Helvetica,sans-Serif" font-size="11.00" fill="#000000">number[9,2]</text>
<polygon fill="none" stroke="#000000" points="234.5,-163.7 234.5,-185.7 362.5,-185.7 362.5,-163.7 234.5,-163.7"/>
<text text-anchor="start" x="254.5" y="-170.8" font-family="Helvetica,sans-Serif" font-size="11.00" fill="#000000">LIST_PRICE</text>
<polygon fill="none" stroke="#000000" points="362.5,-163.7 362.5,-185.7 441.5,-185.7 441.5,-163.7 362.5,-163.7"/>
<text text-anchor="start" x="365.5" y="-171.4" font-family="Helvetica,sans-Serif" font-size="11.00" fill="#000000">number[9,2]</text>
<polygon fill="none" stroke="#000000" points="234.5,-141.7 234.5,-163.7 362.5,-163.7 362.5,-141.7 234.5,-141.7"/>
<image xlink:href="../../images/foreignKeys.png" width="11px" height="12px" preserveAspectRatio="xMinYMin meet" x="239.5" y="-158.7"/>
<text text-anchor="start" x="254.5" y="-148.8" font-family="Helvetica,sans-Serif" font-size="11.00" fill="#000000">CATEGORY_ID</text>
<polygon fill="none" stroke="#000000" points="362.5,-141.7 362.5,-163.7 441.5,-163.7 441.5,-141.7 362.5,-141.7"/>
<text text-anchor="start" x="365.5" y="-149.4" font-family="Helvetica,sans-Serif" font-size="11.00" fill="#000000">number[0]</text>
<polygon fill="#ffffff" stroke="transparent" points="234.5,-122.7 234.5,-141.7 289.5,-141.7 289.5,-122.7 234.5,-122.7"/>
<polygon fill="none" stroke="#000000" points="234.5,-122.7 234.5,-141.7 289.5,-141.7 289.5,-122.7 234.5,-122.7"/>
<text text-anchor="start" x="237.5" y="-128.8" font-family="Helvetica,sans-Serif" font-size="11.00" fill="#000000">&lt; 1</text>
<polygon fill="#ffffff" stroke="transparent" points="289.5,-122.7 289.5,-141.7 362.5,-141.7 362.5,-122.7 289.5,-122.7"/>
<polygon fill="none" stroke="#000000" points="289.5,-122.7 289.5,-141.7 362.5,-141.7 362.5,-122.7 289.5,-122.7"/>
<text text-anchor="start" x="327.1105" y="-128.8" font-family="Helvetica,sans-Serif" font-size="11.00" fill="#000000">0 rows</text>
<polygon fill="#ffffff" stroke="transparent" points="362.5,-122.7 362.5,-141.7 441.5,-141.7 441.5,-122.7 362.5,-122.7"/>
<polygon fill="none" stroke="#000000" points="362.5,-122.7 362.5,-141.7 441.5,-141.7 441.5,-122.7 362.5,-122.7"/>
<text text-anchor="start" x="422.9053" y="-128.8" font-family="Helvetica,sans-Serif" font-size="11.00" fill="#000000">2 &gt;</text>
<polygon fill="none" stroke="#000000" stroke-width="2" points="233,-121.7 233,-297.7 442,-297.7 442,-121.7 233,-121.7"/>
</a>
</g>
</g>
<!-- INVENTORIES&#45;&gt;PRODUCTS -->
<g id="edge1" class="edge">
<title>INVENTORIES:w&#45;&gt;PRODUCTS:e</title>
<path fill="none" stroke="#000000" d="M479.6821,-125.7543C440.5462,-146.2279 502.1127,-262.7 441.5,-262.7"/>
<polygon fill="#000000" stroke="#000000" points="486.176,-124.3691 494.7511,-126.2208 490.088,-123.5345 494,-122.7 494,-122.7 494,-122.7 490.088,-123.5345 493.2489,-119.1792 486.176,-124.3691 486.176,-124.3691"/>
<ellipse fill="none" stroke="#000000" cx="483.0464" cy="-125.0367" rx="3.2" ry="3.2"/>
</g>
<!-- WAREHOUSES -->
<g id="node3" class="node">
<title>WAREHOUSES</title>
<g id="a_node3"><a xlink:href="../../tables/WAREHOUSES.html" xlink:title="WAREHOUSES" target="_top">
<polygon fill="#ffffff" stroke="transparent" points="276.5,-38.2 276.5,-99.2 398.5,-99.2 398.5,-38.2 276.5,-38.2"/>
<polygon fill="#f5f5f5" stroke="transparent" points="276.5,-75.7 276.5,-98.7 398.5,-98.7 398.5,-75.7 276.5,-75.7"/>
<polygon fill="none" stroke="#000000" points="276.5,-75.7 276.5,-98.7 398.5,-98.7 398.5,-75.7 276.5,-75.7"/>
<text text-anchor="start" x="281.279" y="-84.8" font-family="Helvetica,sans-Serif" font-weight="bold" font-size="11.00" fill="#000000">WAREHOUSES</text>
<text text-anchor="start" x="364.0219" y="-83.8" font-family="Helvetica,sans-Serif" font-size="11.00" fill="#000000">[table]</text>
<polygon fill="none" stroke="#000000" points="276.5,-56.7 276.5,-75.7 398.5,-75.7 398.5,-56.7 276.5,-56.7"/>
<text text-anchor="start" x="279.5" y="-62.8" font-family="Helvetica,sans-Serif" font-size="11.00" fill="#000000">...</text>
<polygon fill="#ffffff" stroke="transparent" points="276.5,-37.7 276.5,-56.7 318.5,-56.7 318.5,-37.7 276.5,-37.7"/>
<polygon fill="none" stroke="#000000" points="276.5,-37.7 276.5,-56.7 318.5,-56.7 318.5,-37.7 276.5,-37.7"/>
<text text-anchor="start" x="279.5" y="-43.8" font-family="Helvetica,sans-Serif" font-size="11.00" fill="#000000">&lt; 1</text>
<polygon fill="#ffffff" stroke="transparent" points="318.5,-37.7 318.5,-56.7 366.5,-56.7 366.5,-37.7 318.5,-37.7"/>
<polygon fill="none" stroke="#000000" points="318.5,-37.7 318.5,-56.7 366.5,-56.7 366.5,-37.7 318.5,-37.7"/>
<text text-anchor="start" x="331.1105" y="-43.8" font-family="Helvetica,sans-Serif" font-size="11.00" fill="#000000">0 rows</text>
<polygon fill="#ffffff" stroke="transparent" points="366.5,-37.7 366.5,-56.7 398.5,-56.7 398.5,-37.7 366.5,-37.7"/>
<polygon fill="none" stroke="#000000" points="366.5,-37.7 366.5,-56.7 398.5,-56.7 398.5,-37.7 366.5,-37.7"/>
<text text-anchor="start" x="379.9053" y="-43.8" font-family="Helvetica,sans-Serif" font-size="11.00" fill="#000000">1 &gt;</text>
</a>
</g>
</g>
<!-- INVENTORIES&#45;&gt;WAREHOUSES -->
<g id="edge2" class="edge">
<title>INVENTORIES:w&#45;&gt;WAREHOUSES:e</title>
<path fill="none" stroke="#000000" d="M479.6312,-99.3707C447.051,-92.9775 438.4077,-65.7 398.5,-65.7"/>
<polygon fill="#000000" stroke="#000000" points="486.034,-99.963 493.6683,-104.2847 490.017,-100.3315 494,-100.7 494,-100.7 494,-100.7 490.017,-100.3315 494.3317,-97.1153 486.034,-99.963 486.034,-99.963"/>
<ellipse fill="none" stroke="#000000" cx="482.8476" cy="-99.6682" rx="3.2" ry="3.2"/>
</g>
<!-- PRODUCT_CATEGORIES -->
<g id="node6" class="node">
<title>PRODUCT_CATEGORIES</title>
<g id="a_node6"><a xlink:href="../../tables/PRODUCT_CATEGORIES.html" xlink:title="PRODUCT_CATEGORIES" target="_top">
<polygon fill="#ffffff" stroke="transparent" points="8,-104.2 8,-187.2 183,-187.2 183,-104.2 8,-104.2"/>
<polygon fill="#f5f5f5" stroke="transparent" points="8.5,-163.7 8.5,-186.7 183.5,-186.7 183.5,-163.7 8.5,-163.7"/>
<polygon fill="none" stroke="#000000" points="8.5,-163.7 8.5,-186.7 183.5,-186.7 183.5,-163.7 8.5,-163.7"/>
<text text-anchor="start" x="13.1964" y="-172.8" font-family="Helvetica,sans-Serif" font-weight="bold" font-size="11.00" fill="#000000">PRODUCT_CATEGORIES</text>
<text text-anchor="start" x="149.0219" y="-171.8" font-family="Helvetica,sans-Serif" font-size="11.00" fill="#000000">[table]</text>
<polygon fill="none" stroke="#000000" points="8.5,-141.7 8.5,-163.7 183.5,-163.7 183.5,-141.7 8.5,-141.7"/>
<image xlink:href="../../images/primaryKeys.png" width="11px" height="12px" preserveAspectRatio="xMinYMin meet" x="13.5" y="-158.7"/>
<text text-anchor="start" x="33.5" y="-148.8" font-family="Helvetica,sans-Serif" font-size="11.00" fill="#000000">CATEGORY_ID</text>
<polygon fill="none" stroke="#000000" points="8.5,-122.7 8.5,-141.7 183.5,-141.7 183.5,-122.7 8.5,-122.7"/>
<text text-anchor="start" x="11.5" y="-128.8" font-family="Helvetica,sans-Serif" font-size="11.00" fill="#000000">...</text>
<polygon fill="#ffffff" stroke="transparent" points="8.5,-103.7 8.5,-122.7 72.5,-122.7 72.5,-103.7 8.5,-103.7"/>
<polygon fill="none" stroke="#000000" points="8.5,-103.7 8.5,-122.7 72.5,-122.7 72.5,-103.7 8.5,-103.7"/>
<text text-anchor="start" x="11.5" y="-109.8" font-family="Helvetica,sans-Serif" font-size="11.00" fill="#000000"> &#160;</text>
<polygon fill="#ffffff" stroke="transparent" points="72.5,-103.7 72.5,-122.7 136.5,-122.7 136.5,-103.7 72.5,-103.7"/>
<polygon fill="none" stroke="#000000" points="72.5,-103.7 72.5,-122.7 136.5,-122.7 136.5,-103.7 72.5,-103.7"/>
<text text-anchor="start" x="101.1105" y="-109.8" font-family="Helvetica,sans-Serif" font-size="11.00" fill="#000000">0 rows</text>
<polygon fill="#ffffff" stroke="transparent" points="136.5,-103.7 136.5,-122.7 183.5,-122.7 183.5,-103.7 136.5,-103.7"/>
<polygon fill="none" stroke="#000000" points="136.5,-103.7 136.5,-122.7 183.5,-122.7 183.5,-103.7 136.5,-103.7"/>
<text text-anchor="start" x="164.9053" y="-109.8" font-family="Helvetica,sans-Serif" font-size="11.00" fill="#000000">1 &gt;</text>
</a>
</g>
</g>
<!-- PRODUCTS&#45;&gt;PRODUCT_CATEGORIES -->
<g id="edge5" class="edge">
<title>PRODUCTS:w&#45;&gt;PRODUCT_CATEGORIES:e</title>
<path fill="none" stroke="#000000" d="M219.776,-152.7C207.7815,-152.7 200.3229,-152.7 183.5,-152.7"/>
<polygon fill="#000000" stroke="#000000" points="226.5,-152.7001 234.5,-156.3 230.5,-152.7 234.5,-152.7 234.5,-152.7 234.5,-152.7 230.5,-152.7 234.5,-149.1 226.5,-152.7001 226.5,-152.7001"/>
<ellipse fill="none" stroke="#000000" cx="223.3" cy="-152.7001" rx="3.2" ry="3.2"/>
</g>
<!-- ORDER_ITEMS -->
<g id="node4" class="node">
<title>ORDER_ITEMS</title>
<g id="a_node4"><a xlink:href="../../tables/ORDER_ITEMS.html" xlink:title="ORDER_ITEMS" target="_top">
<polygon fill="#ffffff" stroke="transparent" points="492,-234.2 492,-361.2 614,-361.2 614,-234.2 492,-234.2"/>
<polygon fill="#f5f5f5" stroke="transparent" points="492,-337.7 492,-360.7 614,-360.7 614,-337.7 492,-337.7"/>
<polygon fill="none" stroke="#000000" points="492,-337.7 492,-360.7 614,-360.7 614,-337.7 492,-337.7"/>
<text text-anchor="start" x="496.7796" y="-346.8" font-family="Helvetica,sans-Serif" font-weight="bold" font-size="11.00" fill="#000000">ORDER_ITEMS</text>
<text text-anchor="start" x="579.5219" y="-345.8" font-family="Helvetica,sans-Serif" font-size="11.00" fill="#000000">[table]</text>
<polygon fill="none" stroke="#000000" points="492,-315.7 492,-337.7 614,-337.7 614,-315.7 492,-315.7"/>
<image xlink:href="../../images/primaryKeys.png" width="11px" height="12px" preserveAspectRatio="xMinYMin meet" x="497" y="-332.7"/>
<text text-anchor="start" x="520" y="-322.8" font-family="Helvetica,sans-Serif" font-size="11.00" fill="#000000">ORDER_ID</text>
<polygon fill="none" stroke="#000000" points="492,-293.7 492,-315.7 614,-315.7 614,-293.7 492,-293.7"/>
<image xlink:href="../../images/primaryKeys.png" width="11px" height="12px" preserveAspectRatio="xMinYMin meet" x="497" y="-310.7"/>
<text text-anchor="start" x="520" y="-300.8" font-family="Helvetica,sans-Serif" font-size="11.00" fill="#000000">ITEM_ID</text>
<polygon fill="none" stroke="#000000" points="492,-271.7 492,-293.7 614,-293.7 614,-271.7 492,-271.7"/>
<image xlink:href="../../images/foreignKeys.png" width="11px" height="12px" preserveAspectRatio="xMinYMin meet" x="497" y="-288.7"/>
<text text-anchor="start" x="520" y="-278.8" font-family="Helvetica,sans-Serif" font-size="11.00" fill="#000000">PRODUCT_ID</text>
<polygon fill="none" stroke="#000000" points="492,-252.7 492,-271.7 614,-271.7 614,-252.7 492,-252.7"/>
<text text-anchor="start" x="495" y="-258.8" font-family="Helvetica,sans-Serif" font-size="11.00" fill="#000000">...</text>
<polygon fill="#ffffff" stroke="transparent" points="492,-233.7 492,-252.7 538,-252.7 538,-233.7 492,-233.7"/>
<polygon fill="none" stroke="#000000" points="492,-233.7 492,-252.7 538,-252.7 538,-233.7 492,-233.7"/>
<text text-anchor="start" x="495" y="-239.8" font-family="Helvetica,sans-Serif" font-size="11.00" fill="#000000">&lt; 2</text>
<polygon fill="#ffffff" stroke="transparent" points="538,-233.7 538,-252.7 589,-252.7 589,-233.7 538,-233.7"/>
<polygon fill="none" stroke="#000000" points="538,-233.7 538,-252.7 589,-252.7 589,-233.7 538,-233.7"/>
<text text-anchor="start" x="553.6105" y="-239.8" font-family="Helvetica,sans-Serif" font-size="11.00" fill="#000000">0 rows</text>
<polygon fill="#ffffff" stroke="transparent" points="589,-233.7 589,-252.7 614,-252.7 614,-233.7 589,-233.7"/>
<polygon fill="none" stroke="#000000" points="589,-233.7 589,-252.7 614,-252.7 614,-233.7 589,-233.7"/>
<text text-anchor="start" x="604.8862" y="-239.8" font-family="Helvetica,sans-Serif" font-size="11.00" fill="#000000"> &#160;</text>
</a>
</g>
</g>
<!-- ORDER_ITEMS&#45;&gt;PRODUCTS -->
<g id="edge4" class="edge">
<title>ORDER_ITEMS:w&#45;&gt;PRODUCTS:e</title>
<path fill="none" stroke="#000000" d="M477.695,-279.7489C465.4989,-274.1856 459.794,-262.7 441.5,-262.7"/>
<polygon fill="#000000" stroke="#000000" points="484.165,-281.0836 491.2726,-286.2258 488.0825,-281.8918 492,-282.7 492,-282.7 492,-282.7 488.0825,-281.8918 492.7274,-279.1742 484.165,-281.0836 484.165,-281.0836"/>
<ellipse fill="none" stroke="#000000" cx="481.031" cy="-280.4371" rx="3.2" ry="3.2"/>
</g>
<!-- ORDERS -->
<g id="node5" class="node">
<title>ORDERS</title>
<g id="a_node5"><a xlink:href="../../tables/ORDERS.html" xlink:title="ORDERS" target="_top">
<polygon fill="#ffffff" stroke="transparent" points="292.5,-320.2 292.5,-381.2 382.5,-381.2 382.5,-320.2 292.5,-320.2"/>
<polygon fill="#f5f5f5" stroke="transparent" points="292.5,-357.7 292.5,-380.7 382.5,-380.7 382.5,-357.7 292.5,-357.7"/>
<polygon fill="none" stroke="#000000" points="292.5,-357.7 292.5,-380.7 382.5,-380.7 382.5,-357.7 292.5,-357.7"/>
<text text-anchor="start" x="297.4743" y="-366.8" font-family="Helvetica,sans-Serif" font-weight="bold" font-size="11.00" fill="#000000">ORDERS</text>
<text text-anchor="start" x="348.0219" y="-365.8" font-family="Helvetica,sans-Serif" font-size="11.00" fill="#000000">[table]</text>
<polygon fill="none" stroke="#000000" points="292.5,-338.7 292.5,-357.7 382.5,-357.7 382.5,-338.7 292.5,-338.7"/>
<text text-anchor="start" x="295.5" y="-344.8" font-family="Helvetica,sans-Serif" font-size="11.00" fill="#000000">...</text>
<polygon fill="#ffffff" stroke="transparent" points="292.5,-319.7 292.5,-338.7 318.5,-338.7 318.5,-319.7 292.5,-319.7"/>
<polygon fill="none" stroke="#000000" points="292.5,-319.7 292.5,-338.7 318.5,-338.7 318.5,-319.7 292.5,-319.7"/>
<text text-anchor="start" x="295.5" y="-325.8" font-family="Helvetica,sans-Serif" font-size="11.00" fill="#000000">&lt; 2</text>
<polygon fill="#ffffff" stroke="transparent" points="318.5,-319.7 318.5,-338.7 358.5,-338.7 358.5,-319.7 318.5,-319.7"/>
<polygon fill="none" stroke="#000000" points="318.5,-319.7 318.5,-338.7 358.5,-338.7 358.5,-319.7 318.5,-319.7"/>
<text text-anchor="start" x="323.1105" y="-325.8" font-family="Helvetica,sans-Serif" font-size="11.00" fill="#000000">0 rows</text>
<polygon fill="#ffffff" stroke="transparent" points="358.5,-319.7 358.5,-338.7 382.5,-338.7 382.5,-319.7 358.5,-319.7"/>
<polygon fill="none" stroke="#000000" points="358.5,-319.7 358.5,-338.7 382.5,-338.7 382.5,-319.7 358.5,-319.7"/>
<text text-anchor="start" x="363.9053" y="-325.8" font-family="Helvetica,sans-Serif" font-size="11.00" fill="#000000">1 &gt;</text>
</a>
</g>
</g>
<!-- ORDER_ITEMS&#45;&gt;ORDERS -->
<g id="edge3" class="edge">
<title>ORDER_ITEMS:w&#45;&gt;ORDERS:e</title>
<path fill="none" stroke="#000000" d="M477.5359,-327.3515C439.8186,-330.8961 426.8272,-347.7 382.5,-347.7"/>
<polygon fill="#000000" stroke="#000000" points="484.0081,-327.06 492.162,-330.2964 488.0041,-326.88 492,-326.7 492,-326.7 492,-326.7 488.0041,-326.88 491.838,-323.1036 484.0081,-327.06 484.0081,-327.06"/>
<ellipse fill="none" stroke="#000000" cx="480.8113" cy="-327.2041" rx="3.2" ry="3.2"/>
</g>
</g>
</svg>
