<?xml version="1.0" encoding="UTF-8" standalone="no"?>
<!DOCTYPE svg PUBLIC "-//W3C//DTD SVG 1.1//EN"
 "http://www.w3.org/Graphics/SVG/1.1/DTD/svg11.dtd">
<!-- Generated by graphviz version 2.40.1 (20161225.0304)
 -->
<!-- Title: oneDegreeRelationshipsDiagram Pages: 1 -->
<svg width="630pt" height="328pt"
 viewBox="0.00 0.00 630.00 328.20" xmlns="http://www.w3.org/2000/svg" xmlns:xlink="http://www.w3.org/1999/xlink">
<g id="graph0" class="graph" transform="scale(1 1) rotate(0) translate(4 324.2)">
<title>oneDegreeRelationshipsDiagram</title>
<polygon fill="#ffffff" stroke="transparent" points="-4,4 -4,-324.2 626,-324.2 626,4 -4,4"/>
<text text-anchor="middle" x="72.4936" y="-7.3" font-family="Helvetica,sans-Serif" font-size="11.00" fill="#000000">Generated by SchemaSpy</text>
<!-- INVENTORIES -->
<g id="node1" class="node">
<title>INVENTORIES</title>
<g id="a_node1"><a xlink:href="../../tables/INVENTORIES.html" xlink:title="INVENTORIES" target="_top">
<polygon fill="#ffffff" stroke="transparent" points="493.5,-211.2 493.5,-316.2 612.5,-316.2 612.5,-211.2 493.5,-211.2"/>
<polygon fill="#f5f5f5" stroke="transparent" points="494,-292.7 494,-315.7 613,-315.7 613,-292.7 494,-292.7"/>
<polygon fill="none" stroke="#000000" points="494,-292.7 494,-315.7 613,-315.7 613,-292.7 494,-292.7"/>
<text text-anchor="start" x="499" y="-301.8" font-family="Helvetica,sans-Serif" font-weight="bold" font-size="11.00" fill="#000000">INVENTORIES</text>
<text text-anchor="start" x="578.0437" y="-300.8" font-family="Helvetica,sans-Serif" font-size="11.00" fill="#000000">[table]</text>
<polygon fill="none" stroke="#000000" points="494,-270.7 494,-292.7 613,-292.7 613,-270.7 494,-270.7"/>
<image xlink:href="../../images/primaryKeys.png" width="11px" height="12px" preserveAspectRatio="xMinYMin meet" x="499" y="-287.7"/>
<text text-anchor="start" x="514" y="-277.8" font-family="Helvetica,sans-Serif" font-size="11.00" fill="#000000">PRODUCT_ID</text>
<polygon fill="none" stroke="#000000" points="494,-248.7 494,-270.7 613,-270.7 613,-248.7 494,-248.7"/>
<image xlink:href="../../images/primaryKeys.png" width="11px" height="12px" preserveAspectRatio="xMinYMin meet" x="499" y="-265.7"/>
<text text-anchor="start" x="514" y="-255.8" font-family="Helvetica,sans-Serif" font-size="11.00" fill="#000000">WAREHOUSE_ID</text>
<polygon fill="none" stroke="#000000" points="494,-229.7 494,-248.7 613,-248.7 613,-229.7 494,-229.7"/>
<text text-anchor="start" x="497" y="-235.8" font-family="Helvetica,sans-Serif" font-size="11.00" fill="#000000">...</text>
<polygon fill="#ffffff" stroke="transparent" points="494,-210.7 494,-229.7 539,-229.7 539,-210.7 494,-210.7"/>
<polygon fill="none" stroke="#000000" points="494,-210.7 494,-229.7 539,-229.7 539,-210.7 494,-210.7"/>
<text text-anchor="start" x="497" y="-216.8" font-family="Helvetica,sans-Serif" font-size="11.00" fill="#000000">&lt; 2</text>
<polygon fill="#ffffff" stroke="transparent" points="539,-210.7 539,-229.7 589,-229.7 589,-210.7 539,-210.7"/>
<polygon fill="none" stroke="#000000" points="539,-210.7 539,-229.7 589,-229.7 589,-210.7 539,-210.7"/>
<text text-anchor="start" x="553.6105" y="-216.8" font-family="Helvetica,sans-Serif" font-size="11.00" fill="#000000">0 rows</text>
<polygon fill="#ffffff" stroke="transparent" points="589,-210.7 589,-229.7 613,-229.7 613,-210.7 589,-210.7"/>
<polygon fill="none" stroke="#000000" points="589,-210.7 589,-229.7 613,-229.7 613,-210.7 589,-210.7"/>
<text text-anchor="start" x="603.8862" y="-216.8" font-family="Helvetica,sans-Serif" font-size="11.00" fill="#000000"> &#160;</text>
</a>
</g>
</g>
<!-- PRODUCTS -->
<g id="node2" class="node">
<title>PRODUCTS</title>
<g id="a_node2"><a xlink:href="../../tables/PRODUCTS.html" xlink:title="PRODUCTS" target="_top">
<polygon fill="#ffffff" stroke="transparent" points="232,-54.7 232,-232.7 443,-232.7 443,-54.7 232,-54.7"/>
<polygon fill="#f5f5f5" stroke="transparent" points="234.5,-207.7 234.5,-230.7 441.5,-230.7 441.5,-207.7 234.5,-207.7"/>
<polygon fill="none" stroke="#000000" points="234.5,-207.7 234.5,-230.7 441.5,-230.7 441.5,-207.7 234.5,-207.7"/>
<text text-anchor="start" x="239.5" y="-216.8" font-family="Helvetica,sans-Serif" font-weight="bold" font-size="11.00" fill="#000000">PRODUCTS</text>
<text text-anchor="start" x="406.5437" y="-215.8" font-family="Helvetica,sans-Serif" font-size="11.00" fill="#000000">[table]</text>
<polygon fill="none" stroke="#000000" points="234.5,-185.7 234.5,-207.7 362.5,-207.7 362.5,-185.7 234.5,-185.7"/>
<image xlink:href="../../images/primaryKeys.png" width="11px" height="12px" preserveAspectRatio="xMinYMin meet" x="239.5" y="-202.7"/>
<text text-anchor="start" x="254.5" y="-192.8" font-family="Helvetica,sans-Serif" font-size="11.00" fill="#000000">PRODUCT_ID</text>
<polygon fill="none" stroke="#000000" points="362.5,-185.7 362.5,-207.7 441.5,-207.7 441.5,-185.7 362.5,-185.7"/>
<text text-anchor="start" x="365.5" y="-193.4" font-family="Helvetica,sans-Serif" font-size="11.00" fill="#000000">number[0]</text>
<polygon fill="none" stroke="#000000" points="234.5,-163.7 234.5,-185.7 362.5,-185.7 362.5,-163.7 234.5,-163.7"/>
<text text-anchor="start" x="254.5" y="-170.8" font-family="Helvetica,sans-Serif" font-size="11.00" fill="#000000">PRODUCT_NAME</text>
<polygon fill="none" stroke="#000000" points="362.5,-163.7 362.5,-185.7 441.5,-185.7 441.5,-163.7 362.5,-163.7"/>
<text text-anchor="start" x="365.5" y="-171.4" font-family="Helvetica,sans-Serif" font-size="11.00" fill="#000000">varchar2[255]</text>
<polygon fill="none" stroke="#000000" points="234.5,-141.7 234.5,-163.7 362.5,-163.7 362.5,-141.7 234.5,-141.7"/>
<text text-anchor="start" x="254.5" y="-148.8" font-family="Helvetica,sans-Serif" font-size="11.00" fill="#000000">DESCRIPTION</text>
<polygon fill="none" stroke="#000000" points="362.5,-141.7 362.5,-163.7 441.5,-163.7 441.5,-141.7 362.5,-141.7"/>
<text text-anchor="start" x="365.3216" y="-149.4" font-family="Helvetica,sans-Serif" font-size="11.00" fill="#000000">varchar2[2000]</text>
<polygon fill="none" stroke="#000000" points="234.5,-119.7 234.5,-141.7 362.5,-141.7 362.5,-119.7 234.5,-119.7"/>
<text text-anchor="start" x="254.5" y="-126.8" font-family="Helvetica,sans-Serif" font-size="11.00" fill="#000000">STANDARD_COST</text>
<polygon fill="none" stroke="#000000" points="362.5,-119.7 362.5,-141.7 441.5,-141.7 441.5,-119.7 362.5,-119.7"/>
<text text-anchor="start" x="365.5" y="-127.4" font-family="Helvetica,sans-Serif" font-size="11.00" fill="#000000">number[9,2]</text>
<polygon fill="none" stroke="#000000" points="234.5,-97.7 234.5,-119.7 362.5,-119.7 362.5,-97.7 234.5,-97.7"/>
<text text-anchor="start" x="254.5" y="-104.8" font-family="Helvetica,sans-Serif" font-size="11.00" fill="#000000">LIST_PRICE</text>
<polygon fill="none" stroke="#000000" points="362.5,-97.7 362.5,-119.7 441.5,-119.7 441.5,-97.7 362.5,-97.7"/>
<text text-anchor="start" x="365.5" y="-105.4" font-family="Helvetica,sans-Serif" font-size="11.00" fill="#000000">number[9,2]</text>
<polygon fill="none" stroke="#000000" points="234.5,-75.7 234.5,-97.7 362.5,-97.7 362.5,-75.7 234.5,-75.7"/>
<image xlink:href="../../images/foreignKeys.png" width="11px" height="12px" preserveAspectRatio="xMinYMin meet" x="239.5" y="-92.7"/>
<text text-anchor="start" x="254.5" y="-82.8" font-family="Helvetica,sans-Serif" font-size="11.00" fill="#000000">CATEGORY_ID</text>
<polygon fill="none" stroke="#000000" points="362.5,-75.7 362.5,-97.7 441.5,-97.7 441.5,-75.7 362.5,-75.7"/>
<text text-anchor="start" x="365.5" y="-83.4" font-family="Helvetica,sans-Serif" font-size="11.00" fill="#000000">number[0]</text>
<polygon fill="#ffffff" stroke="transparent" points="234.5,-56.7 234.5,-75.7 289.5,-75.7 289.5,-56.7 234.5,-56.7"/>
<polygon fill="none" stroke="#000000" points="234.5,-56.7 234.5,-75.7 289.5,-75.7 289.5,-56.7 234.5,-56.7"/>
<text text-anchor="start" x="237.5" y="-62.8" font-family="Helvetica,sans-Serif" font-size="11.00" fill="#000000">&lt; 1</text>
<polygon fill="#ffffff" stroke="transparent" points="289.5,-56.7 289.5,-75.7 362.5,-75.7 362.5,-56.7 289.5,-56.7"/>
<polygon fill="none" stroke="#000000" points="289.5,-56.7 289.5,-75.7 362.5,-75.7 362.5,-56.7 289.5,-56.7"/>
<text text-anchor="start" x="327.1105" y="-62.8" font-family="Helvetica,sans-Serif" font-size="11.00" fill="#000000">0 rows</text>
<polygon fill="#ffffff" stroke="transparent" points="362.5,-56.7 362.5,-75.7 441.5,-75.7 441.5,-56.7 362.5,-56.7"/>
<polygon fill="none" stroke="#000000" points="362.5,-56.7 362.5,-75.7 441.5,-75.7 441.5,-56.7 362.5,-56.7"/>
<text text-anchor="start" x="422.9053" y="-62.8" font-family="Helvetica,sans-Serif" font-size="11.00" fill="#000000">2 &gt;</text>
<polygon fill="none" stroke="#000000" stroke-width="2" points="233,-55.7 233,-231.7 442,-231.7 442,-55.7 233,-55.7"/>
</a>
</g>
</g>
<!-- INVENTORIES&#45;&gt;PRODUCTS -->
<g id="edge1" class="edge">
<title>INVENTORIES:w&#45;&gt;PRODUCTS:e</title>
<path fill="none" stroke="#000000" d="M479.9012,-277.368C458.0159,-260.0466 479.8321,-196.7 441.5,-196.7"/>
<polygon fill="#000000" stroke="#000000" points="486.3528,-279.3503 492.9426,-285.1412 490.1764,-280.5251 494,-281.7 494,-281.7 494,-281.7 490.1764,-280.5251 495.0574,-278.2588 486.3528,-279.3503 486.3528,-279.3503"/>
<ellipse fill="none" stroke="#000000" cx="483.294" cy="-278.4104" rx="3.2" ry="3.2"/>
</g>
<!-- PRODUCT_CATEGORIES -->
<g id="node4" class="node">
<title>PRODUCT_CATEGORIES</title>
<g id="a_node4"><a xlink:href="../../tables/PRODUCT_CATEGORIES.html" xlink:title="PRODUCT_CATEGORIES" target="_top">
<polygon fill="#ffffff" stroke="transparent" points="8,-38.2 8,-121.2 183,-121.2 183,-38.2 8,-38.2"/>
<polygon fill="#f5f5f5" stroke="transparent" points="8.5,-97.7 8.5,-120.7 183.5,-120.7 183.5,-97.7 8.5,-97.7"/>
<polygon fill="none" stroke="#000000" points="8.5,-97.7 8.5,-120.7 183.5,-120.7 183.5,-97.7 8.5,-97.7"/>
<text text-anchor="start" x="13.1964" y="-106.8" font-family="Helvetica,sans-Serif" font-weight="bold" font-size="11.00" fill="#000000">PRODUCT_CATEGORIES</text>
<text text-anchor="start" x="149.0219" y="-105.8" font-family="Helvetica,sans-Serif" font-size="11.00" fill="#000000">[table]</text>
<polygon fill="none" stroke="#000000" points="8.5,-75.7 8.5,-97.7 183.5,-97.7 183.5,-75.7 8.5,-75.7"/>
<image xlink:href="../../images/primaryKeys.png" width="11px" height="12px" preserveAspectRatio="xMinYMin meet" x="13.5" y="-92.7"/>
<text text-anchor="start" x="33.5" y="-82.8" font-family="Helvetica,sans-Serif" font-size="11.00" fill="#000000">CATEGORY_ID</text>
<polygon fill="none" stroke="#000000" points="8.5,-56.7 8.5,-75.7 183.5,-75.7 183.5,-56.7 8.5,-56.7"/>
<text text-anchor="start" x="11.5" y="-62.8" font-family="Helvetica,sans-Serif" font-size="11.00" fill="#000000">...</text>
<polygon fill="#ffffff" stroke="transparent" points="8.5,-37.7 8.5,-56.7 72.5,-56.7 72.5,-37.7 8.5,-37.7"/>
<polygon fill="none" stroke="#000000" points="8.5,-37.7 8.5,-56.7 72.5,-56.7 72.5,-37.7 8.5,-37.7"/>
<text text-anchor="start" x="11.5" y="-43.8" font-family="Helvetica,sans-Serif" font-size="11.00" fill="#000000"> &#160;</text>
<polygon fill="#ffffff" stroke="transparent" points="72.5,-37.7 72.5,-56.7 136.5,-56.7 136.5,-37.7 72.5,-37.7"/>
<polygon fill="none" stroke="#000000" points="72.5,-37.7 72.5,-56.7 136.5,-56.7 136.5,-37.7 72.5,-37.7"/>
<text text-anchor="start" x="101.1105" y="-43.8" font-family="Helvetica,sans-Serif" font-size="11.00" fill="#000000">0 rows</text>
<polygon fill="#ffffff" stroke="transparent" points="136.5,-37.7 136.5,-56.7 183.5,-56.7 183.5,-37.7 136.5,-37.7"/>
<polygon fill="none" stroke="#000000" points="136.5,-37.7 136.5,-56.7 183.5,-56.7 183.5,-37.7 136.5,-37.7"/>
<text text-anchor="start" x="164.9053" y="-43.8" font-family="Helvetica,sans-Serif" font-size="11.00" fill="#000000">1 &gt;</text>
</a>
</g>
</g>
<!-- PRODUCTS&#45;&gt;PRODUCT_CATEGORIES -->
<g id="edge3" class="edge">
<title>PRODUCTS:w&#45;&gt;PRODUCT_CATEGORIES:e</title>
<path fill="none" stroke="#000000" d="M219.776,-86.7C207.7815,-86.7 200.3229,-86.7 183.5,-86.7"/>
<polygon fill="#000000" stroke="#000000" points="226.5,-86.7001 234.5,-90.3 230.5,-86.7 234.5,-86.7 234.5,-86.7 234.5,-86.7 230.5,-86.7 234.5,-83.1 226.5,-86.7001 226.5,-86.7001"/>
<ellipse fill="none" stroke="#000000" cx="223.3" cy="-86.7001" rx="3.2" ry="3.2"/>
</g>
<!-- ORDER_ITEMS -->
<g id="node3" class="node">
<title>ORDER_ITEMS</title>
<g id="a_node3"><a xlink:href="../../tables/ORDER_ITEMS.html" xlink:title="ORDER_ITEMS" target="_top">
<polygon fill="#ffffff" stroke="transparent" points="492,-63.2 492,-190.2 614,-190.2 614,-63.2 492,-63.2"/>
<polygon fill="#f5f5f5" stroke="transparent" points="492,-166.7 492,-189.7 614,-189.7 614,-166.7 492,-166.7"/>
<polygon fill="none" stroke="#000000" points="492,-166.7 492,-189.7 614,-189.7 614,-166.7 492,-166.7"/>
<text text-anchor="start" x="496.7796" y="-175.8" font-family="Helvetica,sans-Serif" font-weight="bold" font-size="11.00" fill="#000000">ORDER_ITEMS</text>
<text text-anchor="start" x="579.5219" y="-174.8" font-family="Helvetica,sans-Serif" font-size="11.00" fill="#000000">[table]</text>
<polygon fill="none" stroke="#000000" points="492,-144.7 492,-166.7 614,-166.7 614,-144.7 492,-144.7"/>
<image xlink:href="../../images/primaryKeys.png" width="11px" height="12px" preserveAspectRatio="xMinYMin meet" x="497" y="-161.7"/>
<text text-anchor="start" x="520" y="-151.8" font-family="Helvetica,sans-Serif" font-size="11.00" fill="#000000">ORDER_ID</text>
<polygon fill="none" stroke="#000000" points="492,-122.7 492,-144.7 614,-144.7 614,-122.7 492,-122.7"/>
<image xlink:href="../../images/primaryKeys.png" width="11px" height="12px" preserveAspectRatio="xMinYMin meet" x="497" y="-139.7"/>
<text text-anchor="start" x="520" y="-129.8" font-family="Helvetica,sans-Serif" font-size="11.00" fill="#000000">ITEM_ID</text>
<polygon fill="none" stroke="#000000" points="492,-100.7 492,-122.7 614,-122.7 614,-100.7 492,-100.7"/>
<image xlink:href="../../images/foreignKeys.png" width="11px" height="12px" preserveAspectRatio="xMinYMin meet" x="497" y="-117.7"/>
<text text-anchor="start" x="520" y="-107.8" font-family="Helvetica,sans-Serif" font-size="11.00" fill="#000000">PRODUCT_ID</text>
<polygon fill="none" stroke="#000000" points="492,-81.7 492,-100.7 614,-100.7 614,-81.7 492,-81.7"/>
<text text-anchor="start" x="495" y="-87.8" font-family="Helvetica,sans-Serif" font-size="11.00" fill="#000000">...</text>
<polygon fill="#ffffff" stroke="transparent" points="492,-62.7 492,-81.7 538,-81.7 538,-62.7 492,-62.7"/>
<polygon fill="none" stroke="#000000" points="492,-62.7 492,-81.7 538,-81.7 538,-62.7 492,-62.7"/>
<text text-anchor="start" x="495" y="-68.8" font-family="Helvetica,sans-Serif" font-size="11.00" fill="#000000">&lt; 2</text>
<polygon fill="#ffffff" stroke="transparent" points="538,-62.7 538,-81.7 589,-81.7 589,-62.7 538,-62.7"/>
<polygon fill="none" stroke="#000000" points="538,-62.7 538,-81.7 589,-81.7 589,-62.7 538,-62.7"/>
<text text-anchor="start" x="553.6105" y="-68.8" font-family="Helvetica,sans-Serif" font-size="11.00" fill="#000000">0 rows</text>
<polygon fill="#ffffff" stroke="transparent" points="589,-62.7 589,-81.7 614,-81.7 614,-62.7 589,-62.7"/>
<polygon fill="none" stroke="#000000" points="589,-62.7 589,-81.7 614,-81.7 614,-62.7 589,-62.7"/>
<text text-anchor="start" x="604.8862" y="-68.8" font-family="Helvetica,sans-Serif" font-size="11.00" fill="#000000"> &#160;</text>
</a>
</g>
</g>
<!-- ORDER_ITEMS&#45;&gt;PRODUCTS -->
<g id="edge2" class="edge">
<title>ORDER_ITEMS:w&#45;&gt;PRODUCTS:e</title>
<path fill="none" stroke="#000000" d="M478.1216,-116.032C456.76,-133.3534 479.4344,-196.7 441.5,-196.7"/>
<polygon fill="#000000" stroke="#000000" points="484.3634,-114.0837 493.0727,-115.1365 488.1817,-112.8919 492,-111.7 492,-111.7 492,-111.7 488.1817,-112.8919 490.9273,-108.2635 484.3634,-114.0837 484.3634,-114.0837"/>
<ellipse fill="none" stroke="#000000" cx="481.3087" cy="-115.0372" rx="3.2" ry="3.2"/>
</g>
</g>
</svg>
