<?xml version="1.0" encoding="UTF-8" standalone="no"?>
<!DOCTYPE svg PUBLIC "-//W3C//DTD SVG 1.1//EN"
 "http://www.w3.org/Graphics/SVG/1.1/DTD/svg11.dtd">
<!-- Generated by graphviz version 2.40.1 (20161225.0304)
 -->
<!-- Title: oneDegreeRelationshipsDiagram Pages: 1 -->
<svg width="444pt" height="161pt"
 viewBox="0.00 0.00 444.00 160.70" xmlns="http://www.w3.org/2000/svg" xmlns:xlink="http://www.w3.org/1999/xlink">
<g id="graph0" class="graph" transform="scale(1 1) rotate(0) translate(4 156.7)">
<title>oneDegreeRelationshipsDiagram</title>
<polygon fill="#ffffff" stroke="transparent" points="-4,4 -4,-156.7 440,-156.7 440,4 -4,4"/>
<text text-anchor="middle" x="72.4936" y="-7.3" font-family="Helvetica,sans-Serif" font-size="11.00" fill="#000000">Generated by SchemaSpy</text>
<!-- PRODUCTS -->
<g id="node1" class="node">
<title>PRODUCTS</title>
<g id="a_node1"><a xlink:href="../../tables/PRODUCTS.html" xlink:title="PRODUCTS" target="_top">
<polygon fill="#ffffff" stroke="transparent" points="300,-43.7 300,-148.7 428,-148.7 428,-43.7 300,-43.7"/>
<polygon fill="#f5f5f5" stroke="transparent" points="300,-125.2 300,-148.2 428,-148.2 428,-125.2 300,-125.2"/>
<polygon fill="none" stroke="#000000" points="300,-125.2 300,-148.2 428,-148.2 428,-125.2 300,-125.2"/>
<text text-anchor="start" x="305" y="-134.3" font-family="Helvetica,sans-Serif" font-weight="bold" font-size="11.00" fill="#000000">PRODUCTS</text>
<text text-anchor="start" x="393.0437" y="-133.3" font-family="Helvetica,sans-Serif" font-size="11.00" fill="#000000">[table]</text>
<polygon fill="none" stroke="#000000" points="300,-103.2 300,-125.2 428,-125.2 428,-103.2 300,-103.2"/>
<image xlink:href="../../images/primaryKeys.png" width="11px" height="12px" preserveAspectRatio="xMinYMin meet" x="305" y="-120.2"/>
<text text-anchor="start" x="320" y="-110.3" font-family="Helvetica,sans-Serif" font-size="11.00" fill="#000000">PRODUCT_ID</text>
<polygon fill="none" stroke="#000000" points="300,-81.2 300,-103.2 428,-103.2 428,-81.2 300,-81.2"/>
<image xlink:href="../../images/foreignKeys.png" width="11px" height="12px" preserveAspectRatio="xMinYMin meet" x="305" y="-98.2"/>
<text text-anchor="start" x="320" y="-88.3" font-family="Helvetica,sans-Serif" font-size="11.00" fill="#000000">CATEGORY_ID</text>
<polygon fill="none" stroke="#000000" points="300,-62.2 300,-81.2 428,-81.2 428,-62.2 300,-62.2"/>
<text text-anchor="start" x="303" y="-68.3" font-family="Helvetica,sans-Serif" font-size="11.00" fill="#000000">...</text>
<polygon fill="#ffffff" stroke="transparent" points="300,-43.2 300,-62.2 345,-62.2 345,-43.2 300,-43.2"/>
<polygon fill="none" stroke="#000000" points="300,-43.2 300,-62.2 345,-62.2 345,-43.2 300,-43.2"/>
<text text-anchor="start" x="303" y="-49.3" font-family="Helvetica,sans-Serif" font-size="11.00" fill="#000000">&lt; 1</text>
<polygon fill="#ffffff" stroke="transparent" points="345,-43.2 345,-62.2 395,-62.2 395,-43.2 345,-43.2"/>
<polygon fill="none" stroke="#000000" points="345,-43.2 345,-62.2 395,-62.2 395,-43.2 345,-43.2"/>
<text text-anchor="start" x="359.6105" y="-49.3" font-family="Helvetica,sans-Serif" font-size="11.00" fill="#000000">0 rows</text>
<polygon fill="#ffffff" stroke="transparent" points="395,-43.2 395,-62.2 428,-62.2 428,-43.2 395,-43.2"/>
<polygon fill="none" stroke="#000000" points="395,-43.2 395,-62.2 428,-62.2 428,-43.2 395,-43.2"/>
<text text-anchor="start" x="409.4053" y="-49.3" font-family="Helvetica,sans-Serif" font-size="11.00" fill="#000000">2 &gt;</text>
</a>
</g>
</g>
<!-- PRODUCT_CATEGORIES -->
<g id="node2" class="node">
<title>PRODUCT_CATEGORIES</title>
<g id="a_node2"><a xlink:href="../../tables/PRODUCT_CATEGORIES.html" xlink:title="PRODUCT_CATEGORIES" target="_top">
<polygon fill="#ffffff" stroke="transparent" points="8,-38.2 8,-128.2 251,-128.2 251,-38.2 8,-38.2"/>
<polygon fill="#f5f5f5" stroke="transparent" points="10.5,-103.2 10.5,-126.2 249.5,-126.2 249.5,-103.2 10.5,-103.2"/>
<polygon fill="none" stroke="#000000" points="10.5,-103.2 10.5,-126.2 249.5,-126.2 249.5,-103.2 10.5,-103.2"/>
<text text-anchor="start" x="15.5" y="-112.3" font-family="Helvetica,sans-Serif" font-weight="bold" font-size="11.00" fill="#000000">PRODUCT_CATEGORIES</text>
<text text-anchor="start" x="214.5437" y="-111.3" font-family="Helvetica,sans-Serif" font-size="11.00" fill="#000000">[table]</text>
<polygon fill="none" stroke="#000000" points="10.5,-81.2 10.5,-103.2 176.5,-103.2 176.5,-81.2 10.5,-81.2"/>
<image xlink:href="../../images/primaryKeys.png" width="11px" height="12px" preserveAspectRatio="xMinYMin meet" x="15.5" y="-98.2"/>
<text text-anchor="start" x="30.5" y="-88.3" font-family="Helvetica,sans-Serif" font-size="11.00" fill="#000000">CATEGORY_ID</text>
<polygon fill="none" stroke="#000000" points="176.5,-81.2 176.5,-103.2 249.5,-103.2 249.5,-81.2 176.5,-81.2"/>
<text text-anchor="start" x="179.5" y="-88.9" font-family="Helvetica,sans-Serif" font-size="11.00" fill="#000000">number[0]</text>
<polygon fill="none" stroke="#000000" points="10.5,-59.2 10.5,-81.2 176.5,-81.2 176.5,-59.2 10.5,-59.2"/>
<text text-anchor="start" x="30.5" y="-66.3" font-family="Helvetica,sans-Serif" font-size="11.00" fill="#000000">CATEGORY_NAME</text>
<polygon fill="none" stroke="#000000" points="176.5,-59.2 176.5,-81.2 249.5,-81.2 249.5,-59.2 176.5,-59.2"/>
<text text-anchor="start" x="179.3791" y="-66.9" font-family="Helvetica,sans-Serif" font-size="11.00" fill="#000000">varchar2[255]</text>
<polygon fill="#ffffff" stroke="transparent" points="10.5,-40.2 10.5,-59.2 84.5,-59.2 84.5,-40.2 10.5,-40.2"/>
<polygon fill="none" stroke="#000000" points="10.5,-40.2 10.5,-59.2 84.5,-59.2 84.5,-40.2 10.5,-40.2"/>
<text text-anchor="start" x="13.5" y="-46.3" font-family="Helvetica,sans-Serif" font-size="11.00" fill="#000000">&lt; 0</text>
<polygon fill="#ffffff" stroke="transparent" points="84.5,-40.2 84.5,-59.2 176.5,-59.2 176.5,-40.2 84.5,-40.2"/>
<polygon fill="none" stroke="#000000" points="84.5,-40.2 84.5,-59.2 176.5,-59.2 176.5,-40.2 84.5,-40.2"/>
<text text-anchor="start" x="141.1105" y="-46.3" font-family="Helvetica,sans-Serif" font-size="11.00" fill="#000000">0 rows</text>
<polygon fill="#ffffff" stroke="transparent" points="176.5,-40.2 176.5,-59.2 249.5,-59.2 249.5,-40.2 176.5,-40.2"/>
<polygon fill="none" stroke="#000000" points="176.5,-40.2 176.5,-59.2 249.5,-59.2 249.5,-40.2 176.5,-40.2"/>
<text text-anchor="start" x="230.9053" y="-46.3" font-family="Helvetica,sans-Serif" font-size="11.00" fill="#000000">1 &gt;</text>
<polygon fill="none" stroke="#000000" stroke-width="2" points="9,-39.2 9,-127.2 250,-127.2 250,-39.2 9,-39.2"/>
</a>
</g>
</g>
<!-- PRODUCTS&#45;&gt;PRODUCT_CATEGORIES -->
<g id="edge1" class="edge">
<title>PRODUCTS:w&#45;&gt;PRODUCT_CATEGORIES:e</title>
<path fill="none" stroke="#000000" d="M285.4203,-92.2C273.5435,-92.2 266.158,-92.2 249.5,-92.2"/>
<polygon fill="#000000" stroke="#000000" points="292,-92.2001 300,-95.8 296,-92.2 300,-92.2 300,-92.2 300,-92.2 296,-92.2 300,-88.6 292,-92.2001 292,-92.2001"/>
<ellipse fill="none" stroke="#000000" cx="288.8" cy="-92.2001" rx="3.2" ry="3.2"/>
</g>
</g>
</svg>
