<?xml version="1.0" encoding="UTF-8" standalone="no"?>
<!DOCTYPE svg PUBLIC "-//W3C//DTD SVG 1.1//EN"
 "http://www.w3.org/Graphics/SVG/1.1/DTD/svg11.dtd">
<!-- Generated by graphviz version 2.40.1 (20161225.0304)
 -->
<!-- Title: oneDegreeRelationshipsDiagram Pages: 1 -->
<svg width="376pt" height="161pt"
 viewBox="0.00 0.00 376.00 160.70" xmlns="http://www.w3.org/2000/svg" xmlns:xlink="http://www.w3.org/1999/xlink">
<g id="graph0" class="graph" transform="scale(1 1) rotate(0) translate(4 156.7)">
<title>oneDegreeRelationshipsDiagram</title>
<polygon fill="#ffffff" stroke="transparent" points="-4,4 -4,-156.7 372,-156.7 372,4 -4,4"/>
<text text-anchor="middle" x="72.4936" y="-7.3" font-family="Helvetica,sans-Serif" font-size="11.00" fill="#000000">Generated by SchemaSpy</text>
<!-- COUNTRIES -->
<g id="node1" class="node">
<title>COUNTRIES</title>
<g id="a_node1"><a xlink:href="../../tables/COUNTRIES.html" xlink:title="COUNTRIES" target="_top">
<polygon fill="#ffffff" stroke="transparent" points="238,-43.7 238,-148.7 360,-148.7 360,-43.7 238,-43.7"/>
<polygon fill="#f5f5f5" stroke="transparent" points="238,-125.2 238,-148.2 360,-148.2 360,-125.2 238,-125.2"/>
<polygon fill="none" stroke="#000000" points="238,-125.2 238,-148.2 360,-148.2 360,-125.2 238,-125.2"/>
<text text-anchor="start" x="243" y="-134.3" font-family="Helvetica,sans-Serif" font-weight="bold" font-size="11.00" fill="#000000">COUNTRIES</text>
<text text-anchor="start" x="325.0437" y="-133.3" font-family="Helvetica,sans-Serif" font-size="11.00" fill="#000000">[table]</text>
<polygon fill="none" stroke="#000000" points="238,-103.2 238,-125.2 360,-125.2 360,-103.2 238,-103.2"/>
<image xlink:href="../../images/primaryKeys.png" width="11px" height="12px" preserveAspectRatio="xMinYMin meet" x="243" y="-120.2"/>
<text text-anchor="start" x="258" y="-110.3" font-family="Helvetica,sans-Serif" font-size="11.00" fill="#000000">COUNTRY_ID</text>
<polygon fill="none" stroke="#000000" points="238,-81.2 238,-103.2 360,-103.2 360,-81.2 238,-81.2"/>
<image xlink:href="../../images/foreignKeys.png" width="11px" height="12px" preserveAspectRatio="xMinYMin meet" x="243" y="-98.2"/>
<text text-anchor="start" x="258" y="-88.3" font-family="Helvetica,sans-Serif" font-size="11.00" fill="#000000">REGION_ID</text>
<polygon fill="none" stroke="#000000" points="238,-62.2 238,-81.2 360,-81.2 360,-62.2 238,-62.2"/>
<text text-anchor="start" x="241" y="-68.3" font-family="Helvetica,sans-Serif" font-size="11.00" fill="#000000">...</text>
<polygon fill="#ffffff" stroke="transparent" points="238,-43.2 238,-62.2 280,-62.2 280,-43.2 238,-43.2"/>
<polygon fill="none" stroke="#000000" points="238,-43.2 238,-62.2 280,-62.2 280,-43.2 238,-43.2"/>
<text text-anchor="start" x="241" y="-49.3" font-family="Helvetica,sans-Serif" font-size="11.00" fill="#000000">&lt; 1</text>
<polygon fill="#ffffff" stroke="transparent" points="280,-43.2 280,-62.2 328,-62.2 328,-43.2 280,-43.2"/>
<polygon fill="none" stroke="#000000" points="280,-43.2 280,-62.2 328,-62.2 328,-43.2 280,-43.2"/>
<text text-anchor="start" x="292.6105" y="-49.3" font-family="Helvetica,sans-Serif" font-size="11.00" fill="#000000">0 rows</text>
<polygon fill="#ffffff" stroke="transparent" points="328,-43.2 328,-62.2 360,-62.2 360,-43.2 328,-43.2"/>
<polygon fill="none" stroke="#000000" points="328,-43.2 328,-62.2 360,-62.2 360,-43.2 328,-43.2"/>
<text text-anchor="start" x="341.4053" y="-49.3" font-family="Helvetica,sans-Serif" font-size="11.00" fill="#000000">1 &gt;</text>
</a>
</g>
</g>
<!-- REGIONS -->
<g id="node2" class="node">
<title>REGIONS</title>
<g id="a_node2"><a xlink:href="../../tables/REGIONS.html" xlink:title="REGIONS" target="_top">
<polygon fill="#ffffff" stroke="transparent" points="8,-38.2 8,-128.2 189,-128.2 189,-38.2 8,-38.2"/>
<polygon fill="#f5f5f5" stroke="transparent" points="10.5,-103.2 10.5,-126.2 187.5,-126.2 187.5,-103.2 10.5,-103.2"/>
<polygon fill="none" stroke="#000000" points="10.5,-103.2 10.5,-126.2 187.5,-126.2 187.5,-103.2 10.5,-103.2"/>
<text text-anchor="start" x="15.5" y="-112.3" font-family="Helvetica,sans-Serif" font-weight="bold" font-size="11.00" fill="#000000">REGIONS</text>
<text text-anchor="start" x="152.5437" y="-111.3" font-family="Helvetica,sans-Serif" font-size="11.00" fill="#000000">[table]</text>
<polygon fill="none" stroke="#000000" points="10.5,-81.2 10.5,-103.2 120.5,-103.2 120.5,-81.2 10.5,-81.2"/>
<image xlink:href="../../images/primaryKeys.png" width="11px" height="12px" preserveAspectRatio="xMinYMin meet" x="15.5" y="-98.2"/>
<text text-anchor="start" x="30.5" y="-88.3" font-family="Helvetica,sans-Serif" font-size="11.00" fill="#000000">REGION_ID</text>
<polygon fill="none" stroke="#000000" points="120.5,-81.2 120.5,-103.2 187.5,-103.2 187.5,-81.2 120.5,-81.2"/>
<text text-anchor="start" x="123.5" y="-88.9" font-family="Helvetica,sans-Serif" font-size="11.00" fill="#000000">number[0]</text>
<polygon fill="none" stroke="#000000" points="10.5,-59.2 10.5,-81.2 120.5,-81.2 120.5,-59.2 10.5,-59.2"/>
<text text-anchor="start" x="30.5" y="-66.3" font-family="Helvetica,sans-Serif" font-size="11.00" fill="#000000">REGION_NAME</text>
<polygon fill="none" stroke="#000000" points="120.5,-59.2 120.5,-81.2 187.5,-81.2 187.5,-59.2 120.5,-59.2"/>
<text text-anchor="start" x="123.4365" y="-66.9" font-family="Helvetica,sans-Serif" font-size="11.00" fill="#000000">varchar2[50]</text>
<polygon fill="#ffffff" stroke="transparent" points="10.5,-40.2 10.5,-59.2 56.5,-59.2 56.5,-40.2 10.5,-40.2"/>
<polygon fill="none" stroke="#000000" points="10.5,-40.2 10.5,-59.2 56.5,-59.2 56.5,-40.2 10.5,-40.2"/>
<text text-anchor="start" x="13.5" y="-46.3" font-family="Helvetica,sans-Serif" font-size="11.00" fill="#000000">&lt; 0</text>
<polygon fill="#ffffff" stroke="transparent" points="56.5,-40.2 56.5,-59.2 120.5,-59.2 120.5,-40.2 56.5,-40.2"/>
<polygon fill="none" stroke="#000000" points="56.5,-40.2 56.5,-59.2 120.5,-59.2 120.5,-40.2 56.5,-40.2"/>
<text text-anchor="start" x="85.1105" y="-46.3" font-family="Helvetica,sans-Serif" font-size="11.00" fill="#000000">0 rows</text>
<polygon fill="#ffffff" stroke="transparent" points="120.5,-40.2 120.5,-59.2 187.5,-59.2 187.5,-40.2 120.5,-40.2"/>
<polygon fill="none" stroke="#000000" points="120.5,-40.2 120.5,-59.2 187.5,-59.2 187.5,-40.2 120.5,-40.2"/>
<text text-anchor="start" x="168.9053" y="-46.3" font-family="Helvetica,sans-Serif" font-size="11.00" fill="#000000">1 &gt;</text>
<polygon fill="none" stroke="#000000" stroke-width="2" points="9,-39.2 9,-127.2 188,-127.2 188,-39.2 9,-39.2"/>
</a>
</g>
</g>
<!-- COUNTRIES&#45;&gt;REGIONS -->
<g id="edge1" class="edge">
<title>COUNTRIES:w&#45;&gt;REGIONS:e</title>
<path fill="none" stroke="#000000" d="M223.4203,-92.2C211.5435,-92.2 204.158,-92.2 187.5,-92.2"/>
<polygon fill="#000000" stroke="#000000" points="230,-92.2001 238,-95.8 234,-92.2 238,-92.2 238,-92.2 238,-92.2 234,-92.2 238,-88.6 230,-92.2001 230,-92.2001"/>
<ellipse fill="none" stroke="#000000" cx="226.8" cy="-92.2001" rx="3.2" ry="3.2"/>
</g>
</g>
</svg>
