<?xml version="1.0" encoding="UTF-8" standalone="no"?>
<!DOCTYPE svg PUBLIC "-//W3C//DTD SVG 1.1//EN"
 "http://www.w3.org/Graphics/SVG/1.1/DTD/svg11.dtd">
<!-- Generated by graphviz version 2.40.1 (20161225.0304)
 -->
<!-- Title: oneDegreeRelationshipsDiagram Pages: 1 -->
<svg width="571pt" height="221pt"
 viewBox="0.00 0.00 571.00 221.20" xmlns="http://www.w3.org/2000/svg" xmlns:xlink="http://www.w3.org/1999/xlink">
<g id="graph0" class="graph" transform="scale(1 1) rotate(0) translate(4 217.2)">
<title>oneDegreeRelationshipsDiagram</title>
<polygon fill="#ffffff" stroke="transparent" points="-4,4 -4,-217.2 567,-217.2 567,4 -4,4"/>
<text text-anchor="middle" x="72.4936" y="-7.3" font-family="Helvetica,sans-Serif" font-size="11.00" fill="#000000">Generated by SchemaSpy</text>
<!-- INVENTORIES -->
<g id="node1" class="node">
<title>INVENTORIES</title>
<g id="a_node1"><a xlink:href="../../tables/INVENTORIES.html" xlink:title="INVENTORIES" target="_top">
<polygon fill="#ffffff" stroke="transparent" points="436,-104.2 436,-209.2 555,-209.2 555,-104.2 436,-104.2"/>
<polygon fill="#f5f5f5" stroke="transparent" points="436.5,-185.7 436.5,-208.7 555.5,-208.7 555.5,-185.7 436.5,-185.7"/>
<polygon fill="none" stroke="#000000" points="436.5,-185.7 436.5,-208.7 555.5,-208.7 555.5,-185.7 436.5,-185.7"/>
<text text-anchor="start" x="441.5" y="-194.8" font-family="Helvetica,sans-Serif" font-weight="bold" font-size="11.00" fill="#000000">INVENTORIES</text>
<text text-anchor="start" x="520.5437" y="-193.8" font-family="Helvetica,sans-Serif" font-size="11.00" fill="#000000">[table]</text>
<polygon fill="none" stroke="#000000" points="436.5,-163.7 436.5,-185.7 555.5,-185.7 555.5,-163.7 436.5,-163.7"/>
<image xlink:href="../../images/primaryKeys.png" width="11px" height="12px" preserveAspectRatio="xMinYMin meet" x="441.5" y="-180.7"/>
<text text-anchor="start" x="456.5" y="-170.8" font-family="Helvetica,sans-Serif" font-size="11.00" fill="#000000">PRODUCT_ID</text>
<polygon fill="none" stroke="#000000" points="436.5,-141.7 436.5,-163.7 555.5,-163.7 555.5,-141.7 436.5,-141.7"/>
<image xlink:href="../../images/primaryKeys.png" width="11px" height="12px" preserveAspectRatio="xMinYMin meet" x="441.5" y="-158.7"/>
<text text-anchor="start" x="456.5" y="-148.8" font-family="Helvetica,sans-Serif" font-size="11.00" fill="#000000">WAREHOUSE_ID</text>
<polygon fill="none" stroke="#000000" points="436.5,-122.7 436.5,-141.7 555.5,-141.7 555.5,-122.7 436.5,-122.7"/>
<text text-anchor="start" x="439.5" y="-128.8" font-family="Helvetica,sans-Serif" font-size="11.00" fill="#000000">...</text>
<polygon fill="#ffffff" stroke="transparent" points="436.5,-103.7 436.5,-122.7 481.5,-122.7 481.5,-103.7 436.5,-103.7"/>
<polygon fill="none" stroke="#000000" points="436.5,-103.7 436.5,-122.7 481.5,-122.7 481.5,-103.7 436.5,-103.7"/>
<text text-anchor="start" x="439.5" y="-109.8" font-family="Helvetica,sans-Serif" font-size="11.00" fill="#000000">&lt; 2</text>
<polygon fill="#ffffff" stroke="transparent" points="481.5,-103.7 481.5,-122.7 531.5,-122.7 531.5,-103.7 481.5,-103.7"/>
<polygon fill="none" stroke="#000000" points="481.5,-103.7 481.5,-122.7 531.5,-122.7 531.5,-103.7 481.5,-103.7"/>
<text text-anchor="start" x="496.1105" y="-109.8" font-family="Helvetica,sans-Serif" font-size="11.00" fill="#000000">0 rows</text>
<polygon fill="#ffffff" stroke="transparent" points="531.5,-103.7 531.5,-122.7 555.5,-122.7 555.5,-103.7 531.5,-103.7"/>
<polygon fill="none" stroke="#000000" points="531.5,-103.7 531.5,-122.7 555.5,-122.7 555.5,-103.7 531.5,-103.7"/>
<text text-anchor="start" x="546.3862" y="-109.8" font-family="Helvetica,sans-Serif" font-size="11.00" fill="#000000"> &#160;</text>
</a>
</g>
</g>
<!-- WAREHOUSES -->
<g id="node2" class="node">
<title>WAREHOUSES</title>
<g id="a_node2"><a xlink:href="../../tables/WAREHOUSES.html" xlink:title="WAREHOUSES" target="_top">
<polygon fill="#ffffff" stroke="transparent" points="168,-76.7 168,-188.7 387,-188.7 387,-76.7 168,-76.7"/>
<polygon fill="#f5f5f5" stroke="transparent" points="170.5,-163.7 170.5,-186.7 385.5,-186.7 385.5,-163.7 170.5,-163.7"/>
<polygon fill="none" stroke="#000000" points="170.5,-163.7 170.5,-186.7 385.5,-186.7 385.5,-163.7 170.5,-163.7"/>
<text text-anchor="start" x="175.5" y="-172.8" font-family="Helvetica,sans-Serif" font-weight="bold" font-size="11.00" fill="#000000">WAREHOUSES</text>
<text text-anchor="start" x="350.5437" y="-171.8" font-family="Helvetica,sans-Serif" font-size="11.00" fill="#000000">[table]</text>
<polygon fill="none" stroke="#000000" points="170.5,-141.7 170.5,-163.7 312.5,-163.7 312.5,-141.7 170.5,-141.7"/>
<image xlink:href="../../images/primaryKeys.png" width="11px" height="12px" preserveAspectRatio="xMinYMin meet" x="175.5" y="-158.7"/>
<text text-anchor="start" x="190.5" y="-148.8" font-family="Helvetica,sans-Serif" font-size="11.00" fill="#000000">WAREHOUSE_ID</text>
<polygon fill="none" stroke="#000000" points="312.5,-141.7 312.5,-163.7 385.5,-163.7 385.5,-141.7 312.5,-141.7"/>
<text text-anchor="start" x="315.5" y="-149.4" font-family="Helvetica,sans-Serif" font-size="11.00" fill="#000000">number[0]</text>
<polygon fill="none" stroke="#000000" points="170.5,-119.7 170.5,-141.7 312.5,-141.7 312.5,-119.7 170.5,-119.7"/>
<text text-anchor="start" x="190.5" y="-126.8" font-family="Helvetica,sans-Serif" font-size="11.00" fill="#000000">WAREHOUSE_NAME</text>
<polygon fill="none" stroke="#000000" points="312.5,-119.7 312.5,-141.7 385.5,-141.7 385.5,-119.7 312.5,-119.7"/>
<text text-anchor="start" x="315.3791" y="-127.4" font-family="Helvetica,sans-Serif" font-size="11.00" fill="#000000">varchar2[255]</text>
<polygon fill="none" stroke="#000000" points="170.5,-97.7 170.5,-119.7 312.5,-119.7 312.5,-97.7 170.5,-97.7"/>
<image xlink:href="../../images/foreignKeys.png" width="11px" height="12px" preserveAspectRatio="xMinYMin meet" x="175.5" y="-114.7"/>
<text text-anchor="start" x="190.5" y="-104.8" font-family="Helvetica,sans-Serif" font-size="11.00" fill="#000000">LOCATION_ID</text>
<polygon fill="none" stroke="#000000" points="312.5,-97.7 312.5,-119.7 385.5,-119.7 385.5,-97.7 312.5,-97.7"/>
<text text-anchor="start" x="315.5" y="-105.4" font-family="Helvetica,sans-Serif" font-size="11.00" fill="#000000">number[12]</text>
<polygon fill="#ffffff" stroke="transparent" points="170.5,-78.7 170.5,-97.7 232.5,-97.7 232.5,-78.7 170.5,-78.7"/>
<polygon fill="none" stroke="#000000" points="170.5,-78.7 170.5,-97.7 232.5,-97.7 232.5,-78.7 170.5,-78.7"/>
<text text-anchor="start" x="173.5" y="-84.8" font-family="Helvetica,sans-Serif" font-size="11.00" fill="#000000">&lt; 1</text>
<polygon fill="#ffffff" stroke="transparent" points="232.5,-78.7 232.5,-97.7 312.5,-97.7 312.5,-78.7 232.5,-78.7"/>
<polygon fill="none" stroke="#000000" points="232.5,-78.7 232.5,-97.7 312.5,-97.7 312.5,-78.7 232.5,-78.7"/>
<text text-anchor="start" x="277.1105" y="-84.8" font-family="Helvetica,sans-Serif" font-size="11.00" fill="#000000">0 rows</text>
<polygon fill="#ffffff" stroke="transparent" points="312.5,-78.7 312.5,-97.7 385.5,-97.7 385.5,-78.7 312.5,-78.7"/>
<polygon fill="none" stroke="#000000" points="312.5,-78.7 312.5,-97.7 385.5,-97.7 385.5,-78.7 312.5,-78.7"/>
<text text-anchor="start" x="366.9053" y="-84.8" font-family="Helvetica,sans-Serif" font-size="11.00" fill="#000000">1 &gt;</text>
<polygon fill="none" stroke="#000000" stroke-width="2" points="169,-77.7 169,-187.7 386,-187.7 386,-77.7 169,-77.7"/>
</a>
</g>
</g>
<!-- INVENTORIES&#45;&gt;WAREHOUSES -->
<g id="edge1" class="edge">
<title>INVENTORIES:w&#45;&gt;WAREHOUSES:e</title>
<path fill="none" stroke="#000000" d="M421.776,-152.7C409.7815,-152.7 402.3229,-152.7 385.5,-152.7"/>
<polygon fill="#000000" stroke="#000000" points="428.5,-152.7001 436.5,-156.3 432.5,-152.7 436.5,-152.7 436.5,-152.7 436.5,-152.7 432.5,-152.7 436.5,-149.1 428.5,-152.7001 428.5,-152.7001"/>
<ellipse fill="none" stroke="#000000" cx="425.3" cy="-152.7001" rx="3.2" ry="3.2"/>
</g>
<!-- LOCATIONS -->
<g id="node3" class="node">
<title>LOCATIONS</title>
<g id="a_node3"><a xlink:href="../../tables/LOCATIONS.html" xlink:title="LOCATIONS" target="_top">
<polygon fill="#ffffff" stroke="transparent" points="8,-38.2 8,-143.2 119,-143.2 119,-38.2 8,-38.2"/>
<polygon fill="#f5f5f5" stroke="transparent" points="8.5,-119.7 8.5,-142.7 119.5,-142.7 119.5,-119.7 8.5,-119.7"/>
<polygon fill="none" stroke="#000000" points="8.5,-119.7 8.5,-142.7 119.5,-142.7 119.5,-119.7 8.5,-119.7"/>
<text text-anchor="start" x="13.5" y="-128.8" font-family="Helvetica,sans-Serif" font-weight="bold" font-size="11.00" fill="#000000">LOCATIONS</text>
<text text-anchor="start" x="84.5437" y="-127.8" font-family="Helvetica,sans-Serif" font-size="11.00" fill="#000000">[table]</text>
<polygon fill="none" stroke="#000000" points="8.5,-97.7 8.5,-119.7 119.5,-119.7 119.5,-97.7 8.5,-97.7"/>
<image xlink:href="../../images/primaryKeys.png" width="11px" height="12px" preserveAspectRatio="xMinYMin meet" x="13.5" y="-114.7"/>
<text text-anchor="start" x="28.5" y="-104.8" font-family="Helvetica,sans-Serif" font-size="11.00" fill="#000000">LOCATION_ID</text>
<polygon fill="none" stroke="#000000" points="8.5,-75.7 8.5,-97.7 119.5,-97.7 119.5,-75.7 8.5,-75.7"/>
<image xlink:href="../../images/foreignKeys.png" width="11px" height="12px" preserveAspectRatio="xMinYMin meet" x="13.5" y="-92.7"/>
<text text-anchor="start" x="28.5" y="-82.8" font-family="Helvetica,sans-Serif" font-size="11.00" fill="#000000">COUNTRY_ID</text>
<polygon fill="none" stroke="#000000" points="8.5,-56.7 8.5,-75.7 119.5,-75.7 119.5,-56.7 8.5,-56.7"/>
<text text-anchor="start" x="11.5" y="-62.8" font-family="Helvetica,sans-Serif" font-size="11.00" fill="#000000">...</text>
<polygon fill="#ffffff" stroke="transparent" points="8.5,-37.7 8.5,-56.7 44.5,-56.7 44.5,-37.7 8.5,-37.7"/>
<polygon fill="none" stroke="#000000" points="8.5,-37.7 8.5,-56.7 44.5,-56.7 44.5,-37.7 8.5,-37.7"/>
<text text-anchor="start" x="11.5" y="-43.8" font-family="Helvetica,sans-Serif" font-size="11.00" fill="#000000">&lt; 1</text>
<polygon fill="#ffffff" stroke="transparent" points="44.5,-37.7 44.5,-56.7 90.5,-56.7 90.5,-37.7 44.5,-37.7"/>
<polygon fill="none" stroke="#000000" points="44.5,-37.7 44.5,-56.7 90.5,-56.7 90.5,-37.7 44.5,-37.7"/>
<text text-anchor="start" x="55.1105" y="-43.8" font-family="Helvetica,sans-Serif" font-size="11.00" fill="#000000">0 rows</text>
<polygon fill="#ffffff" stroke="transparent" points="90.5,-37.7 90.5,-56.7 119.5,-56.7 119.5,-37.7 90.5,-37.7"/>
<polygon fill="none" stroke="#000000" points="90.5,-37.7 90.5,-56.7 119.5,-56.7 119.5,-37.7 90.5,-37.7"/>
<text text-anchor="start" x="100.9053" y="-43.8" font-family="Helvetica,sans-Serif" font-size="11.00" fill="#000000">1 &gt;</text>
</a>
</g>
</g>
<!-- WAREHOUSES&#45;&gt;LOCATIONS -->
<g id="edge2" class="edge">
<title>WAREHOUSES:w&#45;&gt;LOCATIONS:e</title>
<path fill="none" stroke="#000000" d="M155.776,-108.7C143.7815,-108.7 136.3229,-108.7 119.5,-108.7"/>
<polygon fill="#000000" stroke="#000000" points="162.5,-108.7001 170.5,-112.3 166.5,-108.7 170.5,-108.7 170.5,-108.7 170.5,-108.7 166.5,-108.7 170.5,-105.1 162.5,-108.7001 162.5,-108.7001"/>
<ellipse fill="none" stroke="#000000" cx="159.3" cy="-108.7001" rx="3.2" ry="3.2"/>
</g>
</g>
</svg>
