<?xml version="1.0" encoding="UTF-8" standalone="no"?>
<!DOCTYPE svg PUBLIC "-//W3C//DTD SVG 1.1//EN"
 "http://www.w3.org/Graphics/SVG/1.1/DTD/svg11.dtd">
<!-- Generated by graphviz version 2.40.1 (20161225.0304)
 -->
<!-- Title: twoDegreesRelationshipsDiagram Pages: 1 -->
<svg width="727pt" height="283pt"
 viewBox="0.00 0.00 727.00 283.20" xmlns="http://www.w3.org/2000/svg" xmlns:xlink="http://www.w3.org/1999/xlink">
<g id="graph0" class="graph" transform="scale(1 1) rotate(0) translate(4 279.2)">
<title>twoDegreesRelationshipsDiagram</title>
<polygon fill="#ffffff" stroke="transparent" points="-4,4 -4,-279.2 723,-279.2 723,4 -4,4"/>
<text text-anchor="middle" x="72.4936" y="-7.3" font-family="Helvetica,sans-Serif" font-size="11.00" fill="#000000">Generated by SchemaSpy</text>
<!-- INVENTORIES -->
<g id="node1" class="node">
<title>INVENTORIES</title>
<g id="a_node1"><a xlink:href="../../tables/INVENTORIES.html" xlink:title="INVENTORIES" target="_top">
<polygon fill="#ffffff" stroke="transparent" points="592,-135.2 592,-240.2 711,-240.2 711,-135.2 592,-135.2"/>
<polygon fill="#f5f5f5" stroke="transparent" points="592.5,-216.7 592.5,-239.7 711.5,-239.7 711.5,-216.7 592.5,-216.7"/>
<polygon fill="none" stroke="#000000" points="592.5,-216.7 592.5,-239.7 711.5,-239.7 711.5,-216.7 592.5,-216.7"/>
<text text-anchor="start" x="597.5" y="-225.8" font-family="Helvetica,sans-Serif" font-weight="bold" font-size="11.00" fill="#000000">INVENTORIES</text>
<text text-anchor="start" x="676.5437" y="-224.8" font-family="Helvetica,sans-Serif" font-size="11.00" fill="#000000">[table]</text>
<polygon fill="none" stroke="#000000" points="592.5,-194.7 592.5,-216.7 711.5,-216.7 711.5,-194.7 592.5,-194.7"/>
<image xlink:href="../../images/primaryKeys.png" width="11px" height="12px" preserveAspectRatio="xMinYMin meet" x="597.5" y="-211.7"/>
<text text-anchor="start" x="612.5" y="-201.8" font-family="Helvetica,sans-Serif" font-size="11.00" fill="#000000">PRODUCT_ID</text>
<polygon fill="none" stroke="#000000" points="592.5,-172.7 592.5,-194.7 711.5,-194.7 711.5,-172.7 592.5,-172.7"/>
<image xlink:href="../../images/primaryKeys.png" width="11px" height="12px" preserveAspectRatio="xMinYMin meet" x="597.5" y="-189.7"/>
<text text-anchor="start" x="612.5" y="-179.8" font-family="Helvetica,sans-Serif" font-size="11.00" fill="#000000">WAREHOUSE_ID</text>
<polygon fill="none" stroke="#000000" points="592.5,-153.7 592.5,-172.7 711.5,-172.7 711.5,-153.7 592.5,-153.7"/>
<text text-anchor="start" x="595.5" y="-159.8" font-family="Helvetica,sans-Serif" font-size="11.00" fill="#000000">...</text>
<polygon fill="#ffffff" stroke="transparent" points="592.5,-134.7 592.5,-153.7 637.5,-153.7 637.5,-134.7 592.5,-134.7"/>
<polygon fill="none" stroke="#000000" points="592.5,-134.7 592.5,-153.7 637.5,-153.7 637.5,-134.7 592.5,-134.7"/>
<text text-anchor="start" x="595.5" y="-140.8" font-family="Helvetica,sans-Serif" font-size="11.00" fill="#000000">&lt; 2</text>
<polygon fill="#ffffff" stroke="transparent" points="637.5,-134.7 637.5,-153.7 687.5,-153.7 687.5,-134.7 637.5,-134.7"/>
<polygon fill="none" stroke="#000000" points="637.5,-134.7 637.5,-153.7 687.5,-153.7 687.5,-134.7 637.5,-134.7"/>
<text text-anchor="start" x="652.1105" y="-140.8" font-family="Helvetica,sans-Serif" font-size="11.00" fill="#000000">0 rows</text>
<polygon fill="#ffffff" stroke="transparent" points="687.5,-134.7 687.5,-153.7 711.5,-153.7 711.5,-134.7 687.5,-134.7"/>
<polygon fill="none" stroke="#000000" points="687.5,-134.7 687.5,-153.7 711.5,-153.7 711.5,-134.7 687.5,-134.7"/>
<text text-anchor="start" x="702.3862" y="-140.8" font-family="Helvetica,sans-Serif" font-size="11.00" fill="#000000"> &#160;</text>
</a>
</g>
</g>
<!-- PRODUCTS -->
<g id="node2" class="node">
<title>PRODUCTS</title>
<g id="a_node2"><a xlink:href="../../tables/PRODUCTS.html" xlink:title="PRODUCTS" target="_top">
<polygon fill="#ffffff" stroke="transparent" points="381.5,-210.2 381.5,-271.2 485.5,-271.2 485.5,-210.2 381.5,-210.2"/>
<polygon fill="#f5f5f5" stroke="transparent" points="381.5,-247.7 381.5,-270.7 485.5,-270.7 485.5,-247.7 381.5,-247.7"/>
<polygon fill="none" stroke="#000000" points="381.5,-247.7 381.5,-270.7 485.5,-270.7 485.5,-247.7 381.5,-247.7"/>
<text text-anchor="start" x="386.1439" y="-256.8" font-family="Helvetica,sans-Serif" font-weight="bold" font-size="11.00" fill="#000000">PRODUCTS</text>
<text text-anchor="start" x="451.0219" y="-255.8" font-family="Helvetica,sans-Serif" font-size="11.00" fill="#000000">[table]</text>
<polygon fill="none" stroke="#000000" points="381.5,-228.7 381.5,-247.7 485.5,-247.7 485.5,-228.7 381.5,-228.7"/>
<text text-anchor="start" x="384.5" y="-234.8" font-family="Helvetica,sans-Serif" font-size="11.00" fill="#000000">...</text>
<polygon fill="#ffffff" stroke="transparent" points="381.5,-209.7 381.5,-228.7 414.5,-228.7 414.5,-209.7 381.5,-209.7"/>
<polygon fill="none" stroke="#000000" points="381.5,-209.7 381.5,-228.7 414.5,-228.7 414.5,-209.7 381.5,-209.7"/>
<text text-anchor="start" x="384.5" y="-215.8" font-family="Helvetica,sans-Serif" font-size="11.00" fill="#000000">&lt; 1</text>
<polygon fill="#ffffff" stroke="transparent" points="414.5,-209.7 414.5,-228.7 458.5,-228.7 458.5,-209.7 414.5,-209.7"/>
<polygon fill="none" stroke="#000000" points="414.5,-209.7 414.5,-228.7 458.5,-228.7 458.5,-209.7 414.5,-209.7"/>
<text text-anchor="start" x="423.1105" y="-215.8" font-family="Helvetica,sans-Serif" font-size="11.00" fill="#000000">0 rows</text>
<polygon fill="#ffffff" stroke="transparent" points="458.5,-209.7 458.5,-228.7 485.5,-228.7 485.5,-209.7 458.5,-209.7"/>
<polygon fill="none" stroke="#000000" points="458.5,-209.7 458.5,-228.7 485.5,-228.7 485.5,-209.7 458.5,-209.7"/>
<text text-anchor="start" x="466.9053" y="-215.8" font-family="Helvetica,sans-Serif" font-size="11.00" fill="#000000">2 &gt;</text>
</a>
</g>
</g>
<!-- INVENTORIES&#45;&gt;PRODUCTS -->
<g id="edge1" class="edge">
<title>INVENTORIES:w&#45;&gt;PRODUCTS:e</title>
<path fill="none" stroke="#000000" d="M578.0949,-206.6928C540.7673,-212.094 529.9016,-237.7 485.5,-237.7"/>
<polygon fill="#000000" stroke="#000000" points="584.5189,-206.2501 592.7475,-209.2915 588.5095,-205.975 592.5,-205.7 592.5,-205.7 592.5,-205.7 588.5095,-205.975 592.2525,-202.1085 584.5189,-206.2501 584.5189,-206.2501"/>
<ellipse fill="none" stroke="#000000" cx="581.3265" cy="-206.4701" rx="3.2" ry="3.2"/>
</g>
<!-- WAREHOUSES -->
<g id="node3" class="node">
<title>WAREHOUSES</title>
<g id="a_node3"><a xlink:href="../../tables/WAREHOUSES.html" xlink:title="WAREHOUSES" target="_top">
<polygon fill="#ffffff" stroke="transparent" points="324,-76.7 324,-188.7 543,-188.7 543,-76.7 324,-76.7"/>
<polygon fill="#f5f5f5" stroke="transparent" points="326.5,-163.7 326.5,-186.7 541.5,-186.7 541.5,-163.7 326.5,-163.7"/>
<polygon fill="none" stroke="#000000" points="326.5,-163.7 326.5,-186.7 541.5,-186.7 541.5,-163.7 326.5,-163.7"/>
<text text-anchor="start" x="331.5" y="-172.8" font-family="Helvetica,sans-Serif" font-weight="bold" font-size="11.00" fill="#000000">WAREHOUSES</text>
<text text-anchor="start" x="506.5437" y="-171.8" font-family="Helvetica,sans-Serif" font-size="11.00" fill="#000000">[table]</text>
<polygon fill="none" stroke="#000000" points="326.5,-141.7 326.5,-163.7 468.5,-163.7 468.5,-141.7 326.5,-141.7"/>
<image xlink:href="../../images/primaryKeys.png" width="11px" height="12px" preserveAspectRatio="xMinYMin meet" x="331.5" y="-158.7"/>
<text text-anchor="start" x="346.5" y="-148.8" font-family="Helvetica,sans-Serif" font-size="11.00" fill="#000000">WAREHOUSE_ID</text>
<polygon fill="none" stroke="#000000" points="468.5,-141.7 468.5,-163.7 541.5,-163.7 541.5,-141.7 468.5,-141.7"/>
<text text-anchor="start" x="471.5" y="-149.4" font-family="Helvetica,sans-Serif" font-size="11.00" fill="#000000">number[0]</text>
<polygon fill="none" stroke="#000000" points="326.5,-119.7 326.5,-141.7 468.5,-141.7 468.5,-119.7 326.5,-119.7"/>
<text text-anchor="start" x="346.5" y="-126.8" font-family="Helvetica,sans-Serif" font-size="11.00" fill="#000000">WAREHOUSE_NAME</text>
<polygon fill="none" stroke="#000000" points="468.5,-119.7 468.5,-141.7 541.5,-141.7 541.5,-119.7 468.5,-119.7"/>
<text text-anchor="start" x="471.3791" y="-127.4" font-family="Helvetica,sans-Serif" font-size="11.00" fill="#000000">varchar2[255]</text>
<polygon fill="none" stroke="#000000" points="326.5,-97.7 326.5,-119.7 468.5,-119.7 468.5,-97.7 326.5,-97.7"/>
<image xlink:href="../../images/foreignKeys.png" width="11px" height="12px" preserveAspectRatio="xMinYMin meet" x="331.5" y="-114.7"/>
<text text-anchor="start" x="346.5" y="-104.8" font-family="Helvetica,sans-Serif" font-size="11.00" fill="#000000">LOCATION_ID</text>
<polygon fill="none" stroke="#000000" points="468.5,-97.7 468.5,-119.7 541.5,-119.7 541.5,-97.7 468.5,-97.7"/>
<text text-anchor="start" x="471.5" y="-105.4" font-family="Helvetica,sans-Serif" font-size="11.00" fill="#000000">number[12]</text>
<polygon fill="#ffffff" stroke="transparent" points="326.5,-78.7 326.5,-97.7 388.5,-97.7 388.5,-78.7 326.5,-78.7"/>
<polygon fill="none" stroke="#000000" points="326.5,-78.7 326.5,-97.7 388.5,-97.7 388.5,-78.7 326.5,-78.7"/>
<text text-anchor="start" x="329.5" y="-84.8" font-family="Helvetica,sans-Serif" font-size="11.00" fill="#000000">&lt; 1</text>
<polygon fill="#ffffff" stroke="transparent" points="388.5,-78.7 388.5,-97.7 468.5,-97.7 468.5,-78.7 388.5,-78.7"/>
<polygon fill="none" stroke="#000000" points="388.5,-78.7 388.5,-97.7 468.5,-97.7 468.5,-78.7 388.5,-78.7"/>
<text text-anchor="start" x="433.1105" y="-84.8" font-family="Helvetica,sans-Serif" font-size="11.00" fill="#000000">0 rows</text>
<polygon fill="#ffffff" stroke="transparent" points="468.5,-78.7 468.5,-97.7 541.5,-97.7 541.5,-78.7 468.5,-78.7"/>
<polygon fill="none" stroke="#000000" points="468.5,-78.7 468.5,-97.7 541.5,-97.7 541.5,-78.7 468.5,-78.7"/>
<text text-anchor="start" x="522.9053" y="-84.8" font-family="Helvetica,sans-Serif" font-size="11.00" fill="#000000">1 &gt;</text>
<polygon fill="none" stroke="#000000" stroke-width="2" points="325,-77.7 325,-187.7 542,-187.7 542,-77.7 325,-77.7"/>
</a>
</g>
</g>
<!-- INVENTORIES&#45;&gt;WAREHOUSES -->
<g id="edge2" class="edge">
<title>INVENTORIES:w&#45;&gt;WAREHOUSES:e</title>
<path fill="none" stroke="#000000" d="M578.5967,-179.8988C565.5044,-171.6209 562.2231,-152.7 541.5,-152.7"/>
<polygon fill="#000000" stroke="#000000" points="584.7832,-181.5902 591.5506,-187.1726 588.6416,-182.6451 592.5,-183.7 592.5,-183.7 592.5,-183.7 588.6416,-182.6451 593.4494,-180.2274 584.7832,-181.5902 584.7832,-181.5902"/>
<ellipse fill="none" stroke="#000000" cx="581.6965" cy="-180.7462" rx="3.2" ry="3.2"/>
</g>
<!-- LOCATIONS -->
<g id="node4" class="node">
<title>LOCATIONS</title>
<g id="a_node4"><a xlink:href="../../tables/LOCATIONS.html" xlink:title="LOCATIONS" target="_top">
<polygon fill="#ffffff" stroke="transparent" points="164,-38.2 164,-143.2 275,-143.2 275,-38.2 164,-38.2"/>
<polygon fill="#f5f5f5" stroke="transparent" points="164.5,-119.7 164.5,-142.7 275.5,-142.7 275.5,-119.7 164.5,-119.7"/>
<polygon fill="none" stroke="#000000" points="164.5,-119.7 164.5,-142.7 275.5,-142.7 275.5,-119.7 164.5,-119.7"/>
<text text-anchor="start" x="169.5" y="-128.8" font-family="Helvetica,sans-Serif" font-weight="bold" font-size="11.00" fill="#000000">LOCATIONS</text>
<text text-anchor="start" x="240.5437" y="-127.8" font-family="Helvetica,sans-Serif" font-size="11.00" fill="#000000">[table]</text>
<polygon fill="none" stroke="#000000" points="164.5,-97.7 164.5,-119.7 275.5,-119.7 275.5,-97.7 164.5,-97.7"/>
<image xlink:href="../../images/primaryKeys.png" width="11px" height="12px" preserveAspectRatio="xMinYMin meet" x="169.5" y="-114.7"/>
<text text-anchor="start" x="184.5" y="-104.8" font-family="Helvetica,sans-Serif" font-size="11.00" fill="#000000">LOCATION_ID</text>
<polygon fill="none" stroke="#000000" points="164.5,-75.7 164.5,-97.7 275.5,-97.7 275.5,-75.7 164.5,-75.7"/>
<image xlink:href="../../images/foreignKeys.png" width="11px" height="12px" preserveAspectRatio="xMinYMin meet" x="169.5" y="-92.7"/>
<text text-anchor="start" x="184.5" y="-82.8" font-family="Helvetica,sans-Serif" font-size="11.00" fill="#000000">COUNTRY_ID</text>
<polygon fill="none" stroke="#000000" points="164.5,-56.7 164.5,-75.7 275.5,-75.7 275.5,-56.7 164.5,-56.7"/>
<text text-anchor="start" x="167.5" y="-62.8" font-family="Helvetica,sans-Serif" font-size="11.00" fill="#000000">...</text>
<polygon fill="#ffffff" stroke="transparent" points="164.5,-37.7 164.5,-56.7 200.5,-56.7 200.5,-37.7 164.5,-37.7"/>
<polygon fill="none" stroke="#000000" points="164.5,-37.7 164.5,-56.7 200.5,-56.7 200.5,-37.7 164.5,-37.7"/>
<text text-anchor="start" x="167.5" y="-43.8" font-family="Helvetica,sans-Serif" font-size="11.00" fill="#000000">&lt; 1</text>
<polygon fill="#ffffff" stroke="transparent" points="200.5,-37.7 200.5,-56.7 246.5,-56.7 246.5,-37.7 200.5,-37.7"/>
<polygon fill="none" stroke="#000000" points="200.5,-37.7 200.5,-56.7 246.5,-56.7 246.5,-37.7 200.5,-37.7"/>
<text text-anchor="start" x="211.1105" y="-43.8" font-family="Helvetica,sans-Serif" font-size="11.00" fill="#000000">0 rows</text>
<polygon fill="#ffffff" stroke="transparent" points="246.5,-37.7 246.5,-56.7 275.5,-56.7 275.5,-37.7 246.5,-37.7"/>
<polygon fill="none" stroke="#000000" points="246.5,-37.7 246.5,-56.7 275.5,-56.7 275.5,-37.7 246.5,-37.7"/>
<text text-anchor="start" x="256.9053" y="-43.8" font-family="Helvetica,sans-Serif" font-size="11.00" fill="#000000">1 &gt;</text>
</a>
</g>
</g>
<!-- WAREHOUSES&#45;&gt;LOCATIONS -->
<g id="edge4" class="edge">
<title>WAREHOUSES:w&#45;&gt;LOCATIONS:e</title>
<path fill="none" stroke="#000000" d="M311.776,-108.7C299.7815,-108.7 292.3229,-108.7 275.5,-108.7"/>
<polygon fill="#000000" stroke="#000000" points="318.5,-108.7001 326.5,-112.3 322.5,-108.7 326.5,-108.7 326.5,-108.7 326.5,-108.7 322.5,-108.7 326.5,-105.1 318.5,-108.7001 318.5,-108.7001"/>
<ellipse fill="none" stroke="#000000" cx="315.3" cy="-108.7001" rx="3.2" ry="3.2"/>
</g>
<!-- COUNTRIES -->
<g id="node5" class="node">
<title>COUNTRIES</title>
<g id="a_node5"><a xlink:href="../../tables/COUNTRIES.html" xlink:title="COUNTRIES" target="_top">
<polygon fill="#ffffff" stroke="transparent" points="8,-59.2 8,-120.2 115,-120.2 115,-59.2 8,-59.2"/>
<polygon fill="#f5f5f5" stroke="transparent" points="8.5,-96.7 8.5,-119.7 115.5,-119.7 115.5,-96.7 8.5,-96.7"/>
<polygon fill="none" stroke="#000000" points="8.5,-96.7 8.5,-119.7 115.5,-119.7 115.5,-96.7 8.5,-96.7"/>
<text text-anchor="start" x="13.1155" y="-105.8" font-family="Helvetica,sans-Serif" font-weight="bold" font-size="11.00" fill="#000000">COUNTRIES</text>
<text text-anchor="start" x="81.0219" y="-104.8" font-family="Helvetica,sans-Serif" font-size="11.00" fill="#000000">[table]</text>
<polygon fill="none" stroke="#000000" points="8.5,-77.7 8.5,-96.7 115.5,-96.7 115.5,-77.7 8.5,-77.7"/>
<text text-anchor="start" x="11.5" y="-83.8" font-family="Helvetica,sans-Serif" font-size="11.00" fill="#000000">...</text>
<polygon fill="#ffffff" stroke="transparent" points="8.5,-58.7 8.5,-77.7 42.5,-77.7 42.5,-58.7 8.5,-58.7"/>
<polygon fill="none" stroke="#000000" points="8.5,-58.7 8.5,-77.7 42.5,-77.7 42.5,-58.7 8.5,-58.7"/>
<text text-anchor="start" x="11.5" y="-64.8" font-family="Helvetica,sans-Serif" font-size="11.00" fill="#000000">&lt; 1</text>
<polygon fill="#ffffff" stroke="transparent" points="42.5,-58.7 42.5,-77.7 87.5,-77.7 87.5,-58.7 42.5,-58.7"/>
<polygon fill="none" stroke="#000000" points="42.5,-58.7 42.5,-77.7 87.5,-77.7 87.5,-58.7 42.5,-58.7"/>
<text text-anchor="start" x="52.1105" y="-64.8" font-family="Helvetica,sans-Serif" font-size="11.00" fill="#000000">0 rows</text>
<polygon fill="#ffffff" stroke="transparent" points="87.5,-58.7 87.5,-77.7 115.5,-77.7 115.5,-58.7 87.5,-58.7"/>
<polygon fill="none" stroke="#000000" points="87.5,-58.7 87.5,-77.7 115.5,-77.7 115.5,-58.7 87.5,-58.7"/>
<text text-anchor="start" x="96.9053" y="-64.8" font-family="Helvetica,sans-Serif" font-size="11.00" fill="#000000">1 &gt;</text>
</a>
</g>
</g>
<!-- LOCATIONS&#45;&gt;COUNTRIES -->
<g id="edge3" class="edge">
<title>LOCATIONS:w&#45;&gt;COUNTRIES:e</title>
<path fill="none" stroke="#000000" d="M149.9909,-86.7C138.6774,-86.7 131.4931,-86.7 115.5,-86.7"/>
<polygon fill="#000000" stroke="#000000" points="156.5,-86.7001 164.5,-90.3 160.5,-86.7 164.5,-86.7 164.5,-86.7 164.5,-86.7 160.5,-86.7 164.5,-83.1 156.5,-86.7001 156.5,-86.7001"/>
<ellipse fill="none" stroke="#000000" cx="153.3" cy="-86.7001" rx="3.2" ry="3.2"/>
</g>
</g>
</svg>
